<svg width="24" height="24" viewBox="0 0 24 24" fill="none" xmlns="http://www.w3.org/2000/svg">
<g clip-path="url(#clip0_934_15)">
<rect width="24" height="24" fill="white"/>
<circle cx="12" cy="12" r="12" fill="#02AFFF"/>
<path fill-rule="evenodd" clip-rule="evenodd" d="M20.4844 3.514C19.3826 2.4123 18.0995 1.54709 16.6709 0.942793C15.1919 0.317234 13.6213 0 12.0029 0C10.3845 0 8.81125 0.317234 7.33116 0.942793C5.90167 1.54709 4.61824 2.4123 3.51593 3.514C1.24865 5.78061 0 8.79433 0 12C0 15.2057 1.24865 18.2194 3.51622 20.486C4.61853 21.5877 5.90225 22.4529 7.33145 23.0572C8.81125 23.6828 10.3831 24 12.0032 24C13.6233 24 15.1922 23.6828 16.6711 23.0572C18.0998 22.4529 19.3826 21.5877 20.4846 20.486C22.7516 18.2191 24 15.2057 24 12C24 8.79433 22.7516 5.7809 20.4846 3.514H20.4844ZM12.0032 23.3003C5.77057 23.3003 0.700081 18.2309 0.700081 12C0.700081 10.1348 1.15492 8.37394 1.9585 6.82196C1.96224 6.82685 1.96397 6.83145 1.96828 6.84352C1.96406 6.86056 1.96195 6.87762 1.96195 6.89466C1.94068 6.91593 1.92151 6.93939 1.90445 6.96506C1.89602 6.99916 1.88327 7.03968 1.86621 7.08661C1.87465 7.09945 1.88107 7.11439 1.88548 7.13144C1.93244 7.07167 1.9815 7.012 2.03268 6.95242C2.05396 6.93959 2.07744 6.92675 2.10312 6.91391C2.1244 6.86698 2.14787 6.81583 2.17356 6.76047V6.68375C2.19062 6.66248 2.20768 6.63902 2.22474 6.61335C2.23317 6.59208 2.24381 6.57073 2.25665 6.54927C2.24381 6.52801 2.22886 6.50885 2.2118 6.4918C2.18631 6.50463 2.16072 6.51527 2.13503 6.5237C2.11376 6.57484 2.09248 6.62388 2.07121 6.67082C2.04849 6.68202 2.04591 6.68346 2.03239 6.68346C2.12123 6.51737 2.21438 6.35358 2.31128 6.19267C2.31214 6.1941 2.31329 6.19554 2.31444 6.19727C2.32728 6.18865 2.34223 6.17581 2.35929 6.15876C2.35929 6.16738 2.3614 6.17801 2.36561 6.19066C2.36561 6.20771 2.36772 6.22265 2.37194 6.23548C2.3591 6.25253 2.34635 6.26537 2.3337 6.27399C2.32086 6.29525 2.30811 6.31441 2.29546 6.33146C2.3039 6.35272 2.31243 6.3783 2.32105 6.40818C2.31683 6.42523 2.31262 6.44439 2.3084 6.46565C2.33389 6.46144 2.35948 6.45502 2.38516 6.4464C2.38938 6.47628 2.3958 6.50186 2.40443 6.52312C2.39599 6.54879 2.38536 6.58078 2.37251 6.61909C2.34261 6.62771 2.31281 6.64055 2.2831 6.6576C2.27467 6.68327 2.26192 6.71316 2.24486 6.74725C2.24908 6.77714 2.25329 6.8006 2.25751 6.81765C2.23624 6.84332 2.21707 6.86248 2.20001 6.87512C2.19579 6.89217 2.18937 6.90922 2.18075 6.92627C2.20624 6.92206 2.23183 6.91775 2.25751 6.91334C2.25329 6.93039 2.25119 6.94323 2.25119 6.95185C2.19579 7.02004 2.1382 7.09044 2.07839 7.16305C2.07418 7.18431 2.06996 7.20989 2.06574 7.23977C2.09124 7.22694 2.11472 7.2141 2.13618 7.20126C2.15324 7.18421 2.16819 7.16717 2.18103 7.15012C2.19388 7.13307 2.20662 7.11391 2.21927 7.09265C2.22771 7.07981 2.23834 7.06487 2.25119 7.04782C2.26403 7.04782 2.27898 7.04351 2.29604 7.03489C2.30888 7.04351 2.31952 7.04562 2.32795 7.04121C2.34501 7.03259 2.36207 7.02407 2.37913 7.01564C2.39197 6.99859 2.40472 6.98154 2.41737 6.96449C2.43021 6.95587 2.44085 6.94524 2.44928 6.93259H2.49413C2.50256 6.91976 2.50898 6.91123 2.51339 6.90702C2.52183 6.89418 2.53036 6.87713 2.53898 6.85587C2.53055 6.85166 2.51991 6.84735 2.50707 6.84294C2.51128 6.82589 2.51339 6.81095 2.51339 6.79812C2.52624 6.78949 2.54329 6.77666 2.56457 6.75961C2.57741 6.75099 2.59236 6.74457 2.60942 6.74036C2.62226 6.71909 2.6329 6.69994 2.64133 6.68289C2.64977 6.63595 2.65619 6.59333 2.6606 6.55502C2.64354 6.5508 2.62226 6.5508 2.59677 6.55502C2.59255 6.54218 2.58613 6.52935 2.57751 6.51651C2.58594 6.48663 2.59447 6.45895 2.6031 6.43347C2.59025 6.41642 2.57751 6.40148 2.56486 6.38864C2.57329 6.36738 2.58182 6.34822 2.59045 6.33117C2.5776 6.32696 2.56697 6.32054 2.55853 6.31192C2.55431 6.3033 2.55431 6.29267 2.55853 6.28002C2.56697 6.25876 2.57971 6.23529 2.59677 6.20962V6.17112H2.55192C2.55192 6.1625 2.54981 6.15187 2.54559 6.13922C2.54981 6.12639 2.55403 6.11144 2.55824 6.09439C2.5753 6.08156 2.59447 6.06662 2.61575 6.04957C2.61996 6.03673 2.62638 6.01968 2.63501 5.99842C2.63079 5.98558 2.62868 5.97064 2.62868 5.9536C2.61584 5.96222 2.6052 5.96863 2.59677 5.97285C2.57971 5.98147 2.56054 5.9921 2.53927 6.00474C2.54349 5.98769 2.54991 5.97064 2.55853 5.9536C2.56275 5.93655 2.56697 5.91739 2.57118 5.89613C2.55412 5.90034 2.53706 5.90675 2.52001 5.91538C2.50716 5.93242 2.49221 5.94947 2.47515 5.96652C2.4581 5.99641 2.44104 6.02409 2.42398 6.04957C2.40692 6.06662 2.39197 6.08367 2.37913 6.10072C2.39091 6.07141 2.39178 6.06882 2.39695 6.05359C4.39254 2.84217 7.95275 0.698834 12.0049 0.698834C15.0395 0.698834 17.7985 1.90225 19.83 3.85709C19.8058 3.84474 19.7837 3.83353 19.7374 3.81025C19.6778 3.78458 19.6181 3.75901 19.5583 3.73353C19.5412 3.74215 19.5242 3.75068 19.5071 3.75911C19.4517 3.72079 19.3984 3.68027 19.3473 3.63756C19.2877 3.58219 19.2301 3.52884 19.1745 3.4775C19.1233 3.4434 19.0742 3.4093 19.0273 3.37521C19.0273 3.37521 18.8611 3.31774 18.8289 3.30481C18.784 3.28555 18.669 3.25998 18.6371 3.24734C18.6052 3.23441 18.4453 3.15136 18.4453 3.15136C18.3643 3.09159 18.2854 3.03192 18.2087 2.97234C18.1533 2.9553 18.0979 2.93614 18.0426 2.91487C17.9829 2.90625 17.9232 2.89773 17.8634 2.8893C17.8293 2.85942 17.7995 2.83173 17.774 2.80626C17.7186 2.78921 17.661 2.77216 17.6012 2.75511C17.5288 2.71239 17.4541 2.66977 17.3773 2.62724C17.3347 2.64007 17.2964 2.65501 17.2623 2.67206C17.3006 2.71038 17.3326 2.74668 17.3583 2.78097C17.337 2.78959 17.3157 2.79811 17.2945 2.80654C17.1879 2.76823 17.0834 2.73202 16.9811 2.69792C16.9811 2.69792 16.9106 2.70425 16.8661 2.69792C16.8212 2.6916 16.7574 2.65942 16.7574 2.65942C16.7574 2.65942 16.6936 2.59534 16.668 2.5827C16.6361 2.56344 16.5849 2.60195 16.5849 2.60195C16.5765 2.62321 16.5658 2.64237 16.553 2.65942C16.553 2.65942 16.438 2.64017 16.3612 2.61459C16.2908 2.58902 16.2014 2.56344 16.2014 2.56344C16.1417 2.52513 16.0863 2.49103 16.0352 2.46115C16.048 2.4441 16.0587 2.42705 16.0671 2.41C16.0841 2.39716 16.1076 2.38653 16.1375 2.3781C16.1247 2.35684 16.114 2.33337 16.1056 2.3077C16.0502 2.28644 15.9884 2.26297 15.9202 2.2373C15.9202 2.2373 15.6962 2.1988 15.658 2.19248C15.6131 2.18616 15.5685 2.23098 15.5685 2.23098C15.5515 2.25225 15.5365 2.27782 15.5237 2.3077C15.4767 2.29908 15.4341 2.29056 15.3958 2.28213C15.3191 2.24382 15.2444 2.20541 15.1718 2.1669C15.0865 2.14123 14.9991 2.11777 14.9096 2.0965C14.7817 2.07945 14.656 2.06451 14.5324 2.05168C14.4216 2.03884 14.315 2.02601 14.2127 2.01317C14.2127 2.01317 14.0399 2.03242 14.0272 2.03874C14.008 2.04507 13.8418 2.09621 13.8418 2.09621C13.7948 2.10484 13.7501 2.11547 13.7075 2.12811C13.682 2.10244 13.6607 2.07897 13.6437 2.05771C13.6906 2.03645 13.7354 2.01509 13.7779 1.99363C13.8504 1.98501 13.9229 1.97438 13.9953 1.96174C14.0252 1.94469 14.055 1.92764 14.0847 1.91059C14.1401 1.88932 14.1913 1.86586 14.2382 1.84019C14.2595 1.81452 14.2766 1.78684 14.2894 1.75714C14.2511 1.73147 14.2149 1.70379 14.1807 1.6741C14.1254 1.65283 14.0721 1.63368 14.0209 1.61663C13.9569 1.59958 13.8951 1.58253 13.8354 1.56548C13.7843 1.5741 13.7331 1.58262 13.6819 1.59105C13.6095 1.59105 13.5391 1.58895 13.4709 1.58473C13.4113 1.54642 13.3559 1.51021 13.3047 1.47611C13.2493 1.45044 13.1981 1.42698 13.1512 1.40571C13.0701 1.41434 12.9933 1.42075 12.9209 1.42497C12.9038 1.45907 12.8911 1.49106 12.8826 1.52094C12.8955 1.55082 12.9061 1.58071 12.9146 1.6106C12.8933 1.62343 12.872 1.63406 12.8507 1.64249C12.7825 1.62966 12.7143 1.61902 12.646 1.6106C12.5991 1.60638 12.55 1.60427 12.4988 1.60427L12.3965 1.64278C12.3539 1.62573 12.3156 1.60657 12.2815 1.58531C12.2175 1.58952 12.1577 1.59163 12.1024 1.59163C12.064 1.61289 12.0235 1.63205 11.9807 1.6491C11.9382 1.65331 11.8976 1.65542 11.8591 1.65542C11.7867 1.65964 11.7163 1.66394 11.6481 1.66835C11.5927 1.68119 11.5415 1.69402 11.4946 1.70686C11.4476 1.71969 11.4007 1.73463 11.354 1.75168C11.354 1.77295 11.3561 1.79431 11.3603 1.81576C11.3986 1.82438 11.4392 1.83291 11.4819 1.84134C11.5032 1.8626 11.5224 1.88607 11.5394 1.91174C11.5095 1.92036 11.4797 1.93099 11.45 1.94363C11.3818 1.93942 11.3093 1.93731 11.2326 1.93731C11.2326 1.93731 11.0921 1.91174 11.0728 1.91174C11.0409 1.91174 10.9129 1.95656 10.9129 1.95656C10.8959 1.99488 10.8767 2.03539 10.8554 2.07811C10.8767 2.09516 10.898 2.11221 10.9193 2.12926C10.9618 2.1421 11.0066 2.15493 11.0535 2.16776C11.0876 2.19343 11.1239 2.21901 11.1622 2.24449C11.1706 2.27859 11.1834 2.31269 11.2004 2.34678C11.1792 2.35962 11.1579 2.37245 11.1366 2.38529C11.1366 2.38529 11.0918 2.32782 11.0854 2.30857C11.0791 2.29564 11.015 2.27006 11.015 2.27006C10.9596 2.25723 10.902 2.24439 10.8422 2.23156C10.8209 2.20589 10.8018 2.18031 10.7847 2.15483C10.7293 2.15062 10.6781 2.14851 10.6312 2.14851C10.6013 2.17418 10.5715 2.20186 10.5418 2.23156C10.563 2.25723 10.5822 2.28491 10.5993 2.3146C10.5864 2.33165 10.5715 2.35081 10.5544 2.37207C10.5119 2.35502 10.4713 2.34008 10.4328 2.32724C10.3945 2.30598 10.3561 2.28462 10.3178 2.26316C10.322 2.23328 10.3199 2.20129 10.3115 2.16719C10.3157 2.13731 10.3136 2.10742 10.3051 2.07754C10.2497 2.10742 10.1944 2.13731 10.139 2.16719C10.1219 2.21834 10.1092 2.27169 10.1007 2.32724C10.1391 2.34429 10.1732 2.36565 10.2031 2.39132C10.2159 2.45109 10.2244 2.51077 10.2287 2.57034C10.2287 2.57034 10.2479 2.62149 10.2606 2.64706C10.2669 2.66632 10.3181 2.64706 10.3181 2.64706C10.3522 2.64285 10.3884 2.64074 10.4268 2.64074C10.4396 2.61948 10.4588 2.59812 10.4843 2.57666C10.5142 2.5895 10.5504 2.60013 10.5929 2.60856C10.6184 2.62561 10.6461 2.64266 10.676 2.65971C10.676 2.65971 10.7528 2.73643 10.7591 2.762C10.7654 2.78126 10.8485 2.8324 10.8741 2.85798C10.8868 2.88355 10.8422 2.92206 10.8422 2.92206H10.7206C10.6993 2.89639 10.6801 2.86871 10.6631 2.83901C10.6332 2.81334 10.6012 2.78566 10.5671 2.75597C10.55 2.73471 10.5308 2.71335 10.5096 2.69189C10.4712 2.69611 10.4371 2.69821 10.4072 2.69821C10.3689 2.73231 10.3326 2.76641 10.2985 2.80051C10.2773 2.84744 10.2517 2.89648 10.2218 2.94763C10.2218 2.94763 10.1513 3.06286 10.145 3.0755C10.1321 3.09475 10.0171 3.15223 10.0171 3.15223H9.81868C9.7974 3.13518 9.77613 3.11813 9.75485 3.10108C9.78034 3.07119 9.80804 3.0392 9.83794 3.0051C9.89333 2.99648 9.94873 2.98796 10.0041 2.97953C10.034 2.94543 10.0638 2.91344 10.0935 2.88355C10.1106 2.82819 10.1277 2.77273 10.1447 2.71718C10.1277 2.68308 10.1085 2.64898 10.0872 2.61488C10.0617 2.55511 10.0382 2.49755 10.0168 2.44218C9.99971 2.39103 9.98265 2.34199 9.96559 2.29506C9.96559 2.24391 9.9677 2.19276 9.97192 2.14162C9.94202 2.1033 9.91432 2.0671 9.88883 2.033C9.83765 2.02878 9.78437 2.02447 9.72898 2.02007C9.69064 2.03712 9.65652 2.05417 9.62662 2.07122C9.60113 2.09689 9.58196 2.12035 9.56912 2.14162C9.5649 2.17993 9.55848 2.21623 9.54986 2.25052C9.5328 2.28462 9.51574 2.31872 9.49868 2.35282C9.49868 2.35282 9.40927 2.37839 9.39 2.37839C9.35809 2.38471 9.31956 2.44879 9.31956 2.44879C9.31956 2.47868 9.31746 2.50636 9.31324 2.53184C9.33873 2.54046 9.36432 2.54898 9.39 2.55741C9.39 2.55741 9.47942 2.64045 9.48603 2.64706C9.48603 2.65999 9.54353 2.71747 9.54353 2.71747C9.54353 2.71747 9.6203 2.78154 9.6203 2.78786C9.6203 2.8008 9.59471 2.85194 9.59471 2.85194C9.56059 2.86056 9.52647 2.86698 9.49236 2.8712C9.44981 2.85836 9.40927 2.84342 9.37074 2.82637C9.34525 2.8051 9.32397 2.78375 9.30691 2.76229C9.27701 2.73662 9.24932 2.71105 9.22383 2.68557C9.17687 2.66852 9.1278 2.65358 9.07662 2.64074H8.76324C8.75691 2.64706 8.68015 2.67264 8.67382 2.67264C8.65456 2.67896 8.61 2.65338 8.61 2.65338C8.61 2.65338 8.57808 2.61488 8.55882 2.60856C8.55882 2.59563 8.40529 2.62781 8.40529 2.62781C8.37539 2.64908 8.33916 2.67254 8.29661 2.69821C8.28799 2.71526 8.28157 2.73442 8.27735 2.75568C8.3199 2.75147 8.36255 2.74936 8.40529 2.74936C8.44362 2.74515 8.47985 2.74083 8.51397 2.73643C8.54809 2.72781 8.57789 2.72139 8.60338 2.71718C8.61182 2.7258 8.62035 2.73432 8.62897 2.74275L8.65456 2.78126C8.67583 2.80252 8.70142 2.82168 8.73132 2.83873C8.70583 2.86861 8.68024 2.89629 8.65456 2.92177L8.55221 2.8962C8.54799 2.8621 8.54157 2.828 8.53294 2.7939C8.50304 2.80252 8.47103 2.81104 8.43692 2.81947C8.43692 2.81947 8.30265 2.92809 8.27706 2.9347C8.25147 2.9347 8.22588 2.91545 8.22588 2.91545C8.18333 2.92828 8.13858 2.94323 8.09162 2.96027C8.04466 2.98154 7.9978 3.005 7.95103 3.03067C7.92554 3.01784 7.89784 3.005 7.86794 2.99217C7.84666 3.005 7.8275 3.01564 7.81044 3.02407C7.74642 3.04111 7.68029 3.05816 7.61206 3.07521C7.5396 3.13498 7.46495 3.19686 7.38809 3.26084C7.38809 3.26084 7.27308 3.34389 7.25382 3.34389C7.22823 3.35021 7.13882 3.35021 7.13882 3.35021C7.13038 3.33316 7.12396 3.314 7.11956 3.29274C7.12377 3.25864 7.12588 3.22234 7.12588 3.18383C7.11304 3.17521 7.10029 3.16458 7.08764 3.15194C7.06637 3.1391 7.04078 3.13058 7.01088 3.12636C6.97254 3.1392 6.93421 3.15203 6.89587 3.16487C6.87882 3.18613 6.86176 3.2096 6.8447 3.23527C6.87019 3.25232 6.89789 3.26726 6.92779 3.28009C6.932 3.31841 6.94053 3.3525 6.95338 3.38239C6.95759 3.41227 6.9597 3.44216 6.9597 3.47205C6.94264 3.49772 6.92348 3.52329 6.9022 3.54877H6.8447C6.83626 3.5231 6.82773 3.49752 6.81911 3.47205C6.77215 3.48488 6.7295 3.49771 6.69117 3.51055L6.53764 3.6002C6.50774 3.62147 6.47793 3.64283 6.44822 3.66428C6.45244 3.68554 6.45455 3.70901 6.45455 3.73468C6.46739 3.75594 6.47803 3.77731 6.48646 3.79876C6.47362 3.83708 6.45656 3.87548 6.43529 3.91399C6.40117 3.92261 6.36705 3.93113 6.33293 3.93956C6.34999 3.90546 6.36494 3.87347 6.37779 3.84359C6.36073 3.82232 6.34367 3.80527 6.32661 3.79244C6.29249 3.79244 6.25837 3.79675 6.22426 3.80537C6.19436 3.82242 6.16235 3.84158 6.12823 3.86284C6.12823 3.8841 6.13034 3.90115 6.13455 3.91399C6.14299 3.93966 6.15152 3.96523 6.16014 3.99071C6.13465 4.01197 6.10906 4.03333 6.08338 4.05479C6.0621 4.03352 6.04083 4.01437 6.01955 3.99732C5.99827 3.959 5.9748 3.92271 5.94911 3.88841C5.94068 3.84148 5.93004 3.79886 5.9172 3.76054C5.9172 3.72223 5.91298 3.68813 5.90455 3.65825C5.93004 3.6412 5.95132 3.62625 5.96837 3.61342C6.00671 3.62625 6.04725 3.63689 6.08999 3.64531C6.14117 3.6411 6.19656 3.63468 6.25617 3.62606C6.31156 3.59618 6.37127 3.5685 6.43529 3.54302C6.47362 3.5003 6.50985 3.46189 6.54396 3.42779C6.54818 3.39369 6.55029 3.3617 6.55029 3.33182C6.5248 3.3232 6.49921 3.31467 6.47353 3.30624C6.39245 3.2892 6.30926 3.27425 6.22397 3.26142C6.15995 3.2528 6.10024 3.24427 6.04485 3.23584C5.98083 3.23163 5.91691 3.22732 5.85308 3.22291C5.82318 3.2187 5.79759 3.21228 5.77632 3.20366C5.77632 3.19082 5.77421 3.17799 5.76999 3.16515C5.76156 3.16094 5.75514 3.15452 5.75073 3.1459C5.71661 3.15452 5.6846 3.16094 5.6547 3.16515C5.6248 3.18642 5.595 3.20778 5.56529 3.22923C5.54823 3.22502 5.53328 3.22071 5.52044 3.2163C5.50338 3.22052 5.48843 3.22052 5.47559 3.2163C5.45431 3.22914 5.43725 3.23766 5.42441 3.24188C5.42019 3.23326 5.41377 3.22473 5.40515 3.2163C5.36681 3.23757 5.33059 3.25461 5.29647 3.26745C5.27941 3.29733 5.26446 3.32722 5.25162 3.35711C5.23034 3.36573 5.20686 3.37856 5.18118 3.39561C5.15128 3.39982 5.12147 3.40413 5.09176 3.40854C5.07892 3.39992 5.06617 3.3935 5.05352 3.38929C5.01519 3.41496 4.97896 3.44053 4.94485 3.46601C4.94485 3.48727 4.94696 3.50643 4.95117 3.52348C4.94274 3.54915 4.93421 3.57472 4.92558 3.6002C4.90431 3.60882 4.88083 3.61945 4.85514 3.6321C4.83809 3.65777 4.81892 3.68334 4.79764 3.70882C4.77215 3.73009 4.74445 3.75355 4.71455 3.77922C4.69328 3.78784 4.672 3.79637 4.65073 3.8048C4.61661 3.83046 4.58038 3.86035 4.54205 3.89445C4.50371 3.90728 4.46318 3.92222 4.42043 3.93927C4.37347 3.97759 4.32872 4.01811 4.28617 4.06082C4.22656 4.12481 4.16474 4.193 4.10072 4.26542C4.07523 4.31235 4.05175 4.35718 4.03028 4.39989C3.98773 4.43821 3.94509 4.47231 3.90234 4.50219C3.88528 4.54491 3.86401 4.58974 3.83852 4.63667C3.80862 4.64951 3.77661 4.66445 3.74249 4.6815C3.72121 4.72422 3.70415 4.76473 3.69131 4.80305C3.65719 4.8201 3.62739 4.83715 3.6019 4.8542C3.58062 4.87546 3.56356 4.89462 3.55072 4.91167C3.49954 4.94576 3.44837 4.98197 3.39719 5.02028C3.34602 5.07143 3.29915 5.12258 3.2566 5.17373C3.24376 5.21645 3.2267 5.26549 3.20542 5.32085C3.2267 5.32507 3.24798 5.33148 3.26925 5.3401C3.26082 5.36999 3.2544 5.39987 3.24999 5.42975C3.23293 5.46385 3.21376 5.49585 3.19249 5.52573C3.17964 5.57267 3.17112 5.61529 3.1669 5.6536C3.19239 5.66222 3.21798 5.67075 3.24366 5.67917C3.29062 5.62803 3.33749 5.57899 3.38425 5.53205C3.42681 5.50217 3.46734 5.47659 3.50587 5.45533C3.53999 5.44249 3.572 5.43397 3.6019 5.42975C3.61474 5.45964 3.62538 5.49163 3.63381 5.52573C3.63803 5.57267 3.64014 5.62171 3.64014 5.67285C3.64435 5.72822 3.64646 5.78578 3.64646 5.84555C3.68058 5.84555 3.71259 5.84986 3.74249 5.85848C3.77239 5.82438 3.80009 5.79239 3.82558 5.76251C3.86813 5.71557 3.90867 5.66864 3.94719 5.62171C3.97269 5.59182 3.99828 5.55983 4.02396 5.52573C4.02396 5.49163 4.02818 5.45322 4.03661 5.4105C4.05367 5.38924 4.07073 5.36788 4.08779 5.34643C4.13034 5.31233 4.17298 5.27823 4.21573 5.24413C4.24122 5.19298 4.26681 5.14604 4.29249 5.10333C4.29249 5.07766 4.29671 5.04777 4.30514 5.01367C4.28387 4.988 4.26039 4.96243 4.2347 4.93695C4.22627 4.89423 4.21774 4.84941 4.20911 4.80247C4.21755 4.78121 4.22608 4.75985 4.2347 4.73839C4.25598 4.70008 4.27725 4.66598 4.29853 4.6361C4.32843 4.61905 4.35823 4.59989 4.38794 4.57863C4.42628 4.55736 4.4625 4.5382 4.49662 4.52116C4.53074 4.48706 4.56697 4.45296 4.6053 4.41886C4.6053 4.41886 4.68206 4.32921 4.67574 4.32289C4.68206 4.31657 4.71398 4.23984 4.71398 4.23984C4.73525 4.20153 4.75442 4.16532 4.77148 4.13122C4.78854 4.10996 4.8056 4.0908 4.82266 4.07375C4.85256 4.0567 4.88025 4.03965 4.90575 4.0226C4.93565 4.01398 4.96123 4.00757 4.98251 4.00335C5.02084 4.01197 5.05918 4.02261 5.09751 4.03525C5.09751 4.04808 5.0954 4.06303 5.09119 4.08007C5.07835 4.09291 5.0656 4.10785 5.05295 4.1249C5.04873 4.12069 5.04231 4.11858 5.03369 4.11858C5.00379 4.13142 4.9782 4.13994 4.95692 4.14415C4.93565 4.17404 4.91648 4.19961 4.89942 4.22088C4.88236 4.24655 4.8653 4.27423 4.84824 4.30392C4.81413 4.33381 4.78212 4.36149 4.75222 4.38697C4.7181 4.41264 4.68398 4.43399 4.64986 4.45104C4.62859 4.50641 4.603 4.56397 4.5731 4.62374C4.56467 4.65363 4.55403 4.68772 4.54119 4.72604C4.5454 4.76013 4.55182 4.79423 4.56045 4.82833C4.57329 4.86243 4.58604 4.89442 4.59869 4.92431C4.61575 4.94136 4.63491 4.95419 4.65619 4.96281C4.71158 4.94155 4.76697 4.92019 4.82237 4.89873C4.82237 4.89873 4.93105 4.79644 4.93737 4.79012C4.9437 4.77719 5.03972 4.71971 5.03972 4.71971C5.06962 4.73255 5.09732 4.74749 5.12281 4.76454C5.13125 4.80286 5.13767 4.84127 5.14208 4.87977C5.12502 4.89261 5.10796 4.90544 5.0909 4.91827C5.061 4.93111 5.03119 4.94174 5.00149 4.95017C4.98864 4.93733 4.97801 4.92239 4.96957 4.90534C4.94408 4.90956 4.91638 4.91387 4.88648 4.91827C4.84815 4.94816 4.80761 4.98015 4.76487 5.01425C4.72232 5.04835 4.67967 5.08676 4.63693 5.12948C4.64536 5.14652 4.65178 5.16568 4.65619 5.18695C4.68168 5.20399 4.70727 5.21894 4.73295 5.23177C4.71589 5.27009 4.69673 5.30639 4.67545 5.34068C4.64996 5.34489 4.62226 5.35131 4.59236 5.35993C4.57952 5.34288 4.56888 5.32372 4.56045 5.30246C4.54339 5.28541 4.52211 5.27258 4.49662 5.26396C4.47113 5.29384 4.44343 5.32794 4.41353 5.36625C4.40932 5.40456 4.40721 5.44077 4.40721 5.47487C4.39015 5.51318 4.37309 5.55159 4.35603 5.5901C4.32613 5.65829 4.29412 5.7308 4.26 5.80762C4.22589 5.84593 4.19177 5.88645 4.15765 5.92917C4.12353 5.92917 4.08942 5.92706 4.0553 5.92285C4.03402 5.91423 4.01485 5.90359 3.9978 5.89095C3.9723 5.89517 3.94672 5.89947 3.92103 5.90388C3.87407 5.9466 3.825 5.99143 3.77383 6.03836C3.73971 6.05963 3.70348 6.08098 3.66515 6.10244H3.59471L3.51795 6.15359C3.48804 6.16221 3.45604 6.17284 3.42192 6.18548C3.41348 6.15981 3.40285 6.13846 3.39 6.12141C3.38157 6.08731 3.37304 6.05321 3.36442 6.01911C3.37726 5.99344 3.3879 5.96576 3.39633 5.93607C3.39633 5.93607 3.47942 5.82745 3.48574 5.80819C3.48574 5.79526 3.52398 5.7059 3.52398 5.7059C3.51977 5.68464 3.51124 5.66548 3.49839 5.64843C3.50683 5.62717 3.51325 5.6058 3.51766 5.58435C3.51344 5.5673 3.50702 5.55236 3.49839 5.53952C3.47712 5.54814 3.45153 5.56098 3.42163 5.57803C3.40879 5.6037 3.39173 5.63138 3.37045 5.66107C3.38751 5.66529 3.40457 5.66739 3.42163 5.66739C3.40879 5.70149 3.39384 5.73559 3.37678 5.76969C3.32982 5.79958 3.28506 5.82726 3.24251 5.85274C3.22967 5.89545 3.21472 5.94239 3.19766 5.99354C3.21894 6.01059 3.24021 6.02974 3.26149 6.05101C3.26149 6.09373 3.25727 6.13855 3.24884 6.18548C3.236 6.21958 3.22325 6.25579 3.2106 6.2941L3.10825 6.34525C3.06991 6.36652 3.03158 6.38998 2.99324 6.41565C2.97618 6.44132 2.95913 6.46479 2.94207 6.48605C2.90795 6.50731 2.87594 6.53078 2.84604 6.55645C2.82055 6.62044 2.79496 6.68653 2.76928 6.75473C2.72672 6.77177 2.68408 6.78882 2.64133 6.80587C2.61584 6.85702 2.59025 6.90395 2.56457 6.94667C2.52624 6.98939 2.4857 7.03633 2.44295 7.08747C2.42168 7.10031 2.4004 7.11736 2.37913 7.13862C2.37069 7.12579 2.36427 7.11085 2.35986 7.0938C2.33859 7.10663 2.31942 7.12157 2.30236 7.13862C2.29393 7.17272 2.28751 7.20471 2.2831 7.2346C2.26182 7.26448 2.24055 7.29216 2.21927 7.31764C2.17231 7.34331 2.12756 7.36678 2.08501 7.38804C2.07657 7.42214 2.06804 7.45624 2.05942 7.49034C2.08069 7.49455 2.10628 7.49455 2.13618 7.49034C2.14902 7.50739 2.16608 7.52022 2.18736 7.52884V7.62482C2.18736 7.66313 2.18947 7.70154 2.19368 7.74004C2.18525 7.75288 2.17672 7.76993 2.1681 7.79119C2.15966 7.81686 2.15113 7.84454 2.14251 7.87424C2.13829 7.91696 2.12976 7.96178 2.11692 8.00872C2.10408 8.05565 2.09133 8.10048 2.07868 8.1432C2.07868 8.1432 1.99559 8.1817 1.97633 8.1817C1.95074 8.18802 1.91883 8.17538 1.9125 8.17538C1.89985 8.16906 1.82309 8.09234 1.82309 8.09234C1.79319 8.10517 1.76338 8.12011 1.73367 8.13716C1.70818 8.17126 1.6847 8.20325 1.66323 8.23314C1.65039 8.27586 1.63764 8.31637 1.62499 8.35469C1.62078 8.393 1.61867 8.42921 1.61867 8.4633C1.60583 8.49319 1.59308 8.52518 1.58043 8.55928C1.58043 8.55928 1.56778 8.64232 1.56117 8.66158C1.56117 8.68083 1.52925 8.78945 1.52925 8.78945C1.52925 8.78945 1.4844 8.8406 1.46543 8.85985C1.45278 8.86617 1.44616 8.96846 1.44616 8.96846C1.4546 9.00256 1.46524 9.03245 1.47808 9.05812C1.47386 9.09643 1.46964 9.13264 1.46543 9.16674C1.4867 9.17957 1.50798 9.1924 1.52925 9.20524C1.52925 9.20524 1.56749 9.19892 1.58676 9.19231C1.61234 9.17306 1.63793 9.19231 1.63793 9.19231C1.64637 9.22219 1.65279 9.25418 1.65719 9.28828C1.67425 9.27545 1.69342 9.26482 1.7147 9.25639C1.74019 9.23512 1.76789 9.20955 1.79779 9.17966C1.82769 9.18828 1.8597 9.19681 1.89381 9.20524C1.91509 9.19662 1.93857 9.18809 1.96425 9.17966C1.9771 9.13273 1.98773 9.0858 1.99617 9.03887C2.02166 9.0176 2.04725 8.99624 2.07293 8.97479C2.08577 8.94912 2.09641 8.92776 2.10484 8.91071C2.10906 8.87661 2.11328 8.84251 2.11749 8.80841C2.10906 8.79558 2.10053 8.78916 2.09191 8.78916C2.09612 8.74644 2.10034 8.6995 2.10456 8.64836C2.15995 8.59299 2.21534 8.53964 2.27074 8.4883C2.32191 8.40306 2.37309 8.31771 2.42427 8.23227C2.4327 8.18534 2.43912 8.14052 2.44353 8.0978C2.46902 8.0637 2.49461 8.03381 2.52029 8.00814C2.56284 7.98688 2.60549 7.96772 2.64823 7.95067C2.66108 7.97194 2.67171 7.9954 2.68015 8.02107C2.70142 8.02969 2.7227 8.04032 2.74397 8.05297C2.76103 8.01025 2.77598 7.96763 2.78883 7.9251C2.78883 7.9251 2.80148 7.90585 2.87192 7.88027C2.93574 7.8547 2.94235 7.81619 2.94235 7.81619C2.96363 7.80336 2.9828 7.79273 2.99986 7.7843C3.0127 7.80556 3.02976 7.82472 3.05103 7.84177V7.97625C3.06809 7.99751 3.08726 8.01667 3.10853 8.03372C3.13403 8.08065 3.16172 8.12758 3.19162 8.17452C3.21712 8.18735 3.2427 8.19798 3.26839 8.20641C3.29388 8.21925 3.31947 8.22988 3.34515 8.23831C3.358 8.28103 3.37074 8.32155 3.38339 8.35986C3.40888 8.39817 3.43447 8.43658 3.46016 8.47509C3.46016 8.47509 3.46016 8.55181 3.44089 8.5837C3.42824 8.6156 3.42824 8.62221 3.41531 8.66043C3.39604 8.69893 3.33222 8.7179 3.33222 8.7179C3.28966 8.73073 3.24913 8.73926 3.2106 8.74347C3.21482 8.77335 3.21903 8.80104 3.22325 8.82651C3.24031 8.83935 3.25948 8.85429 3.28075 8.87134C3.30203 8.87555 3.32551 8.87987 3.35119 8.88427H3.40237C3.4108 8.86722 3.41933 8.84807 3.42796 8.8268C3.4408 8.78408 3.45144 8.74146 3.45987 8.69893C3.48977 8.68609 3.51957 8.67115 3.54928 8.6541C3.55772 8.64127 3.56835 8.62633 3.5812 8.60928C3.58963 8.57518 3.59816 8.54319 3.60679 8.5133V8.4429C3.62384 8.43869 3.63879 8.43438 3.65164 8.42997C3.66448 8.43859 3.67722 8.44501 3.68987 8.44922C3.71115 8.44501 3.73463 8.4429 3.76031 8.4429C3.76875 8.41302 3.77728 8.38102 3.7859 8.34693C3.7859 8.34693 3.71546 8.21906 3.70281 8.19348C3.69016 8.16791 3.63899 8.1294 3.63899 8.1294C3.62193 8.10814 3.60698 8.08678 3.59413 8.06533C3.57286 8.06111 3.55158 8.06111 3.53031 8.06533C3.50041 8.05671 3.4684 8.05239 3.43428 8.05239C3.42585 8.02251 3.41732 7.99052 3.40869 7.95642C3.40869 7.95642 3.31266 7.78372 3.30001 7.73257C3.28075 7.70068 3.26178 7.61102 3.26178 7.61102C3.26599 7.58114 3.27241 7.54915 3.28104 7.51505C3.28947 7.48938 3.298 7.4617 3.30663 7.43201C3.3279 7.42779 3.34707 7.42348 3.36413 7.41908C3.3854 7.42329 3.40668 7.4276 3.42796 7.43201C3.43217 7.45768 3.43639 7.48114 3.44061 7.50241C3.44061 7.53229 3.44271 7.55997 3.44693 7.58545C3.46399 7.61112 3.48105 7.6367 3.49811 7.66217C3.49811 7.66217 3.51737 7.71332 3.5237 7.7389C3.53002 7.76447 3.56193 7.7774 3.5812 7.7774C3.60046 7.79033 3.66429 7.8093 3.66429 7.8093C3.68556 7.83497 3.70684 7.86054 3.72811 7.88602C3.75801 7.92874 3.78782 7.96926 3.81753 8.00757C3.80909 8.05029 3.80267 8.0908 3.79827 8.12912C3.81954 8.14195 3.84082 8.15258 3.86209 8.16101C3.86209 8.16101 3.89401 8.28256 3.89401 8.31446C3.88768 8.34003 3.95783 8.44894 3.95783 8.44894C3.96627 8.49587 3.9748 8.54069 3.98342 8.58341C3.98764 8.64318 3.99406 8.70286 4.00268 8.76244C4.03258 8.77949 4.06028 8.79653 4.08577 8.81358C4.11567 8.81358 4.14768 8.81148 4.1818 8.80726C4.19464 8.79443 4.20959 8.78159 4.22665 8.76876C4.22665 8.76876 4.22665 8.70468 4.23298 8.67278C4.2393 8.63428 4.30342 8.58313 4.30342 8.58313C4.31626 8.55746 4.329 8.53188 4.34165 8.50641C4.30332 8.46369 4.26278 8.42317 4.22004 8.38486C4.22426 8.36359 4.23068 8.33802 4.2393 8.30813C4.26479 8.29109 4.29038 8.26973 4.31607 8.24406C4.33734 8.20996 4.36082 8.17586 4.38651 8.14176C4.412 8.14176 4.43759 8.13965 4.46327 8.13544C4.50161 8.14406 4.53994 8.15048 4.57827 8.15469C4.61239 8.14186 4.64651 8.12691 4.68063 8.10986C4.67641 8.0545 4.6743 8.00115 4.6743 7.94981C4.67852 7.9115 4.68494 7.86887 4.69356 7.82194C4.72347 7.79205 4.75116 7.76217 4.77665 7.73229C4.77665 7.73229 4.78298 7.67482 4.78298 7.63631C4.7893 7.59781 4.79563 7.51476 4.79563 7.51476C4.79563 7.51476 4.83387 7.45729 4.84681 7.42511C4.85946 7.40586 4.91063 7.35471 4.91063 7.35471C4.95318 7.34188 4.99372 7.33335 5.03225 7.32914C5.03225 7.32914 5.0771 7.26506 5.08975 7.22684C5.10901 7.17569 5.12799 7.05414 5.12799 7.05414C5.15348 7.01583 5.17907 6.97531 5.20475 6.93259C5.2176 6.92838 5.23255 6.92196 5.2496 6.91334C5.26666 6.92617 5.28583 6.93681 5.30711 6.94524C5.30289 6.98355 5.30078 7.01985 5.30078 7.05414C5.32206 7.07119 5.34333 7.08403 5.36461 7.09265C5.38167 7.12675 5.39662 7.16084 5.40946 7.19494C5.35828 7.23326 5.30921 7.26956 5.26226 7.30385C5.25382 7.33795 5.2474 7.37415 5.24299 7.41247C5.25583 7.4253 5.27078 7.43814 5.28784 7.45097C5.35186 7.43392 5.41799 7.41687 5.48622 7.39982C5.56289 7.36572 5.63966 7.33162 5.71652 7.29753C5.72073 7.26764 5.72716 7.23565 5.73578 7.20155C5.67617 7.19734 5.61646 7.19303 5.55666 7.18862C5.55245 7.15874 5.55034 7.12464 5.55034 7.08632C5.5674 7.06927 5.58867 7.04792 5.61416 7.02225C5.6525 6.99236 5.68873 6.96468 5.72284 6.9392C5.7698 6.92215 5.81667 6.9051 5.86343 6.88805C5.90599 6.86679 5.94652 6.84763 5.98505 6.83058C6.01054 6.81775 6.03402 6.80712 6.05549 6.79869C6.07676 6.837 6.09593 6.87541 6.11299 6.91391C6.11299 6.91391 6.06814 6.93949 6.02358 6.95874C5.9724 6.978 5.95975 6.99725 5.95975 6.99725C5.92141 7.03997 5.87877 7.08259 5.83181 7.12512C5.85308 7.155 5.87436 7.18489 5.89563 7.21477C5.93397 7.23182 5.9702 7.24676 6.00431 7.2596C6.02559 7.30232 6.04686 7.34714 6.06814 7.39408C6.11069 7.41534 6.15123 7.43881 6.18976 7.46448C6.24515 7.47731 6.30054 7.48794 6.35593 7.49637C6.35593 7.49637 6.46461 7.58603 6.47094 7.6116C6.48359 7.63717 6.46461 7.72683 6.46461 7.75872C6.45829 7.79723 6.33035 7.91217 6.33035 7.91217C6.26633 7.92079 6.20241 7.93142 6.13858 7.94406C6.07034 7.94828 6.00422 7.95259 5.9402 7.95699C5.88902 7.93573 5.83995 7.91226 5.79299 7.88659C5.72054 7.83544 5.64589 7.7843 5.56903 7.73315C5.48373 7.75882 5.39844 7.78439 5.31314 7.80987C5.24069 7.86523 5.16604 7.91858 5.08918 7.96992C5.01251 7.96571 4.93363 7.9614 4.85256 7.95699C4.8355 7.99109 4.82055 8.0273 4.80771 8.06561C4.72241 8.18074 4.63712 8.30019 4.55182 8.42394C4.61584 8.52202 4.68197 8.62221 4.7502 8.7245C4.81422 8.77565 4.87814 8.8268 4.94197 8.87795C4.99315 8.84385 5.04222 8.80975 5.08918 8.77565C5.13173 8.80132 5.17006 8.8269 5.20418 8.85238C5.24673 8.84376 5.28938 8.83734 5.33212 8.83312C5.37467 8.8245 5.41732 8.81387 5.46006 8.80123C5.52408 8.82249 5.58378 8.84385 5.63918 8.86531C5.63918 8.86531 5.66477 8.99318 5.65183 9.12134C5.6455 9.25581 5.60698 9.43483 5.60698 9.43483C5.60698 9.43483 5.54948 9.55638 5.44712 9.63942C5.34477 9.72247 5.29359 9.72247 5.29359 9.72247C5.29359 9.72247 5.21683 9.69057 5.153 9.67764C5.08918 9.66471 4.97388 9.76069 4.97388 9.76069C4.90987 9.78636 4.84805 9.81193 4.78844 9.83741C4.76295 9.78626 4.73525 9.73722 4.70535 9.69028C4.61584 9.70312 4.52633 9.71806 4.43682 9.73511C4.42839 9.68818 4.41775 9.64335 4.40491 9.60063C4.34951 9.60925 4.29412 9.61567 4.23873 9.61989C4.18333 9.57717 4.12574 9.53876 4.06594 9.50466C4.01054 9.52171 3.95515 9.54086 3.89976 9.56213C3.88691 9.66021 3.87417 9.7604 3.86152 9.86269C3.81034 9.88396 3.75916 9.90312 3.70799 9.92016C3.66965 9.8989 3.62911 9.87974 3.58637 9.86269C3.55225 9.84986 3.51814 9.83281 3.48402 9.81155C3.44147 9.79871 3.39882 9.78377 3.35608 9.76672C3.34324 9.74546 3.32829 9.7241 3.31123 9.70264C3.28573 9.66854 3.26015 9.63655 3.23446 9.60667C3.18329 9.61088 3.13211 9.61519 3.08093 9.6196C3.08093 9.6196 2.95299 9.5492 2.9274 9.51098C2.89549 9.47247 2.89549 9.36386 2.89549 9.36386C2.92539 9.31271 2.9552 9.26367 2.98491 9.21673C2.98912 9.15275 2.99554 9.08666 3.00417 9.01846C2.94878 8.98858 2.89549 8.95448 2.84431 8.91617C2.84431 8.91617 2.76755 8.99289 2.71637 9.01846C2.67152 9.03771 2.60137 9.05697 2.60137 9.05697C2.55019 9.03992 2.50113 9.02076 2.45417 8.9995C2.41583 9.03781 2.37961 9.07622 2.34549 9.11473C2.26441 9.1404 2.18554 9.16597 2.10887 9.19145C2.08759 9.22133 2.06843 9.25122 2.05137 9.2811C2.01303 9.29393 1.9747 9.30457 1.93636 9.31299C1.90646 9.37276 1.87877 9.42822 1.85328 9.47937C1.81916 9.46232 1.78504 9.44949 1.75092 9.44087C1.72543 9.43225 1.69984 9.42583 1.67416 9.42161C1.64426 9.47276 1.61445 9.5197 1.58474 9.56242C1.56347 9.61778 1.54219 9.67324 1.52092 9.72879C1.49542 9.72017 1.47194 9.71375 1.45048 9.70954C1.41636 9.76931 1.38224 9.82477 1.34812 9.87591C1.34391 9.94833 1.33749 10.0251 1.32886 10.1064C1.3118 10.1916 1.29264 10.2791 1.27136 10.3687C1.24146 10.4413 1.21165 10.5117 1.18194 10.5799C1.15204 10.597 1.12435 10.6183 1.09885 10.644C1.07336 10.7164 1.05209 10.7846 1.03503 10.8486C1.01797 10.8997 1.00091 10.9509 0.983852 11.002C0.962576 11.1172 0.939096 11.2302 0.913412 11.3411C0.909195 11.3838 0.904979 11.4308 0.900762 11.4819C0.896545 11.6099 0.894437 11.7357 0.894437 11.8595C0.894437 11.8595 0.907087 12.0195 0.907087 12.0514V12.2497C0.898653 12.288 0.890124 12.3221 0.881499 12.352C0.868657 12.3733 0.855911 12.3924 0.84326 12.4095C0.847477 12.4478 0.849586 12.4819 0.849586 12.5118C0.870861 12.5545 0.890028 12.6014 0.907087 12.6526C0.898653 12.661 0.892232 12.6716 0.887824 12.6845C0.883607 12.7144 0.879391 12.7399 0.875174 12.7612C0.883607 12.8081 0.890028 12.853 0.894437 12.8957C0.894437 12.8957 0.939288 12.9405 0.951938 12.9468C0.958263 12.9597 0.971201 13.0235 0.971201 13.0235C0.971201 13.0235 0.983852 13.1258 0.990464 13.1451C0.99679 13.177 1.00973 13.2092 1.01605 13.2281C1.02238 13.2537 1.07355 13.3816 1.07355 13.3816C1.11189 13.4498 1.15022 13.518 1.18856 13.5862C1.22267 13.6758 1.25679 13.7654 1.29091 13.8548C1.29091 13.8548 1.35474 13.9893 1.35474 14.0083C1.36106 14.0275 1.39298 14.0339 1.40591 14.0531C1.41876 14.0659 1.43371 14.0745 1.45076 14.0787C1.47635 14.085 1.48268 14.0531 1.49562 14.0275C1.50827 14.002 1.50194 13.9701 1.49562 13.9379C1.49562 13.9186 1.55944 13.9186 1.55944 13.9186C1.5765 13.9228 1.59356 13.9228 1.61062 13.9186C1.61062 13.9186 1.78341 13.9954 1.79606 13.989C1.80871 13.9954 1.84724 14.0083 1.8665 14.0209C1.88576 14.0146 1.89841 13.989 1.91135 13.9761C1.91768 13.9632 1.9562 13.9376 1.96253 13.9057C1.97518 13.8801 2.02635 13.8738 2.03929 13.8609C2.05856 13.8546 2.16091 13.829 2.17356 13.8224C2.18621 13.8224 2.23106 13.7905 2.23106 13.7905C2.25234 13.7947 2.27361 13.799 2.29489 13.8034C2.31616 13.8333 2.33964 13.861 2.36533 13.8864C2.37376 13.9334 2.38229 13.976 2.39091 14.0143C2.40797 14.0526 2.42503 14.0888 2.44209 14.1229C2.46337 14.1528 2.48253 14.1827 2.49959 14.2126C2.54655 14.2212 2.59131 14.2255 2.63386 14.2255C2.66798 14.2341 2.7042 14.2406 2.74254 14.2448C2.74254 14.2448 2.84489 14.3726 2.84489 14.3919C2.85121 14.4175 2.80004 14.4623 2.80004 14.4623C2.80426 14.5221 2.80847 14.5796 2.81269 14.635C2.82112 14.7074 2.82965 14.7756 2.83828 14.8396C2.817 14.8653 2.79783 14.8908 2.78078 14.9163C2.79362 14.9675 2.80857 15.0208 2.82563 15.0764C2.85974 15.1488 2.89386 15.2192 2.92798 15.2876C2.94925 15.3259 2.97053 15.3621 2.99181 15.3962C3.03014 15.4389 3.06637 15.4773 3.10048 15.5114C3.10048 15.5114 3.17725 15.6522 3.17725 15.6715C3.18357 15.6907 3.17092 15.8123 3.17092 15.8123C3.20082 15.8849 3.23063 15.9553 3.26034 16.0235C3.28161 16.0788 3.30509 16.1322 3.33078 16.1835C3.35627 16.2517 3.38186 16.3178 3.40754 16.3818C3.42882 16.4372 3.45009 16.4905 3.47137 16.5418C3.47137 16.5888 3.46926 16.6314 3.46504 16.6697C3.44377 16.7124 3.42029 16.7508 3.3946 16.7849C3.38176 16.8403 3.36681 16.8915 3.34975 16.9384C3.35397 17.0024 3.36039 17.0685 3.36902 17.1367C3.39029 17.256 3.41377 17.3797 3.43946 17.5076C3.44789 17.5247 3.45853 17.5417 3.47137 17.5588C3.53098 17.6484 3.59279 17.738 3.65681 17.8274C3.65681 17.8274 3.81034 18.0961 3.81667 18.1154C3.81667 18.1283 3.84225 18.2754 3.84225 18.2881C3.84858 18.3073 3.91269 18.5504 3.91269 18.5504C3.94259 18.6144 3.9724 18.6741 4.00211 18.7294C4.0276 18.7551 4.0553 18.7786 4.0852 18.7998C4.11069 18.8426 4.13839 18.8831 4.16829 18.9214C4.19378 18.9725 4.21726 19.0259 4.23873 19.0814C4.26863 19.1113 4.29632 19.1433 4.32182 19.1774C4.33888 19.2073 4.35593 19.2393 4.37299 19.2734C4.40289 19.3033 4.4327 19.3332 4.46241 19.363C4.47084 19.3971 4.47726 19.4291 4.48167 19.459C4.48167 19.459 4.51359 19.5806 4.51991 19.5935C4.52624 19.6127 4.61594 19.7087 4.62859 19.7214C4.64124 19.7406 4.78844 19.7918 4.78844 19.7918C4.81834 19.7661 4.84604 19.7384 4.87153 19.7087C4.87153 19.7087 4.96095 19.7087 4.99315 19.715C5.02506 19.715 5.06359 19.7662 5.06359 19.7662C5.11055 19.7875 5.15319 19.8066 5.19153 19.8237C5.19153 19.8237 5.25536 19.7662 5.27462 19.7596C5.28727 19.7467 5.40256 19.7852 5.40256 19.7852C5.42383 19.7765 5.44731 19.7701 5.473 19.7659C5.49006 19.7232 5.50501 19.6784 5.51785 19.6314C5.59893 19.6102 5.67569 19.5867 5.74814 19.561C5.74393 19.5227 5.73971 19.4865 5.73549 19.4524C5.73971 19.4141 5.74613 19.3757 5.75476 19.3372C5.79731 19.3286 5.84206 19.32 5.88902 19.3116V19.1901C5.88481 19.1431 5.87838 19.0941 5.86976 19.0429C5.87398 19.0002 5.87819 18.9597 5.88241 18.9214C5.91653 18.9256 5.95275 18.9299 5.99109 18.9343C6.01658 18.9131 6.04638 18.8917 6.0805 18.8702C6.0805 18.8063 6.08261 18.7402 6.08683 18.672C6.07399 18.6166 6.05903 18.5569 6.04198 18.493C6.02913 18.4418 6.01639 18.3884 6.00374 18.3329C6.00795 18.2605 6.01217 18.1859 6.01639 18.109C6.02482 18.1004 6.03124 18.0876 6.03565 18.0705C6.0782 18.0705 6.12085 18.0727 6.16359 18.0769C6.17643 18.0257 6.18918 17.9724 6.20183 17.9168C6.24438 17.8741 6.28703 17.8315 6.32977 17.7889C6.38516 17.7932 6.44276 17.7953 6.50256 17.7953C6.52384 17.757 6.54511 17.7164 6.56639 17.6737C6.59629 17.6226 6.6283 17.5714 6.66242 17.5203C6.62408 17.3113 6.58575 17.0959 6.54741 16.874C6.53898 16.8528 6.52834 16.8293 6.5155 16.8036C6.49001 16.7312 6.46653 16.6566 6.44506 16.5798V16.3623C6.40673 16.2941 6.36839 16.2259 6.33006 16.1577C6.33849 16.1193 6.35124 16.0831 6.3683 16.049C6.36408 15.9722 6.35986 15.8976 6.35565 15.8252C6.35565 15.8252 6.41947 15.6907 6.43241 15.6462C6.44506 15.6014 6.62418 15.4287 6.62418 15.4287C6.69241 15.3135 6.75854 15.1962 6.82256 15.0767C6.91207 15.0169 7.00158 14.9572 7.09109 14.8976L7.37256 14.5649C7.42374 14.5009 7.47281 14.4327 7.51977 14.3603C7.53261 14.2793 7.54535 14.1961 7.558 14.1109C7.63467 13.9402 7.71565 13.7675 7.80095 13.5928C7.82644 13.4989 7.85414 13.4029 7.88404 13.3049C7.86698 13.2579 7.84992 13.211 7.83286 13.1641C7.79031 13.1598 7.74556 13.1577 7.6986 13.1577C7.6986 13.1577 7.51315 13.3112 7.45565 13.3112C7.39815 13.3112 7.25727 13.3753 7.25727 13.3753C7.18904 13.4009 7.11869 13.4244 7.04624 13.4457C6.91399 13.3903 6.78183 13.3348 6.64977 13.2793C6.64977 13.2793 6.53476 13.1192 6.52815 13.0681C6.52183 13.0169 6.47698 12.825 6.47698 12.825C6.43864 12.7439 6.3981 12.6629 6.35536 12.5819C6.29575 12.552 6.23394 12.5221 6.16992 12.4922C6.15286 12.4112 6.1358 12.3302 6.11874 12.2491C6.05051 12.1424 5.98438 12.0294 5.92036 11.9101C5.88203 11.8204 5.8458 11.7287 5.81168 11.6351C5.80325 11.5797 5.79472 11.5221 5.78609 11.4624C5.74776 11.4154 5.70722 11.3706 5.66448 11.3279C5.62614 11.2555 5.58561 11.183 5.54286 11.1104C5.5557 11.0207 5.56634 10.9333 5.57478 10.848C5.54066 10.7371 5.50654 10.6284 5.47242 10.5219C5.38291 10.4537 5.29762 10.3897 5.21654 10.3299C5.17399 10.2447 5.13345 10.1593 5.09493 10.0739C5.09914 10.0312 5.10336 9.98635 5.10758 9.93942C5.15454 9.95647 5.2014 9.97562 5.24817 9.99689C5.27807 10.0693 5.30787 10.1418 5.33758 10.2144C5.38876 10.2186 5.43994 10.2207 5.49111 10.2207C5.55072 10.2677 5.61043 10.3146 5.67023 10.3615C5.6618 10.4468 5.65537 10.5321 5.65097 10.6176C5.74048 10.7413 5.83219 10.8629 5.92611 10.9822C5.96866 11.1102 6.0092 11.236 6.04773 11.3598C6.15851 11.5646 6.26729 11.765 6.37405 11.9612C6.37405 11.9612 6.43155 12.1402 6.45714 12.198C6.4764 12.2555 6.57875 12.4026 6.61067 12.4603C6.64258 12.5244 6.61699 12.7738 6.61699 12.7738C6.66395 12.8549 6.70871 12.9338 6.75126 13.0106C6.82793 12.9807 6.90469 12.9551 6.98155 12.9339C7.04979 12.8442 7.11802 12.7589 7.18626 12.6779H7.52523C7.58925 12.6522 7.65317 12.6266 7.717 12.6011C7.78523 12.5925 7.85136 12.584 7.91538 12.5756C7.94087 12.5116 7.96646 12.4455 7.99214 12.3773C8.06038 12.3602 8.13072 12.3453 8.20317 12.3325C8.24572 12.2813 8.28837 12.2302 8.33111 12.179C8.48464 12.0894 8.63597 11.9998 8.78509 11.9103C8.78509 11.9103 8.82333 11.6736 8.82333 11.6417C8.82965 11.6098 8.90642 11.552 8.90642 11.552C8.94897 11.4838 8.99161 11.4177 9.03436 11.3538C9.02592 11.2769 9.0195 11.2001 9.01509 11.1233C8.96392 11.0806 8.91274 11.0358 8.86157 10.9888C8.82323 10.9802 8.7849 10.9717 8.74656 10.9632C8.69539 10.9334 8.64421 10.9014 8.59303 10.8673C8.58019 10.8374 8.56744 10.8054 8.55479 10.7713C8.55479 10.7713 8.47803 10.6946 8.45244 10.7009C8.42685 10.7072 8.3245 10.8224 8.29259 10.8609C8.25435 10.9058 8.14538 10.925 8.10082 10.9377C8.05597 10.9506 7.98582 10.9247 7.98582 10.9247C7.93886 10.9077 7.8941 10.8906 7.85155 10.8736C7.83449 10.8437 7.81954 10.8138 7.8067 10.7839C7.78542 10.7242 7.76415 10.6623 7.74287 10.5983C7.69591 10.5726 7.64905 10.545 7.60228 10.5153L7.48728 10.3362C7.44894 10.268 7.41272 10.1999 7.3786 10.1317C7.32742 10.0847 7.27836 10.0357 7.2314 9.98453C7.22718 9.94622 7.22076 9.9036 7.21213 9.85666C7.24203 9.83961 7.27184 9.82046 7.30155 9.79919C7.31861 9.81203 7.33777 9.82266 7.35905 9.83109C7.38454 9.84392 7.41013 9.85676 7.43581 9.86959C7.45287 9.85254 7.46993 9.83338 7.48699 9.81212C7.48699 9.81212 7.56375 9.85695 7.58302 9.88252C7.60861 9.9081 7.58934 9.96557 7.58302 10.0426C7.58302 10.113 7.66611 10.1386 7.66611 10.1386C7.66611 10.1386 7.79405 10.292 7.81331 10.3242C7.83258 10.3498 7.9539 10.4138 7.9539 10.4138C8.04763 10.4138 8.14567 10.4117 8.24802 10.4075C8.28636 10.3947 8.32469 10.384 8.36303 10.3756C8.36303 10.3756 8.43347 10.3437 8.4717 10.3437C8.51656 10.35 8.52921 10.4078 8.54847 10.4397C8.57406 10.4782 8.62523 10.6061 8.62523 10.6061C8.68063 10.636 8.73391 10.6679 8.78509 10.702C8.87882 10.6978 8.97053 10.6914 9.06023 10.6828H9.3417C9.35455 10.6401 9.3695 10.5952 9.38655 10.5483C9.42067 10.5696 9.45268 10.5909 9.48258 10.6124C9.52954 10.6551 9.5743 10.6999 9.61685 10.7469C9.67224 10.734 9.72763 10.7191 9.78303 10.702C9.83842 10.6978 9.89171 10.6957 9.94288 10.6957C9.95572 10.7043 9.97067 10.7129 9.98773 10.7213C9.99636 10.7554 10.007 10.7895 10.0196 10.8236C10.0666 10.8577 10.1135 10.8897 10.1602 10.9196C10.1986 10.9495 10.2391 10.9793 10.2819 11.0092C10.316 11.0475 10.3501 11.0859 10.3842 11.1244C10.3884 11.1585 10.3926 11.1948 10.3969 11.2334C10.4053 11.2675 10.4138 11.3015 10.4224 11.3356C10.4224 11.3356 10.5055 11.4187 10.5185 11.4572C10.5377 11.4957 10.7488 11.4957 10.7488 11.4957C10.7957 11.4744 10.8426 11.451 10.8894 11.4253L10.9532 11.3356C10.9831 11.3527 11.0151 11.3697 11.0492 11.3868C11.0492 11.4594 11.0471 11.534 11.0429 11.6106C11.0471 11.7045 11.0513 11.7984 11.0555 11.8922C11.064 12.0415 11.0746 12.1929 11.0875 12.3465C11.0875 12.3465 11.228 12.5448 11.2602 12.6215C11.2985 12.7046 11.3882 12.935 11.3882 12.935C11.4436 13.0289 11.4969 13.1249 11.548 13.223C11.548 13.223 11.6697 13.575 11.6823 13.6069C11.6886 13.6454 11.7461 13.7988 11.7461 13.7988C11.7845 13.8201 11.825 13.8435 11.8677 13.8692C11.9019 13.8265 11.9381 13.7839 11.9764 13.7413C12.0447 13.6689 12.1129 13.5964 12.1811 13.5238V13.3893C12.194 13.3211 12.2046 13.2507 12.213 13.1781C12.213 13.0971 12.2109 13.014 12.2067 12.9287C12.1939 12.8563 12.1811 12.7817 12.1685 12.7049C12.1813 12.6281 12.1941 12.5512 12.2067 12.4744C12.2067 12.4744 12.341 12.404 12.3922 12.3914C12.4433 12.3721 12.4945 12.3402 12.5138 12.3146C12.5264 12.2891 12.5586 12.1994 12.5586 12.1994C12.5799 12.1695 12.6034 12.1375 12.6291 12.1034C12.6291 12.1034 12.7122 12.1034 12.7507 12.0715C12.7889 12.0397 12.853 11.9181 12.8849 11.8989C12.9169 11.8733 13.0641 11.8029 13.0641 11.8029C13.111 11.7431 13.1579 11.6834 13.2047 11.6239C13.2175 11.5811 13.2302 11.5363 13.2429 11.4894C13.2557 11.4511 13.2685 11.4106 13.2811 11.3678C13.3323 11.3636 13.3814 11.3593 13.4283 11.3549C13.4924 11.3591 13.5563 11.3612 13.6201 11.3612C13.6201 11.3612 13.665 11.1948 13.6713 11.1693C13.6776 11.1437 13.7607 11.0158 13.7607 11.0158C13.8032 11.0116 13.848 11.0073 13.895 11.0029C13.9034 11.0498 13.9098 11.0989 13.9142 11.15C13.9441 11.2268 13.9718 11.3058 13.9973 11.3868C14.0485 11.4594 14.0997 11.5319 14.1508 11.6043C14.2062 11.6769 14.2616 11.7473 14.317 11.8155C14.317 11.8155 14.3553 12.0523 14.3553 12.0842C14.3553 12.1161 14.3935 12.308 14.3935 12.308C14.4361 12.3464 14.4766 12.3869 14.5151 12.4296C14.5705 12.3913 14.6259 12.3529 14.6813 12.3144C14.7112 12.2462 14.741 12.178 14.7707 12.1098C14.8133 12.1651 14.8559 12.2185 14.8987 12.2698C14.9029 12.3595 14.905 12.4448 14.905 12.5259C14.8879 12.6027 14.8709 12.6795 14.8538 12.7563C14.8921 12.8117 14.9327 12.8671 14.9754 12.9227V13.1402C15.018 13.2212 15.0606 13.3023 15.1034 13.3833C15.1716 13.4643 15.2377 13.5454 15.3017 13.6264C15.3146 13.6904 15.3295 13.7565 15.3466 13.8247C15.3466 13.9143 15.3487 14.006 15.3529 14.0997C15.3742 14.2148 15.3977 14.3299 15.4234 14.4451C15.4874 14.5261 15.5513 14.6071 15.6151 14.6882C15.6663 14.7393 15.7175 14.7905 15.7687 14.8416C15.8112 14.8629 15.8538 14.8842 15.8966 14.9057C15.9436 14.8844 15.9904 14.8631 16.0372 14.8416V14.637C16.0414 14.5518 16.0478 14.4643 16.0564 14.3747C16.0181 14.2808 15.9776 14.1869 15.9348 14.0931C15.8965 14.0377 15.8582 13.9801 15.8198 13.9204C15.7558 13.8947 15.6919 13.867 15.6281 13.8373C15.6026 13.8032 15.5749 13.7712 15.545 13.7413C15.5365 13.6816 15.528 13.624 15.5194 13.5686C15.5194 13.5686 15.3788 13.3 15.3722 13.2488C15.3659 13.1977 15.3914 12.9801 15.3914 12.9801C15.3914 12.9801 15.6025 12.9416 15.66 12.9546C15.7175 12.9609 15.7431 13.108 15.7431 13.185C15.7431 13.262 15.7557 13.281 15.775 13.3322C15.7876 13.3833 15.9412 13.3322 15.9412 13.3322C15.9666 13.3919 15.9943 13.4495 16.0242 13.5048C16.0285 13.5773 16.0349 13.6477 16.0435 13.7161C16.0989 13.7161 16.1543 13.7139 16.2097 13.7097C16.2737 13.6415 16.3376 13.5711 16.4015 13.4985C16.4739 13.4133 16.5486 13.3279 16.6254 13.2425C16.6766 13.1103 16.7299 12.9802 16.7853 12.8523C16.7427 12.7243 16.7001 12.5985 16.6573 12.4747C16.5379 12.3425 16.4185 12.2124 16.2991 12.0845C16.2991 12.0845 16.1392 11.8733 16.1329 11.7839C16.1203 11.7009 16.216 11.6624 16.216 11.6624C16.2843 11.6241 16.3525 11.5856 16.4207 11.5471C16.4378 11.4789 16.4569 11.4129 16.4782 11.3489C16.5166 11.3659 16.5528 11.3809 16.5869 11.3937C16.6082 11.4448 16.6295 11.5003 16.6507 11.5601C16.736 11.5003 16.8213 11.4427 16.9066 11.3874C16.962 11.3362 17.0196 11.2808 17.0794 11.221C17.0794 11.221 17.3801 11.2147 17.4184 11.2081C17.4566 11.2081 17.559 11.1825 17.5846 11.1632C17.6165 11.144 17.6932 11.0354 17.6996 11.0032C17.7122 10.9713 17.9106 10.6897 17.9106 10.6897C17.9106 10.6897 17.9681 10.5107 17.9874 10.4851C18 10.4595 18.1279 10.3699 18.1279 10.3699C18.1578 10.2802 18.1899 10.1928 18.224 10.1075C18.1899 10.0052 18.1536 9.90283 18.1153 9.80034C18.1069 9.71931 18.0983 9.63827 18.0897 9.55724C17.9789 9.39939 17.8659 9.23943 17.7507 9.07737C17.7507 9.07737 17.6484 8.91732 17.6421 8.89174C17.6421 8.86617 17.7381 8.77019 17.7381 8.77019C17.8021 8.75314 17.8682 8.7382 17.9365 8.72537C17.9365 8.72537 17.9557 8.5975 17.9557 8.57192C17.9494 8.55267 17.9109 8.47595 17.9109 8.47595C17.9109 8.47595 17.8148 8.41848 17.7637 8.41848C17.7062 8.41215 17.6165 8.46962 17.6165 8.46962C17.5695 8.49529 17.5204 8.51876 17.4693 8.54003C17.4309 8.48888 17.3904 8.43773 17.3476 8.38658C17.3348 8.3226 17.3242 8.25862 17.3157 8.19463C17.3541 8.15632 17.3924 8.11791 17.4307 8.07941C17.4691 8.04531 17.5096 8.01332 17.5524 7.98343C17.5652 7.9706 17.5779 7.95565 17.5906 7.9386C17.6205 7.95987 17.6503 7.98123 17.68 8.00268C17.6842 8.0454 17.6863 8.08803 17.6863 8.13055C17.6863 8.13055 17.7056 8.19463 17.7182 8.22653C17.7309 8.2521 17.8844 8.20095 17.8844 8.20095C17.8844 8.20095 17.9931 8.17538 18.0316 8.1498C18.0699 8.12423 18.121 8.08573 18.121 8.08573C18.121 8.08573 18.2297 8.15613 18.2427 8.2136C18.249 8.27107 18.2234 8.27768 18.1978 8.30957C18.1722 8.34147 18.1274 8.36072 18.121 8.38629C18.1147 8.40555 18.2427 8.48227 18.2427 8.48227C18.2852 8.51215 18.3279 8.53984 18.3706 8.56531C18.3706 8.56531 18.4344 8.65497 18.4344 8.68686C18.4344 8.71876 18.4856 8.77651 18.5049 8.81473C18.5305 8.85324 18.556 8.9426 18.556 8.9426C18.556 8.98953 18.5581 9.03647 18.5624 9.0834C18.5923 9.1175 18.6221 9.1495 18.6518 9.17938C18.6987 9.17517 18.7456 9.16875 18.7924 9.16013C18.8393 9.14308 18.8841 9.12603 18.9266 9.10898C18.9309 9.04078 18.9373 8.9768 18.9459 8.91703C18.9417 8.86167 18.9375 8.80621 18.9333 8.75065C18.8821 8.68667 18.8309 8.61847 18.7797 8.54606C18.7285 8.48629 18.6774 8.42442 18.6262 8.36043C18.575 8.32634 18.5217 8.29013 18.4663 8.25182C18.4621 8.21772 18.46 8.18783 18.46 8.16216C18.5196 8.11944 18.5814 8.07893 18.6455 8.04061C18.6754 7.97242 18.7074 7.90633 18.7415 7.84234C18.7373 7.79962 18.733 7.75269 18.7288 7.70154C18.7714 7.67587 18.814 7.64599 18.8568 7.61189C18.9292 7.61189 19.0017 7.6162 19.0741 7.62482C19.1381 7.59072 19.2021 7.56083 19.2659 7.53516C19.2872 7.43287 19.3063 7.33048 19.3234 7.22799C19.3533 7.12569 19.381 7.0233 19.4065 6.92081C19.4065 6.84399 19.4086 6.76718 19.4128 6.69036C19.3873 6.63059 19.3596 6.56871 19.3297 6.50473C19.3339 6.46642 19.336 6.4259 19.336 6.38318C19.3276 6.3192 19.3191 6.25521 19.3105 6.19123C19.302 6.1443 19.2935 6.09526 19.2849 6.04411C19.2379 5.98874 19.1888 5.93118 19.1377 5.87141C19.1036 5.84574 19.0673 5.82017 19.029 5.79469C18.9907 5.78607 18.9565 5.77965 18.9266 5.77544C18.9054 5.79249 18.8841 5.80954 18.8628 5.82659C18.8415 5.82237 18.8203 5.81595 18.799 5.80733C18.7861 5.77323 18.7712 5.73914 18.7541 5.70504C18.7329 5.6922 18.7116 5.67726 18.6903 5.66021C18.6478 5.63454 18.603 5.60897 18.556 5.58349C18.5518 5.54939 18.5476 5.5174 18.5434 5.48751C18.5733 5.46625 18.6031 5.44278 18.6328 5.41711C18.6627 5.37018 18.6925 5.32535 18.7222 5.28263C18.7435 5.21443 18.7627 5.14835 18.7797 5.08436C18.7968 5.05869 18.8117 5.03101 18.8246 5.00132C18.8246 5.00132 18.9269 4.97574 18.9588 4.97574C18.9844 4.97574 19.0868 4.98207 19.106 4.97574C19.1253 4.96942 19.2596 5.01425 19.2596 5.01425C19.2596 5.01425 19.3938 5.09729 19.4258 5.11655C19.464 5.14212 19.5088 5.09729 19.5088 5.09729C19.5217 5.07603 19.5344 5.05687 19.5471 5.03982C19.5726 5.03982 19.6003 5.04193 19.6302 5.04614C19.6643 5.08886 19.7005 5.13369 19.7388 5.18062C19.773 5.19767 19.8092 5.21683 19.8475 5.23809C19.8901 5.22947 19.9306 5.22095 19.9691 5.21252C19.9691 5.16559 19.967 5.11655 19.9628 5.0654C19.9586 5.0313 19.9544 4.99931 19.9502 4.96942C19.9502 4.93954 19.9523 4.91396 19.9565 4.8927C19.982 4.88849 20.0055 4.88418 20.0269 4.87977C20.0653 4.89682 20.1015 4.90965 20.1356 4.91827C20.1655 4.93954 20.1932 4.963 20.2187 4.98867C20.257 5.03139 20.2933 5.07191 20.3274 5.11022C20.3444 5.11444 20.3594 5.11444 20.3722 5.11022C20.3807 5.07612 20.3913 5.04624 20.4041 5.02057C20.4041 5.00773 20.4062 4.9949 20.4105 4.98206C20.436 4.99911 20.4615 5.01616 20.4872 5.03321C20.5043 5.06731 20.5235 5.10352 20.5447 5.14183C20.5447 5.1675 20.5468 5.19739 20.5511 5.23149C20.5298 5.25275 20.5085 5.27622 20.4872 5.30188C20.4531 5.33598 20.419 5.37219 20.3849 5.4105C20.372 5.47027 20.3571 5.52994 20.34 5.58952C20.3529 5.64929 20.3656 5.70896 20.3783 5.76854C20.4038 5.84536 20.4293 5.92218 20.455 5.99899C20.4891 6.04171 20.5212 6.08223 20.5511 6.12054C20.5936 6.2102 20.6363 6.29765 20.679 6.38289C20.7089 6.43826 20.7387 6.4894 20.7684 6.53634C20.7939 6.56622 20.8216 6.59822 20.8515 6.63231C20.8643 6.61526 20.8771 6.60243 20.8897 6.59381C20.8982 6.55971 20.9046 6.52341 20.909 6.4849C20.909 6.44218 20.9111 6.39956 20.9153 6.35703C20.9153 6.30588 20.9132 6.25684 20.909 6.20991C20.9174 6.20129 20.9239 6.19276 20.9283 6.18433C20.9453 6.18855 20.9603 6.19066 20.9731 6.19066C20.9647 6.15656 20.9583 6.12246 20.9539 6.08836C20.941 6.04564 20.9283 6.00302 20.9156 5.96049C20.924 5.94766 20.9305 5.93061 20.9349 5.90934C20.9178 5.88808 20.9008 5.86461 20.8837 5.83894C20.8454 5.78779 20.807 5.73664 20.7687 5.6855C20.7432 5.63856 20.7176 5.59374 20.6919 5.55102L20.6663 5.43579C20.6876 5.41874 20.7089 5.4038 20.7302 5.39096C20.7302 5.39096 20.8133 5.37803 20.8262 5.37171C20.8325 5.36539 20.9093 5.35878 20.9093 5.35878C20.9434 5.39709 20.9796 5.43972 21.018 5.48665C21.018 5.48665 21.0818 5.5697 21.1203 5.6082C21.1459 5.6401 21.1266 5.54412 21.1266 5.54412C21.1224 5.5014 21.1182 5.46088 21.114 5.42257C21.1182 5.3969 21.1203 5.37133 21.1203 5.34585C21.1232 5.34757 21.1255 5.34872 21.1281 5.35045C22.4909 7.21736 23.2968 9.51586 23.2968 11.9997C23.2968 13.8801 22.8347 15.6545 22.0188 17.2157C22.0165 17.2117 22.0136 17.2073 22.0093 17.201C22.0009 17.1882 21.9944 17.1711 21.99 17.1499C21.9559 17.184 21.9218 17.2224 21.8877 17.2651C21.8961 17.295 21.9068 17.3249 21.9196 17.3548C21.9291 17.3642 21.9317 17.3665 21.94 17.3645C20.0275 20.8963 16.289 23.3 11.9997 23.3L12.0032 23.3003Z" fill="#7BFDB1"/>
<path fill-rule="evenodd" clip-rule="evenodd" d="M2.69041 5.75589C2.67764 5.7645 2.66706 5.77091 2.65868 5.77511L2.63324 5.81357V5.83911C2.64162 5.8349 2.64801 5.8306 2.65239 5.8262C2.66078 5.81338 2.66926 5.80056 2.67783 5.78774C2.67783 5.77913 2.68202 5.76852 2.69041 5.75589Z" fill="#7BFDB1"/>
<path fill-rule="evenodd" clip-rule="evenodd" d="M2.75483 5.67897C2.76321 5.67476 2.77169 5.66835 2.78027 5.65974C2.78446 5.65113 2.79084 5.64051 2.79942 5.62789C2.81638 5.59383 2.82905 5.56188 2.83743 5.53204C2.83324 5.52783 2.82905 5.52573 2.82486 5.52573C2.81647 5.52994 2.81009 5.53204 2.8057 5.53204C2.79294 5.55327 2.78027 5.57241 2.76769 5.58943C2.7593 5.61067 2.75082 5.632 2.74225 5.65343C2.74225 5.66624 2.74644 5.67476 2.75483 5.67897Z" fill="#7BFDB1"/>
<path fill-rule="evenodd" clip-rule="evenodd" d="M2.89553 8.49378C2.90818 8.43639 2.93377 8.41085 2.93377 8.41085V8.315C2.93377 8.315 2.87627 8.34054 2.85701 8.34054C2.83774 8.34686 2.76759 8.41085 2.76759 8.41085C2.75475 8.46193 2.74622 8.51091 2.742 8.55778C2.77612 8.58762 2.81235 8.61316 2.85068 8.6344C2.85068 8.6344 2.8826 8.53855 2.89553 8.49378Z" fill="#7BFDB1"/>
<path fill-rule="evenodd" clip-rule="evenodd" d="M2.9655 8.22511C2.98246 8.19526 2.99732 8.16762 3.01009 8.14217C3.0059 8.10391 3.0017 8.06555 2.99751 8.0271C2.97636 8.03131 2.9573 8.03772 2.94034 8.04633C2.92338 8.08899 2.90852 8.13156 2.89575 8.17403C2.89575 8.20387 2.89785 8.23372 2.90204 8.26356C2.92319 8.25074 2.94434 8.23793 2.9655 8.22511Z" fill="#7BFDB1"/>
<path fill-rule="evenodd" clip-rule="evenodd" d="M4.47533 8.87145C4.49661 8.84581 4.51578 8.82238 4.53284 8.80114C4.50293 8.78412 4.47093 8.76709 4.43681 8.75006C4.38563 8.75867 4.33235 8.76929 4.27695 8.78191C4.26852 8.82018 4.2621 8.86064 4.25769 8.9033C4.28759 8.89469 4.3196 8.88829 4.35372 8.88408C4.39205 8.88408 4.43259 8.87977 4.47533 8.87116V8.87145Z" fill="#7BFDB1"/>
<path fill-rule="evenodd" clip-rule="evenodd" d="M5.34506 9.06341C5.37055 9.0548 5.39614 9.04839 5.42182 9.04418C5.43466 9.02294 5.44741 9.00161 5.46006 8.98018C5.45163 8.96737 5.4452 8.95034 5.4408 8.9291C5.42374 8.9291 5.40668 8.927 5.38962 8.92279C5.35972 8.9314 5.33202 8.94202 5.30653 8.95464C5.2682 8.97167 5.23197 8.9887 5.19785 9.00572C5.19364 9.04839 5.18721 9.08885 5.17859 9.12711C5.20408 9.1229 5.22967 9.11439 5.25535 9.10157C5.28525 9.08875 5.31506 9.07594 5.34477 9.06312L5.34506 9.06341Z" fill="#7BFDB1"/>
<path fill-rule="evenodd" clip-rule="evenodd" d="M7.85871 17.3614C7.84165 17.3273 7.8267 17.2932 7.81386 17.2591C7.79258 17.2037 7.7691 17.1482 7.74342 17.0927C7.70087 17.1055 7.65611 17.1162 7.60915 17.1246C7.61337 17.1799 7.61337 17.2333 7.60915 17.2846C7.57503 17.3486 7.54092 17.4105 7.5068 17.4703C7.47268 17.5172 7.44067 17.5662 7.41077 17.6174C7.3895 17.6473 7.37244 17.6793 7.3596 17.7134C7.32969 17.675 7.302 17.6366 7.27651 17.5981C7.24239 17.6194 7.20827 17.6429 7.17415 17.6685C7.12719 17.7239 7.08033 17.7772 7.03356 17.8286C7.0165 17.901 7.00376 17.9735 6.99532 18.0461C7.03366 18.1015 7.0742 18.159 7.11694 18.2188C7.11272 18.2529 7.11272 18.2913 7.11694 18.334C7.08704 18.381 7.05723 18.4258 7.02752 18.4685C6.99341 18.4984 6.95929 18.5304 6.92517 18.5645C6.9336 18.6072 6.94213 18.652 6.95076 18.699C7.00194 18.7202 7.05522 18.7416 7.11061 18.763C7.11061 18.763 7.10429 18.8717 7.07238 18.8846C7.05311 18.9038 7.09164 19.038 7.09164 19.038C7.14703 19.0593 7.20032 19.0785 7.25149 19.0955C7.28139 19.1212 7.3112 19.1468 7.34091 19.1722C7.36218 19.1552 7.38346 19.1381 7.40473 19.1211C7.43463 19.1211 7.46233 19.119 7.48782 19.1148C7.51332 19.0977 7.5389 19.0807 7.56459 19.0636C7.58586 19.0508 7.60503 19.0379 7.62209 19.0251C7.63052 19.0038 7.63474 18.9825 7.63474 18.961C7.6518 18.9354 7.66675 18.9077 7.67959 18.878C7.68381 18.8353 7.68802 18.7926 7.69224 18.7501C7.69224 18.7501 7.73048 18.6286 7.73709 18.6093C7.73709 18.5774 7.75636 18.5389 7.75636 18.5389C7.7393 18.4962 7.72224 18.4557 7.70518 18.4174V18.3277C7.73508 18.3149 7.76488 18.302 7.79459 18.2892C7.80744 18.2679 7.8245 18.2488 7.84577 18.2317C7.84999 18.2061 7.85641 18.1805 7.86503 18.155C7.85219 18.1123 7.84155 18.0718 7.83312 18.0335C7.85018 18.0122 7.86724 17.9908 7.8843 17.9694C7.88851 17.9182 7.89283 17.8713 7.89723 17.8286C7.91008 17.8073 7.92282 17.786 7.93547 17.7645C7.94391 17.7176 7.95454 17.6706 7.96739 17.6237C7.95895 17.5726 7.95042 17.5214 7.9418 17.4703C7.91631 17.4319 7.88861 17.3957 7.85871 17.3616V17.3614Z" fill="#7BFDB1"/>
<path fill-rule="evenodd" clip-rule="evenodd" d="M12.4957 13.7207C12.4658 13.6781 12.436 13.6376 12.4063 13.5994C12.3764 13.5907 12.3465 13.5801 12.3168 13.5675C12.3168 13.5675 12.2145 13.7207 12.2018 13.7337C12.1826 13.7529 12.1699 13.8935 12.1699 13.8935C12.1741 13.9532 12.1784 14.0107 12.1826 14.066C12.2209 14.1257 12.2592 14.1853 12.2976 14.2447C12.3317 14.2534 12.3679 14.2598 12.4063 14.264C12.4362 14.2512 12.4639 14.2362 12.4893 14.2192C12.5106 14.1894 12.5298 14.1595 12.5468 14.1297C12.5511 14.087 12.5553 14.0444 12.5595 14.002L12.5468 13.8614C12.5298 13.8145 12.5127 13.7676 12.4957 13.7207Z" fill="#7BFDB1"/>
<path fill-rule="evenodd" clip-rule="evenodd" d="M7.85874 2.60826C7.87158 2.63814 7.88222 2.67013 7.89065 2.70423C7.94183 2.70423 7.9909 2.70634 8.03786 2.71055C8.09325 2.69772 8.14654 2.68708 8.19771 2.67865C8.22761 2.66161 8.26173 2.64456 8.30006 2.62751V2.57636C8.29163 2.57215 8.2831 2.57004 8.27448 2.57004C8.26604 2.5572 8.25751 2.54437 8.24889 2.53153C8.24889 2.53153 8.17845 2.49303 8.17212 2.48039C8.15919 2.48039 8.14021 2.42292 8.14021 2.42292C8.14443 2.40165 8.15506 2.38029 8.17212 2.35883C8.20202 2.32052 8.23183 2.28432 8.26154 2.25022C8.31693 2.22033 8.37664 2.18834 8.44066 2.15424C8.44066 2.15424 8.6261 2.01976 8.65169 2.0008C8.67095 1.98787 8.86904 1.91115 8.86904 1.91115C8.86904 1.91115 9.13757 1.81517 9.14419 1.81517C9.16978 1.80885 9.36154 1.76402 9.36154 1.76402C9.36154 1.76402 9.48316 1.73213 9.49581 1.72552C9.51507 1.71259 9.55964 1.68069 9.55964 1.68069C9.53414 1.66786 9.51066 1.65722 9.4892 1.6488C9.44224 1.64458 9.39317 1.64027 9.34199 1.63586C9.30788 1.65291 9.27807 1.66786 9.25258 1.68069C9.21424 1.69774 9.1716 1.7191 9.12464 1.74477C9.07346 1.76182 9.01586 1.78098 8.95184 1.80224C8.89645 1.80646 8.84317 1.81077 8.79199 1.81517C8.74081 1.82379 8.69606 1.83442 8.65772 1.84707C8.61939 1.87274 8.58316 1.90042 8.54905 1.93011H8.44669C8.41679 1.95578 8.3912 1.97925 8.36993 2.00051C8.30169 2.01756 8.23346 2.03461 8.16522 2.05166C8.14816 2.07292 8.13542 2.09208 8.12699 2.10913C8.11855 2.13901 8.10581 2.171 8.08875 2.2051C8.06747 2.21372 8.0483 2.22225 8.03124 2.23068C8.03124 2.23068 7.94183 2.30108 7.91624 2.31372C7.88433 2.32665 7.80124 2.39045 7.80124 2.39045C7.7884 2.43317 7.77565 2.47579 7.763 2.51832C7.77143 2.53958 7.77996 2.55874 7.78859 2.57579C7.81849 2.58441 7.84197 2.59504 7.85903 2.60768L7.85874 2.60826Z" fill="#7BFDB1"/>
<path fill-rule="evenodd" clip-rule="evenodd" d="M7.32771 3.07497C7.35761 3.07076 7.3832 3.06866 7.40448 3.06866C7.42575 3.05163 7.44923 3.0367 7.47492 3.02389C7.49198 2.99825 7.50472 2.97482 7.51316 2.95358C7.51737 2.93235 7.51948 2.91101 7.51948 2.88959C7.47693 2.8982 7.4386 2.90671 7.40448 2.91513C7.40448 2.91513 7.32139 3.01729 7.31506 3.0302C7.32139 3.0302 7.32771 3.07497 7.32771 3.07497Z" fill="#7BFDB1"/>
<path fill-rule="evenodd" clip-rule="evenodd" d="M4.4359 3.84926V3.81741C4.4401 3.8088 4.44219 3.80029 4.44219 3.79187C4.42523 3.79608 4.41037 3.80039 4.3976 3.80479C4.36787 3.83042 4.33824 3.85386 4.30871 3.87509C4.29594 3.89633 4.28536 3.91335 4.27698 3.92617C4.29813 3.92617 4.31928 3.92187 4.34043 3.91326C4.37435 3.89202 4.40618 3.87069 4.4359 3.84926Z" fill="#7BFDB1"/>
<path fill-rule="evenodd" clip-rule="evenodd" d="M4.52654 3.81714C4.52654 3.82575 4.52444 3.83427 4.52022 3.84268H4.54581C4.55874 3.83637 4.59698 3.7916 4.59698 3.7916C4.60983 3.77458 4.62257 3.75544 4.63522 3.73421C4.63101 3.73 4.62679 3.7257 4.62257 3.7213C4.62257 3.7213 4.6289 3.69576 4.63522 3.68284C4.64155 3.67653 4.65448 3.67653 4.65448 3.67653C4.6587 3.68074 4.66081 3.68925 4.66081 3.70207C4.66081 3.70207 4.71831 3.70207 4.73125 3.69576C4.73757 3.68944 4.7761 3.65099 4.7761 3.65099C4.78243 3.63808 4.80801 3.59991 4.81434 3.5936C4.82066 3.58068 4.76316 3.59991 4.7439 3.60651C4.71831 3.61942 4.6864 3.64496 4.6864 3.64496C4.67356 3.65357 4.66292 3.65788 4.65448 3.65788C4.64605 3.64927 4.63963 3.64286 4.63522 3.63865C4.61395 3.64726 4.59267 3.65577 4.5714 3.66419C4.5459 3.69403 4.52463 3.72168 4.50757 3.74712C4.52463 3.75133 4.53958 3.75564 4.55242 3.76004C4.53958 3.78127 4.53105 3.8004 4.52683 3.81743L4.52654 3.81714Z" fill="#7BFDB1"/>
<path fill-rule="evenodd" clip-rule="evenodd" d="M12.7515 1.37325C12.7771 1.37957 12.9433 1.38617 12.9433 1.38617C12.9816 1.36914 13.0222 1.35422 13.0649 1.3414C13.082 1.33719 13.0969 1.33288 13.1098 1.32848C13.1056 1.29864 13.0991 1.2688 13.0905 1.23895C13.0606 1.23474 13.0308 1.23044 13.0011 1.22604C12.967 1.21743 12.935 1.21102 12.9051 1.20681C12.8838 1.1982 12.8625 1.18969 12.8412 1.18127C12.8158 1.18127 12.7881 1.17917 12.7582 1.17496C12.7582 1.17496 12.7455 1.22604 12.7199 1.23895C12.688 1.25186 12.6495 1.30295 12.6495 1.31557C12.6495 1.3282 12.7455 1.36034 12.7518 1.37297L12.7515 1.37325Z" fill="#7BFDB1"/>
<path fill-rule="evenodd" clip-rule="evenodd" d="M12.0736 1.16853C12.0523 1.18556 12.0352 1.20048 12.0224 1.2133C12.0694 1.22612 12.1184 1.23893 12.1696 1.25175C12.225 1.26036 12.2826 1.26677 12.3424 1.27098C12.3978 1.27098 12.4575 1.27308 12.5215 1.27729C12.5386 1.26868 12.5535 1.26228 12.5664 1.25807C12.5834 1.24946 12.5984 1.23884 12.6112 1.22621C12.5899 1.2176 12.5665 1.20909 12.5408 1.20067C12.545 1.18786 12.5492 1.17504 12.5534 1.16222C12.5109 1.14098 12.4682 1.12185 12.4255 1.10483C12.3956 1.09622 12.3615 1.0877 12.3231 1.07928C12.3019 1.08789 12.2763 1.0943 12.2464 1.09851C12.2251 1.11975 12.2038 1.13888 12.1825 1.15591C12.1442 1.16012 12.108 1.16442 12.0739 1.16882L12.0736 1.16853Z" fill="#7BFDB1"/>
<path fill-rule="evenodd" clip-rule="evenodd" d="M11.8433 1.16204C11.8816 1.15343 11.9157 1.14491 11.9456 1.1365C11.9968 1.12789 12.0459 1.11938 12.0928 1.11096C12.1227 1.10235 12.1525 1.09383 12.1822 1.08542C12.1822 1.08542 12.2205 1.00248 12.2078 0.995883C12.1822 0.982969 12.144 0.982968 12.131 0.976655C12.1055 0.976655 12.0094 0.938202 12.0094 0.938202C11.9711 0.946811 11.937 0.955325 11.9071 0.963743C11.8772 0.97656 11.8495 0.989377 11.824 1.0022C11.7558 1.01501 11.6896 1.02783 11.6256 1.04065V1.0791C11.6682 1.09192 11.7087 1.10474 11.7472 1.11756C11.7771 1.13038 11.8091 1.1453 11.8433 1.16232V1.16204Z" fill="#7BFDB1"/>
<path fill-rule="evenodd" clip-rule="evenodd" d="M16.7488 2.28157C16.8212 2.2986 16.8895 2.31562 16.9535 2.33265C16.9663 2.32404 16.9834 2.31553 17.0046 2.30711C17.0046 2.30711 17.0622 2.3645 17.0877 2.38373C17.107 2.39004 17.2605 2.4285 17.2861 2.4285C17.3054 2.43481 17.3692 2.43481 17.3692 2.43481C17.365 2.41358 17.3629 2.39014 17.3629 2.36451C17.3629 2.36451 17.2413 2.30711 17.2223 2.2942C17.1967 2.27497 17.1007 2.19204 17.1007 2.19204C17.0623 2.18343 17.0218 2.17281 16.9791 2.16018C16.9791 2.16018 16.9664 2.21758 16.9408 2.21126C16.9282 2.21126 16.8448 2.1665 16.8448 2.1665C16.7936 2.13665 16.7424 2.10681 16.6913 2.07696C16.6359 2.07275 16.5805 2.07065 16.5251 2.07065C16.5379 2.09628 16.5529 2.12613 16.5699 2.16018C16.6295 2.19844 16.6893 2.23891 16.7491 2.28157H16.7488Z" fill="#7BFDB1"/>
<path fill-rule="evenodd" clip-rule="evenodd" d="M17.6826 2.53763C17.7338 2.55044 17.787 2.56747 17.8424 2.5887C17.8637 2.58009 17.885 2.57369 17.9063 2.56948C17.9063 2.55666 17.9042 2.54174 17.8999 2.52471C17.8658 2.50347 17.8338 2.48214 17.8039 2.46072C17.8039 2.46072 17.7145 2.43518 17.7016 2.43518C17.6823 2.42226 17.5799 2.39672 17.5799 2.39672C17.5416 2.3797 17.5054 2.36267 17.4713 2.34564C17.4671 2.35846 17.4628 2.37128 17.4586 2.38409C17.497 2.40973 17.5353 2.43527 17.5736 2.46072C17.6077 2.48635 17.644 2.51189 17.6823 2.53734L17.6826 2.53763Z" fill="#7BFDB1"/>
<path fill-rule="evenodd" clip-rule="evenodd" d="M19.4734 6.29325C19.4863 6.33597 19.499 6.37648 19.5117 6.4148C19.5458 6.46173 19.5756 6.50656 19.6011 6.54928C19.5969 6.57495 19.5927 6.60483 19.5884 6.63893C19.6183 6.67724 19.646 6.71565 19.6715 6.75416C19.7141 6.78404 19.7567 6.81393 19.7995 6.84381C19.8165 6.83097 19.8357 6.81814 19.857 6.80531C19.8612 6.77542 19.8633 6.74343 19.8633 6.70933C19.842 6.67944 19.8185 6.64956 19.7929 6.61968C19.7587 6.57274 19.7267 6.53012 19.6968 6.49181C19.6798 6.44909 19.6648 6.40857 19.652 6.37026C19.6648 6.37026 19.6798 6.36815 19.6968 6.36393C19.7097 6.35531 19.7224 6.34679 19.7351 6.33836C19.7138 6.30848 19.6967 6.28501 19.6839 6.26796C19.6327 6.21681 19.5773 6.16566 19.5177 6.11452C19.5049 6.08463 19.4942 6.05264 19.4858 6.01854C19.4603 5.96739 19.4347 5.91404 19.409 5.85849C19.3707 5.84987 19.3345 5.84345 19.3004 5.83923C19.3046 5.88195 19.3131 5.92889 19.3259 5.98004C19.3558 6.01835 19.3879 6.06097 19.422 6.10791C19.4348 6.16768 19.4519 6.22955 19.4731 6.29353L19.4734 6.29325Z" fill="#7BFDB1"/>
<path fill-rule="evenodd" clip-rule="evenodd" d="M19.7805 7.29118C19.7976 7.32528 19.8125 7.35938 19.8254 7.39347C19.8338 7.45746 19.8423 7.52144 19.851 7.58542C19.821 7.65362 19.7912 7.72182 19.7615 7.79001C19.787 7.84116 19.8147 7.89231 19.8446 7.94346C19.8745 7.92641 19.9043 7.91147 19.934 7.89863C19.9511 7.89001 19.9682 7.88149 19.9852 7.87306C20.0193 7.88589 20.0535 7.89653 20.0876 7.90495C20.1046 7.93905 20.1217 7.97526 20.1387 8.01357C20.16 8.00495 20.1813 7.99643 20.2026 7.988C20.2238 7.95811 20.243 7.92612 20.2601 7.89202C20.2813 7.84931 20.2984 7.80448 20.3113 7.75754C20.3113 7.75754 20.2857 7.62307 20.273 7.59749C20.2537 7.5656 20.1451 7.55899 20.1451 7.55899C20.0981 7.53772 20.049 7.51215 19.9979 7.48226C19.9766 7.461 19.9531 7.43543 19.9274 7.40554C19.9146 7.35018 19.9018 7.29472 19.8892 7.23917C19.8679 7.22212 19.8466 7.20507 19.8254 7.18802C19.8125 7.22633 19.7976 7.26043 19.7805 7.29031V7.29118Z" fill="#7BFDB1"/>
<path fill-rule="evenodd" clip-rule="evenodd" d="M19.3648 9.22996C19.3776 9.24701 19.3904 9.26406 19.403 9.28111C19.4371 9.28973 19.4692 9.30036 19.4991 9.31301C19.5203 9.31301 19.5395 9.3087 19.5566 9.30008C19.565 9.27881 19.5735 9.25966 19.5821 9.24261C19.6163 9.26387 19.6483 9.28523 19.6782 9.30669C19.6866 9.28964 19.6951 9.27259 19.7038 9.25554C19.6953 9.22565 19.6911 9.19577 19.6911 9.16588C19.7124 9.15726 19.7359 9.14663 19.7616 9.13399C19.7957 9.15966 19.8277 9.18523 19.8576 9.21071C19.8746 9.21493 19.8917 9.21703 19.9088 9.21703C19.93 9.20841 19.9535 9.2041 19.9792 9.2041C20.0091 9.21694 20.0389 9.23399 20.0686 9.25525C20.077 9.22537 20.0835 9.19548 20.0879 9.1656C20.1049 9.15276 20.122 9.13782 20.139 9.12077L20.2029 9.04405C20.2071 8.96723 20.2113 8.89041 20.2155 8.81359C20.1985 8.77528 20.1814 8.74118 20.1644 8.7113C20.1559 8.69425 20.1453 8.67931 20.1324 8.66647C20.1282 8.65364 20.1282 8.643 20.1324 8.63458V8.5705C20.1495 8.56188 20.1708 8.55546 20.1963 8.55124C20.2133 8.52557 20.2304 8.50211 20.2474 8.48084C20.239 8.45958 20.2284 8.43822 20.2155 8.41677C20.1814 8.37845 20.1473 8.34225 20.1132 8.30815C20.1132 8.30815 20.0939 8.20585 20.0876 8.18028C20.0813 8.1547 20.0493 8.07166 20.0493 8.07166C20.0152 8.06744 19.979 8.06534 19.9407 8.06534C19.9278 8.08239 19.9151 8.09943 19.9024 8.11648C19.9024 8.14637 19.9045 8.17405 19.9088 8.19953C19.9088 8.19953 19.9663 8.30844 19.9663 8.33401C19.9663 8.37251 19.8958 8.39809 19.8958 8.39809C19.9087 8.45345 19.9193 8.50891 19.9277 8.56446C19.9277 8.56446 19.9214 8.74348 19.9151 8.77567C19.9024 8.79492 19.8191 8.73716 19.8191 8.73716C19.7807 8.72854 19.7445 8.72212 19.7104 8.71791C19.6975 8.79032 19.6848 8.86283 19.6721 8.93543C19.6422 8.93122 19.6102 8.9248 19.5761 8.91618C19.5506 8.91197 19.5229 8.90344 19.493 8.89061C19.4589 8.91187 19.4248 8.92892 19.3907 8.94175C19.3652 8.97585 19.3396 9.01206 19.3139 9.05037L19.2245 9.08888C19.2373 9.11014 19.248 9.1315 19.2564 9.15296C19.2905 9.17863 19.3267 9.2042 19.3651 9.22968L19.3648 9.22996Z" fill="#7BFDB1"/>
<path fill-rule="evenodd" clip-rule="evenodd" d="M19.096 9.59412C19.1131 9.60694 19.128 9.61975 19.1409 9.63257C19.1537 9.66242 19.1644 9.68796 19.1728 9.70919C19.1898 9.73483 19.209 9.76037 19.2303 9.78581C19.2558 9.773 19.2814 9.76238 19.3071 9.75396C19.3113 9.73272 19.3177 9.70929 19.3263 9.68365C19.3179 9.65381 19.3094 9.62186 19.3007 9.58781C19.3049 9.53672 19.3092 9.48344 19.3134 9.42796C19.3092 9.40233 19.3071 9.37679 19.3071 9.35134C19.2816 9.30447 19.256 9.2597 19.2303 9.21704C19.2004 9.22565 19.1684 9.22995 19.1343 9.22995C19.1343 9.22995 19.0319 9.35766 19.0193 9.36426C19.0129 9.37717 18.9681 9.48564 18.9681 9.48564C18.9851 9.51128 19.0022 9.53892 19.0193 9.56858C19.0447 9.57719 19.0703 9.5857 19.096 9.59412Z" fill="#7BFDB1"/>
<path fill-rule="evenodd" clip-rule="evenodd" d="M19.5301 9.39599C19.5048 9.38738 19.4793 9.37676 19.4538 9.36414C19.4327 9.37695 19.4093 9.38977 19.3838 9.40259C19.3838 9.40259 19.3775 9.49844 19.3838 9.51106C19.3838 9.51738 19.4218 9.56214 19.4218 9.56214C19.4388 9.55794 19.4536 9.55153 19.4664 9.54292C19.4875 9.5301 19.5087 9.51728 19.5298 9.50446V9.3957L19.5301 9.39599Z" fill="#7BFDB1"/>
<path fill-rule="evenodd" clip-rule="evenodd" d="M16.7551 11.6865C16.7125 11.6907 16.6699 11.6971 16.6271 11.7057C16.5888 11.7953 16.5505 11.8847 16.5121 11.974C16.5292 12.0251 16.5463 12.0784 16.5633 12.1339H16.6593C16.6935 12.1082 16.7255 12.0784 16.7554 12.0443C16.7809 11.9762 16.8065 11.9038 16.8321 11.8271C16.8066 11.7802 16.7811 11.7334 16.7554 11.6865H16.7551Z" fill="#7BFDB1"/>
<path fill-rule="evenodd" clip-rule="evenodd" d="M18.1814 11.353C18.2155 11.3273 18.2497 11.3039 18.2838 11.2827C18.2966 11.2444 18.3116 11.2081 18.3286 11.1739C18.3286 11.1739 18.2967 10.963 18.2967 10.9374C18.2904 10.9119 18.2519 10.8224 18.2519 10.8224C18.222 10.8011 18.1899 10.7798 18.1558 10.7584C18.1259 10.7882 18.0961 10.8202 18.0664 10.8542C18.0494 10.9223 18.0302 10.9904 18.0089 11.0585C18.0218 11.1138 18.0324 11.1713 18.0408 11.231C18.0878 11.2737 18.1346 11.3141 18.1814 11.3524V11.353Z" fill="#7BFDB1"/>
<path fill-rule="evenodd" clip-rule="evenodd" d="M18.2134 12.0575C18.1921 12.1257 18.1729 12.1939 18.1559 12.2621C18.1218 12.292 18.0876 12.3196 18.0535 12.3451C18.0577 12.4049 18.062 12.4689 18.0662 12.5371C18.1045 12.5499 18.1451 12.5648 18.1878 12.5819C18.2006 12.6076 18.2134 12.6331 18.226 12.6586C18.2943 12.6672 18.3646 12.6758 18.4371 12.6842C18.4499 12.6756 18.4627 12.667 18.4753 12.6586C18.4924 12.6159 18.5115 12.5754 18.5328 12.5371C18.5244 12.503 18.5158 12.4668 18.5072 12.4285C18.5114 12.3901 18.5179 12.3539 18.5265 12.3198C18.5307 12.2687 18.5371 12.2196 18.5457 12.1727C18.5158 12.0959 18.486 12.0234 18.4563 11.9552C18.4308 11.9211 18.4052 11.8848 18.3796 11.8463C18.337 11.8675 18.2944 11.8889 18.2516 11.9104C18.2388 11.9615 18.226 12.0106 18.2134 12.0575Z" fill="#7BFDB1"/>
<path fill-rule="evenodd" clip-rule="evenodd" d="M18.3479 12.87C18.2925 12.853 18.2371 12.836 18.1817 12.8189C18.1563 12.8572 18.1307 12.8934 18.105 12.9274C18.1391 12.9657 18.1711 13.004 18.201 13.0425C18.248 13.0595 18.2927 13.0786 18.3353 13.0999C18.3694 13.0913 18.4014 13.0828 18.4313 13.0743C18.4271 13.0445 18.4207 13.0147 18.412 12.9848C18.3908 12.9465 18.3695 12.9082 18.3482 12.8697L18.3479 12.87Z" fill="#7BFDB1"/>
<path fill-rule="evenodd" clip-rule="evenodd" d="M18.4948 12.8827C18.5289 12.904 18.563 12.9295 18.5972 12.9594C18.6397 12.9892 18.6824 13.0212 18.7251 13.0552C18.7379 13.0296 18.7507 13.0019 18.7633 12.9723C18.7888 12.9553 18.8144 12.9361 18.8401 12.9149L18.7889 12.7872C18.7548 12.7531 18.7228 12.7191 18.6929 12.685C18.6459 12.6892 18.5991 12.6935 18.5523 12.6979C18.5395 12.7278 18.5245 12.7576 18.5075 12.7875C18.5032 12.8173 18.499 12.8493 18.4948 12.8833V12.8827Z" fill="#7BFDB1"/>
<path fill-rule="evenodd" clip-rule="evenodd" d="M17.964 13.7076C17.9811 13.6777 17.996 13.6479 18.0089 13.6181C18.0302 13.5798 18.0514 13.5414 18.0727 13.503C18.0898 13.4647 18.1089 13.4243 18.1302 13.3816C18.1473 13.3475 18.1622 13.3135 18.1751 13.2794C18.1664 13.2412 18.1558 13.205 18.1431 13.171C18.1177 13.1752 18.09 13.1752 18.0601 13.171C18.0388 13.2178 18.0196 13.2668 18.0026 13.3179C17.9429 13.3818 17.8854 13.4478 17.8298 13.5159C17.8213 13.5882 17.8107 13.6585 17.7979 13.7268C17.8362 13.7438 17.8745 13.763 17.9129 13.7842C17.9299 13.7586 17.947 13.733 17.964 13.7076Z" fill="#7BFDB1"/>
<path fill-rule="evenodd" clip-rule="evenodd" d="M18.6164 13.1068C18.5952 13.1026 18.5739 13.0983 18.5526 13.0939C18.5271 13.111 18.5015 13.1259 18.4758 13.1387C18.4758 13.1387 18.4632 13.2409 18.4632 13.2538C18.4632 13.2667 18.508 13.3304 18.508 13.3304C18.5379 13.339 18.57 13.3433 18.6041 13.3433C18.6169 13.3221 18.6319 13.3007 18.6489 13.2793C18.6574 13.2581 18.6659 13.2346 18.6745 13.209C18.6617 13.192 18.651 13.175 18.6426 13.1579C18.6342 13.1451 18.6256 13.1281 18.617 13.1068H18.6164Z" fill="#7BFDB1"/>
<path fill-rule="evenodd" clip-rule="evenodd" d="M18.7631 13.4328C18.7758 13.3902 18.7885 13.3433 18.8011 13.2922C18.763 13.2964 18.7227 13.2985 18.6802 13.2985C18.676 13.3368 18.6718 13.3729 18.6676 13.407C18.6846 13.4198 18.7057 13.4304 18.7311 13.4388C18.7394 13.4388 18.75 13.4367 18.7628 13.4325L18.7631 13.4328Z" fill="#7BFDB1"/>
<path fill-rule="evenodd" clip-rule="evenodd" d="M18.7826 13.2089C18.8081 13.2131 18.8337 13.2195 18.8593 13.2281C18.8722 13.2195 18.8849 13.2089 18.8976 13.1963C18.9146 13.1876 18.9317 13.1748 18.9488 13.1578C18.9658 13.1408 18.9808 13.1237 18.9936 13.1067C19.0064 13.0855 19.0171 13.0642 19.0255 13.0427C19.0127 13.0299 18.9977 13.0171 18.9807 13.0043C18.9423 13.0127 18.9018 13.0212 18.8591 13.0298C18.8336 13.0554 18.808 13.0789 18.7823 13.1001V13.2089H18.7826Z" fill="#7BFDB1"/>
<path fill-rule="evenodd" clip-rule="evenodd" d="M18.3924 13.8676C18.4137 13.8804 18.4329 13.8974 18.4499 13.9186C18.4628 13.9058 18.4734 13.8952 18.4819 13.8868C18.5073 13.874 18.5329 13.8612 18.5586 13.8483C18.5715 13.8057 18.5842 13.7609 18.5969 13.714C18.6181 13.6842 18.6373 13.6543 18.6544 13.6245V13.5605C18.6331 13.5393 18.6139 13.5201 18.5969 13.5031C18.5627 13.5287 18.5307 13.5522 18.5008 13.5734C18.4838 13.6203 18.4646 13.6672 18.4433 13.714C18.4263 13.7651 18.4092 13.8162 18.3922 13.8673L18.3924 13.8676Z" fill="#7BFDB1"/>
<path fill-rule="evenodd" clip-rule="evenodd" d="M19.0448 13.9186C19.0448 13.9186 19.096 13.8675 19.1023 13.8546C19.1086 13.8354 19.1471 13.7332 19.1471 13.7332C19.1301 13.6992 19.1151 13.6672 19.1023 13.6374C19.0939 13.5947 19.0853 13.5521 19.0767 13.5097C19.0468 13.4926 19.017 13.4735 18.9873 13.4523C18.949 13.4565 18.9106 13.4586 18.8723 13.4586C18.8424 13.4926 18.8126 13.5289 18.7829 13.5673C18.7616 13.6014 18.7381 13.6333 18.7124 13.6632C18.6954 13.6972 18.6783 13.7292 18.6613 13.759C18.6741 13.7761 18.689 13.7931 18.7061 13.8101C18.7232 13.8528 18.7381 13.8976 18.751 13.9444C18.8021 13.9827 18.8533 14.021 18.9045 14.0595C18.9173 14.0467 18.9301 14.0339 18.9427 14.021C18.9556 13.9998 18.9705 13.9785 18.9876 13.957C19.0046 13.9484 19.0238 13.9356 19.0451 13.9186H19.0448Z" fill="#7BFDB1"/>
<path fill-rule="evenodd" clip-rule="evenodd" d="M16.2436 16.037C16.2394 16.0199 16.2352 16.0029 16.231 15.9858C16.2352 15.9347 16.2373 15.8835 16.2373 15.8324C16.2373 15.8025 16.2394 15.7726 16.2436 15.7427C16.2352 15.7171 16.2246 15.6894 16.2117 15.6597C16.1947 15.6214 16.1734 15.5873 16.1479 15.5574C16.118 15.5446 16.086 15.536 16.0519 15.5318C16.022 15.4935 15.9922 15.453 15.9624 15.4103C15.9327 15.3675 15.905 15.3249 15.8794 15.2824C15.8665 15.227 15.8538 15.1737 15.8411 15.1223C15.8327 15.0796 15.8263 15.037 15.8219 14.9945C15.8219 14.9945 15.7069 14.9304 15.6747 14.9114C15.6491 14.8985 15.4763 14.8218 15.4763 14.8218C15.455 14.7919 15.4337 14.7599 15.4124 14.7258C15.3783 14.6831 15.3421 14.6405 15.3038 14.5979C15.2696 14.5809 15.2376 14.5638 15.2077 14.5468C15.1652 14.5339 15.1204 14.5211 15.0735 14.5083C15.0436 14.4912 15.0138 14.4742 14.9841 14.4571C14.9542 14.4188 14.9244 14.3825 14.8946 14.3482C14.8946 14.3482 14.7923 14.3353 14.7667 14.3353C14.7411 14.3353 14.6517 14.2968 14.6517 14.2968C14.6047 14.3096 14.5579 14.3225 14.5111 14.3353C14.5366 14.3822 14.5601 14.4292 14.5815 14.4761C14.6285 14.4931 14.6754 14.5102 14.7221 14.5272C14.7691 14.57 14.816 14.6126 14.8627 14.6551C14.9097 14.6808 14.9566 14.7085 15.0033 14.7382C15.0587 14.8362 15.1141 14.9322 15.1695 15.0261C15.1908 15.0602 15.2143 15.0943 15.2399 15.1284C15.2399 15.1753 15.242 15.2222 15.2463 15.2692C15.2846 15.3075 15.3229 15.3438 15.3613 15.3781C15.4082 15.4549 15.4573 15.5317 15.5085 15.6085C15.5596 15.6639 15.6108 15.7215 15.662 15.7812C15.6919 15.8195 15.7217 15.858 15.7514 15.8965C15.7855 15.9518 15.8175 16.0073 15.8474 16.0628C15.8986 16.1056 15.9477 16.1504 15.9946 16.1973C16.0245 16.1887 16.0522 16.1823 16.0777 16.1781C16.1032 16.1482 16.1267 16.1205 16.1482 16.095C16.1823 16.0738 16.2143 16.0546 16.2442 16.0375L16.2436 16.037Z" fill="#7BFDB1"/>
<path fill-rule="evenodd" clip-rule="evenodd" d="M16.2373 15.5824C16.2457 15.5952 16.2542 15.608 16.2628 15.6209C16.3012 15.6251 16.3395 15.6294 16.3778 15.6338C16.3778 15.6338 16.4227 15.6209 16.4227 15.6082C16.4354 15.5953 16.4483 15.5316 16.4483 15.5316C16.427 15.5188 16.4014 15.506 16.3715 15.4932C16.3715 15.4932 16.3396 15.4421 16.3333 15.4292C16.3206 15.4162 16.2628 15.3718 16.2628 15.3718C16.2245 15.3718 16.1862 15.3697 16.1478 15.3654C16.1436 15.3911 16.1394 15.4187 16.1352 15.4484C16.148 15.474 16.1608 15.4975 16.1734 15.5187C16.1947 15.5399 16.216 15.5613 16.2373 15.5827V15.5824Z" fill="#7BFDB1"/>
<path fill-rule="evenodd" clip-rule="evenodd" d="M16.6338 16.4586C16.6763 16.4672 16.7168 16.4779 16.7554 16.4905C16.7724 16.5117 16.7916 16.5308 16.8129 16.5479C16.8129 16.5479 16.9664 16.5734 16.9791 16.5671C16.9917 16.5671 17.1133 16.5479 17.1133 16.5479C17.1432 16.5393 17.173 16.5308 17.2027 16.5223C17.2411 16.5309 17.2794 16.5374 17.3177 16.5416C17.3476 16.5374 17.3796 16.5352 17.4138 16.5352C17.418 16.5054 17.4222 16.4778 17.4264 16.4523C17.4348 16.4225 17.4413 16.3926 17.4457 16.3628C17.4328 16.3542 17.4179 16.3457 17.4008 16.3372H17.3114C17.2944 16.3032 17.2794 16.2691 17.2666 16.2351C17.224 16.2393 17.1814 16.2414 17.1386 16.2414C17.0961 16.2202 17.0534 16.1967 17.0107 16.1711C16.9553 16.1669 16.8999 16.1648 16.8445 16.1648C16.7763 16.1606 16.7101 16.1563 16.6461 16.1519C16.5865 16.1348 16.5268 16.122 16.467 16.1134L16.2241 16.1645C16.1942 16.2027 16.1644 16.2389 16.1346 16.273C16.1389 16.307 16.1431 16.3411 16.1473 16.3751C16.1686 16.3921 16.1898 16.4113 16.2111 16.4325H16.3454C16.3709 16.4411 16.3944 16.4496 16.4158 16.4581C16.4158 16.4581 16.5119 16.471 16.5374 16.471C16.563 16.471 16.6335 16.4581 16.6335 16.4581L16.6338 16.4586Z" fill="#7BFDB1"/>
<path fill-rule="evenodd" clip-rule="evenodd" d="M16.6657 15.3525C16.6956 15.3738 16.7276 15.3972 16.7617 15.4229C16.7746 15.4698 16.7873 15.5189 16.8 15.57C16.8341 15.6041 16.8682 15.6382 16.9023 15.6723C16.9619 15.698 17.0216 15.7215 17.0815 15.7427C17.1198 15.7257 17.1603 15.7086 17.2031 15.6916H17.3247C17.3375 15.7086 17.3482 15.73 17.3566 15.7557C17.3779 15.7685 17.397 15.7834 17.4141 15.8005C17.4396 15.8133 17.4652 15.8262 17.4909 15.839C17.5164 15.8091 17.5419 15.7771 17.5676 15.743C17.5931 15.7218 17.6187 15.7004 17.6444 15.6789V15.583C17.6657 15.5148 17.6869 15.4466 17.7082 15.3784C17.7423 15.3401 17.7743 15.3017 17.8042 15.2631C17.8171 15.2078 17.8298 15.1523 17.8425 15.0968C17.8766 15.0669 17.9086 15.0413 17.9385 15.02C17.9684 14.9988 17.9961 14.9774 18.0216 14.956C18.03 14.9132 18.0365 14.8748 18.0409 14.8407C18.0196 14.8109 17.9983 14.7832 17.977 14.7577C17.9429 14.7236 17.9109 14.6874 17.881 14.6491C17.881 14.5937 17.8831 14.5362 17.8873 14.4764C17.9427 14.4507 17.9981 14.423 18.0535 14.3933C18.079 14.355 18.1046 14.3188 18.1303 14.2847C18.1516 14.2506 18.175 14.2165 18.2007 14.1824C18.1965 14.1525 18.1944 14.1227 18.1944 14.0928C18.1561 14.0886 18.1198 14.0842 18.0857 14.0798C18.0217 14.0628 17.9578 14.0457 17.8939 14.0287C17.847 14.0116 17.8022 13.9925 17.7597 13.9712C17.7468 14.0053 17.7319 14.0416 17.7148 14.0801C17.6765 14.093 17.6382 14.1058 17.5998 14.1186C17.587 14.1527 17.5742 14.1868 17.5616 14.2209C17.5487 14.2592 17.536 14.2977 17.5234 14.3362C17.5063 14.3404 17.4871 14.3447 17.4658 14.3491C17.4359 14.3748 17.4061 14.3982 17.3764 14.4195C17.3423 14.4664 17.3082 14.5112 17.2741 14.554C17.2741 14.554 17.191 14.6563 17.1717 14.6563H17.095C17.0737 14.6819 17.0524 14.7075 17.0311 14.733C17.0056 14.7799 16.9779 14.8269 16.948 14.8738H16.7882C16.7456 14.8696 16.7051 14.8675 16.6666 14.8675C16.6282 14.9016 16.592 14.9357 16.5579 14.9698C16.5537 15.0167 16.5516 15.0657 16.5516 15.1169C16.5857 15.151 16.6219 15.183 16.6603 15.2129C16.6603 15.264 16.6624 15.3109 16.6666 15.3537L16.6657 15.3525Z" fill="#7BFDB1"/>
<path fill-rule="evenodd" clip-rule="evenodd" d="M18.8594 14.8919C18.8552 14.8536 18.851 14.8174 18.8467 14.7833C18.8126 14.7791 18.7806 14.7769 18.7507 14.7769C18.7507 14.7769 18.6613 14.8473 18.6547 14.8537C18.642 14.8666 18.5397 14.8666 18.5397 14.8666C18.4971 14.8538 18.4545 14.8388 18.4117 14.8218C18.3905 14.8132 18.3692 14.8046 18.3479 14.7962C18.3138 14.809 18.2797 14.8219 18.2456 14.8347C18.2201 14.873 18.1945 14.9114 18.1688 14.9499C18.173 14.9712 18.1772 14.9947 18.1814 15.0203C18.1602 15.0715 18.1389 15.1248 18.1176 15.1804C18.1048 15.2357 18.092 15.2912 18.0794 15.3468C18.0581 15.3766 18.0389 15.4086 18.0219 15.4427C18.0048 15.4768 17.9878 15.5088 17.9707 15.5387C17.9878 15.5814 18.0027 15.6241 18.0156 15.6666C18.0284 15.6965 18.0411 15.7264 18.0538 15.7562C18.0496 15.799 18.0454 15.8438 18.0411 15.8907C18.0411 15.9164 18.0433 15.942 18.0475 15.9674C18.0603 15.9845 18.0709 16.0058 18.0794 16.0315C18.1219 16.0229 18.1625 16.0144 18.201 16.0059C18.201 16.0059 18.2203 15.9229 18.2266 15.9036C18.2266 15.8973 18.1817 15.8013 18.1817 15.8013C18.1817 15.8013 18.1881 15.7439 18.1881 15.7309C18.1944 15.7117 18.2519 15.635 18.2519 15.635C18.2519 15.635 18.3157 15.6669 18.3094 15.6861C18.3157 15.6924 18.2964 15.7565 18.2964 15.7565C18.3051 15.7864 18.3157 15.8163 18.3284 15.8462C18.3412 15.8718 18.3562 15.8995 18.3732 15.9292C18.3732 15.9292 18.4307 16.0059 18.45 15.9996C18.4626 15.9996 18.5716 15.9485 18.5716 15.9485C18.5758 15.9144 18.58 15.8782 18.5842 15.8399C18.5672 15.8142 18.5501 15.7843 18.5331 15.7502C18.5076 15.7332 18.482 15.714 18.4563 15.6927C18.4392 15.6458 18.4243 15.5989 18.4115 15.5519C18.4115 15.5519 18.3666 15.4623 18.3666 15.4496C18.3729 15.4367 18.4304 15.4241 18.4304 15.4241C18.473 15.3984 18.5156 15.3707 18.5584 15.341C18.5754 15.2983 18.5904 15.2599 18.6032 15.2258C18.5948 15.2001 18.5884 15.1745 18.584 15.1491C18.5498 15.1491 18.5157 15.147 18.4816 15.1427C18.4816 15.1427 18.3856 15.2258 18.3729 15.2324C18.3537 15.2453 18.2898 15.2643 18.2898 15.2643C18.2728 15.2344 18.2557 15.2067 18.2387 15.1812C18.2473 15.1514 18.2558 15.1237 18.2642 15.0982C18.2642 15.0982 18.2579 14.9893 18.2579 14.9703C18.2579 14.964 18.2962 14.9063 18.2962 14.9063C18.2962 14.9063 18.36 14.9448 18.3729 14.9574C18.3856 14.9703 18.4879 14.9637 18.4879 14.9637C18.4879 14.9637 18.584 15.0086 18.6029 15.0149C18.6222 15.0212 18.7435 15.0086 18.7435 15.0086C18.7819 14.9702 18.8202 14.9318 18.8585 14.8933L18.8594 14.8919Z" fill="#7BFDB1"/>
<path fill-rule="evenodd" clip-rule="evenodd" d="M19.1472 15.0638C19.1771 15.051 19.2069 15.0382 19.2366 15.0254C19.2537 14.9998 19.2664 14.9742 19.2748 14.9488C19.2748 14.9488 19.3004 14.8337 19.3004 14.8145C19.3068 14.8016 19.3131 14.6802 19.3131 14.6802C19.3173 14.6291 19.3215 14.5801 19.3257 14.5332C19.3257 14.5332 19.2107 14.5203 19.1978 14.5203C19.1915 14.5266 19.1785 14.6099 19.1722 14.6288C19.1722 14.6414 19.134 14.731 19.134 14.731C19.0999 14.7522 19.0678 14.7735 19.0379 14.795C19.0337 14.8376 19.0316 14.8781 19.0316 14.9163C19.0571 14.9376 19.0827 14.9567 19.1084 14.9737C19.1212 15.0078 19.134 15.0376 19.1466 15.0633L19.1472 15.0638Z" fill="#7BFDB1"/>
<path fill-rule="evenodd" clip-rule="evenodd" d="M18.8723 15.365C18.8978 15.3608 18.9234 15.3587 18.9491 15.3587C18.9619 15.3417 18.9747 15.3246 18.9873 15.3076C18.9831 15.2864 18.9767 15.2693 18.9681 15.2565C18.934 15.2565 18.8998 15.2608 18.8657 15.2694H18.7697C18.7655 15.2951 18.7591 15.3206 18.7504 15.3461C18.7633 15.3631 18.776 15.378 18.7887 15.3908C18.8186 15.3822 18.8463 15.3737 18.8718 15.3653L18.8723 15.365Z" fill="#7BFDB1"/>
<path fill-rule="evenodd" clip-rule="evenodd" d="M19.2239 15.3331C19.241 15.3119 19.2602 15.2906 19.2815 15.2691C19.2644 15.2563 19.2473 15.2435 19.2303 15.2307H19.1342C19.1214 15.2519 19.1087 15.271 19.096 15.2881C19.1089 15.3051 19.1216 15.32 19.1342 15.3328C19.1641 15.3286 19.194 15.3286 19.2237 15.3328L19.2239 15.3331Z" fill="#7BFDB1"/>
<path fill-rule="evenodd" clip-rule="evenodd" d="M19.2625 15.5313C19.2795 15.5185 19.2945 15.5056 19.3073 15.4928C19.3286 15.5099 19.3478 15.5248 19.3648 15.5376C19.3777 15.5504 19.3883 15.5653 19.3967 15.5824C19.4393 15.5653 19.4798 15.5483 19.5184 15.5313C19.5099 15.5056 19.5035 15.478 19.4991 15.4483C19.482 15.4101 19.4671 15.3739 19.4542 15.3399C19.4031 15.3399 19.3519 15.3442 19.3007 15.3528C19.2708 15.3784 19.2431 15.404 19.2176 15.4294C19.2092 15.4593 19.2028 15.4869 19.1984 15.5123C19.2112 15.5252 19.224 15.5401 19.2366 15.5571C19.245 15.5443 19.2536 15.5358 19.2622 15.5316L19.2625 15.5313Z" fill="#7BFDB1"/>
<path fill-rule="evenodd" clip-rule="evenodd" d="M19.9211 15.0197C19.8912 15.0538 19.8614 15.0878 19.8317 15.1219C19.8232 15.1602 19.8147 15.1985 19.8061 15.237C19.8316 15.254 19.8572 15.271 19.8829 15.288C19.934 15.2794 19.9831 15.2709 20.0301 15.2625C20.0642 15.2413 20.0962 15.2178 20.1261 15.1922C20.1261 15.171 20.1282 15.1496 20.1324 15.1282C20.1324 15.0984 20.1345 15.0685 20.1387 15.0387C20.0962 15.0258 20.0556 15.013 20.0171 15.0002C19.9872 15.0044 19.9552 15.0108 19.9211 15.0194V15.0197Z" fill="#7BFDB1"/>
<path fill-rule="evenodd" clip-rule="evenodd" d="M21.2258 16.0114C21.2003 15.9773 21.1747 15.9432 21.1491 15.9091C21.1575 15.8792 21.166 15.8493 21.1746 15.8194C21.1746 15.7811 21.1768 15.7406 21.181 15.6979C21.1555 15.668 21.1299 15.6381 21.1042 15.6082C21.0829 15.5699 21.0617 15.5294 21.0404 15.4867C21.0105 15.4696 20.9807 15.4547 20.951 15.4419V15.3715C20.9467 15.3544 20.9403 15.3374 20.9317 15.3203H20.823C20.8104 15.314 20.727 15.3074 20.727 15.3074C20.6844 15.2903 20.6418 15.2712 20.5991 15.2499C20.5565 15.22 20.5117 15.1859 20.4648 15.1476C20.4307 15.1434 20.3966 15.1349 20.3624 15.122C20.3283 15.1263 20.2942 15.1284 20.2601 15.1284C20.2601 15.1284 20.1641 15.2692 20.1451 15.2818C20.1258 15.2947 20.0683 15.3841 20.0683 15.3841C20.0342 15.4012 20.0001 15.4182 19.966 15.4353C19.9276 15.4395 19.8914 15.4416 19.8573 15.4416C19.8402 15.4502 19.8232 15.4566 19.8061 15.4608C19.8019 15.5035 19.7977 15.5441 19.7935 15.5824C19.8105 15.5994 19.8297 15.6144 19.851 15.6272C19.8979 15.6059 19.9427 15.5868 19.9852 15.5697C19.9852 15.5697 20.062 15.6146 20.0683 15.6338C20.0746 15.6531 20.1643 15.7169 20.1643 15.7169C20.1898 15.768 20.2154 15.817 20.2411 15.864C20.2411 15.864 20.2029 16.0174 20.1707 16.0367C20.1451 16.0559 20.0813 16.1263 20.0813 16.1263C20.0855 16.1562 20.0897 16.1861 20.0939 16.216C20.1535 16.1903 20.2089 16.1668 20.2601 16.1456C20.3026 16.1542 20.3453 16.1606 20.388 16.1648C20.4306 16.1861 20.4732 16.2075 20.516 16.2289C20.5585 16.1948 20.6012 16.1628 20.6439 16.1329C20.6652 16.1031 20.6887 16.069 20.7143 16.0306C20.7485 15.9965 20.7826 15.9581 20.8167 15.9154C20.8466 15.9367 20.8764 15.958 20.9061 15.9795C20.9316 16.0178 20.9593 16.0562 20.9892 16.0947C21.0105 16.1417 21.0318 16.1865 21.053 16.2292C21.0829 16.2505 21.1127 16.2675 21.1424 16.2803C21.185 16.2717 21.2255 16.2611 21.2641 16.2484C21.2982 16.2272 21.3302 16.2058 21.3601 16.1844C21.3729 16.1587 21.3836 16.1288 21.392 16.0947C21.3749 16.0777 21.3537 16.0648 21.3282 16.0562C21.2941 16.0392 21.2599 16.0242 21.2258 16.0114Z" fill="#7BFDB1"/>
<path fill-rule="evenodd" clip-rule="evenodd" d="M21.4817 15.4099C21.4605 15.4311 21.437 15.4545 21.4113 15.4802C21.4113 15.4802 21.3282 15.4865 21.2963 15.512C21.2707 15.5249 21.2963 15.6271 21.2963 15.6271C21.3304 15.6399 21.3666 15.657 21.405 15.6782C21.4349 15.6399 21.4626 15.6037 21.4881 15.5694C21.4881 15.5694 21.5456 15.4673 21.5519 15.4417C21.5582 15.4225 21.5838 15.3396 21.5838 15.3396C21.5625 15.331 21.539 15.3224 21.5134 15.314C21.5049 15.3439 21.4943 15.3758 21.4814 15.4099H21.4817Z" fill="#7BFDB1"/>
<path fill-rule="evenodd" clip-rule="evenodd" d="M21.7303 15.1218C21.7176 15.0749 21.707 15.0238 21.6986 14.9685C21.6689 14.9473 21.6393 14.9282 21.6097 14.9111C21.5969 14.9282 21.5821 14.9452 21.5651 14.9622C21.5693 14.9921 21.5735 15.0176 21.5777 15.0388C21.5947 15.0645 21.6095 15.0858 21.6223 15.1028V15.2116C21.6393 15.2328 21.6562 15.252 21.6732 15.269C21.6859 15.252 21.7008 15.2328 21.7178 15.2116C21.722 15.1817 21.7261 15.1519 21.7303 15.1221V15.1218Z" fill="#7BFDB1"/>
<path fill-rule="evenodd" clip-rule="evenodd" d="M21.6864 15.461C21.6992 15.4866 21.7119 15.5122 21.7245 15.5376C21.7498 15.5206 21.7773 15.4971 21.8071 15.4673C21.8198 15.4375 21.8325 15.4098 21.8451 15.3844C21.8154 15.3802 21.7857 15.3781 21.7562 15.3781C21.735 15.4037 21.7117 15.4313 21.6862 15.461H21.6864Z" fill="#7BFDB1"/>
<path fill-rule="evenodd" clip-rule="evenodd" d="M17.6058 16.4145C17.5846 16.4103 17.5611 16.4039 17.5354 16.3953C17.5225 16.4209 17.5076 16.4465 17.4905 16.4719C17.4905 16.4975 17.4926 16.521 17.4969 16.5422C17.5181 16.5294 17.5373 16.5188 17.5544 16.5104H17.6694L17.7332 16.4337C17.7204 16.4209 17.7076 16.4081 17.695 16.3953C17.6651 16.4039 17.6353 16.4103 17.6055 16.4145H17.6058Z" fill="#7BFDB1"/>
<path fill-rule="evenodd" clip-rule="evenodd" d="M17.9511 16.4719C17.9553 16.4506 17.9617 16.4272 17.9704 16.4016C17.9575 16.3845 17.9448 16.3717 17.9321 16.3631C17.8938 16.3717 17.8532 16.3802 17.8105 16.3886C17.8063 16.4185 17.8021 16.4461 17.7979 16.4716C17.8107 16.4886 17.8256 16.5035 17.8427 16.5163C17.864 16.5205 17.8875 16.5227 17.9131 16.5227C17.926 16.5056 17.9387 16.4886 17.9514 16.4716L17.9511 16.4719Z" fill="#7BFDB1"/>
<path fill-rule="evenodd" clip-rule="evenodd" d="M18.0857 16.6762C18.0983 16.6632 18.1369 16.5995 18.1369 16.5995C18.1497 16.5909 18.1603 16.5803 18.1688 16.5677C18.2071 16.5635 18.2454 16.5592 18.2838 16.5548C18.3051 16.542 18.3285 16.5291 18.3542 16.5163C18.3713 16.4951 18.3862 16.4738 18.3991 16.4523C18.4033 16.4225 18.4075 16.3905 18.4117 16.3565H18.3542C18.335 16.3565 18.2967 16.3628 18.2967 16.3628C18.2754 16.3542 18.252 16.3457 18.2263 16.3372C18.205 16.3459 18.1815 16.3565 18.1558 16.3691C18.1388 16.3861 18.1217 16.4053 18.1047 16.4265C18.1175 16.4521 18.1302 16.4756 18.1429 16.4968C18.1088 16.5054 18.0768 16.5139 18.0469 16.5223C18.0469 16.5223 18.015 16.5734 17.9894 16.5863C17.9701 16.6056 17.8744 16.6822 17.8744 16.6822C17.8701 16.712 17.8637 16.7397 17.8551 16.7651C17.8934 16.7609 17.9297 16.7566 17.9638 16.7522C17.9638 16.7522 18.0725 16.6819 18.0854 16.6756L18.0857 16.6762Z" fill="#7BFDB1"/>
<path fill-rule="evenodd" clip-rule="evenodd" d="M18.4948 16.5487C18.4629 16.5616 18.4565 16.619 18.4565 16.619C18.4608 16.6446 18.4672 16.6659 18.4758 16.683C18.5013 16.6743 18.5269 16.6658 18.5526 16.6574C18.5696 16.6446 18.5867 16.6276 18.6037 16.6063C18.6124 16.5807 18.623 16.5552 18.6357 16.5297C18.6186 16.5211 18.6037 16.5105 18.5908 16.4979C18.5908 16.4979 18.5204 16.5426 18.4948 16.5489V16.5487Z" fill="#7BFDB1"/>
<path fill-rule="evenodd" clip-rule="evenodd" d="M20.9124 18.0714C20.8996 18.0373 20.889 18.0053 20.8805 17.9755C20.889 17.9456 20.8975 17.9115 20.9061 17.8732C20.8977 17.8519 20.8913 17.8284 20.8869 17.8028C20.857 17.7985 20.8249 17.7942 20.7908 17.7898C20.795 17.7557 20.8015 17.7216 20.8101 17.6875C20.8059 17.6576 20.8017 17.6257 20.7974 17.5916C20.772 17.5916 20.7464 17.5872 20.7207 17.5786C20.7207 17.5786 20.6824 17.5082 20.6888 17.4826C20.6951 17.4634 20.727 17.3036 20.727 17.3036C20.7398 17.2396 20.7505 17.1757 20.7589 17.1117C20.7589 17.1117 20.7463 16.9965 20.727 16.9772C20.7144 16.9453 20.6376 16.8557 20.6376 16.8557C20.6376 16.8557 20.5672 16.7149 20.5738 16.6956C20.5801 16.6637 20.6442 16.5548 20.6442 16.5548C20.657 16.5036 20.6698 16.4567 20.6824 16.414C20.6483 16.4098 20.6142 16.4034 20.5801 16.3947C20.5588 16.4331 20.5375 16.4715 20.5163 16.51C20.5163 16.51 20.4524 16.6059 20.4332 16.6059C20.4076 16.6186 20.3693 16.766 20.3693 16.766C20.3778 16.8342 20.3884 16.9024 20.4013 16.9706C20.4013 16.9706 20.3886 17.1306 20.382 17.1625C20.382 17.1881 20.2796 17.3289 20.2796 17.3289C20.2371 17.363 20.1966 17.395 20.158 17.4249C20.1155 17.4078 20.0749 17.3887 20.0364 17.3674C20.0023 17.3247 19.9682 17.2842 19.9341 17.2459C19.8744 17.2288 19.8191 17.2097 19.7679 17.1884C19.7637 17.1501 19.7594 17.1117 19.7552 17.0732C19.7851 17.0391 19.8192 17.005 19.8576 16.9709C19.9088 16.9155 19.9578 16.8622 20.0048 16.8108C20.009 16.7597 20.0111 16.7127 20.0111 16.67C19.9557 16.6742 19.8981 16.6807 19.8383 16.6893C19.7743 16.6979 19.7104 16.7085 19.6466 16.7212C19.6253 16.6999 19.604 16.6829 19.5827 16.67C19.5444 16.6401 19.5039 16.6125 19.4611 16.587C19.4312 16.6082 19.4035 16.6274 19.378 16.6444C19.3822 16.6743 19.3865 16.702 19.3907 16.7275C19.4077 16.7532 19.4269 16.7766 19.4482 16.7979C19.4269 16.8236 19.4056 16.8512 19.3843 16.8809C19.3332 16.8896 19.2841 16.896 19.2371 16.9002C19.203 16.9471 19.1689 16.9941 19.1348 17.041C19.1348 17.041 19.0643 17.2522 19.0454 17.2841C19.039 17.3033 18.956 17.3352 18.956 17.3352C18.9389 17.2969 18.9176 17.2628 18.8921 17.2329C18.8622 17.2031 18.8302 17.1732 18.7961 17.1433C18.7578 17.1519 18.7215 17.1583 18.6874 17.1625C18.6575 17.2095 18.6298 17.2564 18.6043 17.3033C18.566 17.3461 18.5255 17.3909 18.4827 17.4378C18.4315 17.4848 18.3783 17.5296 18.3229 17.5723C18.3058 17.6192 18.2845 17.6704 18.259 17.7257C18.2121 17.7087 18.1652 17.6895 18.1184 17.6683C18.1056 17.7409 18.0929 17.8134 18.0802 17.8858C18.0332 17.9241 17.9864 17.9603 17.9396 17.9944C17.8842 18.0414 17.8266 18.0883 17.7668 18.1352C17.6944 18.1779 17.6219 18.2206 17.5495 18.2631C17.4684 18.2717 17.3852 18.2823 17.2999 18.295C17.2487 18.3461 17.1997 18.3973 17.1527 18.4484C17.0887 18.4954 17.0248 18.5423 16.9609 18.5892C16.8885 18.6105 16.816 18.6319 16.7436 18.6533C16.7307 18.7642 16.7158 18.8751 16.6987 18.9861C16.6903 19.0244 16.6818 19.0628 16.6731 19.1013C16.6689 19.1567 16.6646 19.2142 16.6602 19.274C16.6773 19.3763 16.69 19.4787 16.6984 19.5812C16.7027 19.6323 16.7048 19.6835 16.7048 19.7346C16.726 19.7986 16.7431 19.8647 16.7559 19.9329C16.7048 19.9926 16.6494 20.0523 16.5898 20.1119C16.5727 20.1588 16.5514 20.2058 16.5259 20.2527C16.6112 20.2868 16.6922 20.3188 16.7689 20.3487H16.8968C16.9223 20.323 16.9479 20.2995 16.9736 20.2783C16.9949 20.2526 17.014 20.2249 17.0311 20.1952H17.1717C17.2441 20.1824 17.323 20.1674 17.4083 20.1504C17.4765 20.1247 17.5448 20.0992 17.613 20.0737C17.6642 20.0183 17.711 19.965 17.7536 19.9136C17.809 19.8795 17.8644 19.8432 17.9198 19.8047C17.9198 19.8047 18.1115 19.7855 18.1501 19.7791C18.1949 19.7728 18.2587 19.728 18.2587 19.728C18.2587 19.728 18.3674 19.645 18.393 19.6383C18.4249 19.632 18.5977 19.5998 18.5977 19.5998C18.666 19.6169 18.7321 19.636 18.7961 19.6573C18.7961 19.6573 18.8088 19.7662 18.8024 19.7918C18.7961 19.811 18.8024 19.8878 18.8024 19.8878C18.8024 19.8878 18.8599 19.8748 18.8918 19.8622C18.9111 19.8493 18.943 19.7981 18.9623 19.7725C18.9749 19.7533 19.039 19.6702 19.039 19.6702C19.0645 19.6532 19.088 19.6382 19.1095 19.6254C19.1053 19.6511 19.1032 19.6746 19.1032 19.6958C19.0903 19.7087 19.0776 19.7193 19.0649 19.7277C19.0649 19.7277 19.0523 19.7852 19.0523 19.8044C19.0459 19.83 19.129 19.7981 19.129 19.7981C19.129 19.7981 19.1546 19.8748 19.1483 19.9004C19.1356 19.9323 19.0908 20.0349 19.0908 20.0349C19.0908 20.0349 19.2187 20.086 19.2314 20.086C19.244 20.086 19.5065 20.0605 19.5065 20.0605C19.5748 20.0177 19.6451 19.9729 19.7176 19.926C19.7176 19.926 19.9415 19.7596 19.9542 19.747C19.9734 19.734 20.0629 19.5998 20.0629 19.5998C20.0884 19.5571 20.1139 19.5166 20.1396 19.4783C20.1866 19.44 20.2334 19.4016 20.2802 19.3631C20.3143 19.3161 20.3441 19.2692 20.3696 19.2223C20.4037 19.184 20.4358 19.1455 20.4657 19.107C20.5168 19.0601 20.568 19.0111 20.6192 18.9599C20.6447 18.9046 20.6703 18.8491 20.696 18.7935C20.7214 18.7167 20.7427 18.6399 20.7598 18.5631C20.811 18.4564 20.8621 18.3455 20.9133 18.2303C20.9133 18.2303 20.9452 18.1344 20.9452 18.1217C20.9515 18.1025 20.9133 18.0706 20.9133 18.0706L20.9124 18.0714Z" fill="#7BFDB1"/>
<path fill-rule="evenodd" clip-rule="evenodd" d="M19.4542 20.2658C19.4542 20.2658 19.3774 20.2658 19.3392 20.2721C19.3136 20.2784 19.2561 20.3616 19.2561 20.3616C19.222 20.4127 19.1879 20.4638 19.1537 20.5149C19.1537 20.5149 19.1986 20.5533 19.2112 20.5533C19.2538 20.5447 19.2964 20.5362 19.3392 20.5278C19.3647 20.5021 19.3924 20.4723 19.4223 20.4382C19.4478 20.4084 19.4776 20.3785 19.5117 20.3487C19.5458 20.3104 19.5799 20.2743 19.614 20.2402C19.6225 20.219 19.631 20.1956 19.6396 20.1699C19.6396 20.1699 19.5692 20.1955 19.5502 20.2084C19.5376 20.2084 19.4542 20.2658 19.4542 20.2658Z" fill="#7BFDB1"/>
</g>
<defs>
<clipPath id="clip0_934_15">
<rect width="24" height="24" fill="white"/>
</clipPath>
</defs>
</svg>
