<svg xmlns="http://www.w3.org/2000/svg" fill="none" viewBox="0 0 32 24"><g clip-path="url(#EU_svg__a)"><path fill="#039" d="M0 0H32V24H0z"/><path fill="#FC0" d="M14.737 3.515h.895l.276-.903.277.903h.895l-.724.558.277.903-.725-.558-.725.558.277-.903-.723-.558zm0 15.658h.895l.276-.902.277.902h.895l-.724.558.277.902-.725-.557-.725.557.277-.902-.723-.558zM7.406 11.373h.895l.277-.903.277.903h.895l-.724.558.277.903-.725-.558-.725.558.277-.903-.724-.558zm3.697-6.782h.895l.277-.903.277.903h.895l-.725.558.277.903-.724-.558-.725.558.277-.903-.725-.558zm-2.702 2.865h.895l.277-.902.277.902h.895l-.724.558.277.902-.725-.558-.724.558.277-.902-.725-.558zm-.002 7.833h.895l.277-.903.277.903h.895l-.724.558.277.903-.725-.558-.724.558.277-.903-.725-.558zm2.705 2.866h.895l.277-.903.277.903h.895l-.724.558.277.903-.725-.558-.724.558.277-.903-.725-.558zm11.086-6.782h.895l.277-.903.277.903h.895l-.724.558.277.903-.725-.558-.724.558.277-.903-.724-.558zm-3.697-6.782h.895l.277-.903.277.903h.895l-.724.558.277.903-.725-.558-.725.558.277-.903-.724-.558zm2.702 2.865h.895l.277-.902.277.902h.895l-.724.558.277.902-.725-.558-.724.558.277-.902-.725-.558zm.002 7.833h.895l.277-.903.277.903h.895l-.724.558.277.903-.725-.558-.725.558.277-.903-.724-.558zm-2.704 2.866h.895l.277-.903.277.903h.895l-.724.558.277.903-.725-.558-.724.558.277-.903-.725-.558z"/></g><defs><clipPath id="EU_svg__a"><path fill="#fff" d="M0 0H32V24H0z"/></clipPath></defs></svg>
