<svg width="24" height="24" viewBox="0 0 24 24" fill="none" xmlns="http://www.w3.org/2000/svg">
<g clip-path="url(#clip0_934_81)">
<rect width="24" height="24" fill="white"/>
<circle cx="12" cy="12" r="12" fill="#02AFFF"/>
<path fill-rule="evenodd" clip-rule="evenodd" d="M23.0573 7.33171C22.4532 5.90226 21.5884 4.61873 20.4869 3.51648C18.2211 1.24876 15.208 0 12.0032 0C10.3833 0 8.81154 0.317434 7.33145 0.943683C5.90225 1.54839 4.61853 2.41393 3.51622 3.51648C2.41392 4.61873 1.54823 5.90254 0.943601 7.33171C0.317409 8.81173 0 10.3834 0 12.0033C0 13.6232 0.317409 15.192 0.943601 16.6712C1.54823 18.0995 2.41392 19.3827 3.51622 20.4844C4.61853 21.5864 5.90225 22.4516 7.33145 23.0563C8.81154 23.6826 10.3833 24 12.0032 24C15.208 24 18.2208 22.7515 20.4869 20.4844C21.5884 19.3824 22.4532 18.0995 23.0573 16.6712C23.6826 15.1923 24 13.6218 24 12.0033C24 10.3848 23.6829 8.81173 23.0575 7.332L23.0573 7.33171ZM1.90417 7.06541C1.93828 6.97157 1.9724 6.87993 2.00652 6.7905C2.01936 6.76483 2.03642 6.73496 2.05769 6.70087C2.04993 6.68162 2.04677 6.67386 2.04274 6.66381C2.22301 6.32857 2.41967 6.00309 2.63185 5.68939C2.62868 5.70519 2.62552 5.72329 2.62035 5.75431C2.59907 5.79261 2.5778 5.83523 2.55652 5.88215C2.53103 5.9034 2.50755 5.92476 2.48608 5.94621C2.46902 5.98892 2.45407 6.03153 2.44123 6.07404C2.42839 6.12096 2.41986 6.16999 2.41564 6.22113C2.40702 6.251 2.39849 6.28088 2.39005 6.31075C2.38162 6.33642 2.37098 6.3684 2.35814 6.4067C2.32824 6.43237 2.30054 6.46004 2.27505 6.48972C2.25377 6.52803 2.2303 6.56642 2.20461 6.60492C2.19599 6.63058 2.18746 6.65826 2.17902 6.68794C2.15353 6.76033 2.13005 6.82851 2.10858 6.89248C2.07447 6.96066 2.04246 7.02673 2.01255 7.09069C1.97422 7.12478 1.93589 7.15677 1.89755 7.18664C1.89755 7.14393 1.89966 7.10343 1.90388 7.06513L1.90417 7.06541ZM8.19915 1.35879C8.30696 1.32001 8.41593 1.28324 8.52518 1.24762C8.42743 1.29645 8.42139 1.29904 8.31271 1.34759C8.27016 1.3562 8.22962 1.36262 8.1911 1.36683C8.19397 1.36396 8.19656 1.36137 8.19915 1.35879ZM0.725957 12.762C0.725957 12.762 0.726821 12.7634 0.727108 12.764C0.752601 12.8578 0.782405 12.9538 0.816523 13.0518C0.816523 13.103 0.818632 13.1499 0.822849 13.1926C0.839908 13.2309 0.854858 13.2671 0.8677 13.3012C0.884759 13.3098 0.899709 13.3204 0.912551 13.3331C0.925393 13.3884 0.938138 13.4418 0.950788 13.4931C0.959222 13.5101 0.967752 13.5208 0.976377 13.525C0.993436 13.5378 1.0105 13.5463 1.02755 13.5505L1.06579 13.6146C1.08707 13.6188 1.10834 13.6231 1.12962 13.6275C1.13384 13.6063 1.14026 13.5828 1.14888 13.5571C1.14888 13.5273 1.15099 13.4974 1.15521 13.4675C1.17227 13.4804 1.18932 13.4974 1.20638 13.5187C1.23188 13.5997 1.25957 13.6828 1.28947 13.768C1.30232 13.8448 1.31727 13.9237 1.33432 14.0047C1.33854 14.0986 1.34065 14.1902 1.34065 14.2796C1.32781 14.2796 1.31506 14.286 1.30241 14.2989C1.28957 14.3075 1.27893 14.3203 1.2705 14.3374C1.25765 14.3801 1.24491 14.4163 1.23226 14.446C1.23226 14.5141 1.23015 14.5802 1.22593 14.6442C1.22172 14.6825 1.2153 14.7187 1.20667 14.7528C1.22373 14.7997 1.24079 14.8445 1.25785 14.8872C1.27491 14.9426 1.29407 15.0022 1.31535 15.0662C1.30251 15.062 1.28976 15.0577 1.27711 15.0533C1.26427 15.0661 1.25363 15.0767 1.2452 15.0851C1.26647 15.1874 1.28995 15.2855 1.31564 15.3793C1.33691 15.3963 1.35608 15.4134 1.37314 15.4304C1.3902 15.4645 1.40515 15.4986 1.41799 15.5327C1.45211 15.635 1.48622 15.7309 1.52034 15.8206C1.55446 15.9016 1.59069 15.9826 1.62902 16.0636C1.67598 16.1745 1.72284 16.2875 1.76961 16.4026C1.78667 16.4453 1.80162 16.4879 1.81446 16.5304C1.87848 16.6327 1.9424 16.7371 2.00623 16.8438C2.04035 16.8695 2.07236 16.895 2.10226 16.9205C2.15343 16.9803 2.20461 17.0378 2.25579 17.0932C2.28147 17.1359 2.30706 17.1807 2.33255 17.2276C2.35383 17.2745 2.3751 17.3257 2.39638 17.381C2.42628 17.4408 2.45397 17.4962 2.47947 17.5473C2.50074 17.6197 2.52202 17.6922 2.5433 17.7648C2.53045 17.7818 2.51771 17.7947 2.50506 17.8033C2.5179 17.8332 2.52853 17.8608 2.53697 17.8863C2.55824 17.9076 2.58173 17.9331 2.60741 17.963C2.62025 18.0057 2.6352 18.0547 2.65226 18.1101C2.63942 18.1143 2.62878 18.1186 2.62035 18.123C2.63319 18.1613 2.64593 18.1997 2.65858 18.2382C2.67564 18.2723 2.69059 18.3064 2.70344 18.3405H2.66491C2.67785 18.3684 2.68619 18.3867 2.69337 18.4017C1.57181 16.7769 0.864825 14.8456 0.725671 12.7611L0.725957 12.762ZM12.0032 23.3005C8.85409 23.3005 6.00201 22.0061 3.95036 19.9225C3.94231 19.9075 3.93282 19.89 3.91873 19.8639C3.92295 19.8597 3.92716 19.8533 3.93138 19.8446C3.98256 19.8703 4.03374 19.8938 4.08491 19.915C4.10197 19.9108 4.12114 19.9087 4.14241 19.9087C4.16369 19.9087 4.18717 19.9108 4.21285 19.915C4.22569 19.8938 4.23422 19.8703 4.23844 19.8446C4.22138 19.8063 4.20432 19.7701 4.18726 19.736C4.17442 19.7104 4.15736 19.6805 4.13609 19.6464C4.10197 19.6208 4.06575 19.5952 4.02741 19.5697C4.01035 19.5485 3.99119 19.5271 3.96991 19.5057C3.99119 19.5057 4.01035 19.5035 4.02741 19.4993C4.06153 19.525 4.09133 19.5506 4.11683 19.576C4.15938 19.5973 4.19771 19.6164 4.23183 19.6335C4.25732 19.6293 4.28502 19.6229 4.31492 19.6142C4.33198 19.5759 4.34903 19.5333 4.36609 19.4864C4.35325 19.4395 4.34261 19.3947 4.33418 19.352C4.32134 19.3179 4.3107 19.2859 4.30227 19.256C4.31089 19.239 4.31942 19.2198 4.32786 19.1986C4.32786 19.1986 4.3661 19.2626 4.37271 19.2753C4.37271 19.2882 4.39829 19.3649 4.39829 19.3649C4.41957 19.3735 4.44085 19.3841 4.46212 19.3968C4.45791 19.3669 4.45148 19.337 4.44286 19.3072C4.4557 19.2943 4.46845 19.2773 4.4811 19.256C4.46825 19.2007 4.45972 19.1452 4.45551 19.0897C4.49806 19.0811 4.5386 19.0725 4.57713 19.0641C4.54723 18.9234 4.51953 18.7805 4.49404 18.6355C4.57511 18.5886 4.65609 18.5375 4.73698 18.4821C4.79659 18.4907 4.85419 18.4993 4.90977 18.5077C4.9182 18.4906 4.93095 18.4757 4.94801 18.4629C5.0034 18.4715 5.06311 18.48 5.12713 18.4884C5.1187 18.4032 5.10805 18.3158 5.09521 18.2262C5.12933 18.2049 5.16134 18.1793 5.19124 18.1495C5.18703 18.0472 5.18492 17.9448 5.18492 17.8424C5.20619 17.8083 5.22536 17.7721 5.24242 17.7338C5.19546 17.5461 5.14639 17.3542 5.09521 17.1581C5.15482 17.1453 5.21242 17.1303 5.268 17.1133C5.27644 17.0792 5.28497 17.0408 5.29359 16.9981C5.31487 16.9383 5.33404 16.8744 5.35109 16.8062C5.39805 16.738 5.44281 16.6676 5.48536 16.595C5.51085 16.5397 5.53644 16.48 5.56213 16.4161V16.2434C5.53223 16.2264 5.50453 16.2093 5.47904 16.1923C5.4662 16.1113 5.45556 16.0324 5.44712 15.9556C5.40879 15.9469 5.37046 15.9405 5.33212 15.9363C5.29379 15.9107 5.25756 15.8851 5.22344 15.8596C5.18933 15.8043 5.15732 15.7509 5.12742 15.6996C5.08487 15.691 5.04432 15.6825 5.0058 15.674C4.98452 15.6313 4.96325 15.5908 4.94197 15.5525C4.85246 15.5313 4.76506 15.5121 4.67976 15.4951C4.64143 15.4694 4.6052 15.446 4.57109 15.4247C4.56265 15.446 4.55412 15.4673 4.5455 15.4888C4.5455 15.4888 4.37932 15.3991 4.36006 15.3736C4.34741 15.348 4.23844 15.2391 4.23844 15.2391C4.21295 15.2221 4.18736 15.2029 4.16168 15.1817C4.16168 15.1817 4.05932 15.1753 4.02108 15.1753C3.97623 15.1624 3.91873 15.1753 3.91873 15.1753C3.90167 15.201 3.88461 15.2266 3.86756 15.252C3.8505 15.2733 3.83133 15.2947 3.81005 15.3161C3.81005 15.3161 3.7652 15.2587 3.7652 15.2394C3.7652 15.2202 3.80344 15.1946 3.80344 15.1946V15.1116C3.79501 15.0903 3.78648 15.0712 3.77785 15.0541C3.74374 15.0499 3.70962 15.0414 3.6755 15.0285C3.65423 15.0542 3.63506 15.0798 3.618 15.1052C3.59251 15.1522 3.56692 15.1991 3.54123 15.246C3.52839 15.2673 3.51565 15.2864 3.503 15.3035C3.48594 15.2822 3.47099 15.2652 3.45814 15.2523C3.48364 15.214 3.50712 15.1777 3.52858 15.1435C3.55848 15.0837 3.58829 15.024 3.618 14.9645C3.63084 14.9134 3.64579 14.8643 3.66285 14.8174C3.65422 14.7705 3.64569 14.7236 3.63726 14.6766C3.5903 14.5998 3.54555 14.523 3.503 14.4463C3.43898 14.3566 3.37506 14.265 3.31123 14.1713C3.25584 14.116 3.20255 14.0605 3.15137 14.005C3.11304 13.9922 3.0747 13.9815 3.03637 13.9731C3.01088 14.003 2.98529 14.035 2.95961 14.0691C2.92971 14.0478 2.90201 14.0308 2.87652 14.0179C2.86367 13.9752 2.85304 13.9326 2.8446 13.8901C2.81911 13.8815 2.79563 13.873 2.77416 13.8645C2.76132 13.8304 2.74858 13.792 2.73593 13.7493C2.71043 13.7365 2.68484 13.7195 2.65916 13.6982C2.64632 13.6683 2.63137 13.6384 2.61431 13.6086C2.58441 13.5787 2.55671 13.551 2.53122 13.5255C2.50994 13.4744 2.49078 13.4254 2.47372 13.3785C2.4695 13.3402 2.46739 13.2976 2.46739 13.2506C2.41622 13.2378 2.36504 13.225 2.31386 13.2121C2.2669 13.2378 2.22004 13.2677 2.17327 13.3018C2.10926 13.2889 2.04533 13.2825 1.9815 13.2825C1.9516 13.2398 1.9218 13.1972 1.89209 13.1547C1.8666 13.1376 1.84312 13.1185 1.82165 13.0972C1.82165 13.0972 1.75782 12.982 1.74488 12.982C1.73195 12.982 1.67445 13.0332 1.67445 13.0332C1.64895 12.9991 1.62337 12.9671 1.59768 12.9372C1.58484 12.9458 1.57209 12.9523 1.55944 12.9565C1.5466 13.0162 1.53386 13.0717 1.5212 13.1228C1.49571 13.1228 1.47223 13.1207 1.45076 13.1165C1.43371 13.1421 1.41876 13.1656 1.40591 13.1869C1.39748 13.2466 1.38895 13.3063 1.38033 13.3658C1.36327 13.3744 1.34621 13.383 1.32915 13.3914C1.32072 13.4341 1.3143 13.4789 1.30989 13.5258C1.2842 13.4789 1.26072 13.4341 1.23945 13.3914C1.22239 13.3657 1.20322 13.3381 1.18195 13.3084C1.16489 13.2998 1.14994 13.2912 1.13709 13.2828C1.12004 13.2999 1.10298 13.3169 1.08592 13.3339C1.06886 13.3382 1.0518 13.3403 1.03474 13.3403C1.0219 13.3274 1.01126 13.3146 1.00283 13.3018C0.998611 13.2805 0.994394 13.2549 0.990177 13.2251C0.981743 13.2038 0.973215 13.1782 0.96459 13.1484C0.956156 13.1271 0.945517 13.1058 0.932675 13.0843C0.928459 13.0332 0.926351 12.982 0.926351 12.9309C0.922134 12.8457 0.920025 12.7668 0.920025 12.6942V12.5919C0.924242 12.562 0.928459 12.5365 0.932675 12.5152C0.924242 12.4853 0.913604 12.4598 0.900762 12.4385C0.88792 12.4343 0.87297 12.4237 0.855911 12.4066C0.843069 12.3938 0.828119 12.3832 0.81106 12.3747C0.802627 12.3834 0.794097 12.3919 0.785471 12.4003C0.777038 12.4216 0.766401 12.445 0.753559 12.4707C0.749342 12.4324 0.742921 12.394 0.734296 12.3555V12.1317C0.738513 12.0934 0.74273 12.055 0.746946 12.0165C0.75538 11.9696 0.761801 11.9248 0.766209 11.8821C0.774643 11.8223 0.78528 11.7669 0.798122 11.7157C0.789688 11.6774 0.78116 11.6434 0.772535 11.6135C0.738897 11.6135 0.734583 11.6135 0.708132 11.6092C0.721932 11.2073 0.757009 10.8108 0.811923 10.4204C0.821411 10.4144 0.827448 10.4098 0.842973 10.3983C0.868465 10.3941 0.894055 10.3941 0.919739 10.3983C0.928172 10.424 0.936701 10.4517 0.945326 10.4813C0.962385 10.4515 0.981552 10.428 1.00283 10.411C1.01567 10.428 1.02842 10.4451 1.04107 10.4621C1.0495 10.5219 1.05803 10.5773 1.06665 10.6284C1.06244 10.7265 1.05813 10.8224 1.05372 10.9163C1.07078 10.9845 1.08994 11.0526 1.11122 11.1208C1.12828 11.1507 1.14323 11.1848 1.15607 11.2231C1.16891 11.1719 1.18166 11.125 1.19431 11.0823V10.9545C1.19009 10.8649 1.18587 10.7774 1.18166 10.6922C1.18166 10.6112 1.18377 10.5259 1.18798 10.4362C1.18377 10.3681 1.17735 10.2999 1.16872 10.2317C1.19 10.1764 1.20916 10.1252 1.22622 10.0783C1.26456 10.0186 1.30509 9.95459 1.34784 9.88641C1.36068 9.86075 1.37343 9.83087 1.38608 9.79678C1.40313 9.76269 1.42019 9.73071 1.43725 9.70083C1.45853 9.70504 1.48201 9.70504 1.50769 9.70083C1.51612 9.67517 1.52255 9.65171 1.52696 9.63045C1.55245 9.58353 1.58014 9.54092 1.61004 9.50262C1.61848 9.44286 1.62912 9.37679 1.64196 9.3044C1.63333 9.28735 1.62269 9.27031 1.61004 9.25326C1.61004 9.23201 1.61215 9.20855 1.61637 9.18288C1.61637 9.18288 1.64196 9.151 1.64828 9.13807C1.65461 9.13807 1.73137 9.06137 1.73137 9.06137C1.73137 9.06137 1.74402 8.99731 1.74402 8.99099C1.7377 8.97806 1.78226 8.8439 1.78226 8.8439C1.79932 8.8056 1.81638 8.7694 1.83344 8.73532C1.85912 8.72248 1.88682 8.70544 1.91653 8.68418C1.92496 8.65852 1.93349 8.63295 1.94212 8.60748C1.95055 8.58622 1.95908 8.56276 1.9677 8.5371C1.9677 8.5371 2.02521 8.52417 2.03814 8.52417C2.05079 8.51785 2.10858 8.50493 2.11491 8.50493C2.12123 8.49861 2.16609 8.46643 2.16609 8.46643C2.17452 8.43655 2.18516 8.40457 2.198 8.37048C2.18937 8.34482 2.17874 8.31925 2.16609 8.29378C2.16609 8.28516 2.16398 8.27664 2.15976 8.26821C2.17682 8.22129 2.19388 8.17868 2.21094 8.14038C2.27917 8.08503 2.34741 8.0339 2.41564 7.98698C2.44976 7.9571 2.48177 7.92512 2.51167 7.89103C2.56284 7.81423 2.61613 7.73744 2.67152 7.66064C2.6928 7.61793 2.71407 7.57743 2.73535 7.53912C2.75663 7.53491 2.78011 7.52849 2.80579 7.51987C2.80579 7.55396 2.80368 7.59016 2.79946 7.62846C2.76956 7.66677 2.73755 7.70727 2.70344 7.74998C2.66089 7.80111 2.62035 7.85014 2.58182 7.89706C2.5776 7.93977 2.57339 7.98458 2.56917 8.0315C2.58201 8.03572 2.59476 8.03572 2.60741 8.0315C2.64153 8.01867 2.67564 8.00163 2.70976 7.98037C2.73966 7.93345 2.76947 7.88653 2.79918 7.83961C2.82908 7.8013 2.85888 7.76291 2.88859 7.72441C2.93114 7.70737 2.97379 7.68822 3.01653 7.66696C3.04203 7.62004 3.06972 7.5689 3.09962 7.51355C3.09541 7.48368 3.09119 7.4517 3.08697 7.41761C3.05285 7.41761 3.01874 7.41971 2.98462 7.42393C2.9505 7.42393 2.91428 7.42603 2.87594 7.43025C2.85888 7.42163 2.84182 7.41521 2.82476 7.411C2.81633 7.38534 2.81212 7.35766 2.81212 7.32798C2.82055 7.2981 2.83119 7.26823 2.84403 7.23835C2.87393 7.20426 2.90163 7.17228 2.92712 7.1424C2.91006 7.11674 2.893 7.09117 2.87594 7.0657C2.83339 7.07432 2.79285 7.08495 2.75433 7.09759L2.66491 7.21278C2.63501 7.25549 2.60089 7.2981 2.56256 7.34062C2.5455 7.34483 2.52633 7.35125 2.50506 7.35987C2.5179 7.32578 2.52853 7.29169 2.53697 7.2576C2.59236 7.19785 2.64776 7.13819 2.70315 7.07863C2.73305 7.04875 2.76285 7.01888 2.79256 6.989C2.81384 6.96774 2.83301 6.94639 2.85006 6.92494C2.88418 6.92494 2.91619 6.92925 2.94609 6.93787C3.00148 6.92082 3.05477 6.90799 3.10595 6.89937C3.17418 6.87371 3.24242 6.85025 3.31065 6.82899C3.36605 6.78628 3.42144 6.74147 3.47683 6.69455C3.49811 6.66888 3.52159 6.64121 3.54727 6.61153C3.59845 6.60291 3.64962 6.59649 3.7008 6.59228C3.72208 6.57102 3.74335 6.54967 3.76463 6.52822C3.76463 6.52822 3.82845 6.25962 3.83507 6.24037C3.84139 6.21481 3.85433 6.17631 3.86066 6.15735C3.86066 6.13178 3.80315 6.1381 3.80315 6.1381C3.76482 6.14672 3.72428 6.15735 3.68154 6.16999C3.65605 6.19987 3.63256 6.22754 3.6111 6.25301C3.57276 6.28289 3.53654 6.31056 3.50242 6.33603C3.49399 6.33182 3.48335 6.32541 3.47051 6.31679C3.48335 6.29553 3.4983 6.27207 3.51536 6.24641C3.55369 6.21653 3.59203 6.18665 3.63036 6.15678C3.6687 6.11848 3.70703 6.08228 3.74536 6.04819C3.74536 6.03114 3.74747 6.01621 3.75169 6.00338C3.7262 5.99916 3.70061 5.99485 3.67493 5.99045C3.64943 5.99466 3.62384 5.99897 3.59816 6.00338C3.57689 5.99916 3.55561 5.99275 3.53433 5.98413C3.53855 5.9713 3.54286 5.95425 3.54727 5.93299V5.86893C3.53865 5.84327 3.53223 5.8156 3.52801 5.78591C3.54929 5.75182 3.57056 5.71984 3.59184 5.68996C3.58321 5.67713 3.57257 5.66219 3.55992 5.64515C3.56414 5.61106 3.57056 5.57477 3.57918 5.53627C3.55791 5.52766 3.53874 5.51703 3.52168 5.50439C3.5259 5.48313 3.53232 5.45756 3.54095 5.42769C3.5281 5.39781 3.51747 5.36583 3.50903 5.33174C3.4707 5.3957 3.43447 5.45756 3.40036 5.51731C3.34496 5.57707 3.28957 5.63672 3.23417 5.69628C3.183 5.69207 3.13182 5.68996 3.08065 5.68996C3.07643 5.66871 3.07221 5.64735 3.068 5.6259C3.068 5.6259 3.10623 5.52363 3.11917 5.50439C3.11917 5.49146 3.183 5.42769 3.183 5.42769C3.19584 5.40202 3.20859 5.37435 3.22124 5.34466C3.22124 5.33605 3.21702 5.32963 3.20859 5.32542C3.20859 5.32542 3.16374 5.34466 3.15108 5.35098C3.13843 5.35098 3.09991 5.33806 3.09991 5.33806C3.09569 5.30818 3.09358 5.2762 3.09358 5.24211H3.068C3.03388 5.26337 3.00187 5.28472 2.97197 5.30617C2.92855 5.31852 2.92683 5.3191 2.88054 5.33633C2.98002 5.20074 3.08237 5.06716 3.1876 4.93617C3.18817 4.93588 3.18875 4.93559 3.18933 4.93502C3.20217 4.94785 3.21712 4.96068 3.23417 4.97351C3.24702 4.98634 3.26197 5.00128 3.27903 5.01833C3.27903 5.01833 3.34285 5.08871 3.34947 5.10795C3.35579 5.11427 3.40064 5.13352 3.40064 5.13352C3.42192 5.1249 3.4454 5.11638 3.47108 5.10795C3.49657 5.06965 3.51785 5.03556 3.53491 5.00569L3.45814 4.94162C3.46658 4.92037 3.47722 4.8948 3.49006 4.86492C3.51133 4.8563 3.5305 4.84778 3.54756 4.83936C3.56462 4.86502 3.58168 4.88848 3.59874 4.90974C3.61158 4.91395 3.62432 4.91606 3.63697 4.91606C3.65403 4.90323 3.67109 4.8926 3.68815 4.88417C3.70521 4.84587 3.72438 4.80747 3.74565 4.76897C3.76271 4.72627 3.78188 4.68145 3.80315 4.63453C3.79472 4.61327 3.7883 4.58981 3.78389 4.56415C3.76683 4.56836 3.74766 4.57047 3.72639 4.57047C3.71355 4.56185 3.7008 4.55122 3.68815 4.53858V4.5067C3.70521 4.47261 3.72438 4.43852 3.74565 4.40443C3.76693 4.39581 3.79041 4.38298 3.81609 4.36593C3.81609 4.36593 3.82903 4.3915 3.82903 4.41075C3.83536 4.41707 3.86094 4.43632 3.86094 4.43632C3.86516 4.46198 3.86938 4.48755 3.87359 4.51302C3.88643 4.52164 3.89918 4.53226 3.91183 4.5449C3.93733 4.53207 3.96502 4.51713 3.99492 4.50009C4.01198 4.466 4.02693 4.43612 4.03977 4.41046C4.09095 4.3465 4.14212 4.28684 4.1933 4.23149C4.19752 4.20583 4.20394 4.18237 4.21256 4.16111H4.15506C4.15506 4.16111 4.05271 4.17404 3.99521 4.18036C3.93771 4.18668 3.92477 4.10998 3.92477 4.10998C3.92534 4.10739 3.92592 4.10509 3.9265 4.10279C4.32527 3.69516 4.75423 3.3174 5.21022 2.97354C5.20878 2.98991 5.20705 3.00743 5.20389 3.04191C5.16134 3.13575 5.12301 3.22528 5.08889 3.3105C5.11438 3.30629 5.13565 3.30418 5.15271 3.30418C5.17821 3.27852 5.2059 3.24864 5.2358 3.21455C5.25286 3.21455 5.27414 3.21025 5.29963 3.20163C5.29542 3.23572 5.2912 3.26981 5.28698 3.3039C5.25708 3.32094 5.22938 3.33799 5.20389 3.35503C5.17399 3.36365 5.14198 3.37648 5.10786 3.39352C5.09943 3.40636 5.08879 3.42129 5.07595 3.43834C5.14419 3.42129 5.21031 3.40425 5.27433 3.3872C5.28717 3.40425 5.29781 3.41919 5.30625 3.43202C5.29781 3.46611 5.28506 3.5002 5.268 3.53429C5.22105 3.56838 5.17418 3.60247 5.12742 3.63655C5.07202 3.68348 5.01874 3.72829 4.96756 3.771C4.92923 3.83496 4.89089 3.90104 4.85256 3.96921C4.85677 4.03739 4.8632 4.10777 4.87182 4.18036C4.86339 4.28703 4.85917 4.39361 4.85917 4.50009C4.90172 4.56827 4.94437 4.63865 4.98711 4.71123C5.02545 4.70262 5.06378 4.69409 5.10212 4.68567C5.11496 4.71976 5.1277 4.75174 5.14035 4.78161C5.17025 4.79445 5.19795 4.80938 5.22344 4.82643C5.27462 4.79655 5.3279 4.76246 5.3833 4.72416C5.43447 4.64736 5.48776 4.56846 5.54315 4.48745C5.56443 4.41506 5.5857 4.34257 5.60698 4.26999C5.68805 4.19319 5.76693 4.11639 5.8436 4.0396C5.85644 3.98846 5.86919 3.93733 5.88184 3.88619C5.91174 3.85632 5.94375 3.82433 5.97786 3.79024C6.13561 3.74754 6.29546 3.70272 6.45742 3.6558C6.51282 3.62593 6.56821 3.59825 6.6236 3.57278C6.66194 3.52586 6.70459 3.47683 6.75155 3.4257C6.76861 3.38299 6.78356 3.34038 6.7964 3.29786C6.84757 3.26799 6.89664 3.23811 6.9436 3.20823C6.99899 3.20402 7.06081 3.1955 7.12905 3.18267C7.18022 3.18688 7.2335 3.19119 7.2889 3.1956C7.36135 3.17434 7.43169 3.15088 7.49993 3.12521C7.61512 3.0442 7.72811 2.96319 7.8389 2.88218C7.88586 2.83948 7.93272 2.79897 7.97949 2.76067C7.95822 2.74362 7.93905 2.72447 7.92199 2.70321C7.8666 2.71183 7.809 2.72246 7.7492 2.7351H7.57008C7.57852 2.70522 7.58273 2.67535 7.58273 2.64547C7.61685 2.62421 7.65518 2.60075 7.69773 2.57509C7.72763 2.57509 7.76175 2.57298 7.80009 2.56877C7.83842 2.59003 7.87896 2.60918 7.9217 2.62623C7.9771 2.63044 8.03249 2.63685 8.08788 2.64547C8.12622 2.6156 8.16676 2.58792 8.2095 2.56245C8.19666 2.53258 8.18391 2.50059 8.17126 2.4665C8.13293 2.44946 8.09459 2.43031 8.05626 2.40905C8.01371 2.41326 7.97106 2.41757 7.92832 2.42198C7.91547 2.39631 7.90905 2.37285 7.90905 2.35159C7.94317 2.33034 7.9794 2.31119 8.01773 2.29414C8.06028 2.30276 8.10293 2.31128 8.14567 2.31971C8.17557 2.28983 8.20538 2.26216 8.23509 2.23669C8.28626 2.21964 8.33533 2.2047 8.38229 2.19187C8.39513 2.16621 8.41008 2.14275 8.42714 2.12149C8.48675 2.10445 8.54646 2.0874 8.60626 2.07036C8.64881 2.01922 8.69146 1.96809 8.7342 1.91695C8.71292 1.91274 8.68945 1.90843 8.66376 1.90403H8.54214C8.5293 1.8912 8.52077 1.87836 8.51655 1.86553C8.53783 1.83987 8.55489 1.81641 8.56773 1.79515C8.62313 1.76949 8.6743 1.74814 8.72126 1.73109C8.74254 1.70983 8.76602 1.68848 8.7917 1.66703C8.77886 1.6542 8.77033 1.64137 8.76611 1.62854C8.732 1.63275 8.69577 1.63706 8.65743 1.64146C8.59342 1.65429 8.5295 1.66713 8.46567 1.67996C8.44439 1.67134 8.42944 1.66282 8.42082 1.65439C8.44209 1.63313 8.46126 1.61178 8.47832 1.59033C8.55077 1.55624 8.62543 1.52215 8.70229 1.48806C8.74062 1.4668 8.77896 1.44334 8.81729 1.41768C8.81729 1.41347 8.81518 1.40705 8.81097 1.39843C8.76401 1.39843 8.71925 1.40054 8.6767 1.40475C8.68513 1.39192 8.69155 1.38129 8.69596 1.37286C8.76841 1.35161 8.83665 1.33246 8.90067 1.31541C9.00302 1.29415 9.10537 1.2728 9.20772 1.25135C9.29302 1.22147 9.374 1.1916 9.45067 1.16172C9.46773 1.14046 9.48268 1.11911 9.49552 1.09766C9.4315 1.10187 9.36969 1.10618 9.31008 1.11059C9.21635 1.13185 9.12042 1.151 9.02228 1.16804C8.94983 1.1893 8.87949 1.21065 8.81125 1.2321C8.74723 1.25777 8.68331 1.28333 8.61948 1.3088C8.58115 1.33006 8.54492 1.35142 8.51081 1.37286C8.47669 1.38148 8.44046 1.39001 8.40213 1.39843C8.41919 1.37717 8.43193 1.35802 8.44037 1.34098C8.49576 1.31532 8.54694 1.29185 8.5939 1.2706C8.60674 1.25777 8.61948 1.24493 8.63213 1.2321C8.5939 1.2321 8.58815 1.2321 8.5594 1.23612C9.6456 0.887953 10.8025 0.699216 12.0029 0.699216C14.6086 0.699216 17.0107 1.58688 18.9241 3.07552C18.8875 3.05455 18.8315 3.02295 18.8272 3.02295C18.8145 3.01663 18.7311 3.01002 18.7311 3.01002C18.7396 3.03989 18.746 3.06757 18.7504 3.09304C18.7803 3.1187 18.8059 3.14216 18.8272 3.16342C18.8655 3.18908 18.9017 3.21465 18.9358 3.24012C18.97 3.27 19.0062 3.30198 19.0445 3.33607C19.0658 3.37016 19.0871 3.40214 19.1083 3.43202C19.1041 3.44064 19.0999 3.44916 19.0957 3.45759C19.0957 3.45759 19.0319 3.3872 19.0253 3.37456C19.0126 3.36164 18.9614 3.31711 18.9614 3.31711C18.9145 3.29145 18.8697 3.26588 18.8272 3.24041C18.793 3.20632 18.7653 3.17644 18.7441 3.15078C18.7015 3.12952 18.6632 3.11037 18.6291 3.09333C18.6162 3.11037 18.6077 3.12742 18.6035 3.14446C18.629 3.17434 18.6525 3.20421 18.6739 3.23409V3.27258C18.6356 3.24692 18.595 3.22135 18.5523 3.19588C18.5182 3.16601 18.482 3.13613 18.4436 3.10625C18.4266 3.07638 18.4116 3.0465 18.3988 3.01663C18.3817 2.98675 18.3625 2.95477 18.3413 2.92068C18.3158 2.93351 18.286 2.94414 18.2519 2.95256C18.2647 2.99949 18.2818 3.04641 18.303 3.09333C18.3372 3.1232 18.3734 3.15519 18.4117 3.18928C18.4416 3.24462 18.4736 3.30217 18.5077 3.36192C18.5077 3.36192 18.5397 3.41306 18.5589 3.43863C18.5716 3.45787 18.6038 3.45155 18.6038 3.45155C18.6337 3.46438 18.6593 3.47291 18.6805 3.47712C18.689 3.4685 18.6954 3.45567 18.6998 3.43863C18.7297 3.45567 18.7595 3.47482 18.7892 3.49608C18.8191 3.51734 18.8468 3.5408 18.8723 3.56646C18.8723 3.56646 18.9617 3.66241 18.9747 3.68166C18.9939 3.70722 19.0707 3.77128 19.0897 3.79685C19.1089 3.82874 19.0897 3.84799 19.0897 3.84799C19.0598 3.83515 19.0342 3.82663 19.0129 3.82242C18.983 3.78833 18.9574 3.75635 18.9361 3.72647C18.9062 3.69659 18.8721 3.66461 18.8338 3.63052C18.8125 3.60486 18.7912 3.57929 18.7699 3.55382C18.74 3.5452 18.7145 3.53879 18.6932 3.53457C18.6761 3.55162 18.6612 3.57077 18.6483 3.59203C18.6525 3.63033 18.6525 3.66873 18.6483 3.70722C18.6483 3.70722 18.6354 3.79685 18.6354 3.80949C18.6291 3.81581 18.5523 3.84138 18.5523 3.84138C18.5053 3.82855 18.4542 3.8115 18.3988 3.79024C18.3775 3.76899 18.354 3.74763 18.3283 3.72618C18.3412 3.70493 18.3539 3.68357 18.3666 3.66212C18.4049 3.66634 18.4432 3.67064 18.4816 3.67505C18.4944 3.65379 18.5073 3.63244 18.5201 3.61099C18.5117 3.56407 18.5031 3.51715 18.4945 3.47023C18.469 3.43192 18.4434 3.39563 18.4177 3.36135C18.3708 3.3016 18.326 3.23974 18.2835 3.17577C18.2494 3.12464 18.2152 3.07351 18.1811 3.02237C18.1599 2.97545 18.1343 2.92642 18.1044 2.87529C18.0703 2.83699 18.0319 2.79648 17.9894 2.75377C17.9424 2.73252 17.8933 2.70906 17.8422 2.68339C17.8209 2.68761 17.7996 2.69191 17.7783 2.69632C17.7741 2.71336 17.772 2.73252 17.772 2.75377C17.7848 2.78365 17.7977 2.81563 17.8105 2.84972V2.93274C17.8105 2.93274 17.7467 2.93274 17.7274 2.92642C17.7145 2.92642 17.6955 2.97124 17.6955 2.97124C17.7126 3.00111 17.7253 3.02879 17.7338 3.05426C17.7593 3.06709 17.7827 3.08203 17.8042 3.09907C17.8042 3.09907 17.9258 3.20795 17.9322 3.21427C17.9385 3.22719 18.0026 3.29729 18.0026 3.29729C18.0026 3.29729 18.0986 3.38031 18.1049 3.39324C18.1113 3.39956 18.1049 3.44437 18.1049 3.44437C18.0794 3.44016 18.0518 3.43585 18.0219 3.43144C17.9877 3.41019 17.9515 3.38462 17.9132 3.35474C17.8833 3.32487 17.8513 3.29719 17.8171 3.27172C17.7872 3.24185 17.7574 3.20986 17.7277 3.17577C17.6723 3.1459 17.6212 3.11602 17.5742 3.08615C17.523 3.06489 17.4718 3.04574 17.4207 3.02869C17.4207 3.02869 17.2991 2.9902 17.2864 2.9902C17.2671 2.98388 17.216 2.9902 17.2033 2.9902C17.197 2.9902 17.1458 2.9517 17.1458 2.9517C17.1458 2.9517 17.0883 2.90057 17.0754 2.88764C17.0561 2.86839 16.9348 2.85575 16.9348 2.85575C16.9135 2.86859 16.8879 2.88142 16.858 2.89425C16.8622 2.91129 16.8643 2.92834 16.8643 2.94538C16.9027 2.95821 16.9432 2.96884 16.986 2.97727C17.0201 2.98589 17.0542 2.99441 17.0883 3.00284C17.114 3.00284 17.1375 3.00494 17.1588 3.00916C17.1758 3.02199 17.1886 3.03262 17.197 3.04104C17.2098 3.05809 17.2248 3.07513 17.2418 3.09218C17.2717 3.12205 17.3038 3.14973 17.3379 3.1752C17.325 3.19646 17.3123 3.21781 17.2996 3.23926C17.2613 3.218 17.2251 3.19885 17.191 3.18181C17.1739 3.1435 17.1547 3.10731 17.1335 3.07322C17.1036 3.069 17.0737 3.0647 17.044 3.06029C17.044 3.06029 16.9673 3.13699 16.9354 3.13067C16.9161 3.12435 16.8842 3.09879 16.8842 3.09879H16.7692C16.7266 3.1074 16.6883 3.11803 16.6542 3.13067C16.6201 3.10941 16.5859 3.08595 16.5518 3.06029C16.5348 3.0645 16.5177 3.07092 16.5006 3.07954C16.441 3.07532 16.3813 3.07322 16.3215 3.07322C16.2661 3.11152 16.2085 3.15203 16.1487 3.19473C16.1487 3.19473 16.0593 3.24587 16.0401 3.23955C16.0145 3.23955 15.9121 3.20766 15.9121 3.20766C15.8951 3.1864 15.878 3.16294 15.8609 3.13728C15.8481 3.09898 15.8375 3.06058 15.829 3.02208C15.8078 3.00504 15.7865 2.98799 15.7652 2.97095C15.7311 2.94969 15.697 2.93054 15.6629 2.9135C15.6245 2.91771 15.584 2.91982 15.5412 2.91982C15.5328 2.93686 15.5222 2.95601 15.5093 2.97727C15.5519 3.00715 15.5966 3.03702 15.6436 3.0669C15.6691 3.1052 15.6947 3.1436 15.7204 3.18209C15.7332 3.21618 15.7481 3.25247 15.7652 3.29097C15.7524 3.30801 15.7374 3.32506 15.7204 3.3421C15.7033 3.3421 15.682 3.33779 15.6565 3.32918C15.6353 3.2993 15.614 3.26732 15.5927 3.23323H15.4584C15.4115 3.25027 15.3624 3.26521 15.3112 3.27804C15.2855 3.29509 15.26 3.31213 15.2345 3.32918C15.2515 3.35484 15.2686 3.38041 15.2856 3.40588C15.3027 3.43154 15.3219 3.45921 15.3431 3.4889C15.3345 3.52299 15.3281 3.56139 15.3239 3.60409C15.2813 3.59548 15.2408 3.59117 15.2023 3.59117C15.2065 3.56129 15.2107 3.53141 15.2149 3.50154C15.1894 3.47588 15.1617 3.45031 15.1318 3.42484C15.0935 3.41622 15.0573 3.4098 15.0231 3.40559C14.9848 3.41421 14.9507 3.42484 14.9208 3.43748C14.9336 3.45873 14.9422 3.48009 14.9464 3.50154C14.9677 3.53563 14.9889 3.56761 15.0102 3.59749C14.9932 3.61032 14.9719 3.62526 14.9464 3.6423C14.908 3.61242 14.8718 3.58255 14.8377 3.55267C14.7907 3.50154 14.746 3.45251 14.7034 3.40559C14.6735 3.35024 14.6394 3.29691 14.6011 3.24558C14.5756 3.20287 14.5543 3.16026 14.5373 3.11774C14.5585 3.10913 14.5798 3.1006 14.6011 3.09218C14.6565 3.12205 14.7119 3.14973 14.7673 3.1752C14.8355 3.18803 14.9037 3.19866 14.972 3.20709C15.0402 3.19847 15.1041 3.18784 15.1637 3.1752C15.1936 3.14532 15.2192 3.11545 15.2405 3.08557C15.2277 3.05148 15.217 3.01739 15.2086 2.9833C15.1703 2.96204 15.134 2.94069 15.0999 2.91924C14.9891 2.87232 14.874 2.8254 14.7546 2.77848C14.6693 2.74018 14.5861 2.70398 14.5051 2.66989C14.4069 2.6358 14.311 2.60171 14.2173 2.56762C14.1747 2.55058 14.1321 2.53353 14.0893 2.51649C14.0809 2.49523 14.0702 2.47388 14.0574 2.45243C14.0446 2.44381 14.0296 2.43529 14.0126 2.42686C13.9742 2.41824 13.9316 2.40972 13.8846 2.40129C13.8547 2.41412 13.8227 2.42475 13.7886 2.43318C13.7587 2.42456 13.731 2.41604 13.7055 2.40761C13.68 2.39478 13.6565 2.38415 13.6351 2.37573C13.618 2.37994 13.5988 2.38425 13.5776 2.38865C13.5605 2.37582 13.5434 2.36088 13.5264 2.34384C13.4794 2.34805 13.4304 2.35016 13.3792 2.35016C13.3834 2.38425 13.3855 2.41623 13.3855 2.44611C13.3514 2.45032 13.3216 2.45674 13.2961 2.46535C13.2449 2.45252 13.198 2.44189 13.1555 2.43347C13.1256 2.41642 13.0936 2.39938 13.0595 2.38233C13.0211 2.39938 12.9806 2.41642 12.9379 2.43347C12.9549 2.45913 12.9762 2.4868 13.0017 2.51649C13.0101 2.54636 13.0165 2.57624 13.0209 2.60612C12.9868 2.60612 12.9506 2.60822 12.9123 2.61244C12.9038 2.63369 12.8932 2.65715 12.8803 2.68282C12.8462 2.69986 12.8164 2.71691 12.7909 2.73395C12.7526 2.73395 12.7185 2.73184 12.6886 2.72763C12.6416 2.74889 12.5969 2.77024 12.5543 2.79169H12.3689C12.3135 2.82157 12.2602 2.85145 12.209 2.88132C12.1408 2.94107 12.0747 3.00293 12.0106 3.0669C12.0022 3.11382 11.9937 3.16285 11.985 3.21398C11.9254 3.23964 11.8657 3.2631 11.8059 3.28436C11.7975 3.3355 11.789 3.38883 11.7803 3.44437H11.6142C11.6057 3.49129 11.5993 3.53821 11.5949 3.58513C11.5437 3.59375 11.4969 3.60227 11.4543 3.6107C11.433 3.62775 11.4118 3.64479 11.3905 3.66183C11.3094 3.68309 11.2284 3.70445 11.1475 3.7259C11.0835 3.7686 11.0196 3.81342 10.9558 3.86034C10.9558 3.92009 10.96 3.97764 10.9684 4.03299C11.0154 4.05865 11.0601 4.08211 11.1027 4.10337C11.1155 4.14167 11.1262 4.18218 11.1346 4.22488C11.1133 4.25897 11.0942 4.29096 11.0771 4.32083C11.0813 4.37618 11.0898 4.43162 11.1027 4.48716C11.1581 4.50842 11.2135 4.53188 11.2689 4.55754C11.3371 4.51062 11.4032 4.46581 11.4672 4.4231C11.5355 4.40606 11.6016 4.39112 11.6656 4.37829C11.721 4.3825 11.7764 4.38681 11.8318 4.39121C11.8701 4.43392 11.9064 4.47874 11.9405 4.52566C11.966 4.58541 11.9916 4.64727 12.0173 4.71123C12.0514 4.78803 12.0812 4.86483 12.1067 4.94162C12.1663 4.95446 12.2239 4.96939 12.2795 4.98644C12.3094 4.95656 12.3414 4.92889 12.3755 4.90342C12.4267 4.86071 12.4757 4.8159 12.5227 4.76897C12.5482 4.7391 12.5759 4.70922 12.6058 4.67935C12.5929 4.63243 12.5802 4.58761 12.5675 4.5449C12.5888 4.52365 12.608 4.50229 12.625 4.48084C12.6804 4.45097 12.738 4.42329 12.7978 4.39782C12.8149 4.3509 12.8341 4.30609 12.8553 4.26338C12.8425 4.22508 12.834 4.18878 12.8297 4.1545C12.7786 4.1118 12.7295 4.06698 12.6825 4.02006C12.6442 3.96471 12.6037 3.90716 12.5609 3.84741C12.5651 3.82175 12.5673 3.79407 12.5673 3.76439C12.5885 3.73451 12.6077 3.70464 12.6248 3.67476C12.6673 3.66193 12.7078 3.6491 12.7464 3.63627C12.7933 3.62344 12.8424 3.61281 12.8936 3.60438C12.9319 3.5745 12.9724 3.54683 13.0152 3.52136C13.0152 3.52136 13.0856 3.45098 13.0856 3.43834V3.34239C13.0985 3.30409 13.1091 3.2678 13.1175 3.23351C13.1346 3.21226 13.1496 3.19311 13.1624 3.17606C13.2007 3.17185 13.237 3.16543 13.2711 3.15681C13.3094 3.15681 13.3456 3.15892 13.3797 3.16313C13.448 3.19301 13.5119 3.22289 13.5715 3.25276C13.5844 3.26981 13.595 3.28685 13.6034 3.3039C13.5864 3.31673 13.5714 3.33167 13.5586 3.34871C13.5457 3.3445 13.5351 3.34019 13.5267 3.33578C13.4883 3.33157 13.4521 3.32946 13.418 3.32946C13.4009 3.35513 13.386 3.37859 13.3731 3.39984C13.3603 3.42972 13.3497 3.4596 13.3412 3.48947C13.3029 3.51073 13.2667 3.53208 13.2325 3.55353C13.19 3.56637 13.1495 3.57699 13.1109 3.58542C13.0981 3.64517 13.0875 3.70703 13.079 3.771C13.0748 3.8093 13.0727 3.8477 13.0727 3.88619C13.094 3.9289 13.1174 3.97371 13.1431 4.02064C13.1772 4.06756 13.2156 4.11237 13.2581 4.15508C13.288 4.17634 13.32 4.19769 13.3542 4.21914C13.4308 4.21493 13.5033 4.20851 13.5715 4.19989C13.5715 4.19989 13.6995 4.12319 13.6995 4.11026C13.7058 4.10394 13.8211 4.05913 13.8211 4.05913C13.868 4.08901 13.9128 4.11668 13.9553 4.14215C13.9766 4.18907 14.0001 4.2381 14.0258 4.28923C14.0087 4.29785 13.9896 4.30848 13.9683 4.32112C13.9299 4.32112 13.8916 4.32323 13.8533 4.32744C13.8362 4.30618 13.8171 4.28483 13.7958 4.26338C13.7617 4.25476 13.7233 4.24835 13.6808 4.24413C13.6296 4.26979 13.5805 4.29326 13.5336 4.31451C13.491 4.34439 13.4463 4.37427 13.3993 4.40414C13.4164 4.43402 13.4313 4.46169 13.4442 4.48716C13.4911 4.51704 13.5359 4.54471 13.5784 4.57018C13.5656 4.60427 13.5528 4.64047 13.5402 4.67877C13.5018 4.67456 13.4613 4.67025 13.4186 4.66584C13.3973 4.64018 13.376 4.61672 13.3547 4.59546C13.3206 4.5698 13.2844 4.54423 13.2461 4.51876C13.2162 4.55285 13.1864 4.58483 13.1566 4.61471C13.1653 4.66163 13.1759 4.70645 13.1886 4.74915C13.1757 4.79186 13.1651 4.83237 13.1566 4.87067C13.1312 4.94747 13.1056 5.02206 13.0799 5.09445C13.0458 5.13275 13.0095 5.17115 12.9712 5.20965C12.92 5.20122 12.8646 5.19059 12.805 5.17776C12.7709 5.1565 12.7368 5.13735 12.7027 5.12031C12.6643 5.11609 12.626 5.10968 12.5877 5.10106C12.5281 5.13936 12.4662 5.17776 12.4022 5.21625C12.3468 5.2333 12.2935 5.24824 12.2424 5.26107C12.204 5.25245 12.1657 5.24393 12.1274 5.2355C12.089 5.24833 12.0507 5.26327 12.0124 5.28032H11.8525C11.827 5.24623 11.8014 5.21424 11.7757 5.18437C11.7503 5.14166 11.7226 5.09905 11.6927 5.05653C11.6927 5.02244 11.6948 4.98835 11.699 4.95426C11.699 4.95426 11.8077 4.852 11.8077 4.83275C11.8077 4.8135 11.8332 4.71755 11.8332 4.71755C11.8033 4.68346 11.7757 4.65148 11.7502 4.62161C11.7544 4.60035 11.7565 4.57899 11.7565 4.55754C11.7352 4.53188 11.7139 4.50631 11.6927 4.48084C11.6543 4.48927 11.616 4.49779 11.5777 4.50641C11.5564 4.53207 11.5372 4.55764 11.5202 4.58311C11.5501 4.59594 11.5799 4.61088 11.6096 4.62793C11.6009 4.66201 11.5945 4.69831 11.5903 4.7368C11.5178 4.75385 11.4432 4.77089 11.3663 4.78793C11.3621 4.83907 11.3579 4.8902 11.3537 4.94134C11.4091 4.97964 11.4624 5.01593 11.5135 5.05021C11.5264 5.10556 11.537 5.1589 11.5455 5.21022C11.537 5.25293 11.5264 5.29554 11.5135 5.33806C11.4624 5.34668 11.4112 5.3552 11.36 5.36362C11.2918 5.38067 11.2256 5.39771 11.1616 5.41476C11.1404 5.43602 11.1191 5.45948 11.0978 5.48514C11.0424 5.50218 10.987 5.51923 10.9316 5.53627C10.9146 5.61307 10.8954 5.68987 10.8741 5.76666C10.793 5.77088 10.7099 5.77519 10.6246 5.77959C10.5989 5.83073 10.5712 5.88186 10.5415 5.93299C10.4775 5.97991 10.4135 6.02473 10.3497 6.06744C10.3072 6.08027 10.2666 6.0931 10.2281 6.10593C10.2068 6.08889 10.1855 6.06973 10.1643 6.04848C10.1259 6.06131 10.0876 6.07194 10.0493 6.08036C10.0493 6.11867 10.0514 6.15706 10.0556 6.19556C10.0215 6.22544 9.98524 6.25531 9.94691 6.28519C9.8574 6.29802 9.76789 6.31085 9.67837 6.32368C9.67416 6.36639 9.66985 6.409 9.66544 6.45152C9.72083 6.46435 9.77843 6.47498 9.83823 6.4834C9.88519 6.50045 9.92994 6.5196 9.97249 6.54086C9.98955 6.58357 10.0066 6.62618 10.0237 6.66869C10.0407 6.71983 10.0578 6.77096 10.0748 6.8221C10.0664 6.83914 10.0579 6.85829 10.0493 6.87955C10.0408 6.90943 10.0323 6.94141 10.0237 6.9755C10.0195 7.03525 10.0195 7.0928 10.0237 7.14815C10.0066 7.19928 9.98955 7.25262 9.97249 7.30816C9.97249 7.30816 9.7997 7.33372 9.76147 7.3274C9.71029 7.3274 9.63353 7.30184 9.60794 7.28891C9.58867 7.27598 9.37132 7.16107 9.37132 7.16107C9.30308 7.16529 9.23274 7.1696 9.16029 7.174C9.11333 7.20809 9.06646 7.24218 9.01969 7.27627C9.00263 7.3274 8.98558 7.37854 8.96852 7.42967C8.98136 7.47659 8.99411 7.52141 9.00676 7.56411C8.98548 7.60242 8.96421 7.64082 8.94293 7.67931V7.81375C8.94293 7.83932 8.89808 7.96716 8.89808 7.96716C8.89808 7.96716 8.80205 8.02461 8.77014 8.03754C8.73823 8.05046 8.75749 8.1783 8.75749 8.1783C8.7916 8.22101 8.82783 8.26362 8.86617 8.30613C8.87038 8.34884 8.8746 8.39145 8.87882 8.43397C8.93421 8.46385 8.99181 8.49152 9.05161 8.51699C9.05161 8.51699 9.14763 8.50406 9.1922 8.49774C9.23044 8.49142 9.31382 8.51699 9.31382 8.51699C9.33509 8.5597 9.35857 8.60231 9.38426 8.64483C9.42259 8.63621 9.46092 8.62979 9.49926 8.62558C9.55887 8.59992 9.61857 8.57435 9.67837 8.54888C9.74661 8.56592 9.81485 8.58086 9.88308 8.59369C9.93426 8.58948 9.98332 8.58306 10.0303 8.57444C10.0431 8.52331 10.0581 8.47218 10.0751 8.42104C10.1177 8.39978 10.1624 8.37632 10.2094 8.35066C10.2265 8.325 10.2435 8.29943 10.2606 8.27396V8.14612C10.2435 8.13751 10.2244 8.12898 10.2031 8.12056C10.2031 8.06521 10.1989 8.00977 10.1904 7.95423C10.2928 7.89888 10.393 7.84344 10.4912 7.7879C10.5678 7.69827 10.6467 7.60874 10.7278 7.5193C10.7236 7.46395 10.7193 7.40851 10.7151 7.35297C10.7535 7.3231 10.794 7.29322 10.8367 7.26334C10.9178 7.25051 10.9967 7.23768 11.0734 7.22485C11.099 7.25472 11.1225 7.2846 11.1438 7.31448C11.1864 7.33573 11.2269 7.35709 11.2654 7.37854C11.2867 7.33162 11.3059 7.28259 11.3229 7.23146C11.3229 7.23146 11.3422 7.20589 11.4509 7.19296C11.5595 7.18003 11.5659 7.13551 11.5659 7.13551C11.5958 7.12689 11.6235 7.12047 11.649 7.11626C11.6831 7.14192 11.7172 7.1696 11.7513 7.19928C11.7641 7.25042 11.7748 7.30155 11.7832 7.35268C11.8216 7.38256 11.8599 7.41023 11.8982 7.4357C11.9536 7.49967 12.0069 7.56153 12.0581 7.62128C12.105 7.63833 12.1519 7.65537 12.1987 7.67242C12.2412 7.69367 12.2839 7.71282 12.3266 7.72987C12.3521 7.77679 12.3798 7.82582 12.4097 7.87695C12.4567 7.91966 12.5035 7.96447 12.5503 8.01139C12.5503 8.01139 12.5629 8.10734 12.544 8.13923C12.5247 8.17772 12.5247 8.18404 12.5121 8.22225C12.4928 8.26075 12.3904 8.27971 12.3904 8.27971C12.3264 8.27971 12.2646 8.28181 12.205 8.28603C12.2134 8.32011 12.2241 8.3521 12.2369 8.38197C12.271 8.40323 12.303 8.42459 12.3329 8.44604C12.3713 8.45465 12.4075 8.46318 12.4416 8.4716C12.4715 8.47581 12.5013 8.48012 12.531 8.48453C12.5439 8.45887 12.5545 8.43541 12.5629 8.41415C12.5714 8.36723 12.582 8.32031 12.5949 8.27339C12.6332 8.26055 12.6715 8.24772 12.7099 8.23489C12.7269 8.21785 12.7419 8.20291 12.7547 8.19008C12.7631 8.15599 12.7717 8.11979 12.7803 8.08149C12.7761 8.06023 12.7719 8.03677 12.7676 8.01111C12.7889 8.00689 12.8102 8.00259 12.8315 7.99818C12.8527 8.0068 12.874 8.01743 12.8953 8.03007H12.9913C12.9998 7.99598 13.0083 7.96189 13.0169 7.9278C13.0169 7.9278 12.889 7.76779 12.8697 7.7359C12.8441 7.70402 12.761 7.64627 12.761 7.64627C12.7355 7.62061 12.7078 7.59294 12.6779 7.56325C12.648 7.56325 12.6182 7.56115 12.5885 7.55693C12.5331 7.5441 12.4799 7.53127 12.4287 7.51844C12.4074 7.48435 12.3861 7.44815 12.3648 7.40985C12.3648 7.40985 12.1794 7.17946 12.1409 7.12833C12.1026 7.07719 12.0515 6.962 12.0515 6.962C12.0515 6.92791 12.0536 6.89592 12.0578 6.86605C12.0664 6.83196 12.0749 6.79787 12.0834 6.76378H12.1728C12.2069 6.77661 12.241 6.78724 12.2751 6.79567C12.2922 6.82554 12.3072 6.85322 12.32 6.87869C12.3284 6.91278 12.337 6.94687 12.3456 6.98096C12.3755 7.01505 12.4075 7.04914 12.4416 7.08322C12.4416 7.08322 12.4865 7.14729 12.4991 7.17917C12.5247 7.21106 12.5696 7.23031 12.5951 7.23663C12.6271 7.24955 12.7357 7.28776 12.7357 7.28776C12.7741 7.32185 12.8124 7.35383 12.8507 7.38371C12.9019 7.43906 12.9531 7.4945 13.0043 7.55004C13.0043 7.59275 13.0022 7.63756 12.9979 7.68448C13.0321 7.69731 13.0683 7.71225 13.1066 7.7293C13.1066 7.7293 13.1641 7.87638 13.1641 7.90826C13.1704 7.93383 13.2857 8.07459 13.2857 8.07459C13.3028 8.12151 13.3199 8.17054 13.3369 8.22168C13.354 8.28986 13.371 8.35803 13.3881 8.42621C13.4306 8.45188 13.4754 8.47744 13.5224 8.50291H13.644C13.661 8.49008 13.6802 8.47725 13.7015 8.46442V8.36215C13.7015 8.32366 13.7846 8.27252 13.7846 8.27252C13.7974 8.24265 13.8124 8.21497 13.8294 8.1895C13.7654 8.13837 13.7015 8.08934 13.6376 8.04242C13.6461 8.01254 13.6525 7.98487 13.6569 7.9594C13.691 7.93814 13.723 7.91679 13.7529 7.89534C13.7784 7.86125 13.8019 7.82716 13.8234 7.79307C13.8617 7.79728 13.8979 7.79939 13.9321 7.79939C13.9832 7.81222 14.0344 7.82716 14.0856 7.8442C14.1281 7.82716 14.1708 7.81222 14.2135 7.79939C14.2007 7.73964 14.19 7.68209 14.1816 7.62674C14.1816 7.57982 14.1837 7.5329 14.1879 7.48598C14.2178 7.46031 14.2476 7.43264 14.2774 7.40296C14.2774 7.40296 14.2773 7.3455 14.271 7.30069C14.271 7.26219 14.2647 7.17285 14.2647 7.17285C14.2647 7.17285 14.3029 7.10879 14.3159 7.08322C14.3285 7.05766 14.3797 7.01284 14.3797 7.01284C14.4351 7.01284 14.4884 7.01074 14.5396 7.00652C14.5396 7.00652 14.5844 6.94246 14.5907 6.89793C14.6034 6.85312 14.61 6.72529 14.61 6.72529C14.6313 6.68698 14.6525 6.64648 14.6738 6.60377C14.6951 6.60377 14.7122 6.60166 14.725 6.59745C14.7549 6.61028 14.7826 6.62311 14.8081 6.63594C14.8123 6.67865 14.8165 6.71916 14.8207 6.75746C14.8506 6.7745 14.8783 6.79155 14.9038 6.80859C14.9337 6.8513 14.9593 6.89181 14.9806 6.93011C14.9252 6.95999 14.8698 6.98986 14.8144 7.01974V7.12833C14.8357 7.14537 14.857 7.16452 14.8782 7.18578C14.9549 7.17716 15.0317 7.17075 15.1085 7.16653C15.1938 7.14087 15.2791 7.1132 15.3644 7.08351C15.3644 7.05364 15.3665 7.02376 15.3707 6.99388C15.2983 6.97684 15.2279 6.95979 15.1597 6.94275C15.1469 6.90866 15.1362 6.87457 15.1278 6.84048C15.1533 6.81922 15.1768 6.79787 15.1982 6.77642C15.2324 6.75076 15.2686 6.7273 15.3069 6.70604C15.3623 6.69742 15.4156 6.68679 15.4668 6.67415C15.5093 6.66553 15.552 6.6549 15.5947 6.64226C15.616 6.63365 15.6416 6.62723 15.6715 6.62302C15.697 6.66132 15.7247 6.70183 15.7546 6.74453C15.7546 6.74453 15.7034 6.7701 15.6585 6.78303C15.6137 6.78935 15.5947 6.81491 15.5947 6.81491C15.5564 6.849 15.5158 6.8853 15.4731 6.92379C15.503 6.96209 15.5328 6.99829 15.5625 7.03238C15.6051 7.05364 15.6477 7.07499 15.6904 7.09644C15.7204 7.14336 15.7524 7.19239 15.7865 7.24352C15.8334 7.2734 15.8803 7.30538 15.9271 7.33947C15.9867 7.35651 16.0506 7.37356 16.1188 7.3906C16.1188 7.3906 16.2468 7.5058 16.2594 7.53137C16.2724 7.55693 16.2658 7.64656 16.2724 7.68477C16.266 7.72326 16.1444 7.81921 16.1444 7.81921C16.0762 7.82342 16.008 7.82553 15.9397 7.82553C15.8673 7.82553 15.7926 7.82342 15.7158 7.81921C15.6604 7.78512 15.6028 7.75103 15.543 7.71694C15.4492 7.65719 15.3554 7.59533 15.2615 7.53137C15.1634 7.54841 15.0653 7.56335 14.9674 7.57618C14.8821 7.61889 14.7989 7.6637 14.7178 7.71062C14.6155 7.69358 14.5131 7.67864 14.4108 7.66581C14.3979 7.6999 14.3852 7.73399 14.3725 7.76808C14.2788 7.88739 14.185 8.0068 14.091 8.1263C14.1892 8.24562 14.2872 8.36502 14.3852 8.48453C14.4747 8.54428 14.5621 8.60394 14.6474 8.6635C14.707 8.63362 14.7646 8.60375 14.8202 8.57387C14.8713 8.60796 14.9204 8.63994 14.9674 8.66982H15.1209C15.1721 8.6612 15.2233 8.65478 15.2744 8.65057C15.3427 8.68045 15.413 8.71032 15.4855 8.7402C15.4855 8.7402 15.5174 8.87464 15.524 9.0088C15.5303 9.14324 15.4984 9.32853 15.4984 9.32853C15.4984 9.32853 15.4409 9.44372 15.3256 9.52675C15.2106 9.60977 15.1528 9.60345 15.1528 9.60345C15.1528 9.60345 15.0568 9.56495 14.98 9.54599C14.9033 9.52675 14.769 9.61637 14.769 9.61637C14.6965 9.64204 14.6219 9.6655 14.545 9.68676C14.5067 9.63141 14.4684 9.57596 14.43 9.52043C14.3148 9.52904 14.1997 9.53967 14.0847 9.55231C14.0677 9.50118 14.0506 9.45004 14.0335 9.39891C13.9611 9.40312 13.8886 9.40523 13.8162 9.40523C13.7351 9.35831 13.6541 9.30928 13.5732 9.25815C13.4966 9.27519 13.4198 9.29224 13.343 9.30928C13.3343 9.42017 13.3279 9.53106 13.3237 9.64194C13.2512 9.65899 13.1788 9.67392 13.1063 9.68676C13.0467 9.66109 12.987 9.63763 12.9272 9.61637C12.876 9.59071 12.8228 9.56725 12.7674 9.54599L12.5756 9.48193C12.5501 9.45627 12.5224 9.4307 12.4925 9.40523C12.45 9.36693 12.4073 9.32642 12.3646 9.28372H12.1279C12.1279 9.28372 11.9169 9.18145 11.8657 9.13663C11.8082 9.09182 11.7953 8.96398 11.7953 8.96398C11.8336 8.90864 11.8742 8.85319 11.9169 8.79765V8.58019C11.8232 8.52906 11.7294 8.47792 11.6354 8.42679C11.6354 8.42679 11.5138 8.50349 11.4371 8.52274C11.354 8.54198 11.2453 8.5483 11.2453 8.5483C11.1472 8.51843 11.0512 8.48855 10.9575 8.45867C10.8979 8.49698 10.8403 8.53748 10.7847 8.58019C10.6312 8.59723 10.4799 8.61217 10.3307 8.625C10.2966 8.65909 10.2646 8.69108 10.2347 8.72095C10.158 8.72957 10.0834 8.7402 10.0107 8.75284C9.96378 8.80819 9.91691 8.86574 9.87014 8.92549C9.78907 8.90423 9.70808 8.88508 9.6272 8.86804C9.5718 8.8552 9.51641 8.84237 9.46102 8.82954C9.40141 8.88067 9.34171 8.93181 9.2819 8.98294C9.24779 9.04691 9.20945 9.11087 9.1669 9.17484C9.10729 9.16622 9.04969 9.15559 8.99411 9.14295C8.92166 9.20692 8.8492 9.27088 8.77675 9.33485C8.78097 9.42869 8.78528 9.52253 8.78969 9.61637C8.75557 9.72726 8.72145 9.83594 8.68734 9.94243C8.6191 10.0276 8.55087 10.113 8.48263 10.1984C8.40596 10.224 8.33351 10.2475 8.26527 10.2688C8.2141 10.3584 8.16503 10.4458 8.11807 10.531C8.07552 10.5908 8.03498 10.6527 7.99645 10.7166C7.94106 10.8616 7.88567 11.0066 7.83027 11.1515C7.81743 11.2113 7.80248 11.271 7.78542 11.3305C7.78964 11.4925 7.79386 11.6546 7.79807 11.8166C7.79807 11.8166 7.84293 12.0148 7.84293 12.0533C7.84293 12.0918 7.82366 12.3219 7.82366 12.3219C7.80239 12.3646 7.77891 12.4094 7.75322 12.4563C7.71067 12.482 7.66592 12.5076 7.61896 12.533C7.62739 12.5757 7.63381 12.6183 7.63822 12.6609C7.69361 12.7162 7.75121 12.7738 7.81101 12.8335C7.78552 12.8506 7.75993 12.8655 7.73425 12.8783C7.72141 12.9166 7.70866 12.955 7.69601 12.9935C7.70885 13.0489 7.7216 13.1022 7.73425 13.1535C7.73425 13.1535 7.86851 13.2047 7.90043 13.2176C7.92602 13.2368 7.94528 13.3135 7.94528 13.3135C7.94528 13.3135 7.97719 13.4351 7.99013 13.4736C7.99646 13.5054 8.04131 13.5566 8.05396 13.5821C8.06661 13.6077 8.20116 13.7611 8.20116 13.7611C8.29067 13.8421 8.38018 13.9252 8.46969 14.0105C8.54215 14.1171 8.6146 14.2237 8.68705 14.3302C8.68705 14.3302 8.82132 14.4965 8.82764 14.5221C8.84029 14.554 8.91073 14.554 8.94926 14.5732C8.98117 14.5862 8.97484 14.5862 9.04528 14.5925C9.10911 14.5988 9.12205 14.554 9.16029 14.5158C9.19852 14.4839 9.18587 14.4517 9.18587 14.4135C9.17955 14.375 9.33941 14.3624 9.33941 14.3624H9.44808C9.44808 14.3624 9.81264 14.4198 9.83823 14.4264C9.87014 14.4327 9.95323 14.4394 9.99176 14.4394C10.0303 14.4394 10.0556 14.4138 10.0812 14.3945C10.1068 14.3753 10.1835 14.3305 10.2028 14.2986C10.2284 14.2601 10.3371 14.2538 10.3626 14.2345C10.3946 14.2153 10.5993 14.1771 10.6249 14.1705C10.6504 14.1642 10.7399 14.1257 10.7399 14.1257C10.774 14.1257 10.8102 14.1278 10.8485 14.132C10.8911 14.1619 10.9337 14.1917 10.9765 14.2216C10.9849 14.2727 10.9934 14.3239 11.0021 14.375C11.0276 14.4133 11.0531 14.4517 11.0788 14.4902C11.1129 14.5243 11.145 14.5584 11.1749 14.5925C11.2515 14.5967 11.3283 14.5988 11.4051 14.5988H11.5843C11.5843 14.5988 11.7441 14.7396 11.7441 14.7651C11.7441 14.7907 11.6547 14.8481 11.6547 14.8481C11.6505 14.9163 11.6484 14.9845 11.6484 15.0527C11.6526 15.1295 11.6569 15.2084 11.6613 15.2894C11.6272 15.3193 11.591 15.3512 11.5526 15.3853C11.5697 15.4451 11.5868 15.5069 11.6038 15.5709C11.6464 15.6477 11.689 15.7223 11.7318 15.7947C11.7659 15.8374 11.8 15.8779 11.8341 15.9162C11.8811 15.9545 11.9301 15.9929 11.9813 16.0314C11.9813 16.0314 12.0773 16.1785 12.0773 16.2041C12.0773 16.2233 12.0454 16.3704 12.0454 16.3704C12.0795 16.4472 12.1116 16.5261 12.1415 16.6071C12.1669 16.6624 12.1904 16.7179 12.2119 16.7734C12.2418 16.846 12.2695 16.9164 12.295 16.9846C12.3163 17.0485 12.3375 17.1104 12.3588 17.1701C12.3418 17.2171 12.3268 17.2661 12.314 17.3172C12.2628 17.3684 12.2116 17.4195 12.1604 17.4706C12.1263 17.5346 12.0901 17.5986 12.0518 17.6625C12.0389 17.7393 12.0262 17.8161 12.0135 17.8929C12.0093 18.0379 12.0051 18.1829 12.0009 18.3278C12.0137 18.3491 12.0265 18.3683 12.0391 18.3853C12.1116 18.4749 12.184 18.5645 12.2565 18.6539C12.2565 18.6539 12.41 18.9288 12.4163 18.9481C12.41 18.9736 12.397 19.1336 12.3907 19.1592C12.3844 19.1785 12.3907 19.4597 12.3907 19.4597C12.4162 19.5194 12.4375 19.5813 12.4546 19.6453C12.4929 19.6665 12.527 19.6857 12.5569 19.7027C12.5868 19.7454 12.6166 19.7859 12.6463 19.8242C12.6634 19.8796 12.6761 19.935 12.6846 19.9906C12.7145 20.0204 12.7422 20.0481 12.7676 20.0736C12.7805 20.1077 12.7932 20.1418 12.8059 20.1759C12.8442 20.2015 12.8783 20.2271 12.9082 20.2526C12.8996 20.2953 12.8953 20.3358 12.8953 20.3741C12.8953 20.3741 12.876 20.5019 12.8697 20.5275C12.8697 20.5467 12.9657 20.6234 12.9721 20.6427C12.985 20.6619 13.196 20.6556 13.196 20.6556C13.2556 20.6129 13.3154 20.5681 13.3752 20.5212C13.3752 20.5212 13.5094 20.4827 13.5543 20.4763C13.5991 20.47 13.631 20.5148 13.631 20.5148C13.6906 20.519 13.7482 20.5234 13.8038 20.5278C13.8038 20.5278 13.9254 20.4318 13.9444 20.4192C13.97 20.3999 14.1106 20.4062 14.1106 20.4062C14.1489 20.3892 14.1873 20.3722 14.2256 20.3551C14.2639 20.2954 14.3045 20.2378 14.3472 20.1825C14.4538 20.1313 14.5626 20.0802 14.6735 20.0291C14.682 19.9864 14.6884 19.9458 14.6928 19.9075C14.7183 19.8606 14.7439 19.8137 14.7696 19.7668C14.825 19.7455 14.8803 19.7242 14.9357 19.7027C14.9528 19.6558 14.9678 19.611 14.9806 19.5683C14.989 19.5129 14.9997 19.4575 15.0125 19.402C15.0296 19.355 15.0445 19.3081 15.0574 19.2612C15.0999 19.2612 15.1426 19.2591 15.1853 19.2549C15.2279 19.225 15.2726 19.193 15.3196 19.1589C15.3408 19.0865 15.36 19.0161 15.3771 18.9478V18.7622C15.3729 18.7069 15.3686 18.6514 15.3644 18.5959C15.3899 18.5149 15.4155 18.4338 15.4412 18.3528C15.4498 18.34 15.4583 18.3272 15.4668 18.3143C15.5179 18.3015 15.567 18.293 15.614 18.2888C15.6395 18.229 15.6651 18.1715 15.6907 18.1161C15.7503 18.0608 15.8079 18.0053 15.8635 17.9498C15.9275 17.9412 15.9915 17.9306 16.0553 17.9179C16.0852 17.871 16.115 17.8241 16.1447 17.7771C16.1917 17.7218 16.2385 17.6643 16.2853 17.6045C16.2811 17.3913 16.2747 17.176 16.266 16.9584C16.2574 16.9372 16.2489 16.9137 16.2405 16.888C16.2276 16.8157 16.2149 16.7432 16.2022 16.6706C16.2108 16.5938 16.2215 16.5192 16.2341 16.4468C16.2 16.3786 16.1659 16.3125 16.1318 16.2486C16.1488 16.2103 16.168 16.1719 16.1893 16.1334C16.1977 16.0566 16.2041 15.9798 16.2085 15.903C16.2085 15.903 16.2916 15.7559 16.3046 15.7111C16.3238 15.66 16.5349 15.4618 16.5349 15.4618C16.6159 15.338 16.6948 15.2144 16.7715 15.0909C16.8652 15.0227 16.9611 14.9545 17.0593 14.8863C17.1616 14.767 17.2619 14.6497 17.36 14.5344C17.4112 14.4619 17.4624 14.3915 17.5135 14.3233C17.5306 14.2381 17.5477 14.155 17.5647 14.0739C17.65 13.8949 17.7332 13.72 17.8143 13.5494C17.8442 13.4556 17.8762 13.3596 17.9103 13.2615C17.8932 13.2188 17.8783 13.1762 17.8654 13.1337C17.8229 13.1295 17.7824 13.1274 17.7438 13.1274C17.7438 13.1274 17.5584 13.2874 17.5072 13.2874C17.4497 13.2937 17.3088 13.3578 17.3088 13.3578C17.2406 13.3834 17.1724 13.409 17.1041 13.4345C16.9719 13.3833 16.8376 13.3343 16.7013 13.2874C16.7013 13.2874 16.5927 13.1274 16.5863 13.0763C16.5737 13.0251 16.5415 12.8332 16.5415 12.8332C16.4989 12.7522 16.4584 12.6691 16.4199 12.5839C16.3516 12.5582 16.2855 12.5305 16.2215 12.5009C16.2002 12.4198 16.181 12.3367 16.164 12.2515C16.0915 12.1364 16.0191 12.0255 15.9466 11.9188C15.9083 11.8208 15.87 11.7227 15.8316 11.6247C15.8188 11.5649 15.806 11.5053 15.7934 11.4457C15.7508 11.3988 15.7061 11.3519 15.6591 11.3049C15.6122 11.2282 15.5631 11.1514 15.5119 11.0746C15.5248 10.9849 15.5354 10.8933 15.5438 10.7996C15.4969 10.6845 15.4521 10.5715 15.4096 10.4607C15.3072 10.3883 15.2049 10.3137 15.1025 10.2369C15.0471 10.1472 14.9938 10.0577 14.9426 9.96828C14.9426 9.92136 14.9448 9.87233 14.949 9.8212C15.0044 9.84246 15.0598 9.86592 15.1151 9.89158C15.1577 9.97259 15.2003 10.0515 15.2431 10.1283C15.3027 10.1369 15.3603 10.1433 15.4159 10.1475C15.4883 10.1987 15.5608 10.2498 15.6332 10.3009C15.629 10.3906 15.6248 10.4801 15.6206 10.5695C15.7272 10.6975 15.8337 10.8275 15.9403 10.9597C15.9915 11.0918 16.0405 11.2218 16.0875 11.3498C16.2069 11.5587 16.3263 11.7655 16.4457 11.9703C16.4457 11.9703 16.5032 12.1366 16.5225 12.2007C16.5481 12.2581 16.6568 12.4052 16.6887 12.4629C16.7206 12.527 16.6824 12.7763 16.6824 12.7763C16.7293 12.8531 16.7762 12.932 16.8229 13.0131L17.0532 12.9234C17.1257 12.8382 17.196 12.7529 17.2643 12.6675C17.3708 12.6633 17.4774 12.6612 17.584 12.6612C17.648 12.6355 17.7098 12.6099 17.7694 12.5845C17.8334 12.5758 17.8953 12.5652 17.9549 12.5526C17.9804 12.4886 18.0038 12.4246 18.0253 12.3607C18.0893 12.3436 18.1532 12.3287 18.2171 12.3159C18.2554 12.2689 18.2937 12.2178 18.3321 12.1625C18.4643 12.0814 18.5965 12.0004 18.7285 11.9194C18.7285 11.9194 18.7541 11.6956 18.7605 11.6701C18.7605 11.6382 18.8243 11.5741 18.8243 11.5741C18.8626 11.5144 18.8988 11.4547 18.933 11.3952C18.9243 11.3226 18.9158 11.2522 18.9074 11.184C18.8648 11.1371 18.8222 11.0902 18.7794 11.0432C18.7453 11.0346 18.7112 11.0261 18.6771 11.0177C18.6345 10.9878 18.5898 10.9558 18.5428 10.9217C18.5344 10.8919 18.5216 10.862 18.5046 10.8321C18.5046 10.8321 18.4407 10.7554 18.4152 10.7617C18.3959 10.7617 18.3065 10.864 18.2809 10.9088C18.249 10.9536 18.153 10.9599 18.1147 10.9792C18.0699 10.9921 18.006 10.9599 18.006 10.9599C17.9635 10.9387 17.9229 10.9195 17.8844 10.9025C17.8674 10.8768 17.8503 10.8491 17.8332 10.8195C17.8162 10.7597 17.797 10.6979 17.7757 10.6339C17.7288 10.6082 17.6819 10.5783 17.6352 10.5443C17.5968 10.4845 17.5585 10.4248 17.5201 10.3653C17.4818 10.2971 17.4435 10.2289 17.4051 10.1608C17.3582 10.1096 17.3091 10.0585 17.2579 10.0073L17.2324 9.87951C17.2578 9.86247 17.2834 9.84332 17.3091 9.82206L17.3729 9.86055C17.3984 9.8776 17.424 9.89043 17.4497 9.89905C17.4626 9.882 17.4775 9.86496 17.4946 9.84791C17.4946 9.84791 17.565 9.89905 17.5906 9.92462C17.6162 9.95018 17.5969 10.0076 17.5969 10.078C17.6032 10.1484 17.68 10.174 17.68 10.174C17.68 10.174 17.8079 10.3403 17.8272 10.3722C17.8465 10.3977 17.9551 10.4618 17.9551 10.4618C18.0447 10.466 18.1342 10.466 18.2237 10.4618C18.2578 10.4576 18.2919 10.4512 18.326 10.4426C18.326 10.4426 18.3835 10.4107 18.4221 10.4233C18.4603 10.4296 18.4796 10.4808 18.4988 10.5129C18.5181 10.5448 18.5693 10.673 18.5693 10.673C18.6162 10.707 18.6631 10.7411 18.7099 10.7752C18.7823 10.771 18.857 10.7689 18.9338 10.7689H19.1641C19.177 10.7306 19.1897 10.6901 19.2024 10.6474C19.2279 10.6686 19.2534 10.6878 19.2791 10.7048C19.3175 10.7518 19.3537 10.7966 19.3878 10.8393C19.4304 10.8265 19.473 10.8136 19.5157 10.8008H19.6437C19.6521 10.8094 19.6628 10.8179 19.6756 10.8264C19.6842 10.8604 19.6928 10.8924 19.7012 10.9223C19.7395 10.9564 19.7757 10.9863 19.8099 11.0119C19.8398 11.0376 19.8718 11.0653 19.9059 11.095C19.9314 11.1333 19.957 11.1717 19.9827 11.2102C19.9869 11.24 19.9911 11.272 19.9953 11.3061C20.0037 11.336 20.0102 11.3659 20.0146 11.3957C20.0146 11.3957 20.0721 11.4724 20.085 11.5172C20.0977 11.5491 20.2512 11.5557 20.2512 11.5557C20.2853 11.5301 20.3194 11.5087 20.3535 11.4917C20.3664 11.4618 20.3791 11.4362 20.3918 11.415C20.4173 11.4278 20.4408 11.4427 20.4622 11.4598V11.6517C20.4622 11.7369 20.4643 11.8222 20.4685 11.9076C20.477 12.0356 20.4855 12.1677 20.4941 12.3041C20.4941 12.3041 20.5835 12.483 20.6028 12.5534C20.6284 12.6238 20.6859 12.8283 20.6859 12.8283C20.72 12.9094 20.7541 12.9883 20.7883 13.0651C20.7883 13.0651 20.8521 13.3721 20.8587 13.4104C20.8587 13.4359 20.8906 13.5704 20.8906 13.5704C20.9161 13.5874 20.9417 13.6066 20.9674 13.6278C20.9886 13.5895 21.0121 13.5511 21.0378 13.5126C21.0848 13.4444 21.1295 13.3805 21.1721 13.3207C21.1763 13.278 21.1805 13.2375 21.1847 13.1992C21.1932 13.1395 21.2017 13.0776 21.2103 13.0136V12.8025C21.2019 12.7343 21.1955 12.6682 21.1911 12.6043C21.1995 12.5403 21.208 12.4742 21.2166 12.4061C21.2166 12.4061 21.2997 12.342 21.3316 12.3294C21.3572 12.3164 21.3891 12.2845 21.4021 12.2653C21.4084 12.246 21.4277 12.1693 21.4277 12.1693C21.4405 12.1395 21.4555 12.1118 21.4725 12.0863C21.4725 12.0863 21.5237 12.0863 21.543 12.0544C21.5622 12.0289 21.6005 11.9329 21.6197 11.9137C21.6324 11.8944 21.7158 11.837 21.7158 11.837C21.7412 11.7901 21.7668 11.741 21.7925 11.6899C21.8009 11.6472 21.8095 11.611 21.8181 11.5813C21.8223 11.5386 21.8265 11.5002 21.8308 11.4661H21.9138C21.948 11.4703 21.98 11.4724 22.0099 11.4724C22.0099 11.4724 22.0355 11.338 22.0355 11.3061C22.0355 11.2869 22.0737 11.1846 22.0737 11.1846C22.0992 11.1804 22.1227 11.1783 22.1441 11.1783C22.1484 11.2166 22.1526 11.2571 22.1568 11.2998C22.1738 11.368 22.1888 11.434 22.2016 11.498C22.2271 11.5577 22.2527 11.6196 22.2784 11.6836C22.3039 11.7347 22.3295 11.7923 22.3552 11.8562C22.3552 11.8562 22.3744 12.0418 22.3744 12.0608C22.3744 12.0926 22.3937 12.2397 22.3937 12.2397C22.4108 12.2738 22.4278 12.3079 22.4449 12.342C22.4748 12.3079 22.5004 12.278 22.5216 12.2524C22.5387 12.197 22.5536 12.1416 22.5665 12.086C22.5835 12.1287 22.6006 12.1714 22.6177 12.2139V12.4121C22.6092 12.4761 22.6007 12.54 22.5921 12.604C22.6091 12.6467 22.6262 12.6893 22.6433 12.7318C22.639 12.7916 22.6369 12.8491 22.6369 12.9045C22.6498 12.9726 22.6647 13.0387 22.6818 13.1027C22.7031 13.1624 22.7265 13.2221 22.7522 13.2817C22.7522 13.3328 22.7543 13.3839 22.7585 13.4351C22.7543 13.5075 22.7501 13.5799 22.7459 13.6525C22.7501 13.7422 22.7522 13.8317 22.7522 13.9211C22.7693 13.9851 22.7884 14.0447 22.8097 14.1001C22.8226 14.1384 22.8354 14.1789 22.8482 14.2216C22.8611 14.2302 22.8738 14.2409 22.8865 14.2535C22.9035 14.2322 22.9206 14.2109 22.9377 14.1894C22.9461 14.1383 22.9525 14.0872 22.9569 14.036C22.9654 13.9721 22.9739 13.9017 22.9825 13.8249C22.9741 13.7567 22.9655 13.6885 22.9569 13.6203C22.9485 13.582 22.9379 13.5394 22.925 13.4925C22.9079 13.4755 22.8867 13.4584 22.8612 13.4414C22.857 13.4115 22.8484 13.3838 22.8356 13.3584V13.2305C22.8356 13.2305 22.7907 13.026 22.7907 12.9812C22.7907 12.9427 22.81 12.77 22.81 12.77C22.81 12.77 22.8868 12.7381 22.9124 12.7445C22.9316 12.7445 22.9379 12.866 22.9316 12.9171C22.9316 12.9875 22.9379 12.9938 22.9379 13.0323C22.9443 13.0771 22.9955 13.026 22.9955 13.026C23.0039 13.0687 23.0124 13.1135 23.021 13.1604C23.0168 13.2202 23.0147 13.2756 23.0147 13.3268C23.0318 13.3225 23.0509 13.3182 23.0722 13.3138C23.0935 13.2541 23.1148 13.1986 23.136 13.1475C23.1659 13.0749 23.1936 13.0067 23.2191 12.943C23.2362 12.8407 23.2532 12.7405 23.2703 12.6425C23.2619 12.5444 23.2533 12.4506 23.2447 12.361L23.1424 12.0668C23.1424 12.0668 23.0912 11.9134 23.0849 11.8364C23.0849 11.766 23.1105 11.7468 23.1105 11.7468C23.1317 11.7127 23.153 11.6807 23.1743 11.6508C23.1785 11.5997 23.1827 11.5528 23.1869 11.5101C23.1998 11.5143 23.2125 11.5249 23.2252 11.5419C23.2294 11.5847 23.2358 11.6252 23.2444 11.6635C23.2709 11.6158 23.2758 11.6072 23.2945 11.5658C23.2999 11.7106 23.3037 11.8562 23.3037 12.0024C23.3037 12.9208 23.1927 13.8134 22.9851 14.6689C22.9842 14.6672 22.9834 14.6657 22.9822 14.6631C22.9822 14.6631 22.9759 14.6246 22.9759 14.612L22.9632 14.5735C22.9504 14.5821 22.9377 14.5885 22.925 14.5928C22.9208 14.614 22.9166 14.6354 22.9124 14.6568C22.9124 14.6739 22.9145 14.6888 22.9187 14.7016C22.9229 14.7145 22.9271 14.7273 22.9313 14.7401C22.9313 14.7487 22.9334 14.7573 22.9377 14.7657C22.9492 14.7714 22.9509 14.772 22.9601 14.772C22.9348 14.8726 22.908 14.9725 22.8802 15.0719V15.0533C22.8886 15.0105 22.895 14.97 22.8994 14.9317C22.9036 14.9105 22.9079 14.8891 22.9121 14.8677C22.9163 14.842 22.9163 14.8229 22.9121 14.8102C22.9121 14.7846 22.91 14.7569 22.9057 14.7272C22.8973 14.723 22.8888 14.7209 22.8802 14.7209C22.8717 14.6952 22.8653 14.6697 22.8609 14.6442C22.8567 14.6143 22.8525 14.5823 22.8482 14.5482V14.3308C22.8482 14.3308 22.8163 14.2796 22.8097 14.2796C22.7971 14.2667 22.7459 14.2222 22.7459 14.2222C22.7375 14.1965 22.731 14.1731 22.7266 14.1518C22.7138 14.1177 22.7031 14.0857 22.6947 14.0558C22.6819 14.0472 22.6712 14.0344 22.6628 14.0174C22.6457 14.0131 22.6287 14.0067 22.6116 13.9981C22.5988 13.9853 22.586 13.9703 22.5734 13.9533C22.565 13.932 22.5543 13.9086 22.5415 13.8829C22.5415 13.8829 22.5032 13.8766 22.4903 13.8766C22.484 13.8703 22.4391 13.8573 22.4391 13.8573C22.4221 13.866 22.4008 13.8788 22.3753 13.8958C22.3837 13.9257 22.3923 13.9598 22.4009 13.9981C22.4222 14.0109 22.4413 14.0216 22.4584 14.03C22.4754 14.0641 22.4925 14.0961 22.5096 14.1259C22.5266 14.1472 22.5437 14.1664 22.5607 14.1834C22.5778 14.2516 22.5927 14.3241 22.6056 14.4009C22.614 14.4265 22.6204 14.4521 22.6249 14.4776C22.6249 14.5117 22.6227 14.5478 22.6185 14.5862C22.6314 14.6118 22.642 14.6374 22.6504 14.6629C22.6633 14.7182 22.6739 14.7736 22.6824 14.8292C22.6952 14.8719 22.7079 14.9124 22.7206 14.9507C22.7248 14.9764 22.7312 15.0019 22.7399 15.0274C22.7441 15.0657 22.7483 15.1062 22.7525 15.1489C22.7609 15.1746 22.7695 15.2045 22.7781 15.2385C22.7909 15.2257 22.8016 15.2172 22.81 15.213C22.8228 15.1831 22.8335 15.1575 22.8419 15.1363C22.858 15.1147 22.8606 15.1113 22.8727 15.0992C22.8569 15.1549 22.8399 15.2101 22.8232 15.2655C22.8212 15.2707 22.8192 15.2765 22.8166 15.2834C22.8155 15.2888 22.8146 15.2934 22.8137 15.2974C21.4001 19.9245 17.0909 23.2996 12.0078 23.2996L12.0032 23.3005Z" fill="#7BFDB1"/>
<path fill-rule="evenodd" clip-rule="evenodd" d="M1.46922 11.7085C1.43932 11.6873 1.41162 11.6617 1.38613 11.6319C1.3478 11.6107 1.30946 11.5872 1.27113 11.5616C1.24123 11.5275 1.20922 11.4914 1.1751 11.4531C1.1452 11.4361 1.11319 11.4191 1.07907 11.402C1.04074 11.3934 1.0024 11.3849 0.96407 11.3765C0.93417 11.4192 0.90216 11.466 0.868042 11.5171C0.872259 11.5383 0.876476 11.5597 0.880692 11.5811C0.893534 11.5725 0.906281 11.5661 0.918931 11.5619C0.931773 11.5406 0.946724 11.5193 0.963783 11.4979C0.985058 11.4893 1.00633 11.485 1.02761 11.485C1.06594 11.5232 1.10648 11.5616 1.14923 11.6C1.17472 11.6383 1.20031 11.6767 1.22599 11.7151C1.23442 11.779 1.24295 11.8386 1.25158 11.8939C1.25579 11.9237 1.26222 11.9493 1.27084 11.9705C1.24094 12.0004 1.21324 12.0259 1.18775 12.0471C1.19619 12.0898 1.20471 12.1346 1.21334 12.1814C1.24324 12.1943 1.27305 12.2028 1.30276 12.207C1.31981 12.1813 1.33687 12.1537 1.35393 12.124C1.34109 12.0814 1.33045 12.0409 1.32202 12.0027C1.33045 11.977 1.33898 11.9557 1.34761 11.9387C1.38594 11.913 1.42648 11.8854 1.46922 11.8557V11.7088V11.7085Z" fill="#7BFDB1"/>
<path fill-rule="evenodd" clip-rule="evenodd" d="M5.07653 3.57958C5.10643 3.55834 5.13413 3.53491 5.15962 3.50927C5.15962 3.49645 5.1554 3.48583 5.14697 3.47742C5.11285 3.48163 5.08084 3.48803 5.05094 3.49664C5.01261 3.51788 4.97638 3.53701 4.94226 3.55404C4.92099 3.58809 4.89751 3.62214 4.87183 3.6562C4.89732 3.6562 4.92712 3.65189 4.96124 3.64328C4.99958 3.62205 5.03791 3.60072 5.07624 3.57929L5.07653 3.57958Z" fill="#7BFDB1"/>
<path fill-rule="evenodd" clip-rule="evenodd" d="M7.68597 3.54748H7.80758C7.80758 3.57312 7.8118 3.59866 7.82023 3.6241C7.78612 3.65394 7.75411 3.68159 7.72421 3.70703C7.70715 3.72827 7.69009 3.75171 7.67303 3.77734H7.78803C7.82215 3.76031 7.85838 3.74118 7.89671 3.71995C7.93926 3.71995 7.9776 3.72205 8.01171 3.72626C8.04583 3.7519 8.07564 3.77744 8.10113 3.80288C8.14368 3.80709 8.18633 3.81139 8.22907 3.81579C8.24613 3.78595 8.26108 3.754 8.27392 3.71995C8.31226 3.70292 8.35059 3.688 8.38892 3.67518C8.44432 3.66236 8.50192 3.64954 8.56172 3.63673C8.61711 3.59406 8.6725 3.5515 8.7279 3.50903C8.74496 3.44513 8.76843 3.37702 8.79834 3.3047C8.75578 3.28768 8.71745 3.26855 8.68333 3.24731C8.645 3.2431 8.60446 3.241 8.56172 3.241C8.4977 3.27084 8.43799 3.29849 8.3826 3.32393C8.33142 3.33254 8.28236 3.33895 8.2354 3.34316C8.2099 3.31752 8.18642 3.29409 8.16496 3.27285C8.118 3.28146 8.07535 3.28787 8.03702 3.29208C8.01574 3.31771 7.99447 3.34536 7.97319 3.37501C7.93907 3.38362 7.90495 3.39003 7.87084 3.39424C7.87084 3.38142 7.87515 3.3665 7.88378 3.34947C7.8625 3.33244 7.84122 3.31752 7.81995 3.3047C7.78161 3.32594 7.74539 3.34507 7.71127 3.3621C7.66009 3.41739 7.61323 3.47277 7.57068 3.52825C7.58352 3.55389 7.59627 3.57943 7.60892 3.60487C7.61735 3.60908 7.62588 3.61339 7.6345 3.61779C7.65156 3.59655 7.66862 3.57312 7.68568 3.54748H7.68597Z" fill="#7BFDB1"/>
<path fill-rule="evenodd" clip-rule="evenodd" d="M11.7409 1.29596C11.7708 1.30457 11.8007 1.31309 11.8304 1.3215C11.8729 1.31729 11.9156 1.31299 11.9583 1.30859C11.9711 1.29998 11.9839 1.29147 11.9965 1.28305C12.0136 1.27444 12.0286 1.26803 12.0414 1.26382C12.0713 1.26382 12.1033 1.26593 12.1374 1.27014C12.1374 1.28295 12.1331 1.29577 12.1245 1.30859C12.1032 1.32141 12.0819 1.33423 12.0607 1.34704V1.3855C12.099 1.40673 12.1352 1.42806 12.1693 1.44949C12.2035 1.47092 12.2333 1.49005 12.2587 1.50688C12.3099 1.51549 12.3568 1.52401 12.3993 1.53242C12.4122 1.51961 12.4228 1.50468 12.4313 1.48766C12.4228 1.4536 12.4207 1.41955 12.4249 1.3855C12.4548 1.37689 12.4804 1.36627 12.5017 1.35364C12.5358 1.34943 12.5699 1.34303 12.604 1.33442C12.6424 1.34723 12.6744 1.35785 12.7001 1.36627C12.6916 1.38751 12.6831 1.40664 12.6745 1.42366C12.7257 1.43227 12.7747 1.44079 12.8217 1.4492C12.9028 1.4492 12.9816 1.45131 13.0583 1.45552C13.0712 1.43849 13.0861 1.42357 13.1032 1.41075C13.0777 1.38511 13.0521 1.36168 13.0264 1.34044C12.9539 1.31921 12.8836 1.29788 12.8154 1.27645C12.7387 1.25942 12.6577 1.24029 12.5724 1.21906C12.5511 1.19782 12.5299 1.17649 12.5086 1.15506C12.4787 1.14224 12.4467 1.12943 12.4126 1.11661H12.2398C12.2227 1.13784 12.2078 1.15917 12.1949 1.1806H12.1055C12.0714 1.16778 12.0394 1.15497 12.0095 1.14215C11.9796 1.15076 11.9519 1.16137 11.9264 1.174C11.9009 1.15277 11.8817 1.13363 11.8689 1.11661C11.8049 1.12943 11.7366 1.14224 11.6642 1.15506C11.6726 1.1763 11.679 1.19543 11.6834 1.21246C11.7005 1.2423 11.7197 1.26994 11.7409 1.29539V1.29596Z" fill="#7BFDB1"/>
<path fill-rule="evenodd" clip-rule="evenodd" d="M12.7323 1.20666C12.7919 1.21527 12.8495 1.22589 12.9051 1.23851H13.0586C13.0799 1.2343 13.1012 1.23 13.1224 1.2256C13.1694 1.21699 13.2099 1.20637 13.244 1.19375C13.2824 1.18954 13.3165 1.18313 13.3464 1.17452C13.3635 1.1617 13.3805 1.15108 13.3976 1.14267C13.3847 1.12985 13.372 1.11703 13.3593 1.10421C13.3381 1.10421 13.3146 1.10211 13.2889 1.0979H13.1673C13.1631 1.10211 13.1524 1.10641 13.1354 1.11081C13.1055 1.11502 13.0757 1.11713 13.046 1.11713C13.046 1.11713 12.9629 1.11081 12.9373 1.10421C12.9246 1.10421 12.8412 1.08498 12.8412 1.08498C12.82 1.07638 12.8029 1.06786 12.7901 1.05944C12.7431 1.05944 12.6984 1.05734 12.6558 1.05313C12.6345 1.07016 12.6089 1.08718 12.579 1.10421C12.5833 1.11703 12.5918 1.13195 12.6046 1.14898C12.6472 1.17021 12.6898 1.18935 12.7326 1.20637L12.7323 1.20666Z" fill="#7BFDB1"/>
<path fill-rule="evenodd" clip-rule="evenodd" d="M3.84832 6.91807C3.8441 6.87541 3.84199 6.83495 3.84199 6.79668C3.79082 6.79668 3.74175 6.79238 3.69479 6.78377C3.69479 6.75393 3.69268 6.72628 3.68847 6.70084C3.66278 6.69223 3.63298 6.68582 3.59905 6.68161C3.56493 6.74551 3.53293 6.80941 3.50303 6.87331C3.44342 6.93299 3.38582 6.99259 3.33023 7.05209C3.31739 7.1288 3.30464 7.20332 3.29199 7.27563C3.32611 7.25861 3.36234 7.24158 3.40067 7.22455C3.43479 7.19892 3.47102 7.17548 3.50935 7.15425C3.51357 7.21394 3.51999 7.27353 3.52861 7.33303C3.56694 7.316 3.60528 7.29897 3.64361 7.28195C3.67351 7.30758 3.70553 7.33312 3.73964 7.35857C3.77798 7.30749 3.81852 7.25851 3.86126 7.21164C3.86548 7.186 3.87189 7.15616 3.88052 7.12211C3.85924 7.09647 3.84219 7.06883 3.82935 7.03917C3.83356 6.99651 3.83998 6.95605 3.84861 6.91779L3.84832 6.91807Z" fill="#7BFDB1"/>
<path fill-rule="evenodd" clip-rule="evenodd" d="M2.01286 11.9835C1.98737 12.0134 1.96389 12.0347 1.94243 12.0475C1.92537 12.0389 1.90831 12.0283 1.89125 12.0157C1.85713 11.9816 1.82301 11.9497 1.7889 11.9198C1.7634 11.8816 1.73992 11.8411 1.71846 11.7984C1.68434 11.7772 1.65022 11.7602 1.6161 11.7473C1.59061 11.7856 1.56713 11.8219 1.54566 11.8561C1.56272 11.9072 1.57767 11.9562 1.59052 12.003C1.5564 11.9902 1.52228 11.9774 1.48816 11.9646C1.46689 11.9986 1.44341 12.0263 1.41772 12.0475C1.41772 12.0475 1.43699 12.1434 1.44964 12.156C1.48376 12.1602 1.51787 12.1687 1.55199 12.1815C1.62444 12.1901 1.69689 12.1965 1.76935 12.2008C1.80346 12.1921 1.83969 12.1815 1.87802 12.1689C1.89087 12.1561 1.90361 12.1412 1.91626 12.1241C1.93754 12.1454 1.95881 12.1667 1.98009 12.1881C2.00999 12.2009 2.0398 12.2095 2.0695 12.2137C2.09078 12.1626 2.10995 12.1093 2.12701 12.0538C2.11416 12.0368 2.09921 12.0134 2.08215 11.9835H2.01171H2.01286Z" fill="#7BFDB1"/>
<path fill-rule="evenodd" clip-rule="evenodd" d="M9.25921 5.68967C9.31882 5.68967 9.37642 5.68757 9.43201 5.68336C9.46191 5.62367 9.49171 5.56408 9.52142 5.50458C9.50015 5.46632 9.47887 5.42796 9.4576 5.3895C9.48309 5.36827 9.51079 5.34483 9.54069 5.3192C9.55353 5.29356 9.56627 5.26802 9.57892 5.24258C9.52775 5.20431 9.47446 5.16596 9.41907 5.1275C9.35505 5.1275 9.29113 5.12961 9.2273 5.13382C9.20603 5.1849 9.18254 5.24028 9.15686 5.29997C9.11431 5.29576 9.06744 5.29146 9.01627 5.28706C8.98215 5.33814 8.94804 5.38501 8.91392 5.42767C8.93941 5.44891 8.965 5.47024 8.99068 5.49166C9.00353 5.5129 9.01416 5.53423 9.0226 5.55566C8.98005 5.58129 8.93951 5.60263 8.90098 5.61965C8.90098 5.67494 8.89887 5.73033 8.89465 5.78581C8.92877 5.80704 8.96289 5.83048 8.99701 5.85611C9.08652 5.80083 9.17392 5.74544 9.25921 5.68996V5.68967Z" fill="#7BFDB1"/>
<path fill-rule="evenodd" clip-rule="evenodd" d="M9.53437 4.72444C9.55143 4.7457 9.56849 4.76706 9.58554 4.7885C9.61104 4.80976 9.63231 4.83322 9.64937 4.85889C9.62809 4.8675 9.60462 4.87813 9.57893 4.89077C9.56187 4.91203 9.5406 4.93338 9.51511 4.95483C9.56207 4.99314 9.60471 5.03154 9.64305 5.07003C9.65148 5.09991 9.6579 5.12758 9.66231 5.15305C9.72192 5.16167 9.77952 5.17019 9.8351 5.17862C9.87344 5.21271 9.90755 5.2489 9.93745 5.28721C9.92902 5.32551 9.92481 5.3618 9.92481 5.39608C9.86079 5.40029 9.79686 5.40451 9.73304 5.40872C9.7246 5.44702 9.71186 5.48542 9.6948 5.52392C9.72029 5.55801 9.74588 5.5942 9.77156 5.6325C9.73744 5.64534 9.70333 5.66027 9.66921 5.67732C9.66499 5.69436 9.66077 5.71352 9.65656 5.73477C9.71195 5.74339 9.76735 5.75191 9.82274 5.76034C9.82696 5.77738 9.83338 5.79443 9.842 5.81147C9.73543 5.87544 9.63097 5.93941 9.52862 6.00337C9.53284 6.04167 9.53926 6.08007 9.54788 6.11857C9.59484 6.10995 9.64391 6.10353 9.69509 6.09932C9.72058 6.08227 9.74616 6.06312 9.77185 6.04187C9.79312 6.02482 9.81229 6.00567 9.82935 5.98441C9.84641 5.96737 9.86558 5.95243 9.88685 5.9396C9.92097 5.9396 9.95509 5.9417 9.98921 5.94592C10.0147 5.95453 10.0403 5.96095 10.066 5.96516C10.0959 5.96095 10.1279 5.95664 10.162 5.95224C10.1833 5.93519 10.2045 5.91815 10.2258 5.9011C10.2471 5.89248 10.2663 5.88186 10.2833 5.86922C10.3174 5.87343 10.3495 5.87774 10.3794 5.88214C10.3922 5.87793 10.4007 5.87151 10.4049 5.8629C10.4178 5.84585 10.4284 5.82881 10.4369 5.81176C10.4156 5.79893 10.3921 5.7861 10.3664 5.77327C10.3622 5.75201 10.358 5.73286 10.3538 5.71581C10.3837 5.7072 10.4114 5.70078 10.4369 5.69657C10.471 5.68795 10.5051 5.68153 10.5392 5.67732C10.5476 5.66027 10.5562 5.64112 10.5648 5.61986C10.5648 5.56452 10.5606 5.50907 10.5521 5.45354C10.5096 5.44492 10.4627 5.4385 10.4116 5.43429C10.3903 5.41303 10.3647 5.39388 10.3348 5.37683C10.3432 5.33853 10.3474 5.30013 10.3474 5.26164C10.3091 5.23598 10.2729 5.21041 10.2388 5.18494C10.243 5.16368 10.2494 5.14233 10.258 5.12088C10.2239 5.10804 10.1941 5.09521 10.1686 5.08238C10.1644 5.06534 10.1602 5.04829 10.156 5.03125C10.1688 5.00559 10.1815 4.98002 10.1942 4.95455C10.1858 4.94172 10.1793 4.92678 10.1749 4.90973C10.1408 4.8969 10.1046 4.88627 10.0663 4.87785C10.0492 4.8608 10.0321 4.84376 10.0151 4.82671C10.0151 4.81388 10.0193 4.79894 10.0277 4.7819C10.0576 4.76907 10.0896 4.75623 10.1238 4.7434C10.128 4.72214 10.1301 4.70079 10.1301 4.67934C10.113 4.65808 10.0981 4.63462 10.0852 4.60896H10.0214C9.97886 4.61317 9.93621 4.61739 9.89346 4.6216C9.89346 4.60034 9.89558 4.58119 9.89979 4.56415C9.89558 4.53848 9.89126 4.51292 9.88685 4.48745C9.8443 4.48323 9.79955 4.47892 9.75259 4.47452C9.73131 4.49156 9.71003 4.50861 9.68876 4.52565C9.66748 4.55553 9.64621 4.5854 9.62493 4.61528C9.59944 4.62811 9.56964 4.64305 9.53552 4.66009C9.53974 4.63443 9.54184 4.60886 9.54184 4.58339C9.52057 4.56214 9.49929 4.54078 9.47802 4.51933C9.45252 4.53216 9.42272 4.5471 9.3886 4.56415C9.38017 4.60245 9.36953 4.63874 9.35669 4.67302C9.38659 4.7029 9.41429 4.73277 9.43978 4.76265C9.46968 4.74982 9.50169 4.73699 9.53581 4.72416L9.53437 4.72444Z" fill="#7BFDB1"/>
<path fill-rule="evenodd" clip-rule="evenodd" d="M10.0392 4.43021C10.052 4.41739 10.0647 4.40457 10.0772 4.39176C10.0772 4.37894 10.0751 4.36612 10.071 4.3533C10.0498 4.35751 10.0286 4.35962 10.0075 4.35962C9.99892 4.37664 9.99253 4.39156 9.98834 4.40438C9.99673 4.4172 10.0052 4.43002 10.0138 4.44284C10.0222 4.43863 10.0306 4.43432 10.0392 4.42992V4.43021Z" fill="#7BFDB1"/>
<path fill-rule="evenodd" clip-rule="evenodd" d="M10.2309 4.2701C10.2392 4.26149 10.2477 4.25087 10.2563 4.23824C10.2649 4.19998 10.2692 4.15952 10.2692 4.11686C10.2564 4.11265 10.2415 4.10834 10.2246 4.10394H10.1737C10.1567 4.12097 10.1419 4.138 10.1291 4.15502C10.1249 4.18487 10.1207 4.21471 10.1165 4.24456C10.1377 4.25738 10.1588 4.27019 10.18 4.28301C10.1927 4.28301 10.2097 4.27871 10.2309 4.2701Z" fill="#7BFDB1"/>
<path fill-rule="evenodd" clip-rule="evenodd" d="M9.57916 2.55626C9.60043 2.5136 9.62171 2.46883 9.64298 2.42196C9.60886 2.41335 9.57264 2.40484 9.5343 2.39642C9.50019 2.41345 9.46818 2.42837 9.43828 2.44119C9.41278 2.47945 9.39151 2.51992 9.37445 2.56258C9.38288 2.58381 9.3893 2.60515 9.39371 2.62657C9.45332 2.60534 9.51514 2.5819 9.57916 2.55626Z" fill="#7BFDB1"/>
<path fill-rule="evenodd" clip-rule="evenodd" d="M11.6386 7.93507C11.6512 7.87108 11.6834 7.84553 11.6834 7.84553C11.6792 7.80727 11.6728 7.77111 11.6642 7.73706C11.6642 7.73706 11.5681 7.74997 11.5425 7.74997C11.5106 7.74997 11.3953 7.81397 11.3953 7.81397C11.3911 7.87366 11.3869 7.93325 11.3827 7.99275C11.4509 8.0268 11.5192 8.06086 11.5874 8.09491C11.5874 8.09491 11.6256 7.99275 11.6386 7.93507Z" fill="#7BFDB1"/>
<path fill-rule="evenodd" clip-rule="evenodd" d="M11.7024 7.62794C11.7195 7.6023 11.7386 7.57466 11.7599 7.545C11.7428 7.49813 11.7258 7.45126 11.7087 7.40439C11.6746 7.4086 11.6405 7.4107 11.6064 7.4107C11.5935 7.45757 11.5786 7.50444 11.5615 7.55132C11.5744 7.58958 11.585 7.62794 11.5934 7.66639C11.6318 7.65357 11.668 7.64075 11.7021 7.62794H11.7024Z" fill="#7BFDB1"/>
<path fill-rule="evenodd" clip-rule="evenodd" d="M14.0433 8.61309C14.0688 8.58745 14.0923 8.56402 14.1137 8.54278C14.0712 8.51714 14.0285 8.49371 13.9858 8.47247L13.7684 8.48539C13.7642 8.52805 13.76 8.57282 13.7558 8.61969C13.7983 8.61969 13.8431 8.61758 13.8901 8.61337H14.0436L14.0433 8.61309Z" fill="#7BFDB1"/>
<path fill-rule="evenodd" clip-rule="evenodd" d="M15.1562 8.91354C15.1861 8.90933 15.216 8.90503 15.2457 8.90063C15.2585 8.87939 15.2691 8.85806 15.2776 8.83663C15.2691 8.81961 15.2606 8.80258 15.252 8.78555C15.2349 8.78134 15.2137 8.77494 15.1882 8.76633C15.1583 8.77494 15.1263 8.78345 15.0921 8.79187C15.0538 8.80889 15.0155 8.82382 14.9771 8.83663C14.9729 8.8793 14.9687 8.92186 14.9645 8.96433C14.9944 8.96013 15.0242 8.95582 15.0539 8.95142C15.088 8.9386 15.1221 8.92579 15.1562 8.91297V8.91354Z" fill="#7BFDB1"/>
<path fill-rule="evenodd" clip-rule="evenodd" d="M17.4779 17.1518C17.4651 17.1007 17.4523 17.0495 17.4397 16.9984C17.3971 17.0112 17.3545 17.0283 17.3117 17.0495C17.2989 17.1049 17.2882 17.1603 17.2798 17.2158C17.2373 17.2756 17.1946 17.3396 17.1519 17.4077C17.1135 17.4631 17.073 17.5185 17.0303 17.5741C17.009 17.6082 16.9855 17.6444 16.9598 17.6827C16.9428 17.6444 16.9236 17.6103 16.9023 17.5804C16.8682 17.6061 16.8299 17.6337 16.7873 17.6634C16.7277 17.7274 16.668 17.7913 16.6082 17.8553C16.5827 17.9321 16.5571 18.0089 16.5314 18.0857C16.5613 18.1368 16.589 18.188 16.6145 18.2391C16.6059 18.2774 16.5974 18.3179 16.5889 18.3606C16.5506 18.4118 16.5123 18.4629 16.4739 18.514C16.4314 18.5523 16.3887 18.5907 16.346 18.6292C16.3418 18.6761 16.3397 18.7231 16.3397 18.77C16.3908 18.7786 16.4399 18.7892 16.4869 18.8019C16.4869 18.8019 16.4613 18.9105 16.423 18.9363C16.3911 18.9619 16.4038 19.0897 16.4038 19.0897C16.455 19.0939 16.504 19.1024 16.551 19.1153C16.5765 19.1323 16.6021 19.1494 16.6277 19.1664C16.6532 19.1452 16.6788 19.1238 16.7045 19.1024C16.7344 19.0937 16.7642 19.0852 16.7939 19.0768C16.8238 19.0511 16.8536 19.0256 16.8833 19.0001C16.9046 18.983 16.9281 18.9681 16.9538 18.9553C16.9624 18.9296 16.9709 18.9061 16.9794 18.8849C17.0049 18.8508 17.0261 18.8188 17.0432 18.7889C17.056 18.7462 17.0688 18.7036 17.0814 18.6611C17.0814 18.6611 17.1519 18.5333 17.1582 18.5077C17.1645 18.4821 17.1901 18.4373 17.1901 18.4373C17.1817 18.399 17.1731 18.3628 17.1645 18.3287C17.1731 18.2946 17.1796 18.2627 17.1838 18.2328C17.2179 18.2157 17.2499 18.1987 17.2798 18.1816C17.3011 18.156 17.3203 18.1346 17.3373 18.1176C17.3502 18.0877 17.3629 18.0578 17.3755 18.028C17.3713 17.9939 17.3692 17.9555 17.3692 17.9128C17.3905 17.8871 17.4097 17.8615 17.4267 17.8361C17.4396 17.7891 17.4545 17.7422 17.4716 17.6953C17.4844 17.674 17.4994 17.6527 17.5164 17.6312C17.5335 17.5843 17.5505 17.5353 17.5676 17.4842C17.5718 17.4372 17.5739 17.3882 17.5739 17.3371C17.5527 17.303 17.5314 17.271 17.5101 17.2411C17.4973 17.2113 17.4866 17.1814 17.4782 17.1515L17.4779 17.1518Z" fill="#7BFDB1"/>
<path fill-rule="evenodd" clip-rule="evenodd" d="M21.3089 13.3655C21.2876 13.3655 21.2685 13.3612 21.2514 13.3526C21.2514 13.3526 21.1876 13.4803 21.1746 13.4995C21.1617 13.5188 21.149 13.6338 21.149 13.6338V13.7871C21.1703 13.8339 21.1895 13.8829 21.2065 13.934C21.2278 13.9382 21.2513 13.9425 21.277 13.9469C21.294 13.9299 21.3111 13.915 21.3282 13.9021C21.341 13.8765 21.3538 13.8531 21.3664 13.8318C21.3706 13.7936 21.3749 13.7552 21.3793 13.7168V13.5891C21.3707 13.5508 21.3622 13.5146 21.3538 13.4806C21.3367 13.4465 21.3217 13.4082 21.3089 13.3655Z" fill="#7BFDB1"/>
<path fill-rule="evenodd" clip-rule="evenodd" d="M16.2692 2.58782C16.3033 2.60906 16.3353 2.63039 16.3652 2.65181C16.3951 2.69008 16.4228 2.72843 16.4483 2.76689C16.4995 2.78391 16.5507 2.80305 16.6018 2.82428C16.653 2.82849 16.7042 2.8349 16.7554 2.84351C16.7724 2.8349 16.7959 2.82849 16.8258 2.82428C16.8174 2.80305 16.8109 2.78391 16.8065 2.76689C16.7937 2.76268 16.7831 2.75837 16.7746 2.75397C16.7618 2.73695 16.7468 2.72203 16.7298 2.70921C16.7298 2.70921 16.6404 2.6389 16.6274 2.62627C16.6148 2.61336 16.5636 2.54965 16.5636 2.54965C16.5594 2.52842 16.5573 2.50929 16.5573 2.49226C16.5701 2.46662 16.5786 2.43898 16.5829 2.40933C16.6298 2.39651 16.6746 2.38589 16.7171 2.37747C16.7171 2.37747 16.8321 2.30085 16.8451 2.29454C16.8643 2.28162 17.0112 2.28162 17.0112 2.28162H17.2223C17.2286 2.28162 17.3885 2.31348 17.3885 2.31348C17.3885 2.31348 17.4779 2.31979 17.4779 2.31348C17.4905 2.31348 17.5035 2.29425 17.5035 2.29425C17.478 2.27722 17.4503 2.25809 17.4204 2.23686C17.3734 2.21562 17.3287 2.19649 17.2861 2.17946C17.2648 2.17526 17.2436 2.17526 17.2223 2.17946C17.201 2.18807 17.1775 2.19448 17.1518 2.19869C17.1093 2.19869 17.0645 2.19659 17.0176 2.19238C16.9664 2.17956 16.9173 2.16464 16.8704 2.14761C16.832 2.139 16.7894 2.13049 16.7424 2.12207C16.734 2.14331 16.7212 2.16244 16.7042 2.17946C16.6659 2.16244 16.6296 2.14962 16.5955 2.14101C16.5784 2.15383 16.5635 2.16665 16.5507 2.17946C16.491 2.17085 16.4313 2.16445 16.3715 2.16024V2.21132C16.3758 2.24116 16.3822 2.27101 16.3908 2.30085C16.3737 2.30506 16.3567 2.30716 16.3396 2.30716C16.3396 2.30716 16.2885 2.35193 16.2629 2.35193C16.2373 2.35825 16.1861 2.3967 16.1861 2.3967C16.1903 2.43496 16.1988 2.47542 16.2117 2.51809C16.2287 2.54372 16.2479 2.56716 16.2692 2.58839V2.58782Z" fill="#7BFDB1"/>
<path fill-rule="evenodd" clip-rule="evenodd" d="M16.0901 2.98456C16.1071 2.98035 16.1242 2.97394 16.1412 2.96533C16.1455 2.94409 16.1519 2.92276 16.1605 2.90134C16.1477 2.8801 16.1391 2.85877 16.1349 2.83734C16.0924 2.83313 16.0518 2.82672 16.0133 2.81812C16.0133 2.81812 15.9684 2.90765 15.9684 2.91396C15.9748 2.92688 16.0067 2.97796 16.0067 2.97796C16.0322 2.98217 16.0599 2.98427 16.0898 2.98427L16.0901 2.98456Z" fill="#7BFDB1"/>
<path fill-rule="evenodd" clip-rule="evenodd" d="M12.2843 2.5946C12.2588 2.59039 12.2333 2.58829 12.2076 2.58829C12.1692 2.60111 12.1309 2.61392 12.0926 2.62674C12.0883 2.64798 12.0819 2.66711 12.0733 2.68413C12.1159 2.69274 12.1564 2.69915 12.1949 2.70336C12.2375 2.69054 12.2801 2.67993 12.3229 2.67151C12.3186 2.65448 12.3101 2.63956 12.2973 2.62674C12.2931 2.61813 12.2887 2.60751 12.2843 2.59489V2.5946Z" fill="#7BFDB1"/>
<path fill-rule="evenodd" clip-rule="evenodd" d="M12.7001 2.51791C12.6619 2.5116 12.6363 2.53082 12.6363 2.53082H12.5658C12.5488 2.51801 12.5338 2.50519 12.521 2.49237H12.4186C12.4058 2.51801 12.3908 2.54565 12.3738 2.5753C12.4079 2.58812 12.4399 2.60304 12.4698 2.62007C12.4698 2.64131 12.4677 2.66264 12.4635 2.68407C12.4719 2.69267 12.4783 2.70329 12.4827 2.71592C12.4827 2.71592 12.521 2.72883 12.5276 2.72883C12.5469 2.72883 12.5788 2.69038 12.5788 2.69038C12.5872 2.66914 12.5936 2.64781 12.598 2.62638C12.5896 2.61778 12.5811 2.60926 12.5724 2.60084C12.5724 2.60084 12.5598 2.56899 12.5661 2.55608C12.5661 2.54316 12.598 2.55608 12.598 2.55608C12.6065 2.5689 12.6171 2.58171 12.6299 2.59453C12.6299 2.59453 12.7323 2.63299 12.7516 2.62638C12.7579 2.62638 12.7898 2.59453 12.8027 2.58793C12.8027 2.58162 12.8154 2.54316 12.8154 2.53054C12.8154 2.51791 12.7323 2.51762 12.7004 2.51762L12.7001 2.51791Z" fill="#7BFDB1"/>
<path fill-rule="evenodd" clip-rule="evenodd" d="M23.291 11.8751C23.2825 11.8368 23.2761 11.7984 23.2719 11.76C23.2591 11.7686 23.2465 11.7729 23.2339 11.7729C23.2255 11.8496 23.2149 11.922 23.2021 11.9901C23.2063 12.02 23.2105 12.0562 23.2147 12.0989H23.2465C23.255 12.0777 23.2635 12.0563 23.2719 12.0349C23.2803 11.9796 23.2867 11.9263 23.291 11.8751Z" fill="#7BFDB1"/>
</g>
<defs>
<clipPath id="clip0_934_81">
<rect width="24" height="24" fill="white"/>
</clipPath>
</defs>
</svg>
