<svg width="24" height="24" viewBox="0 0 24 24" fill="none" xmlns="http://www.w3.org/2000/svg">
<g clip-path="url(#clip0_936_243)">
<rect width="24" height="24" fill="white"/>
<circle cx="12" cy="12" r="12" fill="#02AFFF"/>
<g clip-path="url(#clip1_936_243)">
<path d="M0.5 12C0.5 15.05 1.7116 17.9751 3.86827 20.1317C6.02494 22.2884 8.95001 23.5 12 23.5C15.05 23.5 17.9751 22.2884 20.1317 20.1317C22.2884 17.9751 23.5 15.05 23.5 12C23.5 8.95001 22.2884 6.02494 20.1317 3.86827C17.9751 1.7116 15.05 0.5 12 0.5C8.95001 0.5 6.02494 1.7116 3.86827 3.86827C1.7116 6.02494 0.5 8.95001 0.5 12Z" stroke="#7BFDB1" stroke-linecap="round" stroke-linejoin="round"/>
<path d="M9.83291 23.2956C8.22803 21.0467 7.14447 16.8249 7.14447 12.0511C7.14447 7.27733 8.22803 2.95333 9.83291 0.755554" stroke="#7BFDB1" stroke-linecap="round" stroke-linejoin="round"/>
<path d="M14.1671 23.2956C15.772 21.0467 16.8556 16.8249 16.8556 12.0511C16.8556 7.27733 15.772 2.95333 14.1671 0.755554" stroke="#7BFDB1" stroke-linecap="round" stroke-linejoin="round"/>
<path d="M0.5 12H23.5" stroke="#7BFDB1" stroke-linecap="round" stroke-linejoin="round"/>
<path d="M1.82886 17.3667H22.1711" stroke="#7BFDB1" stroke-linecap="round" stroke-linejoin="round"/>
<path d="M1.82886 6.63333H22.1711" stroke="#7BFDB1" stroke-linecap="round" stroke-linejoin="round"/>
</g>
</g>
<defs>
<clipPath id="clip0_936_243">
<rect width="24" height="24" fill="white"/>
</clipPath>
<clipPath id="clip1_936_243">
<rect width="24" height="24" fill="white"/>
</clipPath>
</defs>
</svg>
