<svg width="24" height="24" viewBox="0 0 24 24" fill="none" xmlns="http://www.w3.org/2000/svg">
<g clip-path="url(#clip0_930_32)">
<rect width="24" height="24" fill="white"/>
<circle cx="12" cy="12" r="12" fill="#02AFFF"/>
<path d="M23.0564 7.3318C22.4518 5.90261 21.5867 4.61908 20.4846 3.51652C19.3826 2.41425 18.0998 1.54869 16.6714 0.943694C15.1922 0.317437 13.6215 0 12.0032 0C10.3848 0 8.81154 0.317437 7.33145 0.943694C5.90225 1.54841 4.61852 2.41396 3.51622 3.51652C2.41392 4.61879 1.54823 5.90261 0.943601 7.3318C0.317409 8.81155 0 10.3835 0 12.0032C0 13.6228 0.317409 15.1919 0.943601 16.6711C1.54823 18.0994 2.41392 19.3826 3.51622 20.4843C4.61852 21.5863 5.90225 22.4516 7.33145 23.0563C8.81154 23.6826 10.3833 24 12.0032 24C18.6181 24 24 18.6182 24 12.0032C24 10.3835 23.6826 8.81184 23.0564 7.3318ZM3.60535 4.46222C3.63525 4.44939 3.66294 4.44087 3.68844 4.43666C3.67559 4.46232 3.66285 4.48999 3.6502 4.51968C3.57775 4.56239 3.5074 4.605 3.43917 4.64752C3.43744 4.64407 3.43601 4.64148 3.43486 4.6389C3.48431 4.58144 3.53462 4.52456 3.58493 4.46826C3.59097 4.46653 3.59758 4.46452 3.60535 4.46222ZM12.0032 23.3008C5.77057 23.3008 0.700081 18.2327 0.700081 12.0034C0.700081 9.37144 1.60429 6.94657 3.11831 5.02356C3.16374 5.00661 3.16604 5.00546 3.20887 4.98075C3.24299 4.95949 3.27922 4.93603 3.31755 4.91037C3.33883 4.88471 3.36231 4.85703 3.38799 4.82735C3.39643 4.83156 3.40706 4.83367 3.4199 4.83367C3.40285 4.85933 3.38368 4.88701 3.3624 4.91669C3.32829 4.9594 3.29417 4.9999 3.26005 5.03821C3.23015 5.05525 3.20034 5.07019 3.17064 5.08302C3.15358 5.10869 3.1323 5.13425 3.10681 5.15972C3.08975 5.15551 3.07058 5.15551 3.04931 5.15972C3.01941 5.19381 2.99382 5.2258 2.97254 5.25567C2.95127 5.28555 2.9321 5.31753 2.91504 5.35162C2.91504 5.35162 2.83828 5.42201 2.82563 5.42833L2.79371 5.49871C2.80215 5.50733 2.81068 5.51374 2.8193 5.51795C2.81508 5.535 2.81087 5.55204 2.80665 5.56909C2.78959 5.58192 2.77464 5.59475 2.7618 5.60758C2.75758 5.62884 2.75116 5.6502 2.74254 5.67165C2.74675 5.6929 2.74675 5.71637 2.74254 5.74203C2.76381 5.7292 2.78298 5.71857 2.80004 5.71014C2.82553 5.67605 2.85112 5.64407 2.8768 5.61419C2.88524 5.60557 2.89587 5.59494 2.90872 5.5823V5.63976C2.90872 5.63976 2.83195 5.72939 2.81269 5.74835C2.79343 5.76128 2.76784 5.82505 2.76784 5.82505C2.77627 5.84631 2.78269 5.86766 2.7871 5.88911C2.79994 5.87207 2.81489 5.85292 2.83195 5.83166C2.85323 5.81883 2.8745 5.8082 2.89578 5.79977C2.92568 5.78694 2.95338 5.77631 2.97887 5.76788C3.00014 5.76367 3.0172 5.76367 3.03004 5.76788C3.01299 5.8148 2.99593 5.86173 2.97887 5.90865C2.91485 5.97683 2.85304 6.0429 2.79343 6.10687C2.6997 6.19209 2.60798 6.27521 2.51828 6.35622C2.45426 6.40735 2.39245 6.45428 2.33284 6.49698C2.31156 6.54391 2.28808 6.59083 2.2624 6.63775C2.2923 6.64637 2.32431 6.65489 2.35843 6.66332C2.43088 6.59514 2.50553 6.52696 2.58239 6.45878C2.67612 6.38198 2.76995 6.30518 2.86386 6.22838C2.94494 6.12611 3.02813 6.02375 3.11342 5.92129C3.19872 5.82744 3.28401 5.7315 3.3693 5.63344C3.37774 5.59514 3.39048 5.55463 3.40754 5.51192C3.51411 5.3882 3.62289 5.26458 3.73386 5.14105C3.7722 5.11539 3.80632 5.09403 3.83622 5.07699C3.84465 5.09403 3.85318 5.11319 3.8618 5.13444C3.82347 5.16853 3.78514 5.20262 3.7468 5.23671C3.69563 5.28363 3.64656 5.33056 3.5996 5.37748C3.59116 5.41578 3.58263 5.45418 3.57401 5.49267C3.61656 5.48846 3.65921 5.48205 3.70195 5.47343C3.80009 5.37116 3.89813 5.26879 3.99607 5.16633C4.0045 5.12803 4.01303 5.08752 4.02166 5.04482C4.05578 5.01915 4.08989 4.99358 4.12401 4.96811C4.14529 4.98937 4.17088 5.00852 4.20078 5.02557C4.20921 5.05966 4.21563 5.09375 4.22004 5.12784C4.30955 5.09796 4.40127 5.06598 4.49518 5.03189C4.52509 5.06598 4.55489 5.09796 4.5846 5.12784C4.62715 5.17476 4.6698 5.22379 4.71254 5.27492C4.77656 5.27492 4.83837 5.27703 4.89798 5.28124C4.92347 5.3069 4.95117 5.32826 4.98107 5.3453C4.99391 5.38361 5.00886 5.4199 5.02592 5.45418C5.03436 5.48827 5.04499 5.52236 5.05784 5.55645C5.10901 5.57349 5.15808 5.59054 5.20504 5.60758C5.18377 5.66734 5.16249 5.72489 5.14121 5.78024C5.15827 5.83558 5.17102 5.89313 5.17945 5.95289C5.21357 5.9571 5.24558 5.96141 5.27548 5.96581V6.21517C5.36921 6.29197 5.46514 6.36876 5.56328 6.44556C5.60161 6.51795 5.63994 6.59255 5.67828 6.66935C5.66544 6.74174 5.65049 6.81634 5.63343 6.89313C5.59088 6.88452 5.55034 6.87389 5.51181 6.86125C5.52025 6.79307 5.52878 6.72489 5.5374 6.65671C5.48201 6.59696 5.42872 6.53941 5.37755 6.48406C5.33059 6.5011 5.28372 6.51815 5.23695 6.53519C5.27107 6.62042 5.3073 6.70784 5.34563 6.79747C5.35407 6.86144 5.3626 6.92541 5.37122 6.98937C5.34132 7.10447 5.31151 7.21957 5.28181 7.33467C5.23925 7.46682 5.19661 7.59897 5.15386 7.73111C5.1069 7.86326 5.06004 7.99761 5.01327 8.13416C5.00484 8.24083 4.99631 8.34961 4.98768 8.4605C5.04308 8.55013 5.09847 8.63966 5.15386 8.7291C5.11131 8.79307 5.06867 8.85493 5.02592 8.91468C5.08994 8.93594 5.15386 8.96151 5.21769 8.99138C5.22632 9.05535 5.23485 9.11931 5.24328 9.18328C5.34985 9.26429 5.45642 9.3453 5.56299 9.42631C5.57583 9.58834 5.58647 9.75247 5.5949 9.9187C5.66314 10.0466 5.73348 10.1767 5.80593 10.3088C5.77181 10.3642 5.73559 10.4217 5.69725 10.4815C5.80804 10.5837 5.91892 10.6882 6.0299 10.7949C6.04274 10.8717 6.05549 10.9463 6.06814 11.0187C6.15765 11.1253 6.24716 11.234 6.33667 11.3447C6.37922 11.3489 6.41976 11.351 6.45829 11.351C6.4625 11.2999 6.46893 11.2509 6.47755 11.204C6.43922 11.14 6.40088 11.076 6.36255 11.0121C6.33265 10.9397 6.30064 10.8672 6.26652 10.7946C6.24103 10.7136 6.21755 10.6368 6.19608 10.5642C6.13206 10.4704 6.06814 10.3787 6.00431 10.2893C5.96176 10.1742 5.91911 10.0569 5.87637 9.93738C5.89765 9.89045 5.91681 9.84353 5.93387 9.79661C6.01054 9.89888 6.08941 10.0012 6.17049 10.1037C6.17893 10.1677 6.18956 10.2295 6.20241 10.2893C6.27907 10.4086 6.35584 10.5259 6.4327 10.6412C6.44554 10.6923 6.45829 10.7435 6.47094 10.7946C6.53496 10.8714 6.59888 10.9503 6.66271 11.0313C6.70967 11.0911 6.75653 11.1507 6.8033 11.2103C6.81614 11.2913 6.82889 11.3702 6.84154 11.447C6.85438 11.5068 6.86712 11.5664 6.87977 11.626C6.88399 11.6813 6.89041 11.741 6.89904 11.8049C7.13786 11.9926 7.37879 12.1824 7.62183 12.3743C7.73262 12.4383 7.84139 12.5023 7.94815 12.5662C8.03766 12.5748 8.12507 12.5813 8.21036 12.5855C8.24448 12.5514 8.27649 12.5194 8.30639 12.4895C8.39168 12.5108 8.47487 12.5321 8.55594 12.5536C8.65408 12.6729 8.75212 12.7902 8.85007 12.9055C8.93536 12.8927 9.01854 12.8798 9.09962 12.867C9.18913 12.9181 9.27653 12.9693 9.36183 13.0204C9.45556 13.1483 9.55149 13.2763 9.64962 13.4042C9.65384 13.4682 9.65806 13.5321 9.66227 13.5961C9.70483 13.6388 9.74747 13.6814 9.79021 13.7239C9.84139 13.7368 9.89257 13.7496 9.94374 13.7624C9.97364 13.8306 10.0013 13.901 10.0268 13.9736C10.0481 13.9864 10.0716 13.9992 10.0973 14.0121C10.1527 14.0163 10.2103 14.0206 10.2701 14.025C10.3 14.0507 10.332 14.0741 10.3661 14.0954C10.4257 14.0996 10.4875 14.1017 10.5515 14.1017C10.5728 14.0676 10.5963 14.0356 10.622 14.0057C10.6304 13.9674 10.641 13.929 10.6539 13.8905C10.7051 13.9076 10.7541 13.9246 10.8011 13.9417C10.8565 14.0484 10.9098 14.1528 10.9609 14.2551C10.9864 14.3532 11.012 14.4491 11.0377 14.5429C11.0164 14.6667 10.9973 14.7882 10.9802 14.9075C10.9377 14.9203 10.895 14.931 10.8523 14.9394C10.8268 14.9606 10.7991 14.9841 10.7692 15.0098C10.718 15.0609 10.6647 15.112 10.6093 15.1632C10.5752 15.2528 10.5411 15.3423 10.507 15.4318C10.4729 15.4871 10.4387 15.5405 10.4046 15.5918C10.4387 15.6471 10.4729 15.7026 10.507 15.7581C10.5325 15.8305 10.5581 15.903 10.5837 15.9756H10.4751C10.4367 15.9968 10.3962 16.0203 10.3534 16.046C10.3747 16.1697 10.3939 16.2933 10.4109 16.4168C10.4663 16.4297 10.5239 16.4425 10.5837 16.4553C10.6092 16.498 10.6369 16.5385 10.6668 16.5768C10.7094 16.6962 10.752 16.8156 10.7948 16.9351C10.8544 17.0247 10.9141 17.1142 10.9739 17.2037C11.0335 17.34 11.0932 17.4744 11.153 17.6067C11.1701 17.6621 11.1871 17.7154 11.2042 17.7667C11.3107 17.8776 11.4152 17.9863 11.5176 18.0928C11.59 18.1098 11.6604 18.1269 11.7286 18.1439C11.8223 18.1951 11.914 18.2462 12.0037 18.2973C12.0379 18.3442 12.072 18.3912 12.1061 18.4381C12.1274 18.4978 12.1465 18.5597 12.1636 18.6237C12.1891 18.6876 12.2168 18.7516 12.2467 18.8156C12.2425 18.9052 12.2382 18.9947 12.234 19.0842C12.1957 19.1098 12.1552 19.1354 12.1124 19.1609C12.1124 19.1992 12.1166 19.2355 12.1251 19.2698C12.1634 19.2868 12.2017 19.3059 12.2401 19.3272C12.2316 19.387 12.2231 19.4488 12.2145 19.5128C12.1846 19.5298 12.1548 19.5448 12.1251 19.5576C12.1208 19.6087 12.1144 19.6578 12.1058 19.7047C12.1229 19.7474 12.1378 19.7879 12.1507 19.8262C12.1081 19.839 12.0655 19.854 12.0227 19.871C12.0398 19.9308 12.0525 19.9926 12.061 20.0566C12.0311 20.1633 11.999 20.2677 11.9649 20.37C12.0033 20.434 12.0395 20.4979 12.0736 20.5619C12.0652 20.677 12.0545 20.79 12.0417 20.9009C11.9905 20.9649 11.9393 21.0267 11.8882 21.0865C11.9052 21.1974 11.9223 21.306 11.9393 21.4125C11.9522 21.4382 11.9649 21.4638 11.9776 21.4892C11.986 21.5446 11.9966 21.5979 12.0095 21.6492C11.9754 21.6833 11.9456 21.7174 11.9201 21.7515C11.9841 21.7557 12.0459 21.76 12.1055 21.7644C12.1141 21.8071 12.1248 21.852 12.1374 21.8989C12.1374 21.9416 12.1416 21.9842 12.1501 22.0267C12.1202 22.0353 12.0967 22.0439 12.0796 22.0523C12.0541 22.095 12.0265 22.1376 11.9965 22.1801C11.9965 22.1801 12.0158 22.2249 12.0158 22.2313C12.0285 22.2376 12.0989 22.2568 12.0989 22.2631C12.0989 22.2695 12.0926 22.295 12.0796 22.3016C12.067 22.3146 12.0092 22.3528 12.0092 22.3528V22.4168C12.0305 22.4551 12.0518 22.4913 12.073 22.5254C12.1071 22.5467 12.1413 22.5658 12.1754 22.5829C12.1924 22.5957 12.2074 22.6106 12.2202 22.6277C12.2415 22.6447 12.2628 22.6639 12.2841 22.6851C12.3266 22.7064 12.3714 22.7278 12.4183 22.7492C12.4396 22.7534 12.4567 22.7577 12.4695 22.7621C12.4908 22.7708 12.5143 22.7772 12.5399 22.7814C12.5528 22.7984 12.5698 22.8134 12.5911 22.8262C12.6082 22.8304 12.6273 22.8347 12.6486 22.8391C12.6528 22.8263 12.6593 22.8135 12.6679 22.8006C12.702 22.7878 12.734 22.775 12.7639 22.7621C12.7681 22.7409 12.7745 22.7217 12.7832 22.7047C12.7874 22.6664 12.7895 22.6259 12.7895 22.5832C12.8023 22.5449 12.8173 22.5065 12.8343 22.468C12.8727 22.4638 12.911 22.4573 12.9494 22.4487C12.9622 22.4018 12.9686 22.3549 12.9686 22.308C13.0027 22.2951 13.0325 22.2802 13.058 22.2631C13.0879 22.2291 13.1177 22.195 13.1474 22.1609C13.1091 22.1523 13.0708 22.1437 13.0324 22.1353C13.0069 22.1353 12.9771 22.1332 12.943 22.129C12.9217 22.1162 12.9005 22.1055 12.8792 22.0971C12.8834 22.0758 12.8876 22.0567 12.8918 22.0396C12.9388 22.014 12.9815 21.9863 13.0198 21.9566C13.0497 21.9438 13.0838 21.9289 13.1221 21.9118C13.1392 21.8948 13.1563 21.8756 13.1733 21.8544C13.1862 21.8331 13.1947 21.8139 13.1989 21.7969C13.1989 21.7969 13.2564 21.7713 13.282 21.7521C13.3076 21.7265 13.3202 21.6691 13.3202 21.6691C13.3118 21.6478 13.3033 21.6264 13.2946 21.605C13.2563 21.5837 13.2201 21.5646 13.186 21.5475C13.1689 21.5219 13.154 21.4963 13.1411 21.4708C13.1752 21.458 13.2094 21.4474 13.2435 21.439C13.269 21.4602 13.2967 21.4794 13.3266 21.4964C13.3607 21.5006 13.3969 21.507 13.4352 21.5157C13.4607 21.4816 13.4884 21.4475 13.5183 21.4134C13.5141 21.3494 13.5099 21.2855 13.5057 21.2215C13.527 21.2044 13.5461 21.1895 13.5632 21.1767C13.6569 21.1725 13.7464 21.166 13.8317 21.1574C13.8743 21.1404 13.9148 21.1212 13.9533 21.1C14.0045 21.0871 14.0557 21.0722 14.1069 21.0552C14.141 21.0169 14.1793 20.9763 14.2219 20.9336C14.2176 20.8953 14.2134 20.8548 14.2092 20.8121C14.2008 20.7865 14.1944 20.7588 14.1899 20.7291C14.143 20.7121 14.0939 20.6992 14.0427 20.6906C14.0257 20.6693 14.0086 20.648 13.9916 20.6265C14.0299 20.6137 14.0682 20.5988 14.1066 20.5817C14.1407 20.5988 14.1748 20.6179 14.2089 20.6392C14.2685 20.6392 14.3218 20.6413 14.3688 20.6455C14.4242 20.6198 14.4796 20.5943 14.535 20.5688C14.5946 20.5006 14.6543 20.4346 14.7141 20.3706C14.7269 20.3152 14.7397 20.2598 14.7523 20.2043V20.0957C14.7778 20.07 14.8055 20.0444 14.8354 20.019C14.8354 20.019 14.861 20.0764 14.8547 20.0893C14.8547 20.0957 14.8483 20.1916 14.8483 20.1916H14.9314C14.9399 20.1617 14.9463 20.1298 14.9507 20.0957C14.9848 20.0658 15.0146 20.0381 15.0401 20.0126C15.0572 19.9487 15.0742 19.8826 15.0913 19.8144C15.1595 19.7888 15.2256 19.7611 15.2897 19.7314C15.3196 19.5694 15.3473 19.4074 15.3728 19.2453C15.505 19.1557 15.6393 19.0641 15.7756 18.9704C15.8438 18.9618 15.9141 18.9533 15.9866 18.9448C16.0121 18.9192 16.0377 18.8957 16.0633 18.8745C16.1316 18.8702 16.204 18.8617 16.2807 18.8489C16.2978 18.7551 16.3127 18.6612 16.3256 18.5674C16.3767 18.5291 16.4258 18.4907 16.4728 18.4522C16.4982 18.3413 16.5238 18.2304 16.5495 18.1195C16.5879 18.0726 16.6241 18.0257 16.6582 17.9787C16.6498 17.7868 16.637 17.5928 16.62 17.3967C16.6966 17.3668 16.7713 17.337 16.8439 17.3071C16.861 17.2644 16.8759 17.2218 16.8888 17.1793C16.9313 17.1069 16.9697 17.0344 17.0038 16.9618C17.0678 16.8808 17.1296 16.7977 17.1892 16.7124C17.2318 16.6485 17.2723 16.5824 17.3108 16.5142C17.3193 16.4545 17.3278 16.3926 17.3364 16.3286C17.3109 16.3158 17.2832 16.3052 17.2533 16.2968C17.2576 16.2115 17.2597 16.1284 17.2597 16.0474C17.2171 16.0516 17.1766 16.0537 17.1381 16.0537C17.0997 16.0325 17.0614 16.0111 17.0231 15.9897C16.9976 15.9343 16.9699 15.8832 16.94 15.8363C16.893 15.832 16.8461 15.8299 16.7994 15.8299C16.7823 15.7916 16.7652 15.7511 16.7482 15.7084C16.6458 15.7042 16.5456 15.6978 16.4475 15.6892C16.4049 15.6721 16.3623 15.653 16.3195 15.6317C16.3067 15.6574 16.2939 15.6808 16.2813 15.7021C16.2813 15.7021 16.0895 15.6317 16.0702 15.6125C16.051 15.5869 15.9297 15.491 15.9297 15.491C15.8998 15.4739 15.8677 15.4548 15.8336 15.4335C15.8336 15.4335 15.6994 15.4464 15.6482 15.4464C15.597 15.4464 15.5139 15.4657 15.5139 15.4657C15.4884 15.4998 15.4628 15.5317 15.4372 15.5616C15.403 15.5873 15.371 15.6129 15.3411 15.6383C15.3411 15.6383 15.29 15.5872 15.29 15.5616C15.29 15.5361 15.3604 15.5105 15.3604 15.5105C15.3604 15.4764 15.3625 15.4423 15.3667 15.4082C15.3583 15.3912 15.3498 15.372 15.3411 15.3508C15.2942 15.3508 15.2473 15.3487 15.2005 15.3444C15.1664 15.3743 15.1344 15.4063 15.1045 15.4404C15.0575 15.4957 15.0128 15.5533 14.9702 15.613C14.949 15.6343 14.9277 15.6557 14.9064 15.6771C14.8851 15.6601 14.866 15.643 14.8489 15.626C14.8915 15.5833 14.932 15.5406 14.9705 15.4981C15.0217 15.4213 15.075 15.3467 15.1304 15.2743C15.1559 15.219 15.1836 15.1636 15.2135 15.108C15.2093 15.0569 15.2028 15.0057 15.1942 14.9546C15.143 14.8736 15.0897 14.7947 15.0344 14.7179C14.9533 14.6198 14.8701 14.5218 14.7848 14.4237C14.7123 14.3684 14.6399 14.315 14.5674 14.2637C14.5078 14.2551 14.4481 14.2466 14.3883 14.2382C14.3458 14.2765 14.301 14.3149 14.2541 14.3533C14.2115 14.3363 14.171 14.3214 14.1324 14.3085C14.1196 14.2616 14.109 14.2126 14.1005 14.1614C14.058 14.1572 14.0174 14.1529 13.9789 14.1485C13.9619 14.1058 13.9448 14.0632 13.9277 14.0207C13.8894 13.9994 13.8532 13.9803 13.8191 13.9632C13.7936 13.9291 13.768 13.895 13.7423 13.861C13.6953 13.8311 13.6506 13.8012 13.608 13.7713C13.5825 13.7202 13.5548 13.6669 13.5249 13.6113V13.4642C13.4354 13.4514 13.3459 13.4386 13.2564 13.4257C13.1711 13.464 13.0837 13.5024 12.9942 13.5409H12.6233C12.5637 13.494 12.504 13.445 12.4442 13.3939C12.4016 13.3726 12.359 13.3512 12.3163 13.3298C12.3163 13.3298 12.1946 13.1953 12.1627 13.1953C12.1308 13.1953 12.0029 13.272 12.0029 13.272C11.9517 13.2337 11.8984 13.1953 11.843 13.1569C11.8131 13.1655 11.7854 13.174 11.7599 13.1824C11.7216 13.2548 11.6833 13.3252 11.6449 13.3936C11.5895 13.3978 11.5363 13.3999 11.4851 13.3999C11.4467 13.4298 11.4084 13.4596 11.3701 13.4895C11.336 13.5663 11.3039 13.6409 11.274 13.7133C11.2315 13.7303 11.1888 13.7453 11.1461 13.7581C11.1206 13.8179 11.095 13.8754 11.0693 13.9308C11.0182 13.8796 10.9649 13.8306 10.9095 13.7837C10.8625 13.7496 10.8157 13.7155 10.7689 13.6814C10.7263 13.6728 10.6837 13.6643 10.641 13.6558C10.5898 13.6771 10.5365 13.7006 10.4811 13.7262C10.4299 13.7348 10.3787 13.7434 10.3276 13.7518C10.2934 13.7348 10.2614 13.7177 10.2315 13.7007C10.2231 13.6666 10.2146 13.6346 10.206 13.6047C10.1889 13.5706 10.1718 13.5386 10.1548 13.5088C10.1207 13.4831 10.0886 13.4554 10.0587 13.4257C10.0545 13.3576 10.0524 13.2872 10.0524 13.2146C10.0609 13.1123 10.0694 13.01 10.078 12.9075C10.078 12.8648 10.0801 12.82 10.0843 12.7731C10.1014 12.739 10.1163 12.7027 10.1292 12.6642C10.0993 12.6385 10.0695 12.6108 10.0398 12.5812C9.9886 12.5641 9.93953 12.5492 9.89257 12.5363C9.84139 12.5193 9.79021 12.5044 9.73904 12.4915C9.70492 12.5044 9.6708 12.5193 9.63669 12.5363C9.59835 12.5662 9.56002 12.5939 9.52168 12.6194C9.49619 12.5724 9.47271 12.5255 9.45124 12.4786C9.45546 12.3763 9.46188 12.2762 9.47051 12.1781C9.48335 12.127 9.49609 12.0779 9.50875 12.031C9.53424 11.9671 9.56193 11.9052 9.59183 11.8454C9.62173 11.7729 9.65154 11.6983 9.68125 11.6217C9.65135 11.5747 9.62365 11.5278 9.59816 11.4809C9.50002 11.4767 9.40198 11.4724 9.30404 11.468C9.24002 11.5149 9.1761 11.5618 9.11227 11.6087C9.07394 11.6769 9.0356 11.743 8.99727 11.807C8.92903 11.8709 8.85869 11.9328 8.78624 11.9925C8.68389 12.0054 8.58153 12.016 8.47918 12.0244C8.38104 11.9775 8.28511 11.9327 8.19138 11.89C8.17011 11.809 8.14883 11.728 8.12756 11.6469C8.11472 11.5617 8.09977 11.4786 8.08271 11.3976C8.07427 11.3208 8.06363 11.2398 8.05079 11.1546C8.06785 11.0822 8.08491 11.0076 8.10197 10.9308C8.13187 10.7645 8.16167 10.5982 8.19138 10.4318C8.23834 10.4147 8.2831 10.3956 8.32565 10.3743C8.35977 10.336 8.39389 10.2955 8.428 10.2528C8.48761 10.2059 8.54732 10.1569 8.60712 10.1057C8.63702 10.0716 8.66903 10.0353 8.70315 9.99684C8.75432 10.0309 8.80761 10.065 8.863 10.0991C8.88428 10.0394 8.90776 9.98181 8.93344 9.92646C8.96334 9.90941 8.99315 9.89237 9.02286 9.87532C9.03129 9.90941 9.03982 9.9457 9.04844 9.9842C9.0655 10.0311 9.08256 10.078 9.09962 10.125C9.09962 10.125 9.27874 10.1505 9.34257 10.1442C9.40639 10.1379 9.36815 10.0098 9.36815 10.0098C9.37659 9.96706 9.38301 9.92655 9.38742 9.88825C9.46409 9.87963 9.54085 9.869 9.61771 9.85636C9.703 9.86498 9.7883 9.8735 9.87359 9.88193C9.91193 9.92023 9.95026 9.95863 9.9886 9.99713C10.0482 9.96725 10.1058 9.93958 10.1614 9.9141C10.2083 9.93977 10.2552 9.96744 10.302 9.99713C10.3403 10.0739 10.3809 10.1507 10.4236 10.2275C10.4236 10.3512 10.4257 10.4728 10.4299 10.5921C10.4982 10.6859 10.5664 10.7798 10.6346 10.8736C10.6816 10.9205 10.7263 10.9631 10.7689 11.0014C10.7988 10.9461 10.8286 10.8906 10.8583 10.8351C10.8541 10.7798 10.8499 10.7222 10.8457 10.6625C10.8158 10.5516 10.7881 10.4407 10.7626 10.3298C10.7541 10.2189 10.7435 10.108 10.7307 9.99713C10.7008 9.9075 10.6709 9.81586 10.6412 9.72221C10.6796 9.65824 10.7179 9.59638 10.7562 9.53663C10.85 9.46404 10.9438 9.39155 11.0377 9.31916C11.0632 9.28507 11.0888 9.24878 11.1145 9.21028C11.1486 9.17198 11.1848 9.13358 11.2232 9.09509C11.2828 9.10371 11.3446 9.11223 11.4086 9.12066C11.4128 9.08657 11.4192 9.05458 11.4279 9.0247C11.4833 8.97778 11.5386 8.93297 11.594 8.89026C11.6025 8.80925 11.611 8.72824 11.6196 8.64723C11.5897 8.61735 11.5599 8.58968 11.5302 8.56421C11.526 8.53433 11.5218 8.50445 11.5176 8.47458C11.5176 8.47458 11.5687 8.44269 11.5814 8.43608C11.6007 8.42976 11.7542 8.35306 11.7542 8.35306C11.7542 8.35306 11.7668 8.28268 11.7605 8.26343C11.7542 8.24418 11.8054 8.07785 11.8054 8.07785C11.8308 8.03955 11.8564 8.00115 11.8821 7.96265C11.9461 7.94982 12.008 7.93919 12.0676 7.93077C12.076 7.89668 12.0845 7.86259 12.0932 7.8285C12.106 7.80283 12.1166 7.77727 12.1251 7.7518C12.1251 7.7518 12.253 7.75812 12.2786 7.75812H12.4384C12.4511 7.75812 12.5279 7.73255 12.5279 7.73255C12.5407 7.69425 12.5535 7.65374 12.5661 7.61103C12.5362 7.57694 12.5085 7.54285 12.483 7.50876C12.4702 7.49593 12.4595 7.4831 12.4511 7.47027C12.4724 7.42335 12.4937 7.37642 12.5149 7.3295C12.6386 7.2868 12.7643 7.24418 12.8921 7.20167C12.9391 7.17179 12.986 7.14412 13.0327 7.11864C13.1094 7.03763 13.1862 6.95662 13.263 6.87561C13.2929 6.83731 13.3206 6.7968 13.3461 6.75409H13.4677C13.4806 6.7968 13.4891 6.83941 13.4933 6.88193C13.4464 6.92464 13.3995 6.96725 13.3527 7.00977C13.2931 7.05248 13.2334 7.09729 13.1736 7.14421C13.182 7.19956 13.1927 7.255 13.2055 7.31054C13.2226 7.31476 13.2417 7.31907 13.263 7.32347C13.3226 7.31485 13.3844 7.30422 13.4485 7.29158C13.4868 7.24466 13.5251 7.19774 13.5635 7.15082C13.606 7.11252 13.6466 7.07412 13.6851 7.03562C13.7533 7.02279 13.8237 7.00996 13.8961 6.99713C13.9216 6.94599 13.9493 6.89486 13.9792 6.84372C13.9664 6.80542 13.9514 6.76491 13.9344 6.72221C13.8747 6.71359 13.8129 6.70296 13.7489 6.69032C13.6893 6.6817 13.6275 6.67107 13.5635 6.65843C13.5294 6.6456 13.4952 6.63277 13.4611 6.61994C13.4398 6.58585 13.4186 6.55176 13.3973 6.51767C13.4101 6.48358 13.4229 6.45159 13.4355 6.42172C13.4739 6.38763 13.5122 6.35564 13.5505 6.32577C13.508 6.28747 13.4632 6.24907 13.4163 6.21057C13.348 6.20636 13.2798 6.20205 13.2116 6.19764C13.169 6.23595 13.1243 6.27435 13.0773 6.31284C13.0303 6.35555 12.9813 6.39816 12.9301 6.44068C12.8918 6.43646 12.8534 6.43436 12.8151 6.43436C12.8235 6.39605 12.832 6.35766 12.8407 6.31916C12.926 6.26803 13.0113 6.21689 13.0966 6.16576C13.1435 6.13588 13.1904 6.106 13.2371 6.07613C13.267 6.05908 13.2947 6.03993 13.3202 6.01867C13.3798 6.03993 13.4417 6.06129 13.5057 6.08274C13.5952 6.08274 13.6847 6.08484 13.7742 6.08906C13.885 6.08484 13.9938 6.08053 14.1005 6.07613C14.1816 6.04625 14.2584 6.01427 14.3308 5.98018C14.3607 5.95452 14.3905 5.92895 14.4202 5.90348C14.4969 5.91209 14.5758 5.92062 14.6569 5.92904C14.6824 5.912 14.7058 5.89285 14.7273 5.87159C14.7273 5.87159 14.7399 5.5711 14.7399 5.55185C14.7336 5.52629 14.7399 5.48147 14.7399 5.46222C14.7399 5.44298 14.6439 5.41741 14.6439 5.41741C14.5843 5.4132 14.5246 5.40889 14.4648 5.40448C14.4349 5.43436 14.4051 5.46203 14.3754 5.4875C14.3284 5.50876 14.2816 5.53012 14.2348 5.55157C14.2177 5.53873 14.1986 5.5259 14.1773 5.51307C14.1901 5.49181 14.2029 5.46835 14.2155 5.44269C14.2667 5.41703 14.32 5.39357 14.3754 5.37231C14.4223 5.34243 14.4671 5.31255 14.5097 5.28268V5.23154C14.4627 5.2145 14.4179 5.19956 14.3754 5.18673C14.3328 5.18251 14.2902 5.17821 14.2474 5.1738C14.2049 5.15676 14.1666 5.13971 14.1324 5.12267C14.1282 5.10141 14.1261 5.08005 14.1261 5.0586C14.1177 5.03294 14.1092 5.00737 14.1005 4.9819C14.0706 4.9436 14.0408 4.90309 14.0111 4.86038C14.0366 4.83051 14.0622 4.80063 14.0879 4.77076C14.058 4.74509 14.0303 4.72163 14.0048 4.70037C13.9964 4.65767 13.9857 4.61505 13.9729 4.57254C13.9259 4.54687 13.8833 4.52131 13.8449 4.49583C13.8407 4.46174 13.8407 4.42976 13.8449 4.39989C13.7938 4.34875 13.7511 4.29972 13.717 4.2528C13.6871 4.31677 13.653 4.37863 13.6146 4.43838C13.5506 4.48951 13.4845 4.54065 13.4163 4.59178C13.3011 4.55769 13.1881 4.5236 13.0773 4.48951C13.0518 4.45542 13.0283 4.42344 13.0069 4.39357C13.0069 4.39357 13.0195 4.27205 13.0195 4.2528C13.0195 4.22723 13.1089 4.18242 13.1089 4.18242C13.1174 4.15254 13.1259 4.12267 13.1345 4.09279C13.1174 4.07996 13.1004 4.06502 13.0833 4.04798H12.9747C12.9491 4.04798 12.8467 3.99684 12.8467 3.99684C12.8084 3.94571 12.7678 3.89457 12.7251 3.84344C12.708 3.83482 12.6889 3.8263 12.6676 3.81787C12.608 3.82649 12.5462 3.83501 12.4822 3.84344C12.4097 3.8306 12.3394 3.81997 12.2711 3.81155C12.2328 3.78167 12.1966 3.754 12.1624 3.72853C12.1412 3.74557 12.1199 3.76472 12.0986 3.78598C12.0432 3.82428 11.9878 3.86479 11.9324 3.9075V4.03533C11.9537 4.10773 11.975 4.17811 11.9963 4.24648C11.9834 4.29762 11.9707 4.34875 11.958 4.39989C11.9068 4.41272 11.8578 4.42555 11.8108 4.43838C11.8108 4.48951 11.8129 4.54285 11.8171 4.59839C11.8342 4.66657 11.8534 4.73475 11.8746 4.80293C11.8789 4.84123 11.8853 4.87963 11.8939 4.91813C11.8939 4.96084 11.8918 5.00134 11.8876 5.03964C11.8406 5.0609 11.7938 5.08436 11.747 5.11003C11.7087 5.15273 11.6703 5.19324 11.632 5.23154C11.6362 5.26985 11.6362 5.30604 11.632 5.34013C11.6234 5.42114 11.6127 5.50426 11.6001 5.58949C11.566 5.66628 11.5318 5.74308 11.4977 5.81988C11.404 5.84114 11.3102 5.86029 11.2163 5.87733C11.1908 5.81758 11.1673 5.76003 11.1458 5.70468C11.1671 5.58958 11.1884 5.47448 11.2096 5.35938C11.2351 5.32529 11.2564 5.29331 11.2735 5.26343C11.2351 5.22513 11.1946 5.18462 11.1519 5.14191C11.0752 5.16317 10.9984 5.18232 10.9216 5.19937C10.8704 5.14823 10.8235 5.0949 10.781 5.03936H10.5763C10.5122 4.95835 10.4504 4.87944 10.3908 4.80264C10.2971 4.81126 10.2054 4.81978 10.1157 4.82821C10.0645 4.80695 10.0197 4.78138 9.98141 4.75151C9.98141 4.7088 9.98352 4.66619 9.98773 4.62367C9.96646 4.57254 9.94729 4.5192 9.93023 4.46366C9.87484 4.46366 9.81944 4.46155 9.76405 4.45734C9.75562 4.42746 9.74498 4.39979 9.73214 4.37432C9.75763 4.31456 9.78111 4.25491 9.80258 4.19535C9.90915 4.12717 10.0136 4.05899 10.116 3.99081C10.2225 3.91841 10.3313 3.84382 10.4423 3.76702C10.5105 3.70305 10.5788 3.63909 10.647 3.57512C10.7024 3.57512 10.76 3.57302 10.8198 3.5688C10.8539 3.53471 10.8901 3.50062 10.9285 3.46653C10.9497 3.42823 10.971 3.39203 10.9923 3.35794C10.9881 3.3409 10.9839 3.32596 10.9796 3.31313C10.92 3.31734 10.8582 3.32376 10.7942 3.33238C10.7559 3.31533 10.7153 3.30039 10.6726 3.28756C10.6726 3.25768 10.6705 3.23212 10.6663 3.21086C10.7088 3.20224 10.7514 3.19583 10.7942 3.19161C10.8454 3.21287 10.8987 3.23422 10.954 3.25567C11.0052 3.25146 11.0564 3.24715 11.1076 3.24275C11.1375 3.2257 11.1673 3.20866 11.197 3.19161C11.2054 3.16595 11.2118 3.14038 11.2163 3.11491C11.2632 3.1107 11.3101 3.10428 11.3568 3.09566C11.3739 3.11692 11.391 3.14038 11.408 3.16604C11.4421 3.17466 11.4741 3.18319 11.504 3.19161C11.5637 3.18299 11.6191 3.17447 11.6702 3.16604C11.7128 3.14038 11.7533 3.11692 11.7918 3.09566C11.826 3.06157 11.858 3.02748 11.8879 2.99339V2.92933C11.8453 2.91229 11.8027 2.89524 11.7599 2.8782C11.7728 2.85253 11.7855 2.82697 11.7982 2.80149C11.8281 2.79288 11.8601 2.78435 11.8942 2.77593C11.907 2.75467 11.9198 2.73331 11.9324 2.71186C11.9196 2.69061 11.9068 2.67145 11.8942 2.65441C11.8388 2.62453 11.7855 2.59686 11.7343 2.57139H11.5938C11.5596 2.5756 11.5319 2.58202 11.5107 2.59063C11.4936 2.62894 11.4787 2.66734 11.4658 2.70583C11.47 2.73571 11.47 2.76558 11.4658 2.79546C11.4233 2.80829 11.3764 2.82323 11.3252 2.84028C11.3168 2.85732 11.304 2.87647 11.287 2.89773C11.2699 2.93182 11.255 2.96802 11.2421 3.00632C11.191 2.99349 11.1441 2.98066 11.1015 2.96783C11.0973 2.93795 11.0973 2.90807 11.1015 2.8782C11.1186 2.84832 11.1335 2.81844 11.1464 2.78857C11.1464 2.76731 11.1443 2.74385 11.1401 2.71818C11.1102 2.71397 11.0825 2.70966 11.057 2.70526C11.0441 2.70947 11.0314 2.71158 11.0187 2.71158C10.9932 2.74145 10.9655 2.76913 10.9356 2.7946C10.9144 2.78177 10.8909 2.77114 10.8652 2.76271C10.8694 2.73705 10.8694 2.71148 10.8652 2.68601C10.8439 2.67318 10.8248 2.66255 10.8077 2.65412C10.7778 2.63708 10.7522 2.61793 10.7309 2.59667C10.7225 2.571 10.7119 2.54544 10.699 2.51997C10.7161 2.50292 10.7331 2.48588 10.7502 2.46883C10.7757 2.45179 10.797 2.43474 10.814 2.4177C10.7841 2.40486 10.7564 2.39203 10.7309 2.3792C10.6968 2.35794 10.6606 2.33879 10.6223 2.32175C10.5711 2.33458 10.522 2.34741 10.4751 2.36024C10.4281 2.39854 10.3812 2.43694 10.3345 2.47544C10.309 2.50531 10.2813 2.5373 10.2514 2.57139C10.2769 2.59705 10.3003 2.62051 10.3218 2.64177C10.3473 2.66303 10.3729 2.68218 10.3986 2.69922C10.4114 2.72048 10.4221 2.74394 10.4305 2.76961C10.4134 2.79948 10.39 2.82716 10.3601 2.85263C10.279 2.88672 10.198 2.92081 10.1171 2.9549C10.1001 2.92502 10.0851 2.89514 10.0723 2.86527C10.0381 2.86106 10.004 2.85464 9.96991 2.84602C9.90167 2.88432 9.83775 2.92272 9.77814 2.96122C9.58628 2.96964 9.39441 2.98027 9.20255 2.99311C9.12588 2.96744 9.04912 2.94398 8.97226 2.92272C8.91686 2.96103 8.86147 2.99943 8.80608 3.03792C8.81892 3.0678 8.82956 3.09767 8.83799 3.12755C8.79103 3.14881 8.74627 3.16796 8.70372 3.185C8.67382 3.16375 8.64402 3.14029 8.61431 3.11462C8.55891 3.09758 8.50352 3.08053 8.44813 3.06349C8.40558 3.08915 8.35871 3.11472 8.30754 3.14019C8.25636 3.14019 8.2095 3.13808 8.16695 3.13387C8.17116 3.11682 8.17969 3.09547 8.19253 3.06981C8.19675 3.05276 8.20528 3.03141 8.21812 3.00575C8.16695 2.99291 8.11788 2.97798 8.07092 2.96093C8.07092 2.96093 7.49533 2.99943 7.46974 2.97357C7.45709 2.948 7.31621 2.948 7.31621 2.948C7.27366 2.97788 7.2289 3.00776 7.18194 3.03763C7.15645 3.02059 7.12876 3.00565 7.09886 2.99282C7.06052 3.02269 7.02429 3.05468 6.99018 3.08877C6.9689 3.07594 6.94763 3.06531 6.92635 3.05688C6.92635 3.027 6.92213 2.99933 6.9137 2.97386C6.87958 2.96964 6.84546 2.96754 6.81135 2.96754C6.7688 3.01446 6.72615 3.06349 6.68341 3.11462C6.6238 3.14871 6.5684 3.1828 6.51723 3.21689C6.51301 3.19563 6.50879 3.17648 6.50458 3.15944C6.56419 3.12113 6.61958 3.08704 6.67076 3.05717C6.67076 3.05717 6.63884 2.99311 6.61325 2.99311C6.58767 2.99943 6.44707 3.12094 6.44707 3.12094C6.35756 3.17629 6.27016 3.23173 6.18487 3.28727C6.16359 3.32558 6.14232 3.36608 6.12104 3.40879C6.00163 3.39596 5.88653 3.38533 5.77574 3.3769C5.69908 3.39395 5.62231 3.41099 5.54545 3.42804C5.48584 3.41942 5.43045 3.40879 5.37927 3.39615C5.27692 3.44307 5.17246 3.48999 5.06589 3.53691V3.4921C4.96353 3.5304 4.86118 3.57091 4.75883 3.61362C4.73755 3.60079 4.72049 3.58585 4.70765 3.5688C4.67775 3.59447 4.64795 3.61793 4.61824 3.63918C4.5799 3.65202 4.54157 3.66485 4.50323 3.67768C4.50323 3.66485 4.50534 3.64991 4.50956 3.63286C4.48407 3.63708 4.45848 3.64139 4.43279 3.64579C4.36063 3.70009 4.35546 3.70382 4.29652 3.74662C6.31511 1.85665 9.02631 0.699512 12.0032 0.699512C13.1929 0.699512 14.3397 0.88509 15.4173 1.22752C15.4311 1.2528 15.4323 1.25998 15.4377 1.29618C15.4207 1.30039 15.4036 1.3047 15.3866 1.30911C15.3524 1.29206 15.3183 1.27712 15.2842 1.26429C15.2629 1.23442 15.2394 1.20454 15.2138 1.17466C15.1626 1.16604 15.1114 1.15542 15.0602 1.14278C15.0644 1.15561 15.073 1.17054 15.0858 1.18759C15.0774 1.1918 15.0646 1.19391 15.0476 1.19391C14.9539 1.15982 14.8621 1.12573 14.7724 1.09164C14.7255 1.09164 14.6807 1.09595 14.6382 1.10457C14.5956 1.09595 14.5551 1.08953 14.5166 1.08532C14.4483 1.1152 14.3822 1.14718 14.3182 1.18127C14.2415 1.16844 14.1669 1.15561 14.0942 1.14278C14.0643 1.15139 14.0302 1.15992 13.9919 1.16834C13.9961 1.21105 14.0025 1.25587 14.0111 1.30279C13.9258 1.29417 13.8384 1.28565 13.7489 1.27722C13.6508 1.3071 13.5527 1.33697 13.4548 1.36685C13.3781 1.37968 13.3035 1.39031 13.2308 1.39874C13.2649 1.4244 13.2947 1.44786 13.3202 1.46912C13.4013 1.4649 13.476 1.4628 13.5442 1.4628C13.5825 1.45437 13.6167 1.44585 13.6466 1.43723C13.7019 1.45428 13.7573 1.47343 13.8127 1.49469C13.7999 1.51173 13.7893 1.52878 13.7808 1.54582C13.7339 1.5372 13.6848 1.53079 13.6336 1.52657C13.5824 1.52236 13.5356 1.52025 13.493 1.52025C13.4802 1.53308 13.4652 1.54802 13.4482 1.56507C13.5206 1.59916 13.5931 1.63535 13.6655 1.67366C13.755 1.6907 13.8424 1.70985 13.9277 1.73111C14.0002 1.71828 14.077 1.70765 14.158 1.69922C14.2347 1.71206 14.3157 1.72269 14.401 1.73111C14.5075 1.79086 14.6184 1.85052 14.7336 1.91008C14.789 1.97826 14.8423 2.04864 14.8935 2.12123C14.9234 2.2279 14.9532 2.33448 14.9829 2.44097C15.017 2.4538 15.0532 2.46443 15.0916 2.47285C15.1128 2.45159 15.1299 2.43024 15.1427 2.40879C15.1769 2.41741 15.211 2.42593 15.2451 2.43436C15.2664 2.47266 15.2899 2.51527 15.3155 2.56219C15.2856 2.56641 15.2558 2.57282 15.2261 2.58144C15.1836 2.57723 15.1388 2.57081 15.0919 2.56219C15.0919 2.57924 15.0898 2.59628 15.0855 2.61333C15.1793 2.63037 15.271 2.64953 15.3607 2.67078C15.3948 2.69645 15.4246 2.72201 15.4501 2.74749C15.4543 2.78579 15.4607 2.82199 15.4694 2.85608C15.4224 2.87733 15.3733 2.89649 15.3222 2.91353C15.271 2.93919 15.2219 2.96476 15.1749 2.99023C15.1621 3.05841 15.1515 3.12449 15.143 3.18845C15.2026 3.28229 15.2602 3.37614 15.3158 3.46998C15.367 3.60213 15.4224 3.73647 15.482 3.87303C15.5801 3.97529 15.674 4.07766 15.7635 4.18012C15.8189 4.18874 15.87 4.19515 15.917 4.19937C15.9511 4.24208 15.9831 4.28469 16.013 4.32721C16.0556 4.35708 16.0982 4.38476 16.141 4.41023C16.1922 4.39318 16.2454 4.37614 16.3008 4.35909C16.3349 4.2867 16.3691 4.21632 16.4032 4.14795C16.3947 4.07115 16.3883 3.99866 16.3839 3.93048C16.4435 3.87073 16.5032 3.81107 16.563 3.75151C16.5502 3.70037 16.5396 3.64924 16.5311 3.5981C16.5524 3.57244 16.5759 3.54898 16.6016 3.52772C16.7721 3.54477 16.9405 3.55971 17.1067 3.57254C17.1493 3.56392 17.1961 3.5575 17.2473 3.55329C17.2686 3.51499 17.2899 3.47869 17.3111 3.44441C17.3069 3.4017 17.3027 3.35909 17.2985 3.31658C17.3326 3.30796 17.3667 3.29733 17.4008 3.28469C17.4649 3.30173 17.5267 3.31878 17.5863 3.33582C17.6459 3.36149 17.7035 3.38705 17.7591 3.41253C17.8231 3.41674 17.8828 3.41885 17.9382 3.41885C18.0022 3.37614 18.0683 3.33774 18.1366 3.30365C18.1578 3.27799 18.1791 3.25452 18.2004 3.23327C18.1705 3.20339 18.1428 3.17572 18.1173 3.15024L17.9767 3.11175C17.9127 3.08609 17.8509 3.06052 17.7913 3.03505C17.7784 3.00517 17.7657 2.97319 17.753 2.9391C17.7743 2.93048 17.7956 2.92196 17.8169 2.91353C17.851 2.93058 17.8851 2.94551 17.9192 2.95835C17.9662 2.99244 18.0152 3.02863 18.0664 3.06694C18.126 3.09681 18.1836 3.12669 18.2392 3.15656C18.2605 3.14373 18.2796 3.1309 18.2967 3.11807C18.2668 3.08398 18.2391 3.04778 18.2136 3.00948C18.1667 2.97539 18.1219 2.93919 18.0794 2.90089C18.0368 2.88385 17.9942 2.86891 17.9514 2.85608C17.9344 2.8262 17.9131 2.79632 17.8876 2.76645H17.9707C18.0132 2.79211 18.0538 2.81557 18.0923 2.83683C18.1093 2.82821 18.1221 2.81538 18.1305 2.79833C18.1646 2.80255 18.2009 2.80896 18.2392 2.81758C18.235 2.79632 18.2286 2.77717 18.2199 2.76013C18.2669 2.77296 18.3117 2.78148 18.3542 2.78569C18.3584 2.75582 18.3605 2.72594 18.3605 2.69606C18.335 2.67902 18.3095 2.66197 18.2838 2.64493C18.2454 2.62367 18.2092 2.60452 18.1751 2.58747C18.158 2.57043 18.1431 2.55339 18.1302 2.53634C18.1202 2.51623 18.1182 2.51192 18.1176 2.50187C19.2078 3.20684 20.169 4.09451 20.9587 5.12094C20.951 5.11922 20.9429 5.1175 20.9254 5.11405C20.9212 5.11826 20.917 5.12678 20.9127 5.13962C20.8828 5.1354 20.8487 5.12899 20.8104 5.12037C20.7933 5.14163 20.7742 5.16078 20.7529 5.17782C20.7699 5.22896 20.7891 5.27799 20.8104 5.32491C20.8445 5.359 20.8765 5.39098 20.9064 5.42086C20.9235 5.45495 20.9426 5.49124 20.9639 5.52973C20.9597 5.55099 20.9597 5.57445 20.9639 5.60011C20.981 5.64282 21.0001 5.68764 21.0214 5.73456C21.0555 5.77286 21.0897 5.80695 21.1238 5.83683C21.145 5.81557 21.1663 5.79211 21.1876 5.76645C21.2175 5.77506 21.2431 5.77937 21.2644 5.77937C21.2943 5.79642 21.322 5.81346 21.3475 5.83051C21.3774 5.87743 21.4072 5.92224 21.4369 5.96495C21.4624 6.0203 21.4901 6.07785 21.52 6.1376C21.5541 6.20157 21.5882 6.26764 21.6223 6.33582C21.6478 6.35708 21.6755 6.38054 21.7054 6.40621C21.7138 6.39337 21.7203 6.38054 21.7247 6.36771C21.737 6.32404 21.7376 6.3229 21.7494 6.29331C21.819 6.41195 21.8868 6.53174 21.9524 6.65297C21.9354 6.63574 21.9325 6.63143 21.9104 6.5981C21.8891 6.58106 21.8721 6.56823 21.8592 6.55961C21.8422 6.57665 21.8272 6.5937 21.8144 6.61074C21.7973 6.61496 21.7781 6.61706 21.7569 6.61706C21.7398 6.60423 21.7206 6.58929 21.6994 6.57225C21.6865 6.57225 21.6738 6.57656 21.6611 6.58518C21.6356 6.57234 21.6122 6.55951 21.5907 6.54668C21.5694 6.51681 21.5481 6.48693 21.5269 6.45705C21.5056 6.41875 21.4821 6.37614 21.4564 6.32922C21.4522 6.30796 21.4458 6.28239 21.4372 6.25251C21.4372 6.25251 21.4627 6.19506 21.4564 6.17581C21.4501 6.16288 21.4372 6.09279 21.4372 6.09279C21.4201 6.06291 21.4009 6.03304 21.3797 6.00316C21.3712 5.9819 21.3648 5.96275 21.3604 5.94571C21.3433 5.92004 21.3263 5.89658 21.3092 5.87532C21.2922 5.86671 21.2751 5.8646 21.258 5.869V5.92014C21.2751 5.93718 21.2922 5.95212 21.3092 5.96495C21.3176 5.99483 21.3262 6.02471 21.3348 6.05458C21.3007 6.05037 21.2687 6.05037 21.2388 6.05458C21.2472 6.08867 21.2578 6.12918 21.2707 6.1761C21.3048 6.2144 21.3389 6.2528 21.373 6.2913C21.3943 6.33822 21.4135 6.38725 21.4305 6.43838C21.4348 6.46826 21.4391 6.49813 21.4435 6.52801C21.418 6.52801 21.3945 6.5259 21.373 6.52169H21.2836C21.2752 6.53452 21.2688 6.54735 21.2644 6.56018C21.2389 6.5688 21.2133 6.57522 21.1876 6.57943C21.1918 6.63478 21.1982 6.69233 21.2069 6.75208C21.1643 6.74346 21.1196 6.73284 21.0726 6.7202C21.0642 6.7585 21.0599 6.799 21.0599 6.84171C21.0258 6.86297 20.9938 6.88643 20.9639 6.91209C20.9426 6.91631 20.9214 6.92062 20.9001 6.92502C20.883 6.90376 20.866 6.88241 20.8489 6.86096C20.8276 6.86517 20.8064 6.86728 20.7851 6.86728C20.7979 6.90558 20.8086 6.94178 20.817 6.97587C20.7999 6.99291 20.7829 7.00996 20.7658 7.027C20.7104 7.02279 20.6528 7.01637 20.593 7.00776C20.6015 7.05046 20.6079 7.08886 20.6123 7.12295C20.6506 7.14 20.689 7.16135 20.7273 7.18702C20.7614 7.20827 20.7934 7.23173 20.8233 7.2574C20.8404 7.2957 20.8596 7.33621 20.8808 7.37891C20.8979 7.42162 20.9149 7.46854 20.932 7.51968C20.932 7.53251 20.9299 7.54745 20.9257 7.56449V7.6412C20.9341 7.69233 20.9426 7.74346 20.9513 7.7946C20.9513 7.84152 20.9492 7.88413 20.9449 7.92244C20.9449 7.92244 20.8426 7.92244 20.8107 7.91612C20.7851 7.9098 20.7276 7.8713 20.7146 7.85866C20.6954 7.84573 20.5355 7.70526 20.5355 7.70526C20.4886 7.69664 20.4417 7.69022 20.3949 7.68601C20.3694 7.71167 20.3418 7.73513 20.3118 7.75639C20.3076 7.7991 20.3034 7.84391 20.2992 7.89084C20.312 7.92914 20.327 7.97175 20.344 8.01867C20.3356 8.05276 20.325 8.08264 20.3121 8.1083C20.3121 8.1083 20.3314 8.21057 20.3314 8.22982C20.3314 8.24907 20.3187 8.36426 20.3187 8.36426C20.3187 8.36426 20.2549 8.40276 20.2357 8.4154C20.2164 8.42172 20.242 8.54323 20.242 8.54323C20.2719 8.58594 20.3017 8.62645 20.3314 8.66475C20.3398 8.70746 20.3484 8.74797 20.357 8.78627C20.3995 8.81614 20.4422 8.84602 20.4849 8.8759H20.581C20.6065 8.8759 20.6704 8.91439 20.6704 8.91439C20.6874 8.9527 20.7045 8.98889 20.7215 9.02298C20.7514 9.02719 20.777 9.02719 20.7983 9.02298C20.8366 9.00594 20.875 8.991 20.9133 8.97817C20.9559 8.99521 20.9985 9.01436 21.0413 9.03562H21.1307C21.1349 8.99291 21.1391 8.9481 21.1433 8.90118C21.1688 8.89256 21.1944 8.87973 21.2201 8.86268C21.2285 8.84143 21.2349 8.81796 21.2393 8.7923C21.2351 8.75821 21.2309 8.72202 21.2267 8.68371C21.2139 8.67509 21.2011 8.66657 21.1885 8.65814L21.1629 8.51738C21.214 8.47908 21.2673 8.44288 21.3227 8.40879C21.3526 8.3364 21.3846 8.26822 21.4188 8.20425C21.4059 8.15733 21.3953 8.11041 21.3868 8.06349C21.4039 8.04223 21.4231 8.02308 21.4443 8.00603C21.4827 8.00603 21.521 8.00393 21.5593 7.99971C21.5806 8.0338 21.5998 8.06579 21.6168 8.09566C21.6381 8.11271 21.6616 8.13617 21.6873 8.16605C21.6915 8.12774 21.6936 8.08934 21.6936 8.05085C21.6936 8.05085 21.6999 8.03792 21.7511 8.03792C21.8023 8.03792 21.8023 8.00603 21.8023 8.00603C21.8151 8.00182 21.8279 7.99971 21.8405 7.99971C21.8576 8.02538 21.8768 8.05305 21.898 8.08274C21.9151 8.12966 21.9278 8.17447 21.9363 8.21718C21.9618 8.24284 21.983 8.26841 22.0001 8.29388C22.0342 8.34923 22.0683 8.40467 22.1024 8.46021C22.1237 8.48147 22.1472 8.50493 22.1729 8.53059C22.1899 8.54343 22.2091 8.56258 22.2304 8.58805C22.2474 8.62635 22.2645 8.66475 22.2816 8.70325C22.3115 8.75017 22.3392 8.79498 22.3647 8.83769C22.3647 8.83769 22.3773 8.91439 22.3773 8.93996C22.371 8.96553 22.371 8.97185 22.371 8.99742C22.3647 9.02298 22.3261 9.0293 22.3261 9.0293C22.3006 9.02509 22.275 9.02298 22.2494 9.02298C22.2578 9.04864 22.2663 9.07421 22.275 9.09968C22.2878 9.12094 22.3027 9.14009 22.3198 9.15714C22.3369 9.16576 22.3539 9.17639 22.371 9.18903C22.3794 9.19324 22.3922 9.19966 22.4092 9.20827V9.05487C22.4221 9.04204 22.437 9.03351 22.4541 9.0293C22.4583 9.02068 22.4625 9.01216 22.4667 9.00374V8.92071C22.4583 8.89945 22.4519 8.8781 22.4475 8.85665C22.4559 8.85665 22.4644 8.85454 22.473 8.85033C22.4815 8.86316 22.49 8.87599 22.4986 8.88883C22.5115 8.89304 22.5242 8.89735 22.5369 8.90175V8.82505C22.5369 8.82505 22.4664 8.68429 22.4538 8.6524C22.4411 8.63315 22.4026 8.5757 22.4026 8.5757C22.3855 8.55003 22.3706 8.52447 22.3578 8.49899C22.3449 8.49478 22.3322 8.48837 22.3195 8.47975C22.294 8.4627 22.2705 8.44776 22.2491 8.43493C22.232 8.40084 22.2171 8.36675 22.2042 8.33266C22.2042 8.33266 22.0955 8.13444 22.07 8.08331C22.0444 8.03849 22.0061 7.93623 22.0061 7.93623C21.9977 7.90635 21.9913 7.88078 21.9869 7.85952C21.9869 7.82965 21.9848 7.80408 21.9805 7.78282C21.9934 7.78282 22.0083 7.78713 22.0254 7.79575C22.0382 7.80858 22.0553 7.82141 22.0766 7.83424C22.085 7.86412 22.0956 7.88758 22.1085 7.90463C22.1169 7.9345 22.1254 7.96218 22.1341 7.98765C22.1511 8.02174 22.1703 8.05803 22.1916 8.09652C22.1916 8.09652 22.2172 8.14134 22.2298 8.17323C22.2425 8.20511 22.2617 8.21804 22.281 8.23729C22.2873 8.24361 22.3385 8.29474 22.3385 8.29474C22.3598 8.32041 22.3789 8.34808 22.396 8.37777C22.4215 8.42469 22.4492 8.47582 22.4791 8.53117C22.4833 8.56526 22.4875 8.59724 22.4917 8.62712C22.5088 8.64416 22.5259 8.66332 22.5429 8.68457C22.5429 8.68457 22.5811 8.79977 22.5811 8.81902C22.5938 8.8509 22.645 8.95978 22.645 8.95978C22.6578 9.00249 22.6706 9.0451 22.6832 9.08762C22.6961 9.13875 22.711 9.1942 22.7281 9.25395C22.7409 9.271 22.758 9.29235 22.7792 9.31801C22.7921 9.32222 22.8048 9.32654 22.8175 9.33094C22.8217 9.32232 22.8259 9.3138 22.8301 9.30537C22.8301 9.30537 22.8238 9.26056 22.8175 9.22867C22.8175 9.2031 22.8367 9.17754 22.8367 9.17754C22.8367 9.15187 22.8389 9.13272 22.8431 9.12008C22.8176 9.06895 22.792 9.02413 22.7663 8.98564C22.7621 8.96438 22.76 8.94302 22.76 8.92157C22.7684 8.90874 22.7748 8.89811 22.7792 8.88969C22.7835 8.86402 22.7877 8.84056 22.7919 8.8193C22.8003 8.82352 22.811 8.82783 22.8238 8.83223C22.8399 8.84832 22.8459 8.85435 22.8546 8.86297C22.8756 8.93565 22.8957 9.00891 22.9155 9.08245C22.9149 9.08848 22.9144 9.09451 22.9135 9.10112C22.9204 9.11721 22.9264 9.131 22.9322 9.14392C23.021 9.48406 23.0944 9.83022 23.1516 10.1818C23.1493 10.1744 23.147 10.1663 23.1438 10.1563C23.1139 10.1605 23.0819 10.1626 23.0478 10.1626C23.0393 10.1243 23.0308 10.0838 23.0222 10.0411C23.0009 10.0369 22.9796 10.0326 22.9584 10.0282C22.9285 9.98985 22.8964 9.94724 22.8623 9.90032C22.8411 9.91315 22.8176 9.92167 22.7919 9.92588C22.8003 10.0155 22.8067 10.1008 22.8112 10.1818C22.7857 10.1905 22.7601 10.1969 22.7344 10.2011C22.7089 10.1754 22.6854 10.1541 22.6639 10.137C22.6385 10.1114 22.615 10.0858 22.5935 10.0603C22.568 10.0433 22.5403 10.0241 22.5104 10.0029C22.4976 9.98162 22.4848 9.95815 22.4722 9.93249C22.4509 9.90261 22.4296 9.86642 22.4084 9.8239C22.3742 9.8239 22.3401 9.82179 22.306 9.81758C22.306 9.81758 22.1973 9.70899 22.1717 9.6705C22.1461 9.63861 22.1206 9.52341 22.1206 9.52341C22.1376 9.48511 22.1526 9.4425 22.1654 9.39558C22.157 9.34023 22.1506 9.28478 22.1461 9.22924C22.095 9.1739 22.0459 9.12276 21.9989 9.07584C21.9989 9.07584 21.9478 9.1333 21.9095 9.1333C21.8713 9.13962 21.8135 9.13962 21.8135 9.13962C21.7623 9.10553 21.709 9.07144 21.6537 9.03735C21.6237 9.0586 21.5961 9.08417 21.5706 9.11405C21.4853 9.10983 21.4 9.10773 21.3147 9.10773C21.3018 9.13339 21.2869 9.15896 21.2698 9.18443H21.1356C21.1143 9.23135 21.0908 9.27827 21.0651 9.32519C21.0139 9.30394 20.9607 9.28048 20.9053 9.25481C20.8669 9.23355 20.8286 9.21651 20.7903 9.20368C20.7561 9.24198 20.722 9.28249 20.6879 9.32519C20.6666 9.37633 20.6475 9.42967 20.6304 9.48521C20.5879 9.47237 20.5452 9.45533 20.5025 9.43407C20.4599 9.49382 20.4152 9.54716 20.3682 9.59408C20.3766 9.68371 20.3852 9.76903 20.3938 9.85004C20.3767 9.9481 20.3597 10.0462 20.3426 10.1442C20.2957 10.2124 20.2509 10.2849 20.2083 10.3617C20.153 10.3787 20.0976 10.3958 20.0422 10.4128C20.008 10.4896 19.976 10.5685 19.9461 10.6495C19.9162 10.7049 19.8864 10.7603 19.8567 10.8159C19.8184 10.948 19.7801 11.0824 19.7417 11.2189C19.7289 11.27 19.7182 11.3234 19.7098 11.3789C19.714 11.5325 19.7182 11.686 19.7225 11.8394C19.7225 11.8394 19.7607 12.0121 19.7607 12.0506C19.7607 12.0891 19.748 12.2999 19.748 12.2999C19.7268 12.3382 19.7055 12.3808 19.6842 12.4278C19.6501 12.449 19.6139 12.4725 19.5755 12.4981C19.5798 12.5364 19.584 12.5769 19.5882 12.6196C19.6352 12.675 19.6799 12.7283 19.7225 12.7797C19.7012 12.7925 19.682 12.8074 19.665 12.8245C19.6521 12.8586 19.6415 12.8948 19.633 12.9331C19.6373 12.9842 19.6437 13.0332 19.6523 13.0802C19.6523 13.0802 19.761 13.1186 19.7866 13.1313C19.8058 13.1505 19.8185 13.2143 19.8185 13.2143C19.8185 13.2143 19.8378 13.3295 19.8441 13.3677C19.8504 13.3996 19.8823 13.4381 19.8889 13.4637C19.8953 13.4892 19.9976 13.6237 19.9976 13.6237C20.0616 13.6919 20.1234 13.7643 20.183 13.8411C20.23 13.935 20.2791 14.0245 20.3302 14.1097C20.3302 14.1097 20.407 14.2568 20.4133 14.2761C20.4197 14.3016 20.4708 14.3016 20.4964 14.308C20.5093 14.3166 20.5305 14.323 20.5603 14.3272C20.6051 14.3209 20.6178 14.2824 20.6433 14.2442C20.6753 14.2186 20.6626 14.1867 20.6689 14.1546C20.6689 14.1161 20.7776 14.0971 20.7776 14.0971C20.8031 14.0971 20.8266 14.095 20.8481 14.0908C20.8481 14.0908 21.0783 14.1163 21.0976 14.1163C21.1169 14.1163 21.168 14.1227 21.1936 14.1163C21.2129 14.1227 21.2319 14.0845 21.2511 14.0715C21.2638 14.0523 21.315 14.0075 21.3279 13.9819C21.3472 13.9434 21.411 13.9308 21.4303 13.9115C21.4495 13.8986 21.5645 13.8541 21.5838 13.8475C21.5964 13.8411 21.6476 13.7963 21.6476 13.7963H21.7114C21.7327 13.822 21.7519 13.8476 21.7689 13.873C21.7732 13.9113 21.7753 13.9518 21.7753 13.9945C21.7881 14.0244 21.7987 14.0543 21.8072 14.0842C21.8242 14.1054 21.8392 14.1331 21.852 14.1672C21.8904 14.1586 21.9287 14.1522 21.967 14.1479C21.9969 14.1479 22.0267 14.1436 22.0564 14.135C22.0564 14.135 22.1269 14.2373 22.1269 14.2565C22.1206 14.2758 22.0694 14.3396 22.0694 14.3396C22.0652 14.3949 22.061 14.4504 22.0567 14.5059C22.0525 14.5699 22.0461 14.6317 22.0375 14.6915C22.0162 14.7256 21.9949 14.7575 21.9736 14.7874C21.9779 14.8343 21.98 14.8834 21.98 14.9345C21.9928 14.9898 22.0056 15.0453 22.0182 15.1008C22.0311 15.1349 22.0417 15.1648 22.0501 15.1905C22.0714 15.2161 22.0906 15.2396 22.1076 15.2608C22.1076 15.2608 22.1332 15.3694 22.1332 15.3953C22.1269 15.4145 22.095 15.5361 22.095 15.5361C22.0992 15.5914 22.1013 15.6511 22.1013 15.715C22.1055 15.7533 22.1097 15.7917 22.1139 15.8302V16.1244C22.1011 16.1671 22.0862 16.2076 22.0691 16.2459C22.0392 16.297 22.0094 16.3482 21.9797 16.3993C21.9498 16.4591 21.9221 16.5145 21.8966 16.5656C21.8753 16.6338 21.854 16.6999 21.8328 16.7639C21.8029 16.879 21.7731 16.9941 21.7434 17.1092C21.7476 17.122 21.7497 17.1369 21.7497 17.154C21.7581 17.2093 21.7687 17.2648 21.7816 17.3203C21.7816 17.3203 21.7816 17.4993 21.7753 17.5185C21.7689 17.5315 21.7178 17.6719 21.7114 17.6912C21.7063 17.7015 21.6554 17.8449 21.6358 17.9C19.6471 21.1382 16.0731 23.3025 12.0026 23.3025L12.0032 23.3008Z" fill="#7BFDB1"/>
</g>
<defs>
<clipPath id="clip0_930_32">
<rect width="24" height="24" fill="white"/>
</clipPath>
</defs>
</svg>
