<svg xmlns="http://www.w3.org/2000/svg" fill="none" viewBox="0 0 20 15"><g clip-path="url(#092_svg__a)"><path fill="#fff" d="M0 0H20V15H0z"/><path fill="#2E42A5" fill-rule="evenodd" d="M0 0V15H20V0H0Z" clip-rule="evenodd"/><g clip-path="url(#092_svg__b)"><path fill="#2E42A5" d="M0 0H11V9H0z"/><path fill="#F7FCFF" d="M-1.25266 8.12488L1.22294 9.21063L11.3062 1.18046L12.612 -0.432999L9.96471 -0.795888L5.852 2.66454L2.54169 4.99607L-1.25266 8.12488Z"/><path fill="#F50100" d="M-0.913757 8.88561L0.347444 9.51569L12.1431 -0.582886H10.3722L-0.913757 8.88561Z"/><path fill="#F7FCFF" d="M12.5027 8.12487L10.3056 9.52057L-0.0561867 1.18044L-1.36201 -0.433015L1.28529 -0.795905L5.398 2.66453L8.70831 4.99605L12.5027 8.12487Z"/><path fill="#F50100" d="M12.4182 8.67082L11.157 9.3009L6.13428 4.97718L4.64515 4.4941L-1.48766 -0.427482H0.283216L6.41258 4.37728L8.04068 4.95655L12.4182 8.67082Z"/><path fill="#F50100" fill-rule="evenodd" d="M6 0H5V4H0V5H5V9H6V5H11V4H6V0Z" clip-rule="evenodd"/><path fill="#F7FCFF" fill-rule="evenodd" d="M4.0625 0H6.9375V3.0625L11 3V5.875L6.9375 5.9375V9H4.0625V5.9375L0 5.875V3L4.0625 3.0625V0ZM5 4H0V5H5V9H6V5H11V4H6V0H5V4Z" clip-rule="evenodd"/></g></g><defs><clipPath id="092_svg__a"><path fill="#fff" d="M0 0H20V15H0z"/></clipPath><clipPath id="092_svg__b"><path fill="#fff" d="M0 0H11V9H0z"/></clipPath></defs></svg>