<svg xmlns="http://www.w3.org/2000/svg" fill="none" viewBox="0 0 20 15"><g clip-path="url(#174_svg__a)"><path fill="#fff" d="M0 0H20V15H0z"/><path fill="#5196ED" fill-rule="evenodd" d="M0 0V15H20V0H0Z" clip-rule="evenodd"/><mask id="174_svg__b" width="20" height="15" x="0" y="0" maskUnits="userSpaceOnUse" style="mask-type:luminance"><path fill="#fff" fill-rule="evenodd" d="M0 0V15H20V0H0Z" clip-rule="evenodd"/></mask><g fill-rule="evenodd" clip-rule="evenodd" mask="url(#174_svg__b)"><path fill="#AF0100" d="M0 7.5V11.25H20V7.5H0Z"/><path fill="#F7FCFF" d="M0 3.75V7.5H20V3.75H0Z"/><path fill="#FECA00" d="M0 0V3.75H20V0H0Z"/><path fill="#5EAA22" d="M0 0L12.5 7.5L0 15V0Z"/><path fill="#F7FCFF" d="M4.94039 10.6826C4.94039 10.6826 2.70079 9.90419 2.78 7.46768C2.85921 5.03117 5.13964 4.55374 5.13964 4.55374C4.34101 3.96652 1.48329 4.65465 1.39184 7.46768C1.30038 10.2807 4.08883 10.9057 4.94039 10.6826ZM5.00763 6.42392L5.07779 6.00741L4.78059 5.71244L5.19132 5.65168L5.375 5.27273L5.55868 5.65168L5.96941 5.71244L5.6722 6.00741L5.74236 6.42392L5.375 6.22727L5.00763 6.42392ZM5.07779 7.28014L5.00763 7.69665L5.375 7.5L5.74236 7.69665L5.6722 7.28014L5.96941 6.98517L5.55868 6.9244L5.375 6.54545L5.19132 6.9244L4.78059 6.98517L5.07779 7.28014ZM5.00763 8.96937L5.07779 8.55287L4.78059 8.2579L5.19132 8.19713L5.375 7.81818L5.55868 8.19713L5.96941 8.2579L5.6722 8.55287L5.74236 8.96937L5.375 8.77273L5.00763 8.96937ZM5.00763 10.2421L5.07779 9.8256L4.78059 9.53062L5.19132 9.46986L5.375 9.09091L5.55868 9.46986L5.96941 9.53062L5.6722 9.8256L5.74236 10.2421L5.375 10.0455L5.00763 10.2421Z"/></g></g><defs><clipPath id="174_svg__a"><path fill="#fff" d="M0 0H20V15H0z"/></clipPath></defs></svg>