<svg xmlns="http://www.w3.org/2000/svg" fill="none" viewBox="0 0 20 15"><g clip-path="url(#180_svg__a)"><path fill="#fff" d="M0 0H20V15H0z"/><path fill="#3195F9" fill-rule="evenodd" d="M0 0V15H20V0H0Z" clip-rule="evenodd"/><mask id="180_svg__b" width="20" height="15" x="0" y="0" maskUnits="userSpaceOnUse" style="mask-type:luminance"><path fill="#fff" fill-rule="evenodd" d="M0 0V15H20V0H0Z" clip-rule="evenodd"/></mask><g mask="url(#180_svg__b)"><path fill="#E31D1C" stroke="#FECA00" stroke-width="1.563" d="M-1.13854 15.8995L-0.704818 16.5493L-0.0550228 16.1156L22.6081 0.988416L23.2579 0.554691L22.8241 -0.0951043L21.4362 -2.17445L21.0025 -2.82424L20.3527 -2.39052L-2.3104 12.7367L-2.96019 13.1704L-2.52647 13.8202L-1.13854 15.8995Z"/><path fill="#FECA00" fill-rule="evenodd" d="M3.08166 5.37893L0.903141 6.88999L1.59926 4.3019L0 2.64863L2.16548 2.55924L3.08166 0L3.99783 2.55924H6.15963L4.56406 4.3019L5.36315 6.73724L3.08166 5.37893Z" clip-rule="evenodd"/></g></g><defs><clipPath id="180_svg__a"><path fill="#fff" d="M0 0H20V15H0z"/></clipPath></defs></svg>