<svg xmlns="http://www.w3.org/2000/svg" fill="none" viewBox="0 0 20 15"><g clip-path="url(#334_svg__a)"><path fill="#fff" d="M0 0H20V15H0z"/><path fill="#2E42A5" fill-rule="evenodd" d="M0 0H20V15H0V0Z" clip-rule="evenodd"/><g clip-path="url(#334_svg__b)"><path fill="#2E42A5" d="M0 0H11V9H0z"/><path fill="#F7FCFF" d="M-1.25267 8.12488L1.22293 9.21063L11.3062 1.18046L12.612 -0.432999L9.9647 -0.795888L5.85199 2.66454L2.54167 4.99607L-1.25267 8.12488Z"/><path fill="#F50100" d="M-0.913754 8.88559L0.347447 9.51567L12.1431 -0.582901H10.3722L-0.913754 8.88559Z"/><path fill="#F7FCFF" d="M12.5027 8.1249L10.3056 9.5206L-0.0561752 1.18047L-1.36199 -0.432984L1.2853 -0.795875L5.39801 2.66456L8.70833 4.99608L12.5027 8.1249Z"/><path fill="#F50100" d="M12.4182 8.67084L11.157 9.30092L6.13429 4.9772L4.64517 4.49412L-1.48764 -0.427466H0.283231L6.4126 4.3773L8.04069 4.95656L12.4182 8.67084Z"/><path fill="#F50100" fill-rule="evenodd" d="M6 0H5V4H0V5H5V9H6V5H11V4H6V0Z" clip-rule="evenodd"/><path fill="#F7FCFF" fill-rule="evenodd" d="M4.0625 0H6.9375V3.0625L11 3V5.875L6.9375 5.9375V9H4.0625V5.9375L0 5.875V3L4.0625 3.0625V0ZM5 4H0V5H5V9H6V5H11V4H6V0H5V4Z" clip-rule="evenodd"/></g><g fill="#F7FCFF" clip-path="url(#334_svg__c)"><path d="M5.92 12.2783 5.09996 13.0362 5.18117 11.9225 4.07739 11.7539 4.99869 11.123 4.44234 10.1549 5.50998 10.4819 5.92 9.44333 6.33002 10.4819 7.39766 10.1549 6.84131 11.123 7.76261 11.7539 6.65883 11.9225 6.74004 13.0362 5.92 12.2783zM13.24 8.29666 12.6933 8.80188 12.7474 8.05946 12.0116 7.94704 12.6258 7.52647 12.2549 6.88106 12.9667 7.09905 13.24 6.40666 13.5133 7.09905 14.2251 6.88106 13.8542 7.52647 14.4684 7.94704 13.7326 8.05946 13.7867 8.80188 13.24 8.29666zM14.52 2.96333 13.9733 3.46855 14.0274 2.72613 13.2916 2.61371 13.9058 2.19315 13.5349 1.54774 14.2467 1.76572 14.52 1.07333 14.7933 1.76572 15.5051 1.54774 15.1342 2.19315 15.7484 2.61371 15.0126 2.72613 15.0667 3.46855 14.52 2.96333zM17.72 5.63001 17.1733 6.13523 17.2274 5.3928 16.4916 5.28038 17.1058 4.85982 16.7349 4.21441 17.4467 4.4324 17.72 3.74001 17.9933 4.4324 18.7051 4.21441 18.3342 4.85982 18.9484 5.28038 18.2126 5.3928 18.2667 6.13523 17.72 5.63001zM15.16 13.2967 14.6133 13.8019 14.6674 13.0595 13.9316 12.947 14.5458 12.5265 14.1749 11.8811 14.8867 12.0991 15.16 11.4067 15.4333 12.0991 16.1451 11.8811 15.7742 12.5265 16.3884 12.947 15.6526 13.0595 15.7067 13.8019 15.16 13.2967zM17.4 9.13916 16.8445 9.43119 16.9506 8.81267 16.5013 8.37464 17.1223 8.2844 17.4 7.72166 17.6777 8.2844 18.2988 8.37464 17.8494 8.81267 17.9555 9.43119 17.4 9.13916z"/></g></g><defs><clipPath id="334_svg__a"><path fill="#fff" d="M0 0H20V15H0z"/></clipPath><clipPath id="334_svg__b"><path fill="#fff" d="M0 0H11V9H0z"/></clipPath><clipPath id="334_svg__c"><path fill="#fff" d="M0 0H15V13H0z" transform="translate(4 1)"/></clipPath></defs></svg>