<svg xmlns="http://www.w3.org/2000/svg" fill="none" viewBox="0 0 20 15"><g clip-path="url(#410_svg__a)"><path fill="#fff" d="M0 0H20V15H0z"/><path fill="#F7FCFF" fill-rule="evenodd" d="M0 0V15H20V0H0Z" clip-rule="evenodd"/><mask id="410_svg__b" width="20" height="15" x="0" y="0" maskUnits="userSpaceOnUse" style="mask-type:luminance"><path fill="#fff" fill-rule="evenodd" d="M0 0V15H20V0H0Z" clip-rule="evenodd"/></mask><g mask="url(#410_svg__b)"><path fill="#3D58DB" fill-rule="evenodd" d="M9.99998 11.3872C12.0017 11.3872 13.6244 9.6639 13.6244 7.53811C13.6244 5.41232 12.0017 3.68903 9.99998 3.68903C7.99828 3.68903 6.37558 5.41232 6.37558 7.53811C6.37558 9.6639 7.99828 11.3872 9.99998 11.3872Z" clip-rule="evenodd"/><mask id="410_svg__c" width="8" height="9" x="6" y="3" maskUnits="userSpaceOnUse" style="mask-type:luminance"><path fill="#fff" fill-rule="evenodd" d="M9.99998 11.3872C12.0017 11.3872 13.6244 9.6639 13.6244 7.53811C13.6244 5.41232 12.0017 3.68903 9.99998 3.68903C7.99828 3.68903 6.37558 5.41232 6.37558 7.53811C6.37558 9.6639 7.99828 11.3872 9.99998 11.3872Z" clip-rule="evenodd"/></mask><g mask="url(#410_svg__c)"><path fill="#E31D1C" fill-rule="evenodd" d="M13.7512 7.83296C13.7512 7.83296 13.5477 6.01799 12.0411 5.91947C10.5344 5.82094 10.1281 7.25046 10.0412 7.62919C9.95426 8.00792 9.73421 9.01824 8.14786 9.01824C6.56152 9.01824 6.41843 6.44922 6.41843 6.44922V3.41994H13.7512V7.83296Z" clip-rule="evenodd"/></g><path fill="#272727" fill-rule="evenodd" d="M4.56209 1.28261 5.13394 1.79981 2.48378 4.89475 1.91193 4.37755 4.56209 1.28261zM5.50521 2.11958 6.07706 2.63679 3.52189 5.68689 2.95004 5.16969 5.50521 2.11958zM7.01586 3.48407 6.44401 2.96687 3.88174 6.04012 4.45359 6.55732 7.01586 3.48407zM15.8523 1.06574 15.2804 1.58101 16.2725 2.74528 16.8445 2.23001 15.8523 1.06574zM17.6158 3.20739 17.0439 3.72266 18.036 4.88693 18.608 4.37166 17.6158 3.20739zM13.3925 3.258 13.9645 2.74273 14.9566 3.90701 14.3846 4.42227 13.3925 3.258zM15.728 4.88438 15.156 5.39965 16.1481 6.56392 16.7201 6.04866 15.728 4.88438zM14.3722 2.3945 14.9442 1.87923 17.7058 5.24227 17.1338 5.75754 14.3722 2.3945zM16.2843 8.90195 15.7075 8.38467 14.707 9.55348 15.2838 10.0708 16.2843 8.90195zM14.6022 10.9588 14.0255 10.4416 13.025 11.6104 13.6018 12.1276 14.6022 10.9588zM17.529 10.0205 18.1058 10.5378 17.1053 11.7066 16.5285 11.1893 17.529 10.0205zM16.506 12.6424 15.9292 12.1251 14.9287 13.2939 15.5055 13.8112 16.506 12.6424zM14.9791 11.2363 15.5558 11.7536 14.5115 13.0016 13.9347 12.4844 14.9791 11.2363zM17.2692 9.6739 16.6925 9.15662 15.6481 10.4047 16.2249 10.922 17.2692 9.6739zM4.00409 9.30618 4.5761 8.79034 7.12897 11.7156 6.55696 12.2314 4.00409 9.30618zM4.59959 11.8647 5.17159 11.3489 6.24991 12.5336 5.67791 13.0494 4.59959 11.8647zM2.69338 10.4317 2.12138 10.9476 4.6875 13.9122 5.25951 13.3964 2.69338 10.4317zM3.10037 10.0951 3.67237 9.57929 4.60717 10.6755 4.03516 11.1913 3.10037 10.0951z" clip-rule="evenodd"/></g></g><defs><clipPath id="410_svg__a"><path fill="#fff" d="M0 0H20V15H0z"/></clipPath></defs></svg>