<svg xmlns="http://www.w3.org/2000/svg" fill="none" viewBox="0 0 20 15"><g clip-path="url(#583_svg__a)"><path fill="#fff" d="M0 0H20V15H0z"/><path fill="#63B3E1" fill-rule="evenodd" d="M0 0V15H20V0H0Z" clip-rule="evenodd"/><mask id="583_svg__b" width="20" height="15" x="0" y="0" maskUnits="userSpaceOnUse" style="mask-type:luminance"><path fill="#fff" fill-rule="evenodd" d="M0 0V15H20V0H0Z" clip-rule="evenodd"/></mask><g fill="#F7FCFF" fill-rule="evenodd" clip-rule="evenodd" mask="url(#583_svg__b)"><path d="M10 4.5625 8.8979 5.14191 9.10838 3.9147 8.21677 3.04559 9.44895 2.86655 10 1.75 10.551 2.86655 11.7832 3.04559 10.8916 3.9147 11.1021 5.14191 10 4.5625zM10 12.0625 8.8979 12.6419 9.10838 11.4147 8.21677 10.5456 9.44895 10.3665 10 9.25 10.551 10.3665 11.7832 10.5456 10.8916 11.4147 11.1021 12.6419 10 12.0625zM6.12503 8.4375 5.02293 9.01691 5.23342 7.7897 4.3418 6.92059 5.57398 6.74155 6.12503 5.625 6.67608 6.74155 7.90826 6.92059 7.01665 7.7897 7.22713 9.01691 6.12503 8.4375zM13.75 8.4375 12.6479 9.01691 12.8584 7.7897 11.9668 6.92059 13.199 6.74155 13.75 5.625 14.301 6.74155 15.5332 6.92059 14.6416 7.7897 14.8521 9.01691 13.75 8.4375z"/></g></g><defs><clipPath id="583_svg__a"><path fill="#fff" d="M0 0H20V15H0z"/></clipPath></defs></svg>