<svg xmlns="http://www.w3.org/2000/svg" fill="none" viewBox="0 0 20 15"><g clip-path="url(#760_svg__a)"><path fill="#fff" d="M0 0H20V15H0z"/><path fill="#F7FCFF" fill-rule="evenodd" d="M0 0H20V15H0V0Z" clip-rule="evenodd"/><path fill="#409100" fill-rule="evenodd" d="M5.62612 8.66917 4.45695 9.375 4.72363 7.99765 3.75 6.96684 5.06835 6.9111 5.62612 5.625 6.18389 6.9111H7.5L6.52861 7.99765 6.82106 9.375 5.62612 8.66917zM14.3761 8.66917 13.207 9.375 13.4736 7.99765 12.5 6.96684 13.8184 6.9111 14.3761 5.625 14.9339 6.9111H16.25L15.2786 7.99765 15.5711 9.375 14.3761 8.66917z" clip-rule="evenodd"/><path fill="#E31D1C" fill-rule="evenodd" d="M0 0V5H20V0H0Z" clip-rule="evenodd"/><path fill="#272727" fill-rule="evenodd" d="M0 10V15H20V10H0Z" clip-rule="evenodd"/></g><defs><clipPath id="760_svg__a"><path fill="#fff" d="M0 0H20V15H0z"/></clipPath></defs></svg>