<svg xmlns="http://www.w3.org/2000/svg" fill="none" viewBox="0 0 20 15"><g clip-path="url(#807_svg__a)"><path fill="#fff" d="M0 0H20V15H0z"/><path fill="#F50100" fill-rule="evenodd" d="M0 0V15H20V0H0Z" clip-rule="evenodd"/><mask id="807_svg__b" width="20" height="15" x="0" y="0" maskUnits="userSpaceOnUse" style="mask-type:luminance"><path fill="#fff" fill-rule="evenodd" d="M0 0V15H20V0H0Z" clip-rule="evenodd"/></mask><g fill="#FFD018" mask="url(#807_svg__b)"><path fill-rule="evenodd" d="M0 -0.0262299V2.52622L8.75 6.24575L2.03452 -0.0262299H0ZM10 7.5L11.875 -4.7572e-06H8.125L10 7.5ZM10 7.5L8.125 15H11.875L10 7.5ZM0 12.4695V15.022L2.03452 15.022L8.75 8.74999L0 12.4695ZM20 2.54146V-0.0109944L17.9655 -0.0109945L11.25 6.26098L20 2.54146ZM20 15.0372V12.4848L11.25 8.76523L17.9655 15.0372L20 15.0372ZM20 5.625L12.5 7.5L20 9.375V5.625ZM7.5 7.5L0 5.625V9.375L7.5 7.5Z" clip-rule="evenodd"/><path stroke="#F50100" stroke-width="1.25" d="M10 10.625C11.7259 10.625 13.125 9.22589 13.125 7.5C13.125 5.77411 11.7259 4.375 10 4.375C8.27411 4.375 6.875 5.77411 6.875 7.5C6.875 9.22589 8.27411 10.625 10 10.625Z"/></g></g><defs><clipPath id="807_svg__a"><path fill="#fff" d="M0 0H20V15H0z"/></clipPath></defs></svg>