<svg xmlns="http://www.w3.org/2000/svg" fill="none" viewBox="0 0 20 15"><g clip-path="url(#818_svg__a)"><path fill="#fff" d="M0 0H20V15H0z"/><path fill="#F7FCFF" fill-rule="evenodd" d="M0 0V15H20V0H0Z" clip-rule="evenodd"/><mask id="818_svg__b" width="20" height="15" x="0" y="0" maskUnits="userSpaceOnUse" style="mask-type:luminance"><path fill="#fff" fill-rule="evenodd" d="M0 0V15H20V0H0Z" clip-rule="evenodd"/></mask><g mask="url(#818_svg__b)"><path fill="#BF2714" fill-rule="evenodd" d="M0 0V5H20V0H0Z" clip-rule="evenodd"/><path fill="#272727" fill-rule="evenodd" d="M0 10V15H20V10H0Z" clip-rule="evenodd"/><path fill="#C09302" d="M7.6627 6.38763 8.28705 6.41626 8.13033 9.83488 7.50598 9.80626 7.6627 6.38763zM8.31505 6.59982 8.93905 6.6351 8.78233 9.40718 8.15833 9.3719 8.31505 6.59982z"/><path fill="#C09302" d="M8.96777 6.80743 9.59068 6.85854 9.43396 8.76855 8.81105 8.71744 8.96777 6.80743zM12.3373 6.38763 11.713 6.41626 11.8697 9.83488 12.494 9.80626 12.3373 6.38763zM11.685 6.59982 11.061 6.6351 11.2177 9.40718 11.8417 9.3719 11.685 6.59982z"/><path fill="#C09302" d="M11.0322 6.80743 10.4093 6.85854 10.566 8.76855 11.1889 8.71744 11.0322 6.80743zM9.98333 9.57917 9.37411 9.43959 9.63197 8.31415 10.2412 8.45373 9.98333 9.57917z"/><path fill="#C09302" d="M10.4497 9.57917L11.0589 9.43959L10.801 8.31415L10.1918 8.45373L10.4497 9.57917Z"/><path fill="#C09302" d="M10.2951 9.56885H9.6701V8.4639H10.2951V9.56885zM9.14672 6.82077 9.77153 6.8361 9.73503 8.32416 9.11021 8.30883 9.14672 6.82077zM10.2337 6.82077 10.8585 6.8361 10.822 8.32416 10.1972 8.30883 10.2337 6.82077z"/><path fill="#C09302" d="M8.33623 9.95176 8.49854 9.34821C9.1617 9.52655 9.67089 9.61475 10.0181 9.61475 10.3653 9.61475 10.8745 9.52655 11.5377 9.34821L11.7 9.95176C10.9885 10.1431 10.4305 10.2397 10.0181 10.2397 9.60567 10.2397 9.04772 10.1431 8.33623 9.95176zM7.67644 6.38919C7.63478 5.97631 7.87643 5.69683 8.28597 5.73247 8.42063 5.74419 8.57187 5.78403 8.77332 5.85238 8.83217 5.87257 8.83217 5.87257 8.88938 5.89282 9.16631 5.99132 9.2415 6.01663 9.25711 6.01997 9.19575 6.00607 9.37648 5.67934 9.41794 5.62427 9.42284 5.65924 9.40204 5.65426 9.35208 5.64426L8.7883 5.53143 9.18963 5.11971C9.3299 4.9758 9.51671 4.90444 9.72989 4.90444 9.75199 4.90444 9.77261 4.90341 9.84034 4.89924 9.89042 4.8962 9.89042 4.8962 9.94673 4.89387 10.3367 4.88123 10.6164 4.99151 10.6164 5.39254 10.6164 5.53601 10.6345 5.76673 10.6644 5.94176 10.6745 6.00064 10.6939 6.05575 10.6366 6.07996 10.6389 6.05907 10.7755 6.00517 10.9879 5.91634L11.0134 5.90568C11.6306 5.64809 11.7027 5.6242 11.9016 5.7451 12.0342 5.82567 12.1604 5.97059 12.3019 6.18666L11.7789 6.52897C11.6877 6.3896 11.6151 6.30504 11.5805 6.28142 11.6591 6.33605 11.3943 6.42398 11.2542 6.48246L11.2291 6.49295C10.7486 6.69389 10.6853 6.71787 10.5479 6.71787 10.174 6.71787 10.0397 6.33489 10.003 5.78642 9.88764 6.16616 9.54347 6.64537 9.25987 6.64537 9.13571 6.64537 9.1954 6.66502 8.67993 6.48168 8.62593 6.46256 8.62593 6.46256 8.57252 6.44424 8.41635 6.39126 8.3037 6.36154 8.23262 6.35519 8.23556 6.35184 8.24602 6.34058 8.25776 6.33053L7.67644 6.38919z"/></g></g><defs><clipPath id="818_svg__a"><path fill="#fff" d="M0 0H20V15H0z"/></clipPath></defs></svg>