<svg xmlns="http://www.w3.org/2000/svg" fill="none" viewBox="0 0 20 15"><g clip-path="url(#831_svg__a)"><path fill="#fff" d="M0 0H20V15H0z"/><path fill="#F7FCFF" fill-rule="evenodd" d="M0 0V15H20V0H0Z" clip-rule="evenodd"/><mask id="831_svg__b" width="20" height="15" x="0" y="0" maskUnits="userSpaceOnUse" style="mask-type:luminance"><path fill="#fff" fill-rule="evenodd" d="M0 0V15H20V0H0Z" clip-rule="evenodd"/></mask><g fill-rule="evenodd" clip-rule="evenodd" mask="url(#831_svg__b)"><path fill="#E31D1C" d="M7.5 0H12.5V5H20V10H12.5V15H7.5V10H0V5H7.5V0Z"/><path fill="#FECA00" d="M8.12845 1.90372L8.75001 3.0001V6.25H4.29077V6.21427L3.19124 5.59093V9.31604L4.23164 8.75H8.75001V11.9069L8.12845 13.0033H11.8536L11.2553 11.9037H11.25V8.75H15.7504L16.7908 9.31604V5.59093L15.6912 6.21427V6.25H11.25V3.00325H11.2553L11.8536 1.90372H8.12845Z"/></g></g><defs><clipPath id="831_svg__a"><path fill="#fff" d="M0 0H20V15H0z"/></clipPath></defs></svg>