<svg xmlns="http://www.w3.org/2000/svg" fill="none" viewBox="0 0 20 15"><g clip-path="url(#AF_svg__a)"><path fill="#fff" d="M0 0H20V15H0z"/><path fill="#67BD38" fill-rule="evenodd" d="M14 0H20V15H14V0Z" clip-rule="evenodd"/><path fill="#D51700" fill-rule="evenodd" d="M6 0H14V15H6V0Z" clip-rule="evenodd"/><path fill="#272727" fill-rule="evenodd" d="M0 0H6V15H0V0Z" clip-rule="evenodd"/><path fill="#F7FCFF" fill-rule="evenodd" d="M7.70483 4.98553 7.92108 5.12125C7.5607 5.72781 7.31862 6.28362 7.19344 6.78885 7.24641 6.83771 7.2796 6.88052 7.3135 6.93924 7.41128 7.10859 7.49352 7.27299 7.56016 7.4325L7.27275 7.55487C7.22764 7.44688 7.17448 7.33584 7.11325 7.22179 7.08396 7.46826 7.08598 7.70115 7.11909 7.92048 7.17165 7.92588 7.21579 7.93693 7.26684 7.95551 7.4506 8.02239 7.61927 8.09547 7.77285 8.17482L7.63134 8.4533C7.5004 8.38565 7.35659 8.32249 7.1999 8.2639L7.203 8.27335C7.3366 8.67707 7.54103 9.04849 7.8169 9.3878 7.86001 9.37852 7.90018 9.375 7.94712 9.375 8.14268 9.375 8.32617 9.38598 8.49763 9.40802L8.4599 9.71811C8.34318 9.7031 8.21974 9.6936 8.08957 9.68963 8.33748 9.93769 8.62849 10.1665 8.96287 10.376L8.83096 10.5984C8.41629 10.3385 8.06338 10.0487 7.77266 9.72928 7.73477 9.7441 7.68863 9.76371 7.62991 9.78937L7.60783 9.79894C7.8616 10.065 8.16161 10.3097 8.50815 10.5331L8.37351 10.7537C7.97304 10.4955 7.63023 10.2087 7.34546 9.8935 7.20953 9.9284 7.09491 9.92765 6.96081 9.88831L7.04427 9.58782C7.06443 9.59373 7.08416 9.59811 7.10397 9.60092 6.83955 9.24904 6.6403 8.86532 6.50669 8.44994 6.48309 8.37658 6.46288 8.30189 6.44605 8.22587 6.34248 8.20612 6.25512 8.16725 6.16445 8.10052L6.34565 7.84669C6.3613 7.85821 6.37704 7.86837 6.39328 7.87727 6.36082 7.49446 6.40556 7.08123 6.52684 6.63762 6.45089 6.55019 6.40443 6.45958 6.37581 6.34172L6.64128 6.27318C6.78436 5.86797 6.98672 5.43921 7.24793 4.98693L7.46582 5.11986C7.18099 5.61304 6.96995 6.07377 6.83207 6.50211 6.87071 6.53718 6.91799 6.57475 6.97588 6.61769 7.11434 6.11389 7.35769 5.5698 7.70483 4.98553zM6.89885 6.94905C6.87078 6.92719 6.83705 6.90193 6.79604 6.87171 6.77635 6.8572 6.7575 6.84306 6.73945 6.82921 6.64293 7.22663 6.61448 7.59385 6.65349 7.93093 6.70002 7.9313 6.75273 7.9293 6.81357 7.92546L6.86312 7.92245C6.82181 7.61832 6.83385 7.29384 6.89885 6.94905zM6.82703 8.23639C6.86413 8.23405 6.89656 8.23218 6.9252 8.23083 6.93668 8.2734 6.94932 8.31552 6.96312 8.3572 7.09718 8.76234 7.29717 9.13644 7.56261 9.47936L7.51092 9.50179C7.46657 9.52117 7.42665 9.53772 7.39014 9.5515 7.09967 9.19258 6.88559 8.79823 6.74726 8.3682 6.73389 8.32663 6.72173 8.28451 6.71078 8.24186 6.74727 8.24086 6.7859 8.23899 6.82703 8.23639zM12.0869 4.98553 11.8706 5.12125C12.231 5.72781 12.4731 6.28362 12.5983 6.78885 12.5453 6.83771 12.5121 6.88052 12.4782 6.93924 12.3804 7.10859 12.2982 7.27299 12.2315 7.4325L12.519 7.55487C12.5641 7.44688 12.6172 7.33584 12.6785 7.22179 12.7077 7.46826 12.7057 7.70115 12.6726 7.92048 12.6201 7.92588 12.5759 7.93693 12.5249 7.95551 12.3411 8.02239 12.1724 8.09547 12.0189 8.17482L12.1604 8.4533C12.2913 8.38565 12.4351 8.32249 12.5918 8.2639L12.5887 8.27335C12.4551 8.67707 12.2507 9.04849 11.9748 9.3878 11.9317 9.37852 11.8915 9.375 11.8446 9.375 11.649 9.375 11.4655 9.38598 11.2941 9.40802L11.3318 9.71811C11.4485 9.7031 11.572 9.6936 11.7021 9.68963 11.4542 9.93769 11.1632 10.1665 10.8288 10.376L10.9608 10.5984C11.3754 10.3385 11.7283 10.0487 12.019 9.72928 12.0569 9.7441 12.1031 9.76371 12.1618 9.78937L12.1839 9.79894C11.9301 10.065 11.6301 10.3097 11.2836 10.5331L11.4182 10.7537C11.8187 10.4955 12.1615 10.2087 12.4462 9.8935 12.5822 9.9284 12.6968 9.92765 12.8309 9.88831L12.7474 9.58782C12.7273 9.59373 12.7075 9.59811 12.6877 9.60092 12.9522 9.24904 13.1514 8.86532 13.285 8.44994 13.3086 8.37658 13.3288 8.30189 13.3457 8.22587 13.4492 8.20612 13.5366 8.16725 13.6273 8.10052L13.4461 7.84669C13.4304 7.85821 13.4147 7.86837 13.3984 7.87727 13.4309 7.49446 13.3862 7.08123 13.2649 6.63762 13.3408 6.55019 13.3873 6.45958 13.4159 6.34172L13.1504 6.27318C13.0074 5.86797 12.805 5.43921 12.5438 4.98693L12.3259 5.11986C12.6107 5.61304 12.8218 6.07377 12.9596 6.50211 12.921 6.53718 12.8737 6.57475 12.8158 6.61769 12.6774 6.11389 12.434 5.5698 12.0869 4.98553zM12.8929 6.94905C12.9209 6.92719 12.9547 6.90193 12.9957 6.87171 13.0154 6.8572 13.0342 6.84306 13.0523 6.82921 13.1488 7.22663 13.1772 7.59385 13.1382 7.93093 13.0917 7.9313 13.039 7.9293 12.9781 7.92546L12.9286 7.92245C12.9699 7.61832 12.9579 7.29384 12.8929 6.94905zM12.9647 8.23639C12.9276 8.23405 12.8951 8.23218 12.8665 8.23083 12.855 8.2734 12.8424 8.31552 12.8286 8.3572 12.6945 8.76234 12.4945 9.13644 12.2291 9.47936L12.2808 9.50179C12.3251 9.52117 12.3651 9.53772 12.4016 9.5515 12.692 9.19258 12.9061 8.79823 13.0444 8.3682 13.0578 8.32663 13.07 8.28451 13.0809 8.24186 13.0444 8.24086 13.0058 8.23899 12.9647 8.23639z" clip-rule="evenodd"/><path fill="#F7FCFF" fill-rule="evenodd" d="M8.80816 10.165L8.11045 10.8554C8.11045 10.8554 8.71211 11.2239 9.84605 11.2239C10.98 11.2239 11.6403 10.8554 11.6403 10.8554L11.1099 10.165C11.1099 10.165 10.3872 10.4451 9.87537 10.4451C9.36351 10.4451 8.80816 10.165 8.80816 10.165Z" clip-rule="evenodd"/><path stroke="#C00001" stroke-width=".5" d="M8.82272 10.6056C8.82272 10.6056 9.41341 10.745 9.86624 10.745C10.3191 10.745 10.9098 10.6056 10.9098 10.6056"/><path fill="#F7FCFF" fill-rule="evenodd" d="M10.4574 5.91142C10.4574 6.18468 10.2079 6.40621 9.9 6.40621 9.59214 6.40621 9.34257 6.18468 9.34257 5.91142 9.34257 5.63815 9.59214 5.41663 9.9 5.41663 10.2079 5.41663 10.4574 5.63815 10.4574 5.91142zM9.9 6.40621H9.29988L9.13459 6.5329H9.10237V5.54246H8.79832V6.5329H8.53176V6.70182H8.79832V8.48783C8.76226 8.77312 8.67893 8.93444 8.56213 8.99048L7.9414 9.28831H11.6773L11.4088 9.02003C11.173 8.78441 11.0603 8.60321 11.0603 8.49774V6.70182H11.1669V6.5329H11.0603V5.54246H10.7562V6.5329H10.658L10.462 6.40621H9.9zM9.10237 6.70182H10.7562V8.49774C10.7562 8.64258 10.8247 8.79975 10.9584 8.97581H8.97696C9.03816 8.85262 9.07908 8.69905 9.10237 8.50746V6.70182zM9.95068 7.49996H9.29189V8.80204H10.6095L9.95068 7.49996zM10.631 3.8476 10.6322 3.84949 10.6319 3.84877 10.631 3.8476zM11.5943 4.18611 11.5949 4.19191 11.5945 4.18769 11.5943 4.18611zM11.7813 4.20917 11.7823 4.20631 11.7819 4.20772 11.7813 4.20917zM11.024 4.59271 11.0276 4.59268 11.0258 4.5929 11.024 4.59271z" clip-rule="evenodd"/><path fill="#F7FCFF" fill-rule="evenodd" d="M8.02055 6.66754 7.89602 6.75716 8.02442 6.94563C7.91441 6.98509 7.73756 7.08507 7.73756 7.31998 7.73756 7.66094 7.61782 7.94026 7.61782 7.94026L7.97546 8.16994C7.97546 8.16994 8.01276 7.77229 8.11011 7.54614 8.15891 7.43275 8.2349 7.37621 8.29855 7.34802L8.85449 8.16405 8.97902 8.07443 8.02055 6.66754zM11.8195 6.66754 11.9441 6.75716 11.8157 6.94563C11.9257 6.98509 12.1025 7.08507 12.1025 7.31998 12.1025 7.66094 12.2223 7.94026 12.2223 7.94026L11.8646 8.16994C11.8646 8.16994 11.8273 7.77229 11.73 7.54614 11.6812 7.43275 11.6052 7.37621 11.5415 7.34802L10.9856 8.16405 10.8611 8.07443 11.8195 6.66754z" clip-rule="evenodd"/></g><defs><clipPath id="AF_svg__a"><path fill="#fff" d="M0 0H20V15H0z"/></clipPath></defs></svg>