<svg xmlns="http://www.w3.org/2000/svg" fill="none" viewBox="0 0 20 15"><g clip-path="url(#AUS_svg__a)"><path fill="#fff" d="M0 0H20V15H0z"/><path fill="#2E42A5" fill-rule="evenodd" d="M0 0H20V15H0V0Z" clip-rule="evenodd"/><g clip-path="url(#AUS_svg__b)"><path fill="#2E42A5" d="M0 0H11V9H0z"/><path fill="#F7FCFF" d="M-1.25267 8.12488L1.22293 9.21063L11.3062 1.18046L12.612 -0.432999L9.9647 -0.795888L5.85199 2.66454L2.54167 4.99607L-1.25267 8.12488Z"/><path fill="#F50100" d="M-0.913754 8.88561L0.347447 9.51569L12.1431 -0.582886H10.3722L-0.913754 8.88561Z"/><path fill="#F7FCFF" d="M12.5027 8.12487L10.3056 9.52057L-0.0561752 1.18044L-1.36199 -0.433015L1.2853 -0.795905L5.39801 2.66453L8.70833 4.99605L12.5027 8.12487Z"/><path fill="#F50100" d="M12.4182 8.67082L11.157 9.3009L6.13429 4.97718L4.64517 4.4941L-1.48764 -0.427482H0.283231L6.4126 4.37728L8.04069 4.95655L12.4182 8.67082Z"/><path fill="#F50100" fill-rule="evenodd" d="M6 0H5V4H0V5H5V9H6V5H11V4H6V0Z" clip-rule="evenodd"/><path fill="#F7FCFF" fill-rule="evenodd" d="M4.0625 0H6.9375V3.0625L11 3V5.875L6.9375 5.9375V9H4.0625V5.9375L0 5.875V3L4.0625 3.0625V0ZM5 4H0V5H5V9H6V5H11V4H6V0H5V4Z" clip-rule="evenodd"/></g><g fill="#F7FCFF" clip-path="url(#AUS_svg__c)"><path d="M5.92 12.2784 5.09996 13.0362 5.18117 11.9226 4.07739 11.7539 4.99869 11.1231 4.44234 10.155 5.50998 10.4819 5.92 9.44336 6.33002 10.4819 7.39766 10.155 6.84131 11.1231 7.76261 11.7539 6.65883 11.9226 6.74004 13.0362 5.92 12.2784zM13.24 8.29668 12.6933 8.8019 12.7474 8.05948 12.0116 7.94705 12.6258 7.52649 12.2549 6.88108 12.9667 7.09907 13.24 6.40668 13.5133 7.09907 14.2251 6.88108 13.8542 7.52649 14.4684 7.94705 13.7326 8.05948 13.7867 8.8019 13.24 8.29668zM14.52 2.9633 13.9733 3.46852 14.0274 2.7261 13.2916 2.61368 13.9058 2.19311 13.5349 1.54771 14.2467 1.76569 14.52 1.0733 14.7933 1.76569 15.5051 1.54771 15.1342 2.19311 15.7484 2.61368 15.0126 2.7261 15.0667 3.46852 14.52 2.9633zM17.72 5.62999 17.1733 6.13521 17.2274 5.39279 16.4916 5.28037 17.1058 4.8598 16.7349 4.21439 17.4467 4.43238 17.72 3.73999 17.9933 4.43238 18.7051 4.21439 18.3342 4.8598 18.9484 5.28037 18.2126 5.39279 18.2667 6.13521 17.72 5.62999zM15.16 13.2967 14.6133 13.8019 14.6674 13.0595 13.9316 12.9471 14.5458 12.5265 14.1749 11.8811 14.8867 12.0991 15.16 11.4067 15.4333 12.0991 16.1451 11.8811 15.7742 12.5265 16.3884 12.9471 15.6526 13.0595 15.7067 13.8019 15.16 13.2967zM17.4 9.13918 16.8445 9.4312 16.9506 8.81269 16.5013 8.37466 17.1223 8.28442 17.4 7.72168 17.6777 8.28442 18.2988 8.37466 17.8494 8.81269 17.9555 9.4312 17.4 9.13918z"/></g></g><defs><clipPath id="AUS_svg__a"><path fill="#fff" d="M0 0H20V15H0z"/></clipPath><clipPath id="AUS_svg__b"><path fill="#fff" d="M0 0H11V9H0z"/></clipPath><clipPath id="AUS_svg__c"><path fill="#fff" d="M0 0H15V13H0z" transform="translate(4 1)"/></clipPath></defs></svg>