<svg xmlns="http://www.w3.org/2000/svg" fill="none" viewBox="0 0 20 15"><g clip-path="url(#BIH_svg__a)"><path fill="#fff" d="M0 0H20V15H0z"/><path fill="#2E42A5" fill-rule="evenodd" d="M0 0H20.25V15H0V0Z" clip-rule="evenodd"/><path fill="#FECA00" fill-rule="evenodd" d="M6.25 0H19V15L6.25 0Z" clip-rule="evenodd"/><path fill="#F7FCFF" fill-rule="evenodd" d="M4.44251 1.74609 3.70778 2.13236 3.8481 1.31423 3.25369.734823 4.07515.615458 4.44251-.128906 4.80988.615458 5.63133.734823 5.03692 1.31423 5.17724 2.13236 4.44251 1.74609zM6.6217 4.4212 5.88697 4.80747 6.02729 3.98934 5.43288 3.40993 6.25433 3.29057 6.6217 2.5462 6.98906 3.29057 7.81052 3.40993 7.21611 3.98934 7.35643 4.80747 6.6217 4.4212zM8.66462 7.02399 7.92989 7.41026 8.07021 6.59212 7.4758 6.01272 8.29725 5.89335 8.66462 5.14899 9.03199 5.89335 9.85344 6.01272 9.25903 6.59212 9.39935 7.41026 8.66462 7.02399zM10.6658 9.51825 9.93111 9.90452 10.0714 9.08639 9.47702 8.50698 10.2985 8.38761 10.6658 7.64325 11.0332 8.38761 11.8547 8.50698 11.2603 9.08639 11.4006 9.90452 10.6658 9.51825zM12.8215 12.0854 12.0868 12.4717 12.2271 11.6536 11.6327 11.0742 12.4541 10.9548 12.8215 10.2104 13.1889 10.9548 14.0103 11.0742 13.4159 11.6536 13.5562 12.4717 12.8215 12.0854zM15.2043 14.5694 14.4695 14.9557 14.6099 14.1375 14.0155 13.5581 14.8369 13.4388 15.2043 12.6944 15.5716 13.4388 16.3931 13.5581 15.7987 14.1375 15.939 14.9557 15.2043 14.5694z" clip-rule="evenodd"/></g><defs><clipPath id="BIH_svg__a"><path fill="#fff" d="M0 0H20V15H0z"/></clipPath></defs></svg>