<svg xmlns="http://www.w3.org/2000/svg" fill="none" viewBox="0 0 20 15"><g clip-path="url(#BQ-SA_svg__a)"><path fill="#fff" d="M0 0H20V15H0z"/><path fill="#fff" fill-rule="evenodd" d="M0 0H20V15H0V0Z" clip-rule="evenodd"/><path fill="#F00000" fill-rule="evenodd" d="M0 7.29V0H10L0 7.29zM20 7.29V0H10L20 7.29z" clip-rule="evenodd"/><path fill="#00268D" fill-rule="evenodd" d="M0 7.29V15H10L0 7.29zM20 7.29002V15.21L10 15 20 7.29002z" clip-rule="evenodd"/><path fill="#FEDA00" fill-rule="evenodd" d="M9.82124 8.91017L7.62283 10.4771L8.42954 7.88876L6.25 6.30437H8.96536L9.82124 3.75L10.7284 6.30437H13.3699L11.2093 7.88876L12.0305 10.4771L9.82124 8.91017Z" clip-rule="evenodd"/></g><defs><clipPath id="BQ-SA_svg__a"><path fill="#fff" d="M0 0H20V15H0z"/></clipPath></defs></svg>