<svg xmlns="http://www.w3.org/2000/svg" fill="none" viewBox="0 0 20 15"><g clip-path="url(#CAF_svg__a)"><path fill="#fff" d="M0 0H20V15H0z"/><path fill="#3D58DB" fill-rule="evenodd" d="M0 0H20V3.75H0V0Z" clip-rule="evenodd"/><path fill="#F7FCFF" fill-rule="evenodd" d="M0 3.75H20V7.5H0V3.75Z" clip-rule="evenodd"/><path fill="#73BE4A" fill-rule="evenodd" d="M0 7.5H20V11.25H0V7.5Z" clip-rule="evenodd"/><path fill="#FFD018" fill-rule="evenodd" d="M0 11.25H20V15H0V11.25Z" clip-rule="evenodd"/><path fill="#FECA00" fill-rule="evenodd" d="M2.83091 3.38504L1.31557 4.43611L1.79978 2.63588L0.687363 1.48589L2.19363 1.42371L2.83091 -0.356445L3.46818 1.42371H4.97189L3.86204 2.63588L4.41787 4.32985L2.83091 3.38504Z" clip-rule="evenodd"/><path fill="#E11C1B" fill-rule="evenodd" d="M8 0H12V15H8V0Z" clip-rule="evenodd"/></g><defs><clipPath id="CAF_svg__a"><path fill="#fff" d="M0 0H20V15H0z"/></clipPath></defs></svg>