<svg xmlns="http://www.w3.org/2000/svg" fill="none" viewBox="0 0 20 15"><g clip-path="url(#CW_svg__a)"><path fill="#fff" d="M0 0H20V15H0z"/><path fill="#2E42A5" fill-rule="evenodd" d="M0 0V15H20V0H0Z" clip-rule="evenodd"/><mask id="CW_svg__b" width="20" height="15" x="0" y="0" maskUnits="userSpaceOnUse" style="mask-type:luminance"><path fill="#fff" fill-rule="evenodd" d="M0 0V15H20V0H0Z" clip-rule="evenodd"/></mask><g fill-rule="evenodd" clip-rule="evenodd" mask="url(#CW_svg__b)"><path fill="#F7FCFF" d="M2.65901 3.84327 1.41599 4.49932 2.01615 3.33158 1.25 2.47697 2.20209 2.44183 2.65901 1.25 3.00771 2.44183 4.12186 2.47697 3.31967 3.33158 3.82857 4.49932 2.65901 3.84327zM7.09516 6.92283 5.56102 7.56547 6.16288 5.95508 4.82903 4.87453H6.42734L7.09516 3.1326 7.6048 4.87453H9.20558L8.06806 5.95508 8.63289 7.56547 7.09516 6.92283z"/><path fill="#F9E813" d="M0 8.75V11.25H20V8.75H0Z"/></g></g><defs><clipPath id="CW_svg__a"><path fill="#fff" d="M0 0H20V15H0z"/></clipPath></defs></svg>