<svg xmlns="http://www.w3.org/2000/svg" fill="none" viewBox="0 0 20 15"><g clip-path="url(#DM_svg__a)"><path fill="#fff" d="M0 0H20V15H0z"/><path fill="#279E19" fill-rule="evenodd" d="M0 0V15H20V0H0Z" clip-rule="evenodd"/><mask id="DM_svg__b" width="20" height="15" x="0" y="0" maskUnits="userSpaceOnUse" style="mask-type:luminance"><path fill="#fff" fill-rule="evenodd" d="M0 0V15H20V0H0Z" clip-rule="evenodd"/></mask><g fill-rule="evenodd" clip-rule="evenodd" mask="url(#DM_svg__b)"><path fill="#F7FCFF" d="M10 0H11.25V8.75H20V10H11.25V15H10V10H0V8.75H10V0Z"/><path fill="#272727" d="M8.75 0H10V7.5H20V8.75H10V15H8.75V8.75H0V7.5H8.75V0Z"/><path fill="#FECA00" d="M7.5 0H8.75V6.25H20V7.5H8.75V15H7.5V7.5H0V6.25H7.5V0Z"/><path fill="#C51918" d="M10 12.5C12.7614 12.5 15 10.2614 15 7.5C15 4.73858 12.7614 2.5 10 2.5C7.23858 2.5 5 4.73858 5 7.5C5 10.2614 7.23858 12.5 10 12.5Z"/><path fill="#804BFF" d="M9.2037 5.25809C9.2037 5.25809 9.44116 4.48751 9.9928 4.8856C10.8578 5.31167 11.1432 5.80115 11.4771 6.35547C11.8111 6.90979 10.6583 6.50382 10.4433 6.19183C10.2282 5.87985 9.0353 5.77869 9.2037 5.51839C9.3721 5.25809 9.2037 5.25809 9.2037 5.25809Z"/><path fill="#A95601" d="M9.00818 9.2034C9.00818 9.2034 8.42088 10.0068 9.00818 10.0068C9.59549 10.0068 11.9766 9.83398 11.6912 9.60512C11.4058 9.37625 9.29039 9.60512 9.29039 9.60512L9.00818 9.2034Z"/><path fill="#804BFF" d="M9.88627 9.17811C9.82537 9.10941 8.75527 6.68115 9.25281 6.17646C9.75035 5.67177 10.0419 5.96833 10.0419 6.72511C10.0419 7.48188 10.0718 9.3651 9.88627 9.17811Z"/><path fill="#279E19" d="M9.82331 8.78404C9.82331 8.78404 9.76155 9.37428 10.0651 10.0633C10.3686 10.7524 10.9818 10.7391 10.9818 10.1751C10.9818 9.61115 11.4292 10.1404 11.601 10.5168C11.7728 10.8932 11.3279 7.17449 10.6965 6.34254C10.0651 5.51058 9.45588 5.45717 9.63959 5.99479C9.82331 6.53241 9.82331 8.78404 9.82331 8.78404Z"/><path fill="#FECA00" d="M9.45457 4.75C9.45457 4.75 9.18747 4.92128 9.18747 5.39303 9.18747 5.86479 9.81987 5.24697 9.81987 5.24697L9.45457 4.75zM9.51143 4.57095 10.0625 4.28125 10.6135 4.57095 10.5083 3.95735 10.9541 3.5228 10.338 3.43327 10.0625 2.875 9.78696 3.43327 9.17087 3.5228 9.61668 3.95735 9.51143 4.57095zM9.51143 11.9459 10.0625 11.6562 10.6135 11.9459 10.5083 11.3323 10.9541 10.8978 10.338 10.8083 10.0625 10.25 9.78696 10.8083 9.17087 10.8978 9.61668 11.3323 9.51143 11.9459zM13.5625 8.15624 13.0114 8.44594 13.1167 7.83234 12.6709 7.39779 13.2869 7.30826 13.5625 6.74999 13.838 7.30826 14.4541 7.39779 14.0083 7.83234 14.1135 8.44594 13.5625 8.15624zM5.99172 7.83234 5.88648 8.44594 6.43753 8.15624 6.98858 8.44594 6.88334 7.83234 7.32914 7.39779 6.71305 7.30826 6.43753 6.74999 6.162 7.30826 5.54591 7.39779 5.99172 7.83234zM7.79243 5.43874 7.61803 6.03638 7.24975 5.53443 6.62748 5.55325 6.99105 5.04788 6.78086 4.46188 7.37384 4.65149 7.86621 4.2705 7.86912 4.89305 8.38362 5.24359 7.79243 5.43874zM12.9232 10.9125 13.0976 10.3149 13.6887 10.1197 13.1742 9.7692 13.1713 9.14664 12.679 9.52764 12.086 9.33802 12.2962 9.92403 11.9326 10.4294 12.5549 10.4106 12.9232 10.9125zM13.0112 5.3659 12.8368 5.96354 12.4685 5.46159 11.8462 5.48041 12.2098 4.97504 11.9996 4.38904 12.5926 4.57865 13.0849 4.19766 13.0878 4.82021 13.6023 5.17075 13.0112 5.3659zM7.76344 11.0888 7.93784 10.4912 8.52902 10.296 8.01453 9.94547 8.01162 9.32291 7.51925 9.7039 6.92627 9.51429 7.13646 10.1003 6.77288 10.6057 7.39516 10.5868 7.76344 11.0888z"/></g></g><defs><clipPath id="DM_svg__a"><path fill="#fff" d="M0 0H20V15H0z"/></clipPath></defs></svg>