<svg xmlns="http://www.w3.org/2000/svg" fill="none" viewBox="0 0 20 15"><g clip-path="url(#DOM_svg__a)"><path fill="#fff" d="M0 0H20V15H0z"/><path fill="#C51918" fill-rule="evenodd" d="M0 0V15H20V0H0Z" clip-rule="evenodd"/><mask id="DOM_svg__b" width="20" height="15" x="0" y="0" maskUnits="userSpaceOnUse" style="mask-type:luminance"><path fill="#fff" fill-rule="evenodd" d="M0 0V15H20V0H0Z" clip-rule="evenodd"/></mask><g mask="url(#DOM_svg__b)"><path fill="#F7FCFF" fill-rule="evenodd" d="M8.75 0H11.25V6.25H20V8.75H11.25V15H8.75V8.75H0V6.25H8.75V0Z" clip-rule="evenodd"/><path fill="#4257BF" d="M0 0H8.75V6.25H0z"/><path fill="#4257BF" d="M11.25 8.75H20V15H11.25z"/><path fill="#309404" d="M8.52307 6.94421 9.14523 7.00376C9.03874 8.11634 9.17713 8.58513 9.40199 8.58513V9.21013C8.62425 9.21013 8.38407 8.39649 8.52307 6.94421zM11.5167 6.94421 10.8945 7.00376C11.001 8.11634 10.8626 8.58513 10.6377 8.58513V9.21013C11.4155 9.21013 11.6557 8.39649 11.5167 6.94421z"/><path fill="#003994" d="M9.205 6.683H9.796V7.606H9.205z"/><path fill="#003994" d="M10.1136 7.77884H10.7045V8.24737C10.7045 8.49841 10.501 8.70192 10.25 8.70192H10.1136V7.77884Z"/><path fill="#DE2110" d="M10.068 6.625H10.658999999999999V7.548H10.068z"/><path fill="#DE2110" d="M9.20455 7.77884H9.79546V8.70192H9.65909C9.40805 8.70192 9.20455 8.49841 9.20455 8.24737V7.77884Z"/><path fill="#00319C" d="M8.95902 6.63085L8.54098 6.16624C8.98244 5.76902 9.44254 5.5625 9.91639 5.5625C10.3902 5.5625 10.8503 5.76902 11.2918 6.16624L10.8738 6.63085C10.5394 6.33001 10.2219 6.1875 9.91639 6.1875C9.61087 6.1875 9.29337 6.33001 8.95902 6.63085Z"/><path fill="#DE2110" d="M9.00448 9.74624L8.58643 9.28163C9.0279 8.88441 9.488 8.67789 9.96184 8.67789C10.4357 8.67789 10.8958 8.88441 11.3373 9.28163L10.9192 9.74624C10.5849 9.4454 10.2674 9.30289 9.96184 9.30289C9.65633 9.30289 9.33883 9.4454 9.00448 9.74624Z"/></g></g><defs><clipPath id="DOM_svg__a"><path fill="#fff" d="M0 0H20V15H0z"/></clipPath></defs></svg>