<svg xmlns="http://www.w3.org/2000/svg" fill="none" viewBox="0 0 20 15"><g clip-path="url(#EH_svg__a)"><path fill="#fff" d="M0 0H20V15H0z"/><path fill="#F7FCFF" fill-rule="evenodd" d="M0 0H20V15H0V0Z" clip-rule="evenodd"/><path fill="#272727" fill-rule="evenodd" d="M0 0V5H20V0H0Z" clip-rule="evenodd"/><path fill="#5EAA22" fill-rule="evenodd" d="M0 10V15H20V10H0Z" clip-rule="evenodd"/><path fill="#E31D1C" fill-rule="evenodd" d="M0 0 10 7.5 0 15V0zM13.555 9.67319C13.555 9.67319 12.1332 8.81396 12.1332 7.39408 12.1332 5.9742 13.555 5.22723 13.555 5.22723 12.9186 4.82347 10.712 5.39971 10.712 7.44034 10.712 9.48097 12.8979 9.85799 13.555 9.67319zM14.7053 7.07034 13.8779 6.29507 14.1636 7.28484 13.3629 7.66413 14.3464 7.98424 14.7735 9.05564 14.9602 8.06386 15.9316 8.27837 15.1966 7.5606 15.4453 6.79479 14.7053 7.07034z" clip-rule="evenodd"/></g><defs><clipPath id="EH_svg__a"><path fill="#fff" d="M0 0H20V15H0z"/></clipPath></defs></svg>