<svg xmlns="http://www.w3.org/2000/svg" fill="none" viewBox="0 0 20 15"><g clip-path="url(#ET_svg__a)"><path fill="#fff" d="M0 0H20V15H0z"/><path fill="#FECA00" fill-rule="evenodd" d="M0 0V15H20V0H0Z" clip-rule="evenodd"/><mask id="ET_svg__b" width="20" height="15" x="0" y="0" maskUnits="userSpaceOnUse" style="mask-type:luminance"><path fill="#fff" fill-rule="evenodd" d="M0 0V15H20V0H0Z" clip-rule="evenodd"/></mask><g mask="url(#ET_svg__b)"><path fill="#5EAA22" fill-rule="evenodd" d="M0 0V5H20V0H0Z" clip-rule="evenodd"/><path fill="#E31D1C" fill-rule="evenodd" d="M0 10V15H20V10H0Z" clip-rule="evenodd"/><path fill="#2B77B8" fill-rule="evenodd" d="M10 11.25C12.0711 11.25 13.75 9.57107 13.75 7.5C13.75 5.42893 12.0711 3.75 10 3.75C7.92893 3.75 6.25 5.42893 6.25 7.5C6.25 9.57107 7.92893 11.25 10 11.25Z" clip-rule="evenodd"/><path stroke="#FECA00" stroke-width=".938" d="M10 8.75L8.27373 9.32908L8.81118 7.88627L7.64027 6.48873H9.26527L10 5L10.7347 6.48873H12.3956L11.1888 7.88627L11.6172 9.32908L10 8.75Z" clip-rule="evenodd"/><path stroke="#2B77B8" stroke-width=".625" d="M9.81007 7.52155 8.50716 10.2466M9.60506 7.17465H7.10506M10.0759 8.0235 12.5191 9.15109M10.6042 7.42107 12.3727 5.48532"/></g></g><defs><clipPath id="ET_svg__a"><path fill="#fff" d="M0 0H20V15H0z"/></clipPath></defs></svg>