<svg xmlns="http://www.w3.org/2000/svg" fill="none" viewBox="0 0 20 15"><g clip-path="url(#FLK_svg__a)"><path fill="#fff" d="M0 0H20V15H0z"/><path fill="#2E42A5" fill-rule="evenodd" d="M0 0V15H20V0H0Z" clip-rule="evenodd"/><g clip-path="url(#FLK_svg__b)"><path fill="#2E42A5" d="M0 0H11V9H0z"/><path fill="#F7FCFF" d="M-1.25267 8.12488L1.22293 9.21063L11.3062 1.18046L12.612 -0.432999L9.9647 -0.795888L5.85199 2.66454L2.54167 4.99607L-1.25267 8.12488Z"/><path fill="#F50100" d="M-0.913754 8.88561L0.347447 9.51569L12.1431 -0.582886H10.3722L-0.913754 8.88561Z"/><path fill="#F7FCFF" d="M12.5027 8.1249L10.3056 9.5206L-0.0561752 1.18047L-1.36199 -0.432984L1.2853 -0.795875L5.39801 2.66456L8.70833 4.99608L12.5027 8.1249Z"/><path fill="#F50100" d="M12.4182 8.67082L11.157 9.3009L6.13429 4.97718L4.64517 4.4941L-1.48764 -0.427482H0.283229L6.41259 4.37728L8.04069 4.95655L12.4182 8.67082Z"/><path fill="#F50100" fill-rule="evenodd" d="M6 0H5V4H0V5H5V9H6V5H11V4H6V0Z" clip-rule="evenodd"/><path fill="#F7FCFF" fill-rule="evenodd" d="M4.0625 0H6.9375V3.0625L11 3V5.875L6.9375 5.9375V9H4.0625V5.9375L0 5.875V3L4.0625 3.0625V0ZM5 4H0V5H5V9H6V5H11V4H6V0H5V4Z" clip-rule="evenodd"/></g><path stroke="#B85F3C" stroke-width=".625" d="M14.352 11.4961C14.352 11.4961 14.967 12.0851 14.5957 12.4842 14.2243 12.8833 13.8838 12.6515 13.8838 12.6515M18.1562 11.4961C18.1562 11.4961 17.5412 12.0851 17.9125 12.4842 18.2839 12.8833 18.6244 12.6515 18.6244 12.6515"/><path stroke="#CB8B73" stroke-width=".625" d="M13.9504 11.9707C13.9504 11.9707 15.0099 12.9832 16.3124 12.9832C17.6149 12.9832 18.663 12.2097 18.663 12.2097"/></g><defs><clipPath id="FLK_svg__a"><path fill="#fff" d="M0 0H20V15H0z"/></clipPath><clipPath id="FLK_svg__b"><path fill="#fff" d="M0 0H11V9H0z"/></clipPath></defs></svg>