<svg xmlns="http://www.w3.org/2000/svg" fill="none" viewBox="0 0 20 15"><g clip-path="url(#GQ_svg__a)"><path fill="#fff" d="M0 0H20V15H0z"/><path fill="#F7FCFF" fill-rule="evenodd" d="M0 0V15.36H20.48V0H0Z" clip-rule="evenodd"/><mask id="GQ_svg__b" width="21" height="16" x="0" y="0" maskUnits="userSpaceOnUse" style="mask-type:luminance"><path fill="#fff" fill-rule="evenodd" d="M0 0V15.36H20.48V0H0Z" clip-rule="evenodd"/></mask><g fill-rule="evenodd" clip-rule="evenodd" mask="url(#GQ_svg__b)"><path fill="#009D00" d="M0 0V5.12H20.48V0H0Z"/><path fill="#fff" d="M0 5.12V10.24H20.48V5.12H0Z"/><path fill="#F80000" d="M0 10.24V15.36H20.48V10.24H0Z"/></g><path fill="#0075D5" fill-rule="evenodd" d="M0 0V15.36L5.12 7.77725L0 0Z" clip-rule="evenodd"/><mask width="6" height="16" x="0" y="0" maskUnits="userSpaceOnUse" style="mask-type:luminance"><path fill="#fff" fill-rule="evenodd" d="M0 0V15.36L5.12 7.77725L0 0Z" clip-rule="evenodd"/></mask><path fill="#FFD500" stroke="#000" stroke-width=".04" d="M9.32582 5.68896 9.31557 5.69128 9.30784 5.68415 9.18152 5.56745 9.16573 5.7387 9.16477 5.74917 9.15559 5.75431 9.00557 5.83839 9.16356 5.90632 9.17322 5.91048 9.17527 5.92079 9.20888 6.08945 9.32231 5.96018 9.32924 5.95228 9.33969 5.95351 9.51048 5.97368 9.42259 5.82585 9.41722 5.81681 9.42162 5.80726 9.49357 5.65106 9.32582 5.68896zM9.96582 5.68896 9.95557 5.69128 9.94784 5.68415 9.82152 5.56745 9.80573 5.7387 9.80477 5.74917 9.79559 5.75431 9.64557 5.83839 9.80356 5.90632 9.81322 5.91048 9.81527 5.92079 9.84888 6.08945 9.96231 5.96018 9.96924 5.95228 9.97969 5.95351 10.1505 5.97368 10.0626 5.82585 10.0572 5.81681 10.0616 5.80726 10.1336 5.65106 9.96582 5.68896zM10.6058 5.68896 10.5956 5.69128 10.5878 5.68415 10.4615 5.56745 10.4457 5.7387 10.4448 5.74917 10.4356 5.75431 10.2856 5.83839 10.4436 5.90632 10.4532 5.91048 10.4553 5.92079 10.4889 6.08945 10.6023 5.96018 10.6092 5.95228 10.6197 5.95351 10.7905 5.97368 10.7026 5.82585 10.6972 5.81681 10.7016 5.80726 10.7736 5.65106 10.6058 5.68896zM11.2458 5.68896 11.2356 5.69128 11.2278 5.68415 11.1015 5.56745 11.0857 5.7387 11.0848 5.74917 11.0756 5.75431 10.9256 5.83839 11.0836 5.90632 11.0932 5.91048 11.0953 5.92079 11.1289 6.08945 11.2423 5.96018 11.2492 5.95228 11.2597 5.95351 11.4305 5.97368 11.3426 5.82585 11.3372 5.81681 11.3416 5.80726 11.4136 5.65106 11.2458 5.68896zM11.8858 5.68896 11.8756 5.69128 11.8678 5.68415 11.7415 5.56745 11.7257 5.7387 11.7248 5.74917 11.7156 5.75431 11.5656 5.83839 11.7236 5.90632 11.7332 5.91048 11.7353 5.92079 11.7689 6.08945 11.8823 5.96018 11.8892 5.95228 11.8997 5.95351 12.0705 5.97368 11.9826 5.82585 11.9772 5.81681 11.9816 5.80726 12.0536 5.65106 11.8858 5.68896zM12.5258 5.68896 12.5156 5.69128 12.5078 5.68415 12.3815 5.56745 12.3657 5.7387 12.3648 5.74917 12.3556 5.75431 12.2056 5.83839 12.3636 5.90632 12.3732 5.91048 12.3753 5.92079 12.4089 6.08945 12.5223 5.96018 12.5292 5.95228 12.5397 5.95351 12.7105 5.97368 12.6226 5.82585 12.6172 5.81681 12.6216 5.80726 12.6936 5.65106 12.5258 5.68896z"/><path stroke="#373737" stroke-width=".08" d="M9.64 6.43999H12.12V8.31999C12.12 9.00483 11.5648 9.55999 10.88 9.55999C10.1952 9.55999 9.64 9.00483 9.64 8.31999V6.43999Z"/><path fill="#6F3E1D" fill-rule="evenodd" d="M10.7049 7.65428C10.7049 7.65428 10.5758 9.16806 10.4469 9.2598C10.318 9.35154 11.0645 9.39735 11.1358 9.32858C11.2071 9.2598 10.8103 8.02626 10.9468 7.65428C11.0833 7.2823 11.3032 7.25216 11.3032 7.25216C11.3032 7.25216 11.026 7.19357 10.9468 7.30519C10.8676 7.41681 10.6314 7.25216 10.6314 7.25216L10.7049 7.65428Z" clip-rule="evenodd"/><path fill="#009D29" fill-rule="evenodd" d="M10.6767 7.56875H10.5773C10.5773 7.56875 10.5101 7.83162 10.3558 7.70018C10.2016 7.56875 9.984 7.61508 9.984 7.61508C9.984 7.61508 10.0035 7.45777 10.2403 7.39524C10.4771 7.3327 10.5773 6.82491 10.5773 6.82491C10.5773 6.82491 10.9125 6.70016 11.1163 6.9558C11.3202 7.21143 11.6074 7.10237 11.6074 7.10237C11.6074 7.10237 11.8173 7.22173 11.7124 7.39524C11.6074 7.56875 11.4284 7.69568 11.2724 7.56875C11.1163 7.44182 10.6767 7.56875 10.6767 7.56875Z" clip-rule="evenodd"/></g><defs><clipPath id="GQ_svg__a"><path fill="#fff" d="M0 0H20V15H0z"/></clipPath></defs></svg>