<svg xmlns="http://www.w3.org/2000/svg" fill="none" viewBox="0 0 20 15"><g clip-path="url(#HND_svg__a)"><path fill="#fff" d="M0 0H20V15H0z"/><path fill="#F7FCFF" fill-rule="evenodd" d="M0 0V15H20V0H0Z" clip-rule="evenodd"/><mask id="HND_svg__b" width="20" height="15" x="0" y="0" maskUnits="userSpaceOnUse" style="mask-type:luminance"><path fill="#fff" fill-rule="evenodd" d="M0 0V15H20V0H0Z" clip-rule="evenodd"/></mask><g fill="#00bce4" fill-rule="evenodd" clip-rule="evenodd" mask="url(#HND_svg__b)"><path d="M0 0V5H20V0H0zM0 10V15H20V10H0zM10.5113 8.20744 9.77657 8.59371 9.91689 7.77558 9.32248 7.13649H10.1439L10.5113 6.33244 10.8787 7.13649H11.7001L11.1057 7.77558 11.246 8.59371 10.5113 8.20744zM6.7613 6.95744 6.02657 7.34371 6.16689 6.52558 5.57248 5.88649H6.39393L6.7613 5.08244 7.12866 5.88649H7.95012L7.35571 6.52558 7.49603 7.34371 6.7613 6.95744zM6.7613 9.45744 6.02657 9.84371 6.16689 9.02558 5.57248 8.38649H6.39393L6.7613 7.58244 7.12866 8.38649H7.95012L7.35571 9.02558 7.49603 9.84371 6.7613 9.45744zM14.2613 6.95744 13.5266 7.34371 13.6669 6.52558 13.0725 5.88649H13.8939L14.2613 5.08244 14.6287 5.88649H15.4501L14.8557 6.52558 14.996 7.34371 14.2613 6.95744zM14.2613 9.45744 13.5266 9.84371 13.6669 9.02558 13.0725 8.38649H13.8939L14.2613 7.58244 14.6287 8.38649H15.4501L14.8557 9.02558 14.996 9.84371 14.2613 9.45744z"/></g></g><defs><clipPath id="HND_svg__a"><path fill="#fff" d="M0 0H20V15H0z"/></clipPath></defs></svg>