<svg xmlns="http://www.w3.org/2000/svg" fill="none" viewBox="0 0 20 15"><g clip-path="url(#ISR_svg__a)"><path fill="#fff" d="M0 0H20V15H0z"/><path fill="#F7FCFF" fill-rule="evenodd" d="M0 0V15H20V0H0Z" clip-rule="evenodd"/><mask id="ISR_svg__b" width="20" height="15" x="0" y="0" maskUnits="userSpaceOnUse" style="mask-type:luminance"><path fill="#fff" fill-rule="evenodd" d="M0 0V15H20V0H0Z" clip-rule="evenodd"/></mask><g fill="#3D58DB" fill-rule="evenodd" clip-rule="evenodd" mask="url(#ISR_svg__b)"><path d="M0 2.5V4.72843H20V2.5H0zM0 10.2175V12.5H20V10.2175H0z"/><path d="M7.11325 9.33673H12.9739L10.0724 4.32393L7.11325 9.33673ZM11.7816 8.64923H8.31746L10.0666 5.68623L11.7816 8.64923Z"/><path d="M6.93222 5.57834H12.9255L10.0849 10.6069L6.93222 5.57834ZM11.7475 6.26584H8.1747L10.0541 9.26354L11.7475 6.26584Z"/></g></g><defs><clipPath id="ISR_svg__a"><path fill="#fff" d="M0 0H20V15H0z"/></clipPath></defs></svg>