<svg xmlns="http://www.w3.org/2000/svg" fill="none" viewBox="0 0 20 15"><g clip-path="url(#JEY_svg__a)"><path fill="#fff" d="M0 0H20V15H0z"/><path fill="#F7FCFF" fill-rule="evenodd" d="M0 0H20V15H0V0Z" clip-rule="evenodd"/><path fill="#F7FCFF" stroke="#E31D1C" stroke-width="1.688" d="M-1.68841 0.777984L-2.96875 0.00379562V1.5V14V15.4962L-1.68841 14.722L8.6477 8.47202L9.84175 7.75L8.6477 7.02798L-1.68841 0.777984Z"/><path fill="#F7FCFF" stroke="#E31D1C" stroke-width="1.688" d="M21.8256 0.77037L23.093 0.0342646V1.5V14V15.4657L21.8256 14.7296L11.0638 8.47963L9.80745 7.75L11.0638 7.02037L21.8256 0.77037Z"/><path fill="#E31D1C" fill-rule="evenodd" d="M8.5467 2.93938C8.5467 2.93938 8.01005 5.31332 9.86301 6.22508C9.86301 6.22508 11.6419 5.2555 11.2423 2.93938C11.2423 2.93938 10.4784 2.68382 9.8709 2.68382C9.26343 2.68382 8.5467 2.93938 8.5467 2.93938Z" clip-rule="evenodd"/><path fill="#FFD100" fill-rule="evenodd" d="M8.73903 3.43659C8.73903 3.43659 8.93721 3.34886 9.03531 3.43659 9.13341 3.52433 9.21379 3.42932 9.21379 3.3764 9.21379 3.32347 9.36956 3.14179 9.36956 3.28919 9.36956 3.43659 9.32107 3.51982 9.45799 3.51982 9.59491 3.51982 10.2115 3.31621 10.3593 3.3764 10.5071 3.43659 10.6203 3.42162 10.5827 3.33525 10.5451 3.24889 10.4485 3.1949 10.2625 3.24205 10.0765 3.28919 10.1204 3.33525 9.95968 3.33525 9.79893 3.33525 9.62002 3.28919 9.62002 3.28919 9.62002 3.28919 9.67028 3.21174 9.8538 3.26683 10.0373 3.32193 10.2905 3.1986 10.3593 3.1986 10.4281 3.1986 10.6176 3.1949 10.6364 3.24205 10.6552 3.28919 10.7696 3.33245 10.6824 3.3764 10.5952 3.42035 10.4514 3.44788 10.5503 3.50419 10.6493 3.56049 10.8768 3.54964 10.8877 3.60821 10.8987 3.66679 11.0065 3.75425 10.9633 3.75425 10.92 3.75425 10.8418 3.83674 10.7689 3.81162 10.6961 3.78651 10.6875 3.76445 10.7574 3.74411 10.8272 3.72376 10.8265 3.63819 10.7689 3.63819 10.7113 3.63819 10.7394 3.66817 10.6083 3.63819 10.4771 3.60821 10.3036 3.57489 10.314 3.63819 10.3244 3.7015 10.4098 3.79867 10.2523 3.81162 10.0948 3.82457 10.021 3.87657 9.99035 3.8347 9.95968 3.79282 9.85008 3.73703 9.93627 3.71914 10.0224 3.70125 10.1048 3.77995 10.1358 3.7671 10.1669 3.75425 10.2372 3.7471 10.1783 3.69264 10.1194 3.63819 10.0222 3.60614 10.1123 3.56538 10.2024 3.52462 10.1313 3.52378 9.95968 3.60821 9.78807 3.69264 9.69262 3.7644 9.54196 3.75425 9.3913 3.74411 9.33487 3.75779 9.28644 3.74411 9.23802 3.73042 9.00218 3.89532 8.93426 3.85347 8.86635 3.81162 8.6471 3.79557 8.68657 3.74411 8.72604 3.69264 8.77903 3.66615 8.83805 3.69264 8.89707 3.71914 8.95571 3.74563 8.99551 3.71914 9.03531 3.69264 9.15025 3.60173 9.12134 3.58356 9.09243 3.56538 9.12039 3.50419 8.9567 3.50419 8.79301 3.50419 8.73546 3.57238 8.6966 3.52941 8.65774 3.48645 8.73903 3.43659 8.73903 3.43659zM8.90259 4.21665C8.90259 4.21665 9.07682 4.13952 9.16307 4.21665 9.24932 4.29378 9.31998 4.21026 9.31998 4.16373 9.31998 4.1172 9.45693 3.95747 9.45693 4.08706 9.45693 4.21665 9.4143 4.28982 9.53467 4.28982 9.65505 4.28982 10.1971 4.11081 10.3271 4.16373 10.4571 4.21665 10.5565 4.20349 10.5235 4.12756 10.4904 4.05162 10.4055 4.00417 10.242 4.04561 10.0785 4.08706 10.1171 4.12756 9.97575 4.12756 9.83442 4.12756 9.67713 4.08706 9.67713 4.08706 9.67713 4.08706 9.72132 4.01896 9.88266 4.0674 10.044 4.11584 10.2665 4.00741 10.3271 4.00741 10.3876 4.00741 10.5542 4.00417 10.5707 4.04561 10.5872 4.08706 10.6878 4.12509 10.6111 4.16373 10.5344 4.20237 10.408 4.22657 10.495 4.27607 10.582 4.32558 10.782 4.31604 10.7917 4.36753 10.8013 4.41903 10.8961 4.49592 10.858 4.49592 10.82 4.49592 10.7512 4.56844 10.6872 4.54636 10.6232 4.52428 10.6156 4.50489 10.677 4.487 10.7384 4.46911 10.7378 4.39389 10.6872 4.39389 10.6366 4.39389 10.6613 4.42024 10.546 4.39389 10.4307 4.36753 10.2781 4.33823 10.2873 4.39389 10.2964 4.44954 10.3715 4.53497 10.233 4.54636 10.0945 4.55775 10.0297 4.60346 10.0027 4.56665 9.97575 4.52983 9.87939 4.48078 9.95516 4.46505 10.0309 4.44932 10.1033 4.51852 10.1306 4.50722 10.1579 4.49592 10.2198 4.48963 10.168 4.44176 10.1162 4.39389 10.0307 4.3657 10.1099 4.32987 10.1891 4.29404 10.1266 4.2933 9.97575 4.36753 9.82487 4.44176 9.74095 4.50484 9.6085 4.49592 9.47604 4.487 9.42643 4.49903 9.38386 4.487 9.34129 4.47497 9.13394 4.61995 9.07423 4.58315 9.01453 4.54636 8.82177 4.53224 8.85647 4.487 8.89117 4.44176 8.93776 4.41847 8.98965 4.44176 9.04153 4.46505 9.09309 4.48835 9.12808 4.46505 9.16307 4.44176 9.26412 4.36183 9.2387 4.34585 9.21329 4.32987 9.23787 4.27607 9.09396 4.27607 8.95005 4.27607 8.89945 4.33603 8.86529 4.29825 8.83113 4.26048 8.90259 4.21665 8.90259 4.21665zM9.13391 5.00843C9.13391 5.00843 9.26603 4.94994 9.33143 5.00843 9.39683 5.06692 9.45042 5.00359 9.45042 4.9683 9.45042 4.93302 9.55426 4.81189 9.55426 4.91016 9.55426 5.00843 9.52194 5.06392 9.61322 5.06392 9.7045 5.06392 10.1155 4.92817 10.2141 4.9683 10.3127 5.00843 10.3881 4.99845 10.363 4.94087 10.338 4.88329 10.2736 4.84731 10.1496 4.87873 10.0256 4.91016 10.0548 4.94087 9.94768 4.94087 9.84051 4.94087 9.72124 4.91016 9.72124 4.91016 9.72124 4.91016 9.75475 4.85853 9.87709 4.89526 9.99944 4.93199 10.1682 4.84977 10.2141 4.84977 10.26 4.84977 10.3863 4.84731 10.3988 4.87873 10.4113 4.91016 10.4876 4.939 10.4295 4.9683 10.3713 4.9976 10.2755 5.01595 10.3414 5.05349 10.4074 5.09103 10.5591 5.0838 10.5664 5.12285 10.5737 5.16189 10.6456 5.2202 10.6167 5.2202 10.5879 5.2202 10.5357 5.27519 10.4872 5.25845 10.4386 5.24171 10.4329 5.227 10.4795 5.21344 10.526 5.19987 10.5256 5.14283 10.4872 5.14283 10.4488 5.14283 10.4675 5.16282 10.3801 5.14283 10.2927 5.12285 10.1769 5.10063 10.1839 5.14283 10.1909 5.18503 10.2478 5.24982 10.1428 5.25845 10.0377 5.26708 9.98857 5.30175 9.96812 5.27383 9.94768 5.24592 9.87461 5.20872 9.93207 5.1968 9.98952 5.18487 10.0444 5.23734 10.0651 5.22877 10.0858 5.2202 10.1327 5.21543 10.0934 5.17913 10.0542 5.14283 9.98938 5.12146 10.0494 5.09429 10.1095 5.06712 10.0621 5.06656 9.94768 5.12285 9.83327 5.17913 9.76964 5.22697 9.6692 5.2202 9.56876 5.21344 9.53114 5.22256 9.49885 5.21344 9.46657 5.20432 9.30934 5.31425 9.26407 5.28635 9.21879 5.25845 9.07263 5.24775 9.09894 5.21344 9.12525 5.17913 9.16058 5.16147 9.19992 5.17913 9.23927 5.1968 9.27837 5.21446 9.3049 5.1968 9.33143 5.17913 9.40806 5.11852 9.38878 5.10641 9.36951 5.09429 9.38815 5.05349 9.27902 5.05349 9.1699 5.05349 9.13153 5.09896 9.10563 5.07031 9.07972 5.04167 9.13391 5.00843 9.13391 5.00843z" clip-rule="evenodd"/></g><defs><clipPath id="JEY_svg__a"><path fill="#fff" d="M0 0H20V15H0z"/></clipPath></defs></svg>