<svg xmlns="http://www.w3.org/2000/svg" fill="none" viewBox="0 0 20 15"><g clip-path="url(#KNA_svg__a)"><path fill="#fff" d="M0 0H20V15H0z"/><path fill="#C51918" fill-rule="evenodd" d="M0 0V15H20V0H0Z" clip-rule="evenodd"/><path fill="#5EAA22" fill-rule="evenodd" d="M0 0V15L20 0H0Z" clip-rule="evenodd"/><path fill="#272727" stroke="#FFD018" stroke-width="1.563" d="M0.397446 17.4701L0.849551 17.9744L1.41291 17.5984L24.076 2.4712L24.8255 1.97092L24.224 1.29993L20.8985 -2.40985L20.4464 -2.9142L19.883 -2.53817L-2.78004 12.589L-3.52954 13.0893L-2.92805 13.7603L0.397446 17.4701Z"/><path fill="#F7FCFF" fill-rule="evenodd" d="M7.5554 10.5739 6.87501 11.7581 6.4405 10.4241 5.0892 9.99461 6.21523 9.30671 6.07955 7.91145 7.1909 8.76589 8.342 8.12782 8.01917 9.54908 8.9427 10.612 7.5554 10.5739zM13.8054 6.47821 13.125 7.66237 12.6905 6.32842 11.3392 5.89888 12.4652 5.21098 12.3296 3.81572 13.4409 4.67016 14.592 4.0321 14.2692 5.45335 15.1927 6.51623 13.8054 6.47821z" clip-rule="evenodd"/></g><defs><clipPath id="KNA_svg__a"><path fill="#fff" d="M0 0H20V15H0z"/></clipPath></defs></svg>