<svg xmlns="http://www.w3.org/2000/svg" fill="none" viewBox="0 0 20 15"><g clip-path="url(#LK_svg__a)"><path fill="#fff" d="M0 0H20V15H0z"/><path fill="#FECA00" fill-rule="evenodd" d="M0 0H20V15H0V0Z" clip-rule="evenodd"/><path fill="#1F8A6E" d="M1.25 1.25H5V13.75H1.25z"/><path fill="#F56800" d="M5 1.25H8.75V13.75H5z"/><path fill="#B01D00" d="M8.75 1.25H18.75V13.75H8.75z"/><path fill="#E8AA00" d="M7.5 1.25H8.75V13.75H7.5z"/><path fill="#FECA00" fill-rule="evenodd" d="M10.6878 3.85842C10.6878 3.85842 9.89173 3.85611 9.89173 5.24224V7.27485C9.89173 7.27485 9.51277 7.34241 9.51277 7.57782 9.51277 7.81323 9.59308 8.01921 9.74241 8.01921 9.89173 8.01921 10.0411 8.70978 9.89173 8.70978 9.74241 8.70978 9.59308 9.00609 9.74241 9.00609 9.77813 9.00609 9.80531 9.00124 9.82599 8.99756 9.84773 8.99368 9.86228 8.99109 9.87202 8.99676 9.89173 9.00823 9.89173 9.05355 9.89173 9.19056 9.89173 9.45966 9.74241 9.56847 9.74241 9.56847 9.74241 9.56847 9.60178 9.52923 9.60178 9.68759 9.60178 9.84596 9.74241 9.88604 9.74241 9.88604 9.74241 9.88604 9.82292 9.92085 9.66785 9.99583 9.51277 10.0708 9.51277 10.1071 9.51277 10.1071H9.89173L10.0815 10.4543 10.2626 10.1071H10.6367C10.6367 10.1071 10.4483 9.98659 10.4262 9.96134 10.4041 9.93609 10.3774 9.8992 10.4262 9.85698 10.4405 9.84467 10.4613 9.83526 10.4837 9.82516 10.538 9.80062 10.6015 9.77198 10.6015 9.68759 10.6015 9.56847 10.3627 9.56847 10.3627 9.56847 10.3627 9.56847 10.217 9.30542 10.2626 9.19056 10.2754 9.15844 10.2826 9.12986 10.2889 9.10535 10.3049 9.04221 10.3141 9.00609 10.3925 9.00609 10.5012 9.00609 10.5636 8.86881 10.4262 8.70978 10.4262 8.70978 10.5837 8.87909 10.5374 9.0988 10.4912 9.3185 10.5856 9.418 10.6367 9.418 10.6878 9.418 10.7691 9.34245 10.7691 9.34245 10.7691 9.34245 11.1938 9.72215 11.3804 9.72215 11.5671 9.72215 11.8346 9.418 11.8346 9.418L12.2188 9.63377C12.2188 9.63377 12.5 10.0277 12.4586 10.2985 12.4171 10.5693 12.2568 10.7202 12.0682 10.6783 11.8796 10.6365 11.5728 10.7224 11.5494 10.8392 11.5459 10.8569 11.5406 10.8784 11.5348 10.9021L11.5348 10.9021C11.5025 11.0347 11.4542 11.2331 11.6021 11.1842 11.7763 11.1265 11.8104 11.0822 11.8104 11.0822 11.8104 11.0822 11.7875 11.1842 11.9279 11.1842 12.0682 11.1842 12.1088 11.0822 12.1088 11.0822 12.1088 11.0822 12.2543 11.1842 12.3564 11.1842 12.4586 11.1842 12.573 11.1056 12.573 11.1056 12.573 11.1056 12.6483 11.2223 12.8149 11.1842 12.9815 11.146 13.1073 10.7113 12.9862 10.6139 12.9862 10.6139 13.388 10.5556 13.4911 10.2063 13.4911 10.2063 13.1024 10.2005 13.1425 9.96134 13.1826 9.72215 13.3878 9.56847 13.3878 9.56847 13.3878 9.56847 13.9789 9.28231 14.2333 9.19056 14.4876 9.0988 14.9103 9.00609 15.015 9.00609 15.0577 9.00609 15.0881 9.10559 15.1294 9.24047 15.1895 9.43702 15.2726 9.70868 15.4499 9.85698 15.7489 10.1071 15.545 10.6783 15.545 10.6783 15.545 10.6783 14.8797 10.7454 14.8797 10.9255 14.8797 11.1056 14.8904 11.1842 15.015 11.1842 15.1396 11.1842 15.1371 11.0822 15.1371 11.0822 15.1371 11.0822 15.2111 11.1842 15.3305 11.1842 15.4499 11.1842 15.545 11.0822 15.545 11.0822 15.545 11.0822 15.5767 11.1842 15.7332 11.1842 15.8896 11.1842 15.8885 11.0822 15.8885 11.0822 15.8885 11.0822 15.9167 11.1842 16.0545 11.1842 16.1924 11.1842 16.4755 11.0822 16.4755 11.0822 16.4755 11.0822 16.5198 11.1842 16.663 11.1842 16.8062 11.1842 16.8095 11.0822 16.8095 11.0822 16.8095 11.0822 16.886 11.1842 17.01 11.1842 17.134 11.1842 17.2067 11.0822 17.2067 11.0822 17.2067 11.0822 17.385 11.1842 17.5081 11.1842 17.6311 11.1842 17.5869 11.0001 17.5081 10.8392 17.4881 10.7985 17.465 10.7638 17.4439 10.732 17.3816 10.6382 17.3367 10.5707 17.4423 10.4543 17.4722 10.4213 17.5064 10.388 17.5407 10.3547L17.5407 10.3547C17.6686 10.2303 17.7971 10.1053 17.703 9.99583 17.675 9.96335 17.6423 9.94061 17.6094 9.91775 17.5016 9.84291 17.3919 9.76671 17.4423 9.34245 17.4725 9.0884 17.5298 8.88186 17.583 8.6901L17.583 8.69009C17.6459 8.46382 17.703 8.25812 17.703 8.01921 17.703 7.57782 17.4423 7.0731 17.4423 7.0731 17.4423 7.0731 17.7933 6.82813 17.7933 6.32983 17.7933 5.83152 17.01 5.77718 17.01 5.77718 17.01 5.77718 16.232 5.97744 15.8885 5.87731 15.811 5.85471 15.7461 5.83846 15.6921 5.82494 15.5069 5.77854 15.4499 5.76426 15.4499 5.63588 15.4499 5.47008 15.1999 5.77718 15.1999 5.77718 15.1999 5.77718 15.0039 5.69851 15.1371 5.53575 15.2703 5.37298 15.3305 5.30917 15.3305 5.30917 15.3305 5.30917 15.2131 5.17531 15.015 5.24224 14.817 5.30917 14.7816 5.42008 14.7816 5.42008 14.7816 5.42008 14.5558 5.18893 14.6965 5.02109 14.8373 4.85326 15.015 5.02109 15.015 5.02109 15.015 5.02109 15.2173 5.12671 15.2336 4.98808 15.2499 4.84945 15.2336 4.7389 15.2336 4.7389 15.2336 4.7389 15.7411 4.88446 15.5977 5.11085 15.4543 5.33725 15.545 5.42008 15.545 5.42008 15.545 5.42008 15.8938 5.44155 15.9568 5.20093 15.9807 5.10993 15.9767 5.02168 15.9593 4.95232 16.0598 4.99966 16.1736 5.05575 16.1418 5.14881 16.0835 5.31977 15.9568 5.53575 15.9568 5.53575 15.9568 5.53575 16.3053 5.51538 16.4092 5.24224 16.5131 4.9691 16.4755 5.30917 16.4755 5.30917 16.4755 5.30917 16.609 5.30442 16.8095 5.42008 17.01 5.53575 16.8095 5.24224 16.8095 5.24224 16.8095 5.24224 17.2257 5.75825 17.6193 5.69706 18.013 5.63588 17.9911 5.30917 17.9911 5.30917 17.9911 5.30917 17.8979 5.14881 17.703 5.14881 17.5081 5.14881 17.6193 5.30917 17.6193 5.30917 17.6193 5.30917 17.8094 5.41741 17.5081 5.30917 17.4208 5.27782 17.2906 5.17662 17.129 5.05105L17.129 5.05105C16.7327 4.74308 16.1477 4.2885 15.545 4.35812 14.6965 4.45612 14.4005 4.83528 14.4005 4.83528V4.51957C14.4005 4.51957 14.2579 4.7389 14.125 4.7389 13.9921 4.7389 13.623 4.51957 13.623 4.51957L13.3878 4.7389C13.3878 4.7389 13.2988 4.51957 13.1425 4.51957 12.9862 4.51957 12.9862 4.7389 12.9862 4.7389 12.9862 4.7389 12.7896 4.64221 12.573 4.64221 12.4843 4.64221 12.4088 4.60981 12.3506 4.58483 12.2668 4.54883 12.2188 4.52824 12.2188 4.64221 12.2188 4.66534 12.2193 4.68742 12.2199 4.70843V4.70843C12.2236 4.86274 12.226 4.95902 12.0015 4.98808 11.7464 5.02109 11.5494 5.02109 11.5494 5.02109 11.5494 5.02109 11.3967 4.83528 11.2779 4.83528 11.1591 4.83528 11.0215 4.97947 11.0215 5.11085 11.0215 5.24224 11.1754 5.61695 11.2779 5.69706 11.3049 5.71816 11.2999 5.71586 11.2779 5.70571 11.2163 5.67733 11.0215 5.58762 11.0215 5.77718 11.0215 5.90787 11.0541 5.94054 11.0779 5.9644 11.101 5.98752 11.1158 6.00237 11.0847 6.09012 11.0718 6.12664 11.054 6.16887 11.0354 6.21295 10.9634 6.38409 10.8796 6.58303 11.0215 6.58303 11.0981 6.58303 11.1706 6.56616 11.2222 6.55415 11.2907 6.53818 11.3224 6.53081 11.2779 6.58303 11.2602 6.60385 11.2363 6.6289 11.2122 6.65417L11.2122 6.65418C11.1304 6.74003 11.0463 6.82837 11.1919 6.76133 11.2685 6.72609 11.3331 6.67497 11.3865 6.63281 11.4644 6.57116 11.5181 6.52868 11.5494 6.58303 11.5692 6.61741 11.5533 6.66334 11.5397 6.70271 11.5172 6.76819 11.5008 6.81552 11.665 6.76133 11.7225 6.74233 11.7562 6.72752 11.775 6.71687 11.7758 6.72753 11.7846 6.74236 11.8104 6.76133 11.8655 6.80178 11.8549 6.8401 11.8469 6.86938 11.8377 6.90252 11.8318 6.9241 11.9279 6.9241 12.0198 6.9241 12.1495 6.85286 12.2264 6.81064 12.3008 6.76975 12.3257 6.75607 12.2188 6.86061 12.1514 6.92648 12.054 6.9704 11.9458 7.01914 11.705 7.12763 11.4112 7.26004 11.2779 7.71171 11.098 8.32137 11.1786 8.44701 11.1905 8.46138L10.6367 7.855C10.6367 7.855 10.7691 7.75149 10.7691 7.57782 10.7691 7.40415 10.4262 7.27485 10.4262 7.27485 10.4262 7.27485 10.4382 5.11375 10.5374 4.64221 10.6367 4.17067 10.6878 3.85842 10.6878 3.85842zM11.7923 6.69646C11.786 6.69647 11.774 6.70329 11.775 6.71687 11.799 6.70324 11.7985 6.69645 11.7923 6.69646zM15.9593 4.95232 15.9519 4.94886C15.8708 4.91072 15.8011 4.87791 15.8279 4.83528 15.8656 4.77535 15.9306 4.83829 15.9593 4.95232zM16.3258 9.62851C16.3258 9.62851 16.0633 9.88594 16.23 9.94252 16.2805 9.95968 16.342 9.96925 16.3991 9.97814 16.5304 9.99857 16.6389 10.0155 16.5394 10.1126 16.3966 10.2522 16.2757 10.4406 16.2757 10.6123 16.2757 10.7839 16.2798 10.9288 16.3258 10.8564 16.351 10.8166 16.4546 10.775 16.5663 10.7301 16.658 10.6933 16.7552 10.6542 16.8187 10.6123 16.9386 10.533 16.9369 10.4473 16.9338 10.2932V10.2932C16.9332 10.2666 16.9326 10.2379 16.9326 10.2068 16.9326 9.99626 16.3258 9.62851 16.3258 9.62851zM14.2894 6.181C14.3506 6.13238 14.3545 5.53227 14.3545 5.53227 14.3545 5.53227 14.5691 5.60372 14.5691 5.69746 14.5691 5.75584 14.5528 5.78923 14.5283 5.83963 14.5135 5.87016 14.4956 5.90693 14.4764 5.95927 14.4293 6.08819 14.5576 6.16896 14.6768 6.24398 14.6859 6.2497 14.6949 6.25539 14.7038 6.26106 14.7846 6.31257 14.8073 6.20081 14.8248 6.11454 14.8345 6.06671 14.8427 6.02672 14.8582 6.02672 14.9018 6.02672 15.227 6.10045 15.4718 6.22484 15.6854 6.33337 15.895 6.28009 16.375 6.15805 16.4451 6.14022 16.521 6.12093 16.6035 6.10045 17.2509 5.93984 17.3359 6.181 17.4023 6.37086 17.4687 6.56073 16.9661 6.82382 16.6035 6.87151 16.4442 6.89246 16.3063 6.88579 16.1793 6.87966 16.0174 6.87184 15.8734 6.86488 15.726 6.91727 15.4951 6.99938 14.7728 6.99121 14.4909 6.98801 14.452 6.98757 14.4214 6.98723 14.4017 6.98723 14.2723 6.98723 14.2478 6.94637 14.1987 6.8644 14.1862 6.84357 14.1721 6.82008 14.1543 6.79393 14.0665 6.6649 14.1731 6.58053 14.2422 6.58053 14.3112 6.58053 14.2894 6.4295 14.2422 6.37086 14.1949 6.31222 14.2282 6.22962 14.2894 6.181zM8.85701 1.32645V1.5521C8.85701 1.57989 8.84502 1.61779 8.83158 1.66027 8.78897 1.79492 8.73179 1.97563 8.99574 2.02642 9.34295 2.09323 9.59873 2.24506 9.6765 2.3884 9.72633 2.48026 9.71229 2.32719 9.69578 2.14716 9.68653 2.04626 9.6765 1.9369 9.6765 1.85743 9.6765 1.63615 9.42863 1.20496 9.253 1.32645 9.07736 1.44795 8.85701 1.32645 8.85701 1.32645zM8.85701 13.4421V13.6677C8.85701 13.6677 9.07736 13.5462 9.253 13.6677 9.42863 13.7892 9.6765 13.358 9.6765 13.1367 9.6765 13.0573 9.68653 12.9479 9.69578 12.847 9.71229 12.667 9.72633 12.5139 9.6765 12.6058 9.59873 12.7491 9.34295 12.9009 8.99574 12.9678 8.73179 13.0185 8.78897 13.1992 8.83158 13.3339 8.84502 13.3764 8.85701 13.4143 8.85701 13.4421zM18.6473 13.4421V13.6677C18.6473 13.6677 18.4269 13.5462 18.2513 13.6677 18.0757 13.7892 17.8278 13.358 17.8278 13.1367 17.8278 13.0573 17.8178 12.9479 17.8085 12.847 17.792 12.667 17.778 12.5139 17.8278 12.6058 17.9056 12.7491 18.1613 12.9009 18.5085 12.9678 18.7725 13.0185 18.7153 13.1992 18.6727 13.3339 18.6593 13.3764 18.6473 13.4143 18.6473 13.4421zM18.6473 1.5521V1.32645C18.6473 1.32645 18.4269 1.44795 18.2513 1.32645 18.0757 1.20496 17.8278 1.63615 17.8278 1.85743 17.8278 1.9369 17.8178 2.04626 17.8085 2.14716 17.792 2.32719 17.778 2.48026 17.8278 2.3884 17.9056 2.24506 18.1613 2.09323 18.5085 2.02642 18.7725 1.97563 18.7153 1.79492 18.6727 1.66027 18.6593 1.61779 18.6473 1.57989 18.6473 1.5521z" clip-rule="evenodd"/></g><defs><clipPath id="LK_svg__a"><path fill="#fff" d="M0 0H20V15H0z"/></clipPath></defs></svg>