<svg xmlns="http://www.w3.org/2000/svg" fill="none" viewBox="0 0 20 15"><g clip-path="url(#MDV_svg__a)"><path fill="#fff" d="M0 0H20V15H0z"/><path fill="#C51918" fill-rule="evenodd" d="M0 0H20V13.75C20 14.4404 19.4404 15 18.75 15H1.25C0.559644 15 0 14.4404 0 13.75V0Z" clip-rule="evenodd"/><path fill="#C51918" fill-rule="evenodd" d="M0 0H20V15H0V0Z" clip-rule="evenodd"/><path fill="#579D20" fill-rule="evenodd" d="M3 3H17V12H3V3Z" clip-rule="evenodd"/><path stroke="#B6EB9A" stroke-opacity=".238" stroke-width="1.25" d="M3.625 3.625H16.375V11.375H3.625V3.625Z"/><mask id="MDV_svg__b" width="14" height="9" x="3" y="3" maskUnits="userSpaceOnUse" style="mask-type:luminance"><path fill="#fff" fill-rule="evenodd" d="M3 3H17V12H3V3Z" clip-rule="evenodd"/><path stroke="#fff" stroke-width="1.25" d="M3.625 3.625H16.375V11.375H3.625V3.625Z"/></mask><g mask="url(#MDV_svg__b)"><path fill="#F9FAFA" fill-rule="evenodd" d="M10.0206 7.78905C10.01 9.70511 11.5184 10.7267 11.5184 10.7267C9.79721 10.9288 8.65205 9.36843 8.65205 7.80773C8.65205 6.24702 10.213 4.95781 11.5184 4.37566C11.5184 4.37566 10.0312 5.87299 10.0206 7.78905Z" clip-rule="evenodd"/></g></g><defs><clipPath id="MDV_svg__a"><path fill="#fff" d="M0 0H20V15H0z"/></clipPath></defs></svg>