<svg xmlns="http://www.w3.org/2000/svg" fill="none" viewBox="0 0 20 15"><g clip-path="url(#MO_svg__a)"><path fill="#fff" d="M0 0H20V15H0z"/><path fill="#1C9975" fill-rule="evenodd" d="M0 0V15H20V0H0Z" clip-rule="evenodd"/><mask id="MO_svg__b" width="20" height="15" x="0" y="0" maskUnits="userSpaceOnUse" style="mask-type:luminance"><path fill="#fff" fill-rule="evenodd" d="M0 0V15H20V0H0Z" clip-rule="evenodd"/></mask><g mask="url(#MO_svg__b)"><path fill="#FECA00" fill-rule="evenodd" d="M10.0135 4.28358 8.99242 4.9 9.22532 3.69712 8.37502 2.79687 9.52638 2.7482 10.0135 1.625 10.5006 2.7482H11.65L10.8017 3.69712 11.0571 4.9 10.0135 4.28358zM7.11414 4.74029 6.48279 5.12144 6.6268 4.37767 6.10104 3.82103 6.81295 3.79093 7.11414 3.09644 7.41534 3.79093H8.12604L7.60149 4.37767 7.75941 5.12144 7.11414 4.74029zM12.8631 4.74029 12.2318 5.12144 12.3758 4.37767 11.85 3.82103 12.5619 3.79093 12.8631 3.09644 13.1643 3.79093H13.875L13.3505 4.37767 13.5084 5.12144 12.8631 4.74029zM5.47906 6.00664 4.97242 6.3125 5.08798 5.71565 4.66608 5.26896 5.23736 5.24481 5.47906 4.6875 5.72076 5.24481H6.29108L5.87014 5.71565 5.99687 6.3125 5.47906 6.00664zM14.7255 6.00664 14.2189 6.3125 14.3344 5.71565 13.9125 5.26896 14.4838 5.24481 14.7255 4.6875 14.9672 5.24481H15.5375L15.1166 5.71565 15.2433 6.3125 14.7255 6.00664z" clip-rule="evenodd"/><mask id="MO_svg__c" width="10" height="11" x="5" y="3" maskUnits="userSpaceOnUse" style="mask-type:luminance"><path fill="#fff" fill-rule="evenodd" d="M10 13.75C12.7614 13.75 15 11.5114 15 8.75C15 5.98858 12.7614 3.75 10 3.75C7.23858 3.75 5 5.98858 5 8.75C5 11.5114 7.23858 13.75 10 13.75Z" clip-rule="evenodd"/></mask><g fill="#F7FCFF" mask="url(#MO_svg__c)"><path fill-rule="evenodd" d="M7.92553 13.1649H12.0745V13.8351H7.92553V13.1649zM6.2234 12.1625H14.2021V12.7769H6.2234V12.1625z" clip-rule="evenodd"/><path d="M7.88767 11.8879H5.44723V11.2629L7.88328 11.2629C8.74622 11.2508 9.37679 11.0043 9.79752 10.5301L10.0072 10.2938L10.2412 10.506C10.8031 11.0155 11.3644 11.2629 11.9322 11.2629H14.6223V11.8879H11.9322C11.2799 11.8879 10.6501 11.6425 10.0479 11.162C9.51463 11.6347 8.7905 11.8752 7.88767 11.8879Z"/></g><path fill="#F7FCFF" fill-rule="evenodd" d="M10.0217 4.75487C10.0217 4.75487 8.95371 5.80987 8.95371 7.25773C8.95371 7.56757 9.00262 7.86029 9.0795 8.12902C8.73543 7.36644 8.71159 6.53952 9.00854 5.63752L8.60435 5.50446C8.30226 6.42205 8.30096 7.28475 8.60087 8.08428C7.98048 7.71049 7.26671 7.45934 6.53409 7.37835L6.48734 7.80131C7.1276 7.87208 7.75252 8.08557 8.30118 8.40161C8.16572 8.34698 8.02368 8.29947 7.8755 8.26165C6.52366 7.91663 5.19739 8.40586 5.19739 8.40586C5.19739 8.40586 5.96244 10.1223 7.44425 10.3753C7.51813 10.388 7.59116 10.3978 7.66325 10.4051L7.65206 10.4051C6.94556 10.4051 6.28855 10.1163 5.67332 9.5294L5.37961 9.83732C6.07065 10.4965 6.83071 10.8306 7.65206 10.8306C8.45534 10.8306 9.20136 10.511 9.88304 9.88037C9.99238 9.81433 10.0564 9.76707 10.0666 9.75939L10.0934 9.7822C10.0794 9.80634 10.0723 9.81951 10.0723 9.81951C10.0723 9.81951 10.1395 9.86019 10.2607 9.9175C10.9338 10.4392 11.7759 10.8306 12.4422 10.8306C13.2635 10.8306 14.0236 10.4965 14.7146 9.83732L14.4209 9.5294C13.8057 10.1163 13.1487 10.4051 12.4422 10.4051C12.1841 10.4051 11.9311 10.3636 11.6831 10.2802C12.0305 10.2989 12.4132 10.2676 12.8093 10.1465C14.269 9.70022 14.8775 8.35044 14.8775 8.35044C14.8775 8.35044 14.1008 7.93137 13.1144 7.92666C13.3354 7.86966 13.566 7.82789 13.8065 7.80131L13.7597 7.37835C12.8346 7.48062 12.0342 7.79288 11.3628 8.31392C11.7554 7.45071 11.7857 6.51058 11.4545 5.50446L11.0503 5.63752C11.321 6.45967 11.3251 7.21944 11.0632 7.92497C11.1081 7.71635 11.1346 7.49337 11.1346 7.25773C11.1346 5.73139 10.0217 4.75487 10.0217 4.75487ZM10.4915 9.22213L10.4757 9.24495L10.495 9.22192L10.4915 9.22213ZM9.45928 9.12247L9.5011 9.08399C9.53914 9.14718 9.57708 9.20666 9.61416 9.26218C9.56607 9.21689 9.5144 9.17008 9.45928 9.12247Z" clip-rule="evenodd"/></g></g><defs><clipPath id="MO_svg__a"><path fill="#fff" d="M0 0H20V15H0z"/></clipPath></defs></svg>