<svg xmlns="http://www.w3.org/2000/svg" fill="none" viewBox="0 0 20 15"><g clip-path="url(#MOZ_svg__a)"><path fill="#fff" d="M0 0H20V15H0z"/><path fill="#F7FCFF" fill-rule="evenodd" d="M0 0V15H20V0H0Z" clip-rule="evenodd"/><mask id="MOZ_svg__b" width="20" height="15" x="0" y="0" maskUnits="userSpaceOnUse" style="mask-type:luminance"><path fill="#fff" fill-rule="evenodd" d="M0 0V15H20V0H0Z" clip-rule="evenodd"/></mask><g mask="url(#MOZ_svg__b)"><path fill="#FECA00" fill-rule="evenodd" d="M0 0V5H20V0H0Z" clip-rule="evenodd"/><path fill="#093" fill-rule="evenodd" d="M0 10V15H20V10H0Z" clip-rule="evenodd"/><path fill="#272727" stroke="#fff" stroke-width="1.25" d="M0 4.375H-0.625V5V10V10.625H0H20H20.625V10V5V4.375H20H0Z"/></g><path fill="#F50100" fill-rule="evenodd" d="M0 0V15L11.25 7.5L0 0Z" clip-rule="evenodd"/><mask id="MOZ_svg__c" width="12" height="15" x="0" y="0" maskUnits="userSpaceOnUse" style="mask-type:luminance"><path fill="#fff" fill-rule="evenodd" d="M0 0V15L11.25 7.5L0 0Z" clip-rule="evenodd"/></mask><g mask="url(#MOZ_svg__c)"><path fill="#FECA00" fill-rule="evenodd" d="M5.04299 8.97076L2.68115 10.8773L3.76451 8.32942L1.903 6.53678H4.10025L5.00187 4.375L5.95948 6.53678H8.153L6.19316 8.32942L7.174 10.8773L5.04299 8.97076Z" clip-rule="evenodd"/><path fill="#F7FCFF" fill-rule="evenodd" d="M3.84749 7.49014L3.44693 8.82792C3.44693 8.82792 4.7992 8.81454 4.96162 8.95117C5.45099 8.64602 6.45847 8.82792 6.45847 8.82792L5.92261 7.39621C5.92261 7.39621 5.2432 7.08835 4.96162 7.25715C4.27144 7.10125 3.84749 7.49014 3.84749 7.49014Z" clip-rule="evenodd"/><path fill="#000" d="M7.22737 9.51017C7.33119 9.64804 7.30358 9.84397 7.16571 9.94779C7.02784 10.0516 6.83191 10.024 6.72809 9.88613L4.11554 6.4166C4.01172 6.27873 4.03932 6.0828 4.1772 5.97899C4.31507 5.87517 4.511 5.90277 4.61482 6.04065L7.22737 9.51017Z"/><path stroke="#000" stroke-linecap="round" stroke-linejoin="round" stroke-width=".625" d="M4.35876 6.14984L4.10876 5.84984"/><path fill="#000" fill-rule="evenodd" d="M3.50294 5.85158 2.74762 7.06116 3.12528 7.71535 3.98914 6.43145 4.14452 6.03445 3.98914 5.85158H3.50294zM2.52437 9.44284 2.88851 9.95644 5.69827 6.632 5.81482 6.76226 6.4625 6.15292 7.49761 5.02687 6.4625 5.87287 6.12775 5.78005 5.81482 6.27167H5.50089L3.20584 8.82643 2.52437 9.44284z" clip-rule="evenodd"/></g></g><defs><clipPath id="MOZ_svg__a"><path fill="#fff" d="M0 0H20V15H0z"/></clipPath></defs></svg>