<svg xmlns="http://www.w3.org/2000/svg" fill="none" viewBox="0 0 20 15"><g clip-path="url(#NA_svg__a)"><path fill="#fff" d="M0 0H20V15H0z"/><path fill="#093" fill-rule="evenodd" d="M0 0V15H20V0H0Z" clip-rule="evenodd"/><mask id="NA_svg__b" width="20" height="15" x="0" y="0" maskUnits="userSpaceOnUse" style="mask-type:luminance"><path fill="#fff" fill-rule="evenodd" d="M0 0V15H20V0H0Z" clip-rule="evenodd"/></mask><g mask="url(#NA_svg__b)"><path fill="#3195F9" fill-rule="evenodd" d="M0 0V15L20 0H0Z" clip-rule="evenodd"/><path fill="#E31D1C" stroke="#F7FCFF" stroke-width="1.25" d="M-0.632795 16.9335L-0.301197 17.5343L0.266074 17.1481L22.036 2.32979L22.4748 2.0311L22.2511 1.54972L20.7874 -1.59977L20.4804 -2.26045L19.8741 -1.85649L-2.22322 12.8663L-2.70169 13.1851L-2.42386 13.6885L-0.632795 16.9335Z"/><path fill="#FECA00" fill-rule="evenodd" d="M3.89352 5.77797L3.08471 6.78704L2.88879 5.50875L1.68381 5.97823L2.15328 4.77324L0.875 4.57733L1.88407 3.76852L0.875 2.95971L2.15328 2.76379L1.68381 1.55881L2.88879 2.02828L3.08471 0.75L3.89352 1.75907L4.70233 0.75L4.89824 2.02828L6.10323 1.55881L5.63375 2.76379L6.91204 2.95971L5.90297 3.76852L6.91204 4.57733L5.63375 4.77324L6.10323 5.97823L4.89824 5.50875L4.70233 6.78704L3.89352 5.77797ZM3.89352 5.33102C4.75646 5.33102 5.45602 4.63146 5.45602 3.76852C5.45602 2.90557 4.75646 2.20602 3.89352 2.20602C3.03057 2.20602 2.33102 2.90557 2.33102 3.76852C2.33102 4.63146 3.03057 5.33102 3.89352 5.33102ZM5.14352 3.76852C5.14352 4.45887 4.58387 5.01852 3.89352 5.01852C3.20316 5.01852 2.64352 4.45887 2.64352 3.76852C2.64352 3.07816 3.20316 2.51852 3.89352 2.51852C4.58387 2.51852 5.14352 3.07816 5.14352 3.76852Z" clip-rule="evenodd"/></g></g><defs><clipPath id="NA_svg__a"><path fill="#fff" d="M0 0H20V15H0z"/></clipPath></defs></svg>