<svg xmlns="http://www.w3.org/2000/svg" fill="none" viewBox="0 0 20 15"><g clip-path="url(#NZL_svg__a)"><path fill="#fff" d="M0 0H20V15H0z"/><path fill="#2E42A5" fill-rule="evenodd" d="M0 0V15H20V0H0Z" clip-rule="evenodd"/><g clip-path="url(#NZL_svg__b)"><path fill="#2E42A5" d="M0 0H11V9H0z"/><path fill="#F7FCFF" d="M-1.25266 8.12488L1.22294 9.21063L11.3062 1.18046L12.612 -0.432999L9.96471 -0.795888L5.852 2.66454L2.54169 4.99607L-1.25266 8.12488Z"/><path fill="#F50100" d="M-0.913757 8.88561L0.347444 9.51569L12.1431 -0.582886H10.3722L-0.913757 8.88561Z"/><path fill="#F7FCFF" d="M12.5027 8.1249L10.3056 9.5206L-0.0561867 1.18047L-1.36201 -0.432984L1.28529 -0.795875L5.398 2.66456L8.70831 4.99608L12.5027 8.1249Z"/><path fill="#F50100" d="M12.4182 8.67082L11.157 9.3009L6.13428 4.97718L4.64515 4.4941L-1.48766 -0.427482H0.283216L6.41258 4.37728L8.04068 4.95655L12.4182 8.67082Z"/><path fill="#F50100" fill-rule="evenodd" d="M6 0H5V4H0V5H5V9H6V5H11V4H6V0Z" clip-rule="evenodd"/><path fill="#F7FCFF" fill-rule="evenodd" d="M4.0625 0H6.9375V3.0625L11 3V5.875L6.9375 5.9375V9H4.0625V5.9375L0 5.875V3L4.0625 3.0625V0ZM5 4H0V5H5V9H6V5H11V4H6V0H5V4Z" clip-rule="evenodd"/></g><path fill="#F50100" fill-rule="evenodd" stroke="#F7FCFF" stroke-width=".5" d="M15.5332 12.8125 14.4311 13.3919 14.6416 12.1647 13.75 11.2956 14.9822 11.1165 15.5332 10 16.0843 11.1165 17.3165 11.2956 16.4248 12.1647 16.6353 13.3919 15.5332 12.8125zM13.25 8.66864 12.4002 9.11541 12.5625 8.16914 11.875 7.499 12.8251 7.36094 13.25 6.5 13.6749 7.36094 14.625 7.499 13.9375 8.16914 14.0998 9.11541 13.25 8.66864zM17.6235 8.66623 16.7746 9.1125 16.9367 8.16729 16.25 7.49789 17.199 7.35998 17.6235 6.5 18.0479 7.35998 18.9969 7.49789 18.3102 8.16729 18.4723 9.1125 17.6235 8.66623zM15.75 5.16864 14.9002 5.61541 15.0625 4.66914 14.375 3.999 15.3251 3.86094 15.75 3 16.1749 3.86094 17.125 3.999 16.4375 4.66914 16.5998 5.61541 15.75 5.16864z" clip-rule="evenodd"/></g><defs><clipPath id="NZL_svg__a"><path fill="#fff" d="M0 0H20V15H0z"/></clipPath><clipPath id="NZL_svg__b"><path fill="#fff" d="M0 0H11V9H0z"/></clipPath></defs></svg>