<svg xmlns="http://www.w3.org/2000/svg" fill="none" viewBox="0 0 20 15"><g clip-path="url(#PAN_svg__a)"><path fill="#fff" d="M0 0H20V15H0z"/><path fill="#F7FCFF" fill-rule="evenodd" d="M0 0V15H20V0H0Z" clip-rule="evenodd"/><mask id="PAN_svg__b" width="20" height="15" x="0" y="0" maskUnits="userSpaceOnUse" style="mask-type:luminance"><path fill="#fff" fill-rule="evenodd" d="M0 0V15H20V0H0Z" clip-rule="evenodd"/></mask><g fill-rule="evenodd" clip-rule="evenodd" mask="url(#PAN_svg__b)"><path fill="#E31D1C" d="M10 0V7.5H20V0H10zM14.388 11.9685 12.949 12.859 13.5077 11.3642 12.2845 10.2325H13.7681L14.388 8.61554 14.8611 10.2325H16.347L15.2762 11.3642 15.8005 12.859 14.388 11.9685z"/><path fill="#2E42A5" d="M5.63804 5.228 4.19902 6.11845 4.75769 4.62362 3.53452 3.49194H5.01813L5.63804 1.875 6.11111 3.49194H7.59702L6.52615 4.62362 7.05045 6.11845 5.63804 5.228zM0 7.5V15H10V7.5H0z"/></g></g><defs><clipPath id="PAN_svg__a"><path fill="#fff" d="M0 0H20V15H0z"/></clipPath></defs></svg>