<svg xmlns="http://www.w3.org/2000/svg" fill="none" viewBox="0 0 20 15"><g clip-path="url(#PRI_svg__a)"><path fill="#fff" d="M0 0H20V15H0z"/><path fill="#EF0000" fill-rule="evenodd" d="M0 0V15H20V0H0Z" clip-rule="evenodd"/><mask id="PRI_svg__b" width="20" height="15" x="0" y="0" maskUnits="userSpaceOnUse" style="mask-type:luminance"><path fill="#fff" fill-rule="evenodd" d="M0 0V15H20V0H0Z" clip-rule="evenodd"/></mask><g mask="url(#PRI_svg__b)"><path fill="#EF0000" stroke="#F7FCFF" stroke-width="2.5" d="M0 5H-1.25V6.25V8.75V10H0H20H21.25V8.75V6.25V5H20H0Z"/></g><path fill="#3D58DB" fill-rule="evenodd" d="M0 0V15L11.25 7.5L0 0Z" clip-rule="evenodd"/><mask id="PRI_svg__c" width="12" height="15" x="0" y="0" maskUnits="userSpaceOnUse" style="mask-type:luminance"><path fill="#fff" fill-rule="evenodd" d="M0 0V15L11.25 7.5L0 0Z" clip-rule="evenodd"/></mask><g mask="url(#PRI_svg__c)"><path fill="#F7FCFF" fill-rule="evenodd" d="M4.17987 8.88553L1.88491 10.0968L3.0022 7.66307L1.57846 6.36299L3.33626 6.29811L4.17987 4.09769L4.82365 6.29811H6.57846L5.40884 7.66307L6.33918 10.0968L4.17987 8.88553Z" clip-rule="evenodd"/></g></g><defs><clipPath id="PRI_svg__a"><path fill="#fff" d="M0 0H20V15H0z"/></clipPath></defs></svg>