<svg xmlns="http://www.w3.org/2000/svg" fill="none" viewBox="0 0 20 15"><g clip-path="url(#PT_svg__a)"><path fill="#fff" d="M0 0H20V15H0z"/><path fill="#EF0000" fill-rule="evenodd" d="M5 0H20V15H5V0Z" clip-rule="evenodd"/><path fill="#2F8D00" fill-rule="evenodd" d="M0 0H7.5V15H0V0Z" clip-rule="evenodd"/><mask id="PT_svg__b" width="11" height="11" x="2" y="2" maskUnits="userSpaceOnUse" style="mask-type:luminance"><path fill="#fff" fill-rule="evenodd" d="M7.44048 12.3795C4.77768 12.3795 2.61905 10.1949 2.61905 7.5C2.61905 4.80512 4.77768 2.62048 7.44048 2.62048C10.1033 2.62048 12.2619 4.80512 12.2619 7.5C12.2619 10.1949 10.1033 12.3795 7.44048 12.3795Z" clip-rule="evenodd"/></mask><g fill="#FFE017" mask="url(#PT_svg__b)"><path fill-rule="evenodd" d="M7.14286 2.5H7.76786V4.18675H7.14286V2.5zM7.14286 10.9337H7.76786V12.5H7.14286V10.9337z" clip-rule="evenodd"/><path d="M2.69654 7.75236L2.5218 7.30405C4.45004 6.53426 5.90539 6.03781 6.89288 5.81408C8.34171 5.48582 9.93363 5.24296 11.6688 5.0853L11.7113 5.56529C9.99612 5.72114 8.42461 5.9609 6.99691 6.28437C6.03882 6.50144 4.60368 6.99099 2.69654 7.75236Z"/><path d="M11.963 4.78993 11.8212 5.25C10.3639 4.78993 9.17677 4.59216 8.26425 4.65342L8.23273 4.17255C9.21248 4.10678 10.4544 4.31367 11.963 4.78993zM12.4673 7.36236 12.1979 7.75976C11.455 7.24397 10.5397 6.98489 9.44583 6.98489V6.50296C10.6317 6.50296 11.6409 6.78864 12.4673 7.36236z"/><path d="M12.0638 7.50659L12.1869 7.97213C10.5852 8.40597 9.08151 8.65211 7.67561 8.71007C6.26001 8.76843 4.61009 8.52141 2.72445 7.97089L2.85644 7.50784C4.69626 8.04499 6.29665 8.28459 7.65622 8.22854C9.02549 8.17209 10.4947 7.9316 12.0638 7.50659Z"/><path d="M11.8823 9.77243 11.1296 10.5441C9.69919 9.115 8.43986 8.09314 7.35938 7.47916 6.26043 6.85469 4.82732 6.22058 3.06224 5.57939L3.42421 4.55881C5.24134 5.2189 6.72717 5.87634 7.88393 6.53367 9.05916 7.20149 10.3894 8.28087 11.8823 9.77243zM3.41144 10.2096 3.12653 9.82341C3.16632 9.79334 3.23731 9.7432 3.33512 9.67966 3.49662 9.57474 3.67596 9.46999 3.86891 9.37211 4.40035 9.10252 4.93344 8.9342 5.44188 8.91874 5.46675 8.91798 5.49151 8.9176 5.51617 8.9176V9.39953C5.49631 9.39953 5.47631 9.39984 5.45619 9.40045 5.02771 9.41348 4.55716 9.56205 4.08229 9.80294 3.90529 9.89273 3.74037 9.98906 3.59236 10.0852 3.54084 10.1187 3.49526 10.1496 3.4562 10.1772 3.43343 10.1933 3.41831 10.2044 3.41144 10.2096z"/><path d="M3.6326 10.3766 3.75251 9.91023C5.34009 10.3283 6.56402 10.5367 7.4182 10.5367 8.26919 10.5367 9.53581 10.2909 11.2098 9.7977L11.3429 10.2604C9.62931 10.7653 8.32381 11.0186 7.4182 11.0186 6.51577 11.0186 5.25594 10.8041 3.6326 10.3766zM3.01403 6.05902 3.76845 5.28906 4.87303 6.39759 4.1186 7.16755 3.01403 6.05902z"/><path d="M9.27246 9.90483L9.83361 8.98111L11.5859 10.0714L11.0247 10.9951L9.27246 9.90483Z"/></g><path fill="#F9E813" fill-rule="evenodd" d="M2.61905 7.5C2.61905 10.1949 4.77768 12.3795 7.44048 12.3795C10.1033 12.3795 12.2619 10.1949 12.2619 7.5C12.2619 4.80512 10.1033 2.62048 7.44048 2.62048C4.77768 2.62048 2.61905 4.80512 2.61905 7.5ZM11.6667 7.56024C11.6667 9.88915 9.80119 11.7771 7.5 11.7771C5.19881 11.7771 3.33333 9.88915 3.33333 7.56024C3.33333 5.23133 5.19881 3.34337 7.5 3.34337C9.80119 3.34337 11.6667 5.23133 11.6667 7.56024Z" clip-rule="evenodd"/><path fill="#fff" d="M4.78543 4.49078V8.40373C5.04302 9.95253 5.91081 10.7269 7.3888 10.7269C8.8668 10.7269 9.73458 9.95253 9.99217 8.40373V4.49078H4.78543Z"/><path fill="#C51918" d="M4.42829 4.12933H10.3493V8.43393L10.3444 8.46372C10.0583 10.1835 9.04436 11.0884 7.3888 11.0884C5.73325 11.0884 4.71927 10.1835 4.43325 8.46372L4.42829 8.43393V4.12933Z"/><path fill="#F7FCFF" d="M5.78264 5.44418H8.99497V8.21974C8.99497 8.21974 8.75659 9.65306 7.3888 9.65306C6.02102 9.65306 5.78264 8.21974 5.78264 8.21974V5.44418Z"/><path fill="#F9E813" fill-rule="evenodd" d="M5 4.4277H5.45181V4.72891H5V4.4277Z" clip-rule="evenodd"/><path fill="#060101" fill-rule="evenodd" d="M4.76191 4.54819H5.59524V4.69879H4.76191V4.54819Z" clip-rule="evenodd"/><path fill="#F9E813" fill-rule="evenodd" d="M4.76191 4.66867H5.21371V4.81927H4.76191V4.66867zM5.23809 4.66867H5.6899V4.81927H5.23809V4.66867zM4.76191 5.03012H5.06311V5.48193H4.76191V5.03012zM5.35714 5.03012H5.65835V5.48193H5.35714V5.03012zM5.11905 5.03012H5.26965V5.48193H5.11905V5.03012z" clip-rule="evenodd"/><path fill="#060101" fill-rule="evenodd" d="M4.76191 4.90964H5.59524V5.06024H4.76191V4.90964zM4.76191 5.27109H5.59524V5.42169H4.76191V5.27109z" clip-rule="evenodd"/><path fill="#F9E813" fill-rule="evenodd" d="M4.88095 4.78915H5.03156V4.93976H4.88095V4.78915zM5.35714 4.78915H5.50775V4.93976H5.35714V4.78915zM5.11905 4.66867H5.26965V4.96988H5.11905V4.66867zM7.26191 4.4277H7.71371V4.72891H7.26191V4.4277z" clip-rule="evenodd"/><path fill="#060101" fill-rule="evenodd" d="M7.02381 4.54819H7.85714V4.69879H7.02381V4.54819Z" clip-rule="evenodd"/><path fill="#F9E813" fill-rule="evenodd" d="M7.02381 4.66867H7.47562V4.81927H7.02381V4.66867zM7.5 4.66867H7.95181V4.81927H7.5V4.66867zM7.02381 5.03012H7.32502V5.48193H7.02381V5.03012zM7.61905 5.03012H7.92025V5.48193H7.61905V5.03012zM7.38095 5.03012H7.53156V5.48193H7.38095V5.03012z" clip-rule="evenodd"/><path fill="#060101" fill-rule="evenodd" d="M7.02381 4.90964H7.85714V5.06024H7.02381V4.90964zM7.02381 5.27109H7.85714V5.42169H7.02381V5.27109z" clip-rule="evenodd"/><path fill="#F9E813" fill-rule="evenodd" d="M7.14286 4.78915H7.29346V4.93976H7.14286V4.78915zM7.61905 4.78915H7.76965V4.93976H7.61905V4.78915zM7.38095 4.66867H7.53156V4.96988H7.38095V4.66867zM9.40476 4.4277H9.85657V4.72891H9.40476V4.4277z" clip-rule="evenodd"/><path fill="#060101" fill-rule="evenodd" d="M9.16667 4.54819H10V4.69879H9.16667V4.54819Z" clip-rule="evenodd"/><path fill="#F9E813" fill-rule="evenodd" d="M9.16667 4.66867H9.61848V4.81927H9.16667V4.66867zM9.64286 4.66867H10.0947V4.81927H9.64286V4.66867zM9.16667 5.03012H9.46787V5.48193H9.16667V5.03012zM9.76191 5.03012H10.0631V5.48193H9.76191V5.03012zM9.52381 5.03012H9.67441V5.48193H9.52381V5.03012z" clip-rule="evenodd"/><path fill="#060101" fill-rule="evenodd" d="M9.16667 4.90964H10V5.06024H9.16667V4.90964zM9.16667 5.27109H10V5.42169H9.16667V5.27109z" clip-rule="evenodd"/><path fill="#F9E813" fill-rule="evenodd" d="M9.28572 4.78915H9.43632V4.93976H9.28572V4.78915zM9.76191 4.78915H9.91251V4.93976H9.76191V4.78915zM9.52381 4.66867H9.67441V4.96988H9.52381V4.66867zM9.40476 6.59637H9.85657V6.89758H9.40476V6.59637z" clip-rule="evenodd"/><path fill="#060101" fill-rule="evenodd" d="M9.16667 6.71686H10V6.86746H9.16667V6.71686Z" clip-rule="evenodd"/><path fill="#F9E813" fill-rule="evenodd" d="M9.16667 6.83734H9.61848V6.98794H9.16667V6.83734zM9.64286 6.83734H10.0947V6.98794H9.64286V6.83734zM9.16667 7.19879H9.46787V7.6506H9.16667V7.19879zM9.76191 7.19879H10.0631V7.6506H9.76191V7.19879zM9.52381 7.19879H9.67441V7.6506H9.52381V7.19879z" clip-rule="evenodd"/><path fill="#060101" fill-rule="evenodd" d="M9.16667 7.07831H10V7.22891H9.16667V7.07831zM9.16667 7.43976H10V7.59036H9.16667V7.43976z" clip-rule="evenodd"/><path fill="#F9E813" fill-rule="evenodd" d="M9.28572 6.95782H9.43632V7.10843H9.28572V6.95782zM9.76191 6.95782H9.91251V7.10843H9.76191V6.95782zM9.52381 6.83734H9.67441V7.13855H9.52381V6.83734zM5 6.59637H5.45181V6.89758H5V6.59637z" clip-rule="evenodd"/><path fill="#060101" fill-rule="evenodd" d="M4.76191 6.71686H5.59524V6.86746H4.76191V6.71686Z" clip-rule="evenodd"/><path fill="#F9E813" fill-rule="evenodd" d="M4.76191 6.83734H5.21371V6.98794H4.76191V6.83734zM5.23809 6.83734H5.6899V6.98794H5.23809V6.83734zM4.76191 7.19879H5.06311V7.6506H4.76191V7.19879zM5.35714 7.19879H5.65835V7.6506H5.35714V7.19879zM5.11905 7.19879H5.26965V7.6506H5.11905V7.19879z" clip-rule="evenodd"/><path fill="#060101" fill-rule="evenodd" d="M4.76191 7.07831H5.59524V7.22891H4.76191V7.07831zM4.76191 7.43976H5.59524V7.59036H4.76191V7.43976z" clip-rule="evenodd"/><path fill="#F9E813" fill-rule="evenodd" d="M4.88095 6.95782H5.03156V7.10843H4.88095V6.95782zM5.35714 6.95782H5.50775V7.10843H5.35714V6.95782zM5.11905 6.83734H5.26965V7.13855H5.11905V6.83734zM5.28985 9.31494 5.58026 8.96884 5.811 9.16245 5.52058 9.50855 5.28985 9.31494z" clip-rule="evenodd"/><path fill="#060101" fill-rule="evenodd" d="M5.2291 9.5748L5.76475 8.93643L5.88012 9.03323L5.34446 9.6716L5.2291 9.5748Z" clip-rule="evenodd"/><path fill="#F9E813" fill-rule="evenodd" d="M5.32139 9.65222 5.61181 9.30612 5.72718 9.40292 5.43676 9.74903 5.32139 9.65222zM5.62748 9.28745 5.9179 8.94134 6.03326 9.03815 5.74285 9.38425 5.62748 9.28745zM5.59827 9.88455 5.79188 9.65382 6.13799 9.94423 5.94438 10.175 5.59827 9.88455zM5.98089 9.42859 6.1745 9.19785 6.5206 9.48827 6.32699 9.719 5.98089 9.42859zM5.82784 9.61099 5.92465 9.49562 6.27075 9.78604 6.17395 9.90141 5.82784 9.61099z" clip-rule="evenodd"/><path fill="#060101" fill-rule="evenodd" d="M5.50598 9.80713 6.04164 9.16876 6.15701 9.26556 5.62135 9.90393 5.50598 9.80713zM5.78286 10.0395 6.31852 9.40109 6.43389 9.49789 5.89823 10.1363 5.78286 10.0395z" clip-rule="evenodd"/><path fill="#F9E813" fill-rule="evenodd" d="M5.49021 9.63849 5.58701 9.52312 5.70238 9.61993 5.60558 9.73529 5.49021 9.63849zM5.7963 9.27371 5.8931 9.15834 6.00847 9.25515 5.91167 9.37052 5.7963 9.27371zM5.55096 9.37863 5.64777 9.26326 5.8785 9.45687 5.7817 9.57224 5.55096 9.37863zM9.36154 9.04138 9.65195 9.38749 9.42122 9.5811 9.1308 9.23499 9.36154 9.04138z" clip-rule="evenodd"/><path fill="#060101" fill-rule="evenodd" d="M9.1162 8.93643L9.65186 9.5748L9.53649 9.67161L9.00083 9.03324L9.1162 8.93643Z" clip-rule="evenodd"/><path fill="#F9E813" fill-rule="evenodd" d="M9.0239 9.01385 9.31432 9.35996 9.19895 9.45676 8.90853 9.11066 9.0239 9.01385zM9.32999 9.37866 9.62041 9.72477 9.50504 9.82157 9.21463 9.47547 9.32999 9.37866zM8.74702 9.24619 8.94063 9.47692 8.59453 9.76734 8.40092 9.5366 8.74702 9.24619zM9.12963 9.70218 9.32324 9.93292 8.97714 10.2233 8.78353 9.9926 9.12963 9.70218zM8.97659 9.51978 9.07339 9.63514 8.72729 9.92556 8.63048 9.81019 8.97659 9.51978z" clip-rule="evenodd"/><path fill="#060101" fill-rule="evenodd" d="M8.83931 9.16876 9.37497 9.80713 9.2596 9.90394 8.72395 9.26557 8.83931 9.16876zM8.56243 9.40109 9.09809 10.0395 8.98272 10.1363 8.44706 9.4979 8.56243 9.40109z" clip-rule="evenodd"/><path fill="#F9E813" fill-rule="evenodd" d="M9.00813 9.1825 9.10494 9.29786 8.98957 9.39467 8.89276 9.2793 9.00813 9.1825zM9.31422 9.5473 9.41103 9.66267 9.29566 9.75948 9.19885 9.64411 9.31422 9.5473zM9.25347 9.28745 9.35028 9.40281 9.11954 9.59642 9.02274 9.48106 9.25347 9.28745z" clip-rule="evenodd"/><path fill="#013399" fill-rule="evenodd" d="M7.84902 5.75299H7.02381V6.35391C7.02381 6.35391 7.08505 6.66423 7.43642 6.66423 7.78778 6.66423 7.84902 6.35391 7.84902 6.35391V5.75299zM7.38095 5.99395C7.38095 6.06049 7.32765 6.11444 7.26191 6.11444 7.19616 6.11444 7.14286 6.06049 7.14286 5.99395 7.14286 5.92741 7.19616 5.87347 7.26191 5.87347 7.32765 5.87347 7.38095 5.92741 7.38095 5.99395zM7.26191 6.59636C7.32765 6.59636 7.38095 6.54242 7.38095 6.47588 7.38095 6.40934 7.32765 6.3554 7.26191 6.3554 7.19616 6.3554 7.14286 6.40934 7.14286 6.47588 7.14286 6.54242 7.19616 6.59636 7.26191 6.59636zM7.7381 6.47588C7.7381 6.54242 7.6848 6.59636 7.61905 6.59636 7.5533 6.59636 7.5 6.54242 7.5 6.47588 7.5 6.40934 7.5533 6.3554 7.61905 6.3554 7.6848 6.3554 7.7381 6.40934 7.7381 6.47588zM7.44048 6.3554C7.50623 6.3554 7.55953 6.30146 7.55953 6.23492 7.55953 6.16838 7.50623 6.11444 7.44048 6.11444 7.37473 6.11444 7.32143 6.16838 7.32143 6.23492 7.32143 6.30146 7.37473 6.3554 7.44048 6.3554zM7.7381 5.99395C7.7381 6.06049 7.6848 6.11444 7.61905 6.11444 7.5533 6.11444 7.5 6.06049 7.5 5.99395 7.5 5.92741 7.5533 5.87347 7.61905 5.87347 7.6848 5.87347 7.7381 5.92741 7.7381 5.99395zM7.84902 7.07831H7.02381V7.67923C7.02381 7.67923 7.08505 7.98955 7.43642 7.98955 7.78778 7.98955 7.84902 7.67923 7.84902 7.67923V7.07831zM7.38095 7.31927C7.38095 7.38581 7.32765 7.43975 7.26191 7.43975 7.19616 7.43975 7.14286 7.38581 7.14286 7.31927 7.14286 7.25273 7.19616 7.19879 7.26191 7.19879 7.32765 7.19879 7.38095 7.25273 7.38095 7.31927zM7.26191 7.92168C7.32765 7.92168 7.38095 7.86774 7.38095 7.8012 7.38095 7.73466 7.32765 7.68072 7.26191 7.68072 7.19616 7.68072 7.14286 7.73466 7.14286 7.8012 7.14286 7.86774 7.19616 7.92168 7.26191 7.92168zM7.7381 7.8012C7.7381 7.86774 7.6848 7.92168 7.61905 7.92168 7.5533 7.92168 7.5 7.86774 7.5 7.8012 7.5 7.73466 7.5533 7.68072 7.61905 7.68072 7.6848 7.68072 7.7381 7.73466 7.7381 7.8012zM7.44048 7.68072C7.50623 7.68072 7.55953 7.62678 7.55953 7.56024 7.55953 7.4937 7.50623 7.43975 7.44048 7.43975 7.37473 7.43975 7.32143 7.4937 7.32143 7.56024 7.32143 7.62678 7.37473 7.68072 7.44048 7.68072zM7.7381 7.31927C7.7381 7.38581 7.6848 7.43975 7.61905 7.43975 7.5533 7.43975 7.5 7.38581 7.5 7.31927 7.5 7.25273 7.5533 7.19879 7.61905 7.19879 7.6848 7.19879 7.7381 7.25273 7.7381 7.31927zM8.92045 7.07831H8.09524V7.67923C8.09524 7.67923 8.15647 7.98955 8.50784 7.98955 8.85921 7.98955 8.92045 7.67923 8.92045 7.67923V7.07831zM8.45238 7.31927C8.45238 7.38581 8.39908 7.43975 8.33333 7.43975 8.26758 7.43975 8.21429 7.38581 8.21429 7.31927 8.21429 7.25273 8.26758 7.19879 8.33333 7.19879 8.39908 7.19879 8.45238 7.25273 8.45238 7.31927zM8.33333 7.92168C8.39908 7.92168 8.45238 7.86774 8.45238 7.8012 8.45238 7.73466 8.39908 7.68072 8.33333 7.68072 8.26758 7.68072 8.21429 7.73466 8.21429 7.8012 8.21429 7.86774 8.26758 7.92168 8.33333 7.92168zM8.80952 7.8012C8.80952 7.86774 8.75622 7.92168 8.69048 7.92168 8.62473 7.92168 8.57143 7.86774 8.57143 7.8012 8.57143 7.73466 8.62473 7.68072 8.69048 7.68072 8.75622 7.68072 8.80952 7.73466 8.80952 7.8012zM8.5119 7.68072C8.57765 7.68072 8.63095 7.62678 8.63095 7.56024 8.63095 7.4937 8.57765 7.43975 8.5119 7.43975 8.44616 7.43975 8.39286 7.4937 8.39286 7.56024 8.39286 7.62678 8.44616 7.68072 8.5119 7.68072zM8.80952 7.31927C8.80952 7.38581 8.75622 7.43975 8.69048 7.43975 8.62473 7.43975 8.57143 7.38581 8.57143 7.31927 8.57143 7.25273 8.62473 7.19879 8.69048 7.19879 8.75622 7.19879 8.80952 7.25273 8.80952 7.31927zM6.77759 7.07831H5.95238V7.67923C5.95238 7.67923 6.01362 7.98955 6.36498 7.98955 6.71635 7.98955 6.77759 7.67923 6.77759 7.67923V7.07831zM6.30952 7.31927C6.30952 7.38581 6.25622 7.43975 6.19048 7.43975 6.12473 7.43975 6.07143 7.38581 6.07143 7.31927 6.07143 7.25273 6.12473 7.19879 6.19048 7.19879 6.25622 7.19879 6.30952 7.25273 6.30952 7.31927zM6.19048 7.92168C6.25622 7.92168 6.30952 7.86774 6.30952 7.8012 6.30952 7.73466 6.25622 7.68072 6.19048 7.68072 6.12473 7.68072 6.07143 7.73466 6.07143 7.8012 6.07143 7.86774 6.12473 7.92168 6.19048 7.92168zM6.66667 7.8012C6.66667 7.86774 6.61337 7.92168 6.54762 7.92168 6.48187 7.92168 6.42857 7.86774 6.42857 7.8012 6.42857 7.73466 6.48187 7.68072 6.54762 7.68072 6.61337 7.68072 6.66667 7.73466 6.66667 7.8012zM6.36905 7.68072C6.4348 7.68072 6.4881 7.62678 6.4881 7.56024 6.4881 7.4937 6.4348 7.43975 6.36905 7.43975 6.3033 7.43975 6.25 7.4937 6.25 7.56024 6.25 7.62678 6.3033 7.68072 6.36905 7.68072zM6.66667 7.31927C6.66667 7.38581 6.61337 7.43975 6.54762 7.43975 6.48187 7.43975 6.42857 7.38581 6.42857 7.31927 6.42857 7.25273 6.48187 7.19879 6.54762 7.19879 6.61337 7.19879 6.66667 7.25273 6.66667 7.31927zM7.84902 8.40359H7.02381V9.00452C7.02381 9.00452 7.08505 9.31483 7.43642 9.31483 7.78778 9.31483 7.84902 9.00452 7.84902 9.00452V8.40359zM7.38095 8.64456C7.38095 8.7111 7.32765 8.76504 7.26191 8.76504 7.19616 8.76504 7.14286 8.7111 7.14286 8.64456 7.14286 8.57802 7.19616 8.52408 7.26191 8.52408 7.32765 8.52408 7.38095 8.57802 7.38095 8.64456zM7.26191 9.24697C7.32765 9.24697 7.38095 9.19303 7.38095 9.12649 7.38095 9.05995 7.32765 9.006 7.26191 9.006 7.19616 9.006 7.14286 9.05995 7.14286 9.12649 7.14286 9.19303 7.19616 9.24697 7.26191 9.24697zM7.7381 9.12649C7.7381 9.19303 7.6848 9.24697 7.61905 9.24697 7.5533 9.24697 7.5 9.19303 7.5 9.12649 7.5 9.05995 7.5533 9.006 7.61905 9.006 7.6848 9.006 7.7381 9.05995 7.7381 9.12649zM7.44048 9.006C7.50623 9.006 7.55953 8.95206 7.55953 8.88552 7.55953 8.81898 7.50623 8.76504 7.44048 8.76504 7.37473 8.76504 7.32143 8.81898 7.32143 8.88552 7.32143 8.95206 7.37473 9.006 7.44048 9.006zM7.7381 8.64456C7.7381 8.7111 7.6848 8.76504 7.61905 8.76504 7.5533 8.76504 7.5 8.7111 7.5 8.64456 7.5 8.57802 7.5533 8.52408 7.61905 8.52408 7.6848 8.52408 7.7381 8.57802 7.7381 8.64456z" clip-rule="evenodd"/></g><defs><clipPath id="PT_svg__a"><path fill="#fff" d="M0 0H20V15H0z"/></clipPath></defs></svg>