<svg xmlns="http://www.w3.org/2000/svg" fill="none" viewBox="0 0 20 15"><g clip-path="url(#PY_svg__a)"><path fill="#fff" d="M0 0H20V15H0z"/><path fill="#F7FCFF" fill-rule="evenodd" d="M0 0V15H20V0H0Z" clip-rule="evenodd"/><mask id="PY_svg__b" width="20" height="15" x="0" y="0" maskUnits="userSpaceOnUse" style="mask-type:luminance"><path fill="#fff" fill-rule="evenodd" d="M0 0V15H20V0H0Z" clip-rule="evenodd"/></mask><g mask="url(#PY_svg__b)"><path stroke="#272727" stroke-width=".625" d="M12.1875 7.5C12.1875 8.70812 11.2081 9.6875 10 9.6875C8.79188 9.6875 7.8125 8.70812 7.8125 7.5C7.8125 6.29188 8.79188 5.3125 10 5.3125C11.2081 5.3125 12.1875 6.29188 12.1875 7.5Z"/><path fill="#F05234" fill-rule="evenodd" d="M0 0V5H20V0H0Z" clip-rule="evenodd"/><path fill="#3D58DB" fill-rule="evenodd" d="M0 10V15H20V10H0Z" clip-rule="evenodd"/><path stroke="#73BE4A" stroke-width=".625" d="M9.17375 6.35993C9.17375 6.35993 8.46987 6.84722 8.72306 7.79211C8.97624 8.73699 9.96305 8.77126 9.96305 8.77126"/><path stroke="#73BE4A" stroke-width=".625" d="M10.7298 6.35993C10.7298 6.35993 11.4336 6.84722 11.1805 7.79211C10.9273 8.73699 9.94047 8.77126 9.94047 8.77126"/><path fill="#FBCD17" fill-rule="evenodd" d="M10.0015 7.96701C10.3467 7.96701 10.6265 7.68719 10.6265 7.34201C10.6265 6.99683 10.3467 6.71701 10.0015 6.71701C9.65633 6.71701 9.37651 6.99683 9.37651 7.34201C9.37651 7.68719 9.65633 7.96701 10.0015 7.96701Z" clip-rule="evenodd"/></g></g><defs><clipPath id="PY_svg__a"><path fill="#fff" d="M0 0H20V15H0z"/></clipPath></defs></svg>