<svg xmlns="http://www.w3.org/2000/svg" fill="none" viewBox="0 0 20 15"><g clip-path="url(#SB_svg__a)"><path fill="#fff" d="M0 0H20V15H0z"/><path fill="#3D58DB" fill-rule="evenodd" d="M0 0V15H20V0H0Z" clip-rule="evenodd"/><mask id="SB_svg__b" width="20" height="15" x="0" y="0" maskUnits="userSpaceOnUse" style="mask-type:luminance"><path fill="#fff" fill-rule="evenodd" d="M0 0V15H20V0H0Z" clip-rule="evenodd"/></mask><g mask="url(#SB_svg__b)"><path fill="#579D20" fill-rule="evenodd" d="M0 15H20V0L0 15Z" clip-rule="evenodd"/><path fill="#FECA00" d="M-0.488746 15.4658L-1.61609 13.9057L21.047 -1.22144L22.1743 0.33862L-0.488746 15.4658Z"/><path fill="#F7FCFF" fill-rule="evenodd" d="M2.2833 4.09162L3.13553 3.5005L4.02804 4.03186L3.71544 3.07916L4.33963 2.39744H3.49394L3.13553 1.39627L2.77713 2.39744L1.92999 2.43241L2.55562 3.07916L2.2833 4.09162ZM5.81966 4.09162L6.67189 3.5005L7.56441 4.03186L7.2518 3.07916L7.87599 2.39744H7.0303L6.67189 1.39627L6.31349 2.39744L5.46635 2.43241L6.09198 3.07916L5.81966 4.09162Z" clip-rule="evenodd"/><path fill="#F7FCFF" fill-rule="evenodd" d="M4.15499 5.90909L5.00722 5.31797L5.89973 5.84934L5.58713 4.89664L6.21132 4.21491H5.36563L5.00722 3.21375L4.64882 4.21491L3.80168 4.24988L4.42731 4.89664L4.15499 5.90909ZM3.13553 7.25049L2.2833 7.84161L2.55562 6.82916L1.92999 6.1824L2.77713 6.14743L3.13553 5.14626L3.49394 6.14743H4.33963L3.71544 6.82916L4.02804 7.78185L3.13553 7.25049ZM6.67189 7.25049L5.81966 7.84161L6.09198 6.82916L5.46635 6.1824L6.31349 6.14743L6.67189 5.14626L7.0303 6.14743H7.87599L7.2518 6.82916L7.56441 7.78185L6.67189 7.25049Z" clip-rule="evenodd"/></g></g><defs><clipPath id="SB_svg__a"><path fill="#fff" d="M0 0H20V15H0z"/></clipPath></defs></svg>