<svg xmlns="http://www.w3.org/2000/svg" fill="none" viewBox="0 0 20 15"><g clip-path="url(#SV_svg__a)"><path fill="#fff" d="M0 0H20V15H0z"/><path fill="#F7FCFF" fill-rule="evenodd" d="M0 0V15H20V0H0Z" clip-rule="evenodd"/><mask id="SV_svg__b" width="20" height="15" x="0" y="0" maskUnits="userSpaceOnUse" style="mask-type:luminance"><path fill="#fff" fill-rule="evenodd" d="M0 0V15H20V0H0Z" clip-rule="evenodd"/></mask><g mask="url(#SV_svg__b)"><path fill="#3D58DB" fill-rule="evenodd" d="M0 0V5H20V0H0zM0 10V15H20V10H0z" clip-rule="evenodd"/><path stroke="#E8AA00" stroke-width=".625" d="M12.1409 7.41137C12.1409 8.66844 11.1218 9.68749 9.86474 9.68749C8.60768 9.68749 7.58862 8.66844 7.58862 7.41137C7.58862 6.15431 8.60768 5.13525 9.86474 5.13525C11.1218 5.13525 12.1409 6.15431 12.1409 7.41137Z"/><path fill="#1E601B" fill-rule="evenodd" d="M8.63169 6.03894C8.63169 6.03894 8.03635 7.01873 8.03635 7.69136C8.03635 8.36398 8.74896 9.20942 9.87013 9.20942C10.9638 9.20942 11.7498 8.55615 11.7736 7.69136C11.7974 6.82656 11.1853 6.21093 11.1853 6.21093C11.1853 6.21093 11.5317 7.45599 11.3585 7.96051C11.1853 8.46503 10.6246 9.07545 9.87013 8.99774C9.11565 8.92002 8.39964 7.99137 8.39964 7.69136C8.39964 7.39134 8.63169 6.03894 8.63169 6.03894Z" clip-rule="evenodd"/><path stroke="#188396" stroke-width=".625" d="M8.85031 7.70524H10.8549"/><path stroke="#E8AA00" stroke-width=".625" d="M9.0369 7.37877H10.7616M10.656 7.75702H9.12087L9.89544 6.47183 10.656 7.75702z"/></g></g><defs><clipPath id="SV_svg__a"><path fill="#fff" d="M0 0H20V15H0z"/></clipPath></defs></svg>