<svg xmlns="http://www.w3.org/2000/svg" fill="none" viewBox="0 0 20 15"><g clip-path="url(#TGO_svg__a)"><path fill="#fff" d="M0 0H20V15H0z"/><path fill="#5EAA22" stroke="#F7FCFF" stroke-width="1.25" d="M0 -0.625H-0.625V0V15V15.625H0H20H20.625V15V0V-0.625H20H0Z"/><path fill="#FECA00" fill-rule="evenodd" d="M0 3.75V6.25H20V3.75H0zM0 8.75V11.25H20V8.75H0z" clip-rule="evenodd"/><path fill="#F50101" d="M0 0H10V8.75H0z"/><path fill="#F7FCFF" fill-rule="evenodd" d="M5.15625 6.34009L2.83167 7.7785L3.73414 5.36377L1.875 3.73696H4.15486L5.15625 1.33112L5.92044 3.73696H8.17287L6.5909 5.36377L7.36943 7.66004L5.15625 6.34009Z" clip-rule="evenodd"/></g><defs><clipPath id="TGO_svg__a"><path fill="#fff" d="M0 0H20V15H0z"/></clipPath></defs></svg>