<svg xmlns="http://www.w3.org/2000/svg" fill="none" viewBox="0 0 20 15"><g clip-path="url(#TR_svg__a)"><path fill="#fff" d="M0 0H20V15H0z"/><path fill="#E31D1C" fill-rule="evenodd" d="M0 0V15H20V0H0Z" clip-rule="evenodd"/><mask id="TR_svg__b" width="20" height="15" x="0" y="0" maskUnits="userSpaceOnUse" style="mask-type:luminance"><path fill="#fff" fill-rule="evenodd" d="M0 0V15H20V0H0Z" clip-rule="evenodd"/></mask><g mask="url(#TR_svg__b)"><path fill="#F7FCFF" fill-rule="evenodd" d="M10.0159 10.071C8.67757 9.74127 7.62936 8.62106 7.64153 6.97897C7.65291 5.44184 8.58357 4.14256 10.0548 3.79083C11.526 3.4391 12.8213 4.18574 12.8213 4.18574C12.4147 3.22585 11.0021 2.55151 9.84393 2.55345C7.68817 2.55706 5.39012 4.30534 5.37031 6.97897C5.34977 9.75084 7.83118 11.3294 10.0136 11.3258C11.7631 11.3228 12.593 10.1259 12.7648 9.61669C12.7648 9.61669 11.3542 10.4007 10.0159 10.071ZM13.0646 6.45413L11.7311 6.94392L13.2356 7.47467L13.21 9.06053L14.2013 7.87078L15.8389 7.98977L14.5412 6.8743L15.3931 5.68443L14.006 6.15128L13.0145 5.04904L13.0646 6.45413Z" clip-rule="evenodd"/></g></g><defs><clipPath id="TR_svg__a"><path fill="#fff" d="M0 0H20V15H0z"/></clipPath></defs></svg>