<svg xmlns="http://www.w3.org/2000/svg" fill="none" viewBox="0 0 20 15"><g clip-path="url(#URY_svg__a)"><path fill="#fff" d="M0 0H20V15H0z"/><path fill="#F7FCFF" fill-rule="evenodd" d="M0 0V15H20V0H0Z" clip-rule="evenodd"/><mask id="URY_svg__b" width="20" height="15" x="0" y="0" maskUnits="userSpaceOnUse" style="mask-type:luminance"><path fill="#fff" fill-rule="evenodd" d="M0 0V15H20V0H0Z" clip-rule="evenodd"/></mask><g mask="url(#URY_svg__b)"><path fill="#2E42A5" d="M0 2.5H20V3.75H0z"/><path fill="#2E42A5" d="M0 5H20V6.25H0z"/><path fill="#2E42A5" d="M0 7.5H20V8.75H0z"/><path fill="#2E42A5" d="M0 10H20V11.25H0z"/><path fill="#2E42A5" d="M0 12.5H20V13.75H0z"/><path fill="#F7FCFF" d="M0 0H10V8.75H0z"/><path fill="#FFD018" fill-rule="evenodd" stroke="#F19900" stroke-opacity=".98" stroke-width=".5" d="M5.7672 6.89823C5.7672 6.89823 5.12851 8.22242 4.56717 8.49391C4.80947 7.88656 4.89865 6.64735 4.89865 6.64735C4.89865 6.64735 3.44121 7.22519 2.92966 7.11987C3.54477 6.69004 4.39857 5.8939 4.39857 5.8939C4.39857 5.8939 2.51218 5.27719 2.55846 5.01472C3.41001 5.16747 4.58108 5.00096 4.58108 5.00096C4.58108 5.00096 3.25771 3.41393 3.39192 3.29592C3.59364 3.49199 5.17961 4.32044 5.17961 4.32044C5.17961 4.32044 5.29467 2.90844 5.63599 2.43237C5.67693 2.76842 6.15599 4.2899 6.15599 4.2899C6.15599 4.2899 7.11904 3.32629 7.65356 3.32629C7.41878 3.61739 6.86284 4.89611 6.86284 4.89611C6.86284 4.89611 8.24834 4.8743 8.77505 5.13362C8.137 5.22437 7.01915 5.78557 7.01915 5.78557C7.01915 5.78557 8.47505 6.88996 8.34232 7.11987C7.56063 6.73749 6.65692 6.60942 6.65692 6.60942C6.65692 6.60942 6.90671 8.14634 6.7048 8.49391C6.50787 7.98228 5.7672 6.89823 5.7672 6.89823Z" clip-rule="evenodd"/><path fill="#FFD018" fill-rule="evenodd" stroke="#F19900" stroke-opacity=".98" stroke-width=".5" d="M5.68346 6.18237C6.02864 6.18237 6.30846 5.90255 6.30846 5.55737C6.30846 5.2122 6.02864 4.93237 5.68346 4.93237C5.33828 4.93237 5.05846 5.2122 5.05846 5.55737C5.05846 5.90255 5.33828 6.18237 5.68346 6.18237Z" clip-rule="evenodd"/></g></g><defs><clipPath id="URY_svg__a"><path fill="#fff" d="M0 0H20V15H0z"/></clipPath></defs></svg>