<svg xmlns="http://www.w3.org/2000/svg" fill="none" viewBox="0 0 20 15"><g clip-path="url(#WSM_svg__a)"><path fill="#fff" d="M0 0H20V15H0z"/><path fill="#C51918" fill-rule="evenodd" d="M0 0V15H20V0H0Z" clip-rule="evenodd"/><mask id="WSM_svg__b" width="20" height="15" x="0" y="0" maskUnits="userSpaceOnUse" style="mask-type:luminance"><path fill="#fff" fill-rule="evenodd" d="M0 0V15H20V0H0Z" clip-rule="evenodd"/></mask><g fill-rule="evenodd" clip-rule="evenodd" mask="url(#WSM_svg__b)"><path fill="#2E42A5" d="M0 0V8.75H10V0H0Z"/><path fill="#FEFFFF" d="M2.22854 4.85748 1.56601 5.25745 1.71713 4.47695 1.1654 3.89282 1.91247 3.86124 2.22854 3.13245 2.54461 3.86124H3.2904L2.73995 4.47695 2.90567 5.25745 2.22854 4.85748zM7.22854 4.85748 6.56601 5.25745 6.71713 4.47695 6.1654 3.89282 6.91247 3.86124 7.22854 3.13245 7.54461 3.86124H8.2904L7.73995 4.47695 7.90567 5.25745 7.22854 4.85748zM4.666 2.58621 4.04244 2.96265 4.18467 2.22806 3.6654 1.67829 4.36852 1.64857 4.666.962646 4.96348 1.64857H5.6654L5.14733 2.22806 5.3033 2.96265 4.666 2.58621zM5.3414 5.26576 4.95168 5.50104 5.04057 5.04192 4.71603 4.69832 5.15548 4.67974 5.3414 4.25104 5.52733 4.67974H5.96603L5.64223 5.04192 5.73972 5.50104 5.3414 5.26576zM4.63048 8.01768 3.69515 8.58234 3.90849 7.48046 3.12959 6.65581 4.18427 6.61122 4.63048 5.58234 5.0767 6.61122H6.12959L5.35247 7.48046 5.58643 8.58234 4.63048 8.01768z"/></g></g><defs><clipPath id="WSM_svg__a"><path fill="#fff" d="M0 0H20V15H0z"/></clipPath></defs></svg>