<svg xmlns="http://www.w3.org/2000/svg" fill="none" viewBox="0 0 16 12"><g clip-path="url(#020_svg__a)"><path fill="#fff" d="M0 0H16V12H0z"/><path fill="#FFD018" fill-rule="evenodd" d="M4 0H12V12H4V0Z" clip-rule="evenodd"/><path fill="#2E42A5" fill-rule="evenodd" d="M0 0H4V12H0V0Z" clip-rule="evenodd"/><path fill="#E31D1C" fill-rule="evenodd" d="M12 0H16V12H12V0Z" clip-rule="evenodd"/><path fill="#BF9937" fill-rule="evenodd" d="M4.90002 3.60712C4.90002 3.05206 5.35208 2.6032 5.90712 2.60714L10.3017 2.63832C10.8512 2.64222 11.2947 3.08878 11.2947 3.6383V7.64537C11.2947 7.64537 10.8505 9.64537 8.14899 9.64537C5.44743 9.64537 4.90002 7.6 4.90002 7.6V3.60712Z" clip-rule="evenodd"/><path fill="#BF9937" fill-rule="evenodd" d="M5.15002 4.20001C5.56424 4.20001 5.90002 3.86423 5.90002 3.45001 5.90002 3.0358 5.56424 2.70001 5.15002 2.70001 4.73581 2.70001 4.40002 3.0358 4.40002 3.45001 4.40002 3.86423 4.73581 4.20001 5.15002 4.20001zM5.15002 6.40002C5.56424 6.40002 5.90002 6.06424 5.90002 5.65002 5.90002 5.23581 5.56424 4.90002 5.15002 4.90002 4.73581 4.90002 4.40002 5.23581 4.40002 5.65002 4.40002 6.06424 4.73581 6.40002 5.15002 6.40002zM5.15002 8.20001C5.56424 8.20001 5.90002 7.86423 5.90002 7.45001 5.90002 7.0358 5.56424 6.70001 5.15002 6.70001 4.73581 6.70001 4.40002 7.0358 4.40002 7.45001 4.40002 7.86423 4.73581 8.20001 5.15002 8.20001zM10.85 4.20001C11.2642 4.20001 11.6 3.86423 11.6 3.45001 11.6 3.0358 11.2642 2.70001 10.85 2.70001 10.4358 2.70001 10.1 3.0358 10.1 3.45001 10.1 3.86423 10.4358 4.20001 10.85 4.20001zM10.85 6.40002C11.2642 6.40002 11.6 6.06424 11.6 5.65002 11.6 5.23581 11.2642 4.90002 10.85 4.90002 10.4358 4.90002 10.1 5.23581 10.1 5.65002 10.1 6.06424 10.4358 6.40002 10.85 6.40002zM10.85 8.20001C11.2642 8.20001 11.6 7.86423 11.6 7.45001 11.6 7.0358 11.2642 6.70001 10.85 6.70001 10.4358 6.70001 10.1 7.0358 10.1 7.45001 10.1 7.86423 10.4358 8.20001 10.85 8.20001z" clip-rule="evenodd"/><path fill="#805440" d="M5.91187 8.33519L5.96441 8.20813C6.56826 8.46697 7.25543 8.59657 8.02636 8.59657C8.7969 8.59657 9.46558 8.4671 10.0328 8.20874L10.0881 8.33458C9.50246 8.60133 8.81505 8.73442 8.02636 8.73442C7.23806 8.73442 6.53308 8.60147 5.91187 8.33519Z"/></g><defs><clipPath id="020_svg__a"><path fill="#fff" d="M0 0H16V12H0z"/></clipPath></defs></svg>