<svg xmlns="http://www.w3.org/2000/svg" fill="none" viewBox="0 0 16 12"><g clip-path="url(#140_svg__a)"><path fill="#fff" d="M0 0H16V12H0z"/><path fill="#3D58DB" fill-rule="evenodd" d="M0 0H16V3H0V0Z" clip-rule="evenodd"/><path fill="#F7FCFF" fill-rule="evenodd" d="M0 3H16V6H0V3Z" clip-rule="evenodd"/><path fill="#73BE4A" fill-rule="evenodd" d="M0 6H16V9H0V6Z" clip-rule="evenodd"/><path fill="#FFD018" fill-rule="evenodd" d="M0 9H16V12H0V9Z" clip-rule="evenodd"/><path fill="#FECA00" fill-rule="evenodd" d="M2.26476 2.70803L1.05249 3.54888L1.43986 2.1087L0.549927 1.18871L1.75494 1.13897L2.26476 -0.285156L2.77458 1.13897H3.97755L3.08967 2.1087L3.53433 3.46388L2.26476 2.70803Z" clip-rule="evenodd"/><path fill="#E11C1B" fill-rule="evenodd" d="M6 0H10V12H6V0Z" clip-rule="evenodd"/></g><defs><clipPath id="140_svg__a"><path fill="#fff" d="M0 0H16V12H0z"/></clipPath></defs></svg>