<svg xmlns="http://www.w3.org/2000/svg" fill="none" viewBox="0 0 16 12"><g clip-path="url(#292_svg__a)"><path fill="#fff" d="M0 0H16V12H0z"/><path fill="#F7FCFF" d="M0 0H16V12H0z"/><path fill="#C51918" fill-rule="evenodd" d="M0 8H16V12H0V8Z" clip-rule="evenodd"/><path fill="#DB000B" fill-rule="evenodd" d="M8.22896 0.633331H7.28159V1.48095H7.74921L7.71585 3.8119H6.33423V2.75238H6.80791V1.90476H5.86054V2.32857H5.38686V1.90476H4.43949V2.75238H4.91317V3.8119H3.91425V4.65952L4.38793 4.65952V7.20238H3.91425V8.05H12.9142V7.20238H11.9669V4.65952H12.9142V3.8119H11.9856L12.0091 2.75238H12.4921V1.90476H11.5448V2.32857H11.0711V1.90476H10.1237V2.75238H10.588L10.5646 3.8119H9.1369L9.17027 1.48095H9.65002V0.633331H8.70265V1.05714H8.22896V0.633331Z" clip-rule="evenodd"/><path fill="#272727" fill-rule="evenodd" d="M5.80792 6.84514C5.80792 6.53993 6.05534 6.29251 6.36055 6.29251 6.66576 6.29251 6.91319 6.53993 6.91319 6.84514V7.75918H5.80792V6.84514zM9.86053 6.84514C9.86053 6.53993 10.108 6.29251 10.4132 6.29251 10.7184 6.29251 10.9658 6.53993 10.9658 6.84514V7.75918H9.86053V6.84514zM7.65002 6.66268C7.65002 6.25574 7.97992 5.92584 8.38687 5.92584 8.79381 5.92584 9.12371 6.25574 9.12371 6.66268V8.12584H7.65002V6.66268z" clip-rule="evenodd"/><path fill="#E8AA00" fill-rule="evenodd" d="M8.66114 7.59863 8.57074 7.76461 8.40238 7.5134 7.02295 8.43787 8.56089 9.16978 9.91726 8.28282 8.66114 7.59863zM8.03128 8.364 8.47502 8.06662 8.94382 8.32196 8.52223 8.59765 8.03128 8.364zM7.57892 10.2667H8.31576V11H7.57892V10.2667z" clip-rule="evenodd"/><path fill="#E8AA00" fill-rule="evenodd" d="M8 9H8.87441V11H8V9Z" clip-rule="evenodd"/></g><defs><clipPath id="292_svg__a"><path fill="#fff" d="M0 0H16V12H0z"/></clipPath></defs></svg>