<svg xmlns="http://www.w3.org/2000/svg" fill="none" viewBox="0 0 16 12"><g clip-path="url(#558_svg__a)"><path fill="#fff" d="M0 0H16V12H0z"/><path fill="#F7FCFF" fill-rule="evenodd" d="M0 0V12H16V0H0Z" clip-rule="evenodd"/><mask id="558_svg__b" width="16" height="12" x="0" y="0" maskUnits="userSpaceOnUse" style="mask-type:luminance"><path fill="#fff" fill-rule="evenodd" d="M0 0V12H16V0H0Z" clip-rule="evenodd"/></mask><g mask="url(#558_svg__b)"><path fill="#0080EC" fill-rule="evenodd" d="M0 0V4H16V0H0zM0 8V12H16V8H0z" clip-rule="evenodd"/><path fill="#D0AB00" fill-rule="evenodd" d="M8 4C8.09423 4 8.18693 4.00652 8.27769 4.01912L8.17865 4.65713C8.12019 4.64943 8.06056 4.64545 8 4.64545C7.91193 4.64545 7.82582 4.65386 7.74244 4.66991L7.69615 4.02293C7.79523 4.00783 7.8967 4 8 4ZM8.57606 4.08421L8.40227 4.70619C8.95394 4.87752 9.35455 5.39198 9.35455 6C9.35455 6.01495 9.3543 6.02984 9.35382 6.04466L9.99758 6.09924C9.99919 6.06636 10 6.03328 10 6C10 5.09569 9.39982 4.33155 8.57606 4.08421ZM9.75672 6.95678C9.43979 7.53748 8.84331 7.9437 8.14815 7.9946V7.34654C8.51849 7.30625 8.844 7.11669 9.06327 6.83928L9.75672 6.95678ZM6.2884 7.03518C6.62038 7.58292 7.20788 7.95856 7.88559 7.99678V7.34978C7.49062 7.31675 7.14382 7.11425 6.91814 6.81522L6.2884 7.03518ZM6.00181 6.08576C6.00061 6.05732 6 6.02873 6 6C6 5.15078 6.52928 4.42518 7.27596 4.13508L7.44289 4.76496C6.97543 4.97616 6.6493 5.44495 6.64549 5.99034L6.00181 6.08576Z" clip-rule="evenodd"/><path fill="#7CDFFF" fill-rule="evenodd" d="M7.98746 4.47485L6.61902 6.84024H9.37738L7.98746 4.47485Z" clip-rule="evenodd"/><mask id="558_svg__c" width="4" height="3" x="6" y="4" maskUnits="userSpaceOnUse" style="mask-type:luminance"><path fill="#fff" fill-rule="evenodd" d="M7.98746 4.47485L6.61902 6.84024H9.37738L7.98746 4.47485Z" clip-rule="evenodd"/></mask><g mask="url(#558_svg__c)"><path stroke="#E31D1C" stroke-width=".5" d="M8.00002 7.55909C8.66025 7.55909 9.19547 7.02387 9.19547 6.36364C9.19547 5.70341 8.66025 5.16818 8.00002 5.16818C7.33979 5.16818 6.80457 5.70341 6.80457 6.36364C6.80457 7.02387 7.33979 7.55909 8.00002 7.55909Z"/><path stroke="#FFD018" stroke-width=".5" d="M8.00002 7.55909C8.66025 7.55909 9.19547 7.02387 9.19547 6.36364C9.19547 5.70341 8.66025 5.16818 8.00002 5.16818C7.33979 5.16818 6.80457 5.70341 6.80457 6.36364C6.80457 7.02387 7.33979 7.55909 8.00002 7.55909Z"/><path stroke="#4EDD00" stroke-width=".5" d="M8.00002 7.55909C8.66025 7.55909 9.19547 7.02387 9.19547 6.36364C9.19547 5.70341 8.66025 5.16818 8.00002 5.16818C7.33979 5.16818 6.80457 5.70341 6.80457 6.36364C6.80457 7.02387 7.33979 7.55909 8.00002 7.55909Z"/><path stroke="#3D58DB" stroke-width=".5" d="M8.00002 7.55909C8.66025 7.55909 9.19547 7.02387 9.19547 6.36364C9.19547 5.70341 8.66025 5.16818 8.00002 5.16818C7.33979 5.16818 6.80457 5.70341 6.80457 6.36364C6.80457 7.02387 7.33979 7.55909 8.00002 7.55909Z"/><path fill="#3D58DB" d="M6.509 6.109H9.636V7.018H6.509z"/><path fill="#97C923" fill-rule="evenodd" d="M6.71851 6.49544L7.3418 5.87562L7.53309 6.18553L7.66672 5.80759L7.81513 6.09089L7.97102 5.87562L8.17271 6.09089L8.35763 5.80759L8.5157 6.09089L8.69706 5.87562L9.12085 6.32596L9.19713 6.49544L6.71851 6.62117V6.49544Z" clip-rule="evenodd"/></g></g></g><defs><clipPath id="558_svg__a"><path fill="#fff" d="M0 0H16V12H0z"/></clipPath></defs></svg>