<svg xmlns="http://www.w3.org/2000/svg" fill="none" viewBox="0 0 16 12"><g clip-path="url(#583_svg__a)"><path fill="#fff" d="M0 0H16V12H0z"/><path fill="#63B3E1" fill-rule="evenodd" d="M0 0V12H16V0H0Z" clip-rule="evenodd"/><mask id="583_svg__b" width="16" height="12" x="0" y="0" maskUnits="userSpaceOnUse" style="mask-type:luminance"><path fill="#fff" fill-rule="evenodd" d="M0 0V12H16V0H0Z" clip-rule="evenodd"/></mask><g fill="#F7FCFF" fill-rule="evenodd" clip-rule="evenodd" mask="url(#583_svg__b)"><path d="M8 3.64999 7.11832 4.11352 7.28671 3.13176 6.57342 2.43647 7.55916 2.29323 8 1.39999 8.44084 2.29323 9.42658 2.43647 8.71329 3.13176 8.88168 4.11352 8 3.64999zM7.99995 9.64999 7.11827 10.1135 7.28666 9.13176 6.57336 8.43647 7.55911 8.29323 7.99995 7.39999 8.44079 8.29323 9.42653 8.43647 8.71324 9.13176 8.88163 10.1135 7.99995 9.64999zM4.90002 6.75 4.01835 7.21353 4.18673 6.23176 3.47344 5.53647 4.45919 5.39324 4.90002 4.5 5.34086 5.39324 6.32661 5.53647 5.61332 6.23176 5.7817 7.21353 4.90002 6.75zM11 6.75 10.1183 7.21353 10.2867 6.23176 9.57342 5.53647 10.5592 5.39324 11 4.5 11.4408 5.39324 12.4266 5.53647 11.7133 6.23176 11.8817 7.21353 11 6.75z"/></g></g><defs><clipPath id="583_svg__a"><path fill="#fff" d="M0 0H16V12H0z"/></clipPath></defs></svg>