<svg xmlns="http://www.w3.org/2000/svg" fill="none" viewBox="0 0 16 12"><g clip-path="url(#678_svg__a)"><path fill="#fff" d="M0 0H16V12H0z"/><path fill="#FBCD17" fill-rule="evenodd" d="M0 0V12H16V0H0Z" clip-rule="evenodd"/><path fill="#73BE4A" fill-rule="evenodd" d="M0 0V4H16V0H0zM0 8V12H16V8H0z" clip-rule="evenodd"/><path fill="#C51918" fill-rule="evenodd" d="M0 0V12L5 6L0 0Z" clip-rule="evenodd"/><path fill="#272727" fill-rule="evenodd" d="M8.5009 6.93534 7.56556 7.5 7.77891 6.39812 7 5.57347 8.05468 5.52888 8.5009 4.5 8.94711 5.52888H10L9.22289 6.39812 9.45685 7.5 8.5009 6.93534zM12.5009 6.93534 11.5656 7.5 11.7789 6.39812 11 5.57347 12.0547 5.52888 12.5009 4.5 12.9471 5.52888H14L13.2229 6.39812 13.4568 7.5 12.5009 6.93534z" clip-rule="evenodd"/></g><defs><clipPath id="678_svg__a"><path fill="#fff" d="M0 0H16V12H0z"/></clipPath></defs></svg>