<svg xmlns="http://www.w3.org/2000/svg" fill="none" viewBox="0 0 16 12"><g clip-path="url(#ABW_svg__a)"><path fill="#fff" d="M0 0H16V12H0z"/><path fill="#5BA3DA" fill-rule="evenodd" d="M0 0V12H16V0H0Z" clip-rule="evenodd"/><mask id="ABW_svg__b" width="16" height="12" x="0" y="0" maskUnits="userSpaceOnUse" style="mask-type:luminance"><path fill="#fff" fill-rule="evenodd" d="M0 0V12H16V0H0Z" clip-rule="evenodd"/></mask><g fill-rule="evenodd" clip-rule="evenodd" mask="url(#ABW_svg__b)"><path fill="#EF2929" d="M2.78037 4.28987L0.24231 3.53564L2.83672 2.79652L3.47009 0.436462L4.20131 2.86862L6.6006 3.51048L4.19422 4.23358L3.47605 6.55789L2.78037 4.28987Z"/><path fill="red" d="M2.78037 4.28987L0.24231 3.53564L2.83672 2.79652L3.47009 0.436462L4.20131 2.86862L6.6006 3.51048L4.19422 4.23358L3.47605 6.55789L2.78037 4.28987Z"/><path fill="#FAD615" d="M16.0002 7H0.00012207V8.00006H16.0002V7ZM16.0002 9.00004H0.00012207V10.0001H16.0002V9.00004Z"/></g></g><defs><clipPath id="ABW_svg__a"><path fill="#fff" d="M0 0H16V12H0z"/></clipPath></defs></svg>