<svg xmlns="http://www.w3.org/2000/svg" fill="none" viewBox="0 0 16 12"><g clip-path="url(#AU_svg__a)"><path fill="#fff" d="M0 0H16V12H0z"/><path fill="#2E42A5" fill-rule="evenodd" d="M0 0H16V12H0V0Z" clip-rule="evenodd"/><g clip-path="url(#AU_svg__b)"><path fill="#2E42A5" d="M0 0H9V7H0z"/><path fill="#F7FCFF" d="M-1.00208 6.49993L0.9784 7.36853L9.045 0.944391L10.0897 -0.346375L7.97182 -0.636686L4.68165 2.13166L2.0334 3.99688L-1.00208 6.49993Z"/><path fill="#F50100" d="M-0.730957 7.10849L0.278004 7.61255L9.71451 -0.466309H8.29782L-0.730957 7.10849Z"/><path fill="#F7FCFF" d="M10.0022 6.49993L8.02172 7.36853L-0.0448761 0.944391L-1.08953 -0.346375L1.0283 -0.636686L4.31847 2.13166L6.96673 3.99688L10.0022 6.49993Z"/><path fill="#F50100" d="M9.93457 6.93667L8.92561 7.44073L4.90745 3.98176L3.71615 3.59529L-1.1901 -0.341973H0.226597L5.13009 3.50184L6.43256 3.96525L9.93457 6.93667Z"/><path fill="#F50100" fill-rule="evenodd" d="M4.99226 0H3.99226V3H0V4H3.99226V7H4.99226V4H9V3H4.99226V0Z" clip-rule="evenodd"/><path fill="#F7FCFF" fill-rule="evenodd" d="M3.24226 -0.75H5.74226V2.25H9.75V4.75H5.74226V7.75H3.24226V4.75H-0.75V2.25H3.24226V-0.75ZM3.99226 3H0V4H3.99226V7H4.99226V4H9V3H4.99226V0H3.99226V3Z" clip-rule="evenodd"/></g><g fill="#F7FCFF" clip-path="url(#AU_svg__c)"><path d="M4.40804 9.83423 3.81761 10.3799 3.87608 9.57805 3.08136 9.45664 3.7447 9.00243 3.34412 8.30538 4.11283 8.54081 4.40804 7.79303 4.70326 8.54081 5.47196 8.30538 5.07138 9.00243 5.73472 9.45664 4.94 9.57805 4.99847 10.3799 4.40804 9.83423zM10.776 6.06899 10.3824 6.43275 10.4213 5.89821 9.89152 5.81726 10.3337 5.51446 10.0667 5.04976 10.5792 5.20671 10.776 4.70819 10.9728 5.20671 11.4853 5.04976 11.2182 5.51446 11.6604 5.81726 11.1306 5.89821 11.1696 6.43275 10.776 6.06899zM11.7147 2.37667 11.3211 2.74043 11.3601 2.20588 10.8302 2.12494 11.2725 1.82213 11.0054 1.35744 11.5179 1.51439 11.7147 1.01587 11.9115 1.51439 12.424 1.35744 12.1569 1.82213 12.5991 2.12494 12.0693 2.20588 12.1083 2.74043 11.7147 2.37667zM14.0614 4.22286 13.6678 4.58662 13.7067 4.05208 13.1769 3.97113 13.6191 3.66833 13.3521 3.20363 13.8646 3.36058 14.0614 2.86206 14.2582 3.36058 14.7707 3.20363 14.5036 3.66833 14.9458 3.97113 14.416 4.05208 14.455 4.58662 14.0614 4.22286zM12.1841 9.53054 11.7904 9.8943 11.8294 9.35975 11.2996 9.27881 11.7418 8.976 11.4748 8.51131 11.9872 8.66826 12.1841 8.16974 12.3809 8.66826 12.8933 8.51131 12.6263 8.976 13.0685 9.27881 12.5387 9.35975 12.5777 9.8943 12.1841 9.53054zM13.8266 6.64792 13.4267 6.85817 13.5031 6.41285 13.1795 6.09746 13.6267 6.03249 13.8266 5.62732 14.0266 6.03249 14.4737 6.09746 14.1502 6.41285 14.2266 6.85817 13.8266 6.64792z"/></g></g><defs><clipPath id="AU_svg__a"><path fill="#fff" d="M0 0H16V12H0z"/></clipPath><clipPath id="AU_svg__b"><path fill="#fff" d="M0 0H9V7H0z"/></clipPath><clipPath id="AU_svg__c"><path fill="#fff" d="M0 0H12V10H0z" transform="translate(3 1)"/></clipPath></defs></svg>