<svg xmlns="http://www.w3.org/2000/svg" fill="none" viewBox="0 0 16 12"><g clip-path="url(#BIH_svg__a)"><path fill="#fff" d="M0 0H16V12H0z"/><path fill="#2E42A5" fill-rule="evenodd" d="M0 0H16V12H0V0Z" clip-rule="evenodd"/><path fill="#FECA00" fill-rule="evenodd" d="M5 0H15V12L5 0Z" clip-rule="evenodd"/><path fill="#F7FCFF" fill-rule="evenodd" d="M3.55402 1.39691 2.96624 1.70593 3.07849 1.05142 2.60297.587895 3.26013.492403 3.55402-.103088 3.84792.492403 4.50508.587895 4.02955 1.05142 4.14181 1.70593 3.55402 1.39691zM5.29737 3.53699 4.70958 3.846 4.82184 3.1915 4.34631 2.72797 5.00348 2.63248 5.29737 2.03699 5.59126 2.63248 6.24843 2.72797 5.7729 3.1915 5.88516 3.846 5.29737 3.53699zM6.93171 5.61926 6.34392 5.92828 6.45618 5.27377 5.98065 4.81025 6.63782 4.71475 6.93171 4.11926 7.2256 4.71475 7.88276 4.81025 7.40724 5.27377 7.51949 5.92828 6.93171 5.61926zM8.53266 7.61462 7.94488 7.92364 8.05713 7.26913 7.5816 6.80561 8.23877 6.71012 8.53266 6.11462 8.82655 6.71012 9.48372 6.80561 9.00819 7.26913 9.12045 7.92364 8.53266 7.61462zM10.2572 9.6684 9.66942 9.97741 9.78168 9.3229 9.30615 8.85938 9.96332 8.76389 10.2572 8.1684 10.5511 8.76389 11.2083 8.85938 10.7327 9.3229 10.845 9.97741 10.2572 9.6684zM12.1635 11.6555 11.5757 11.9645 11.6879 11.31 11.2124 10.8465 11.8696 10.751 12.1635 10.1555 12.4574 10.751 13.1145 10.8465 12.639 11.31 12.7512 11.9645 12.1635 11.6555z" clip-rule="evenodd"/></g><defs><clipPath id="BIH_svg__a"><path fill="#fff" d="M0 0H16V12H0z"/></clipPath></defs></svg>