<svg xmlns="http://www.w3.org/2000/svg" fill="none" viewBox="0 0 16 12"><g clip-path="url(#CW_svg__a)"><path fill="#fff" d="M0 0H16V12H0z"/><path fill="#2E42A5" fill-rule="evenodd" d="M0 0V12H16V0H0Z" clip-rule="evenodd"/><mask id="CW_svg__b" width="16" height="12" x="0" y="0" maskUnits="userSpaceOnUse" style="mask-type:luminance"><path fill="#fff" fill-rule="evenodd" d="M0 0V12H16V0H0Z" clip-rule="evenodd"/></mask><g fill-rule="evenodd" clip-rule="evenodd" mask="url(#CW_svg__b)"><path fill="#F7FCFF" d="M2.12721 3.07461 1.13279 3.59946 1.61292 2.66526 1 1.98157 1.76167 1.95346 2.12721 1 2.40617 1.95346 3.29748 1.98157 2.65574 2.66526 3.06286 3.59946 2.12721 3.07461zM5.67619 5.53829 4.44888 6.0524 4.93037 4.76409 3.86328 3.89965H5.14193L5.67619 2.5061 6.0839 3.89965H7.36452L6.45451 4.76409 6.90637 6.0524 5.67619 5.53829z"/><path fill="#F9E813" d="M0 7V9H16V7H0Z"/></g></g><defs><clipPath id="CW_svg__a"><path fill="#fff" d="M0 0H16V12H0z"/></clipPath></defs></svg>