<svg xmlns="http://www.w3.org/2000/svg" fill="none" viewBox="0 0 16 12"><g clip-path="url(#CXR_svg__a)"><path fill="#fff" d="M0 0H16V12H0z"/><path fill="#5EAA22" fill-rule="evenodd" d="M0 0H16V12H0V0Z" clip-rule="evenodd"/><path fill="#4141DB" fill-rule="evenodd" d="M0 0L16 12H0V0Z" clip-rule="evenodd"/><path fill="#fff" fill-rule="evenodd" d="M3 4.5 2.5 4.86603 2.56699 4.25 2 4 2.56699 3.75 2.5 3.13397 3 3.5 3.5 3.13397 3.43301 3.75 4 4 3.43301 4.25 3.5 4.86603 3 4.5zM2 7.5 1.5 7.86603 1.56699 7.25 1 7 1.56699 6.75 1.5 6.13397 2 6.5 2.5 6.13397 2.43301 6.75 3 7 2.43301 7.25 2.5 7.86603 2 7.5zM4 10.5 3.5 10.866 3.56699 10.25 3 10 3.56699 9.75 3.5 9.13397 4 9.5 4.5 9.13397 4.43301 9.75 5 10 4.43301 10.25 4.5 10.866 4 10.5zM4.5 5.75 4.25 5.93301 4.28349 5.625 4 5.5 4.28349 5.375 4.25 5.06699 4.5 5.25 4.75 5.06699 4.71651 5.375 5 5.5 4.71651 5.625 4.75 5.93301 4.5 5.75z" clip-rule="evenodd"/><path fill="#FECA00" fill-rule="evenodd" d="M10.7805 6.11196C10.5936 5.91697 12.2757 5.45882 12.45 4.86805 12.681 4.35371 12.5267 3.93693 11.6536 3.5709 10.7805 3.20488 9.89818 2.49714 10.9128 2.49714 11.9274 2.49714 11.9274 2.64181 12.2 3.06856 12.4726 3.49531 13.0617 3.58672 13.0742 3.06856 13.0742 2.18566 13.1576 2.06691 12.4448 1.29933 11.7321.531743 14.2321 1.61454 14.0254 2.93044 13.8188 4.24634 13.57 3.82173 13.728 4.04262 13.8859 4.26352 14.8361 3.57781 14.7175 4.49122 14.385 5.01654 13.7257 5.79817 10.7805 6.11196zM8 8.5C9.38071 8.5 10.5 7.38071 10.5 6 10.5 4.61929 9.38071 3.5 8 3.5 6.61929 3.5 5.5 4.61929 5.5 6 5.5 7.38071 6.61929 8.5 8 8.5z" clip-rule="evenodd"/><path fill="#548650" fill-rule="evenodd" d="M6.47647 5.08102C6.76004 5.01779 7.1478 5.77714 7.84767 5.49234C8.54753 5.20754 8.69369 4.6638 9.02622 4.86281C9.35875 5.06181 9.40239 5.54095 9.18088 5.78177C8.95936 6.02259 8.58346 6.07956 8.58346 6.38394C8.58346 6.68832 8.50975 7.77376 8.36609 7.45919C7.9353 7.10966 8.19813 6.55294 7.6675 6.38394C7.13687 6.21494 6.81459 6.2206 6.42316 6.29191C6.03172 6.36323 6.68612 6.09601 6.82491 5.8423C7.10749 5.57045 6.3468 5.17141 6.47647 5.08102Z" clip-rule="evenodd"/></g><defs><clipPath id="CXR_svg__a"><path fill="#fff" d="M0 0H16V12H0z"/></clipPath></defs></svg>