<svg xmlns="http://www.w3.org/2000/svg" fill="none" viewBox="0 0 16 12"><g clip-path="url(#DJ_svg__a)"><path fill="#fff" d="M0 0H16V12H0z"/><path fill="#73BE4A" fill-rule="evenodd" d="M0 0V12H16V0H0Z" clip-rule="evenodd"/><mask id="DJ_svg__b" width="16" height="12" x="0" y="0" maskUnits="userSpaceOnUse" style="mask-type:luminance"><path fill="#fff" fill-rule="evenodd" d="M0 0V12H16V0H0Z" clip-rule="evenodd"/></mask><g mask="url(#DJ_svg__b)"><path fill="#69F" fill-rule="evenodd" d="M0 -1V6H16V-1H0Z" clip-rule="evenodd"/></g><path fill="#fff" fill-rule="evenodd" d="M0 0V12L9 6L0 0Z" clip-rule="evenodd"/><mask id="DJ_svg__c" width="9" height="12" x="0" y="0" maskUnits="userSpaceOnUse" style="mask-type:luminance"><path fill="#fff" fill-rule="evenodd" d="M0 0V12L9 6L0 0Z" clip-rule="evenodd"/></mask><g mask="url(#DJ_svg__c)"><path fill="#E31D1C" fill-rule="evenodd" d="M3.5012 6.94713L2.25408 7.70001L2.53854 6.23084L1.5 5.13131L2.90624 5.07186L3.5012 3.70001L4.09615 5.07186H5.5L4.46385 6.23084L4.77579 7.70001L3.5012 6.94713Z" clip-rule="evenodd"/></g></g><defs><clipPath id="DJ_svg__a"><path fill="#fff" d="M0 0H16V12H0z"/></clipPath></defs></svg>