<svg xmlns="http://www.w3.org/2000/svg" fill="none" viewBox="0 0 16 12"><g clip-path="url(#DMA_svg__a)"><path fill="#fff" d="M0 0H16V12H0z"/><path fill="#279E19" fill-rule="evenodd" d="M0 0V12H16V0H0Z" clip-rule="evenodd"/><mask id="DMA_svg__b" width="16" height="12" x="0" y="0" maskUnits="userSpaceOnUse" style="mask-type:luminance"><path fill="#fff" fill-rule="evenodd" d="M0 0V12H16V0H0Z" clip-rule="evenodd"/></mask><g fill-rule="evenodd" clip-rule="evenodd" mask="url(#DMA_svg__b)"><path fill="#F7FCFF" d="M8 0H9V7H16V8H9V12H8V8H0V7H8V0Z"/><path fill="#272727" d="M7 0H8V6H16V7H8V12H7V7H0V6H7V0Z"/><path fill="#FECA00" d="M6 0H7V5H16V6H7V12H6V6H0V5H6V0Z"/><path fill="#C51918" d="M8 10C10.2091 10 12 8.20914 12 6C12 3.79086 10.2091 2 8 2C5.79086 2 4 3.79086 4 6C4 8.20914 5.79086 10 8 10Z"/><path fill="#804BFF" d="M7.36296 4.20646C7.36296 4.20646 7.55293 3.59 7.99424 3.90847C8.68627 4.24932 8.91453 4.64091 9.1817 5.08436C9.44887 5.52782 8.52665 5.20304 8.35461 4.95346C8.18256 4.70387 7.22824 4.62294 7.36296 4.4147C7.49768 4.20646 7.36296 4.20646 7.36296 4.20646Z"/><path fill="#A95601" d="M7.2066 7.3627C7.2066 7.3627 6.73676 8.00545 7.2066 8.00545C7.67645 8.00545 9.5813 7.86717 9.35298 7.68407C9.12467 7.50098 7.43236 7.68407 7.43236 7.68407L7.2066 7.3627Z"/><path fill="#804BFF" d="M7.9091 7.34247C7.86038 7.28752 7.0043 5.34491 7.40233 4.94116C7.80036 4.53741 8.03361 4.77465 8.03361 5.38007C8.03361 5.98549 8.05754 7.49207 7.9091 7.34247Z"/><path fill="#279E19" d="M7.85874 7.02721C7.85874 7.02721 7.80934 7.49941 8.05217 8.05064C8.29501 8.60187 8.7855 8.59125 8.7855 8.14007C8.7855 7.6889 9.14349 8.11231 9.28093 8.41342C9.41837 8.71453 9.06243 5.73957 8.5573 5.07401C8.05217 4.40845 7.5648 4.36572 7.71177 4.79581C7.85874 5.22591 7.85874 7.02721 7.85874 7.02721Z"/><path fill="#FECA00" d="M7.56366 3.79999C7.56366 3.79999 7.34998 3.93701 7.34998 4.31441 7.34998 4.69182 7.8559 4.19756 7.8559 4.19756L7.56366 3.79999zM7.60918 3.65675 8.05002 3.42499 8.49086 3.65675 8.40667 3.16587 8.76332 2.81823 8.27044 2.74661 8.05002 2.29999 7.8296 2.74661 7.33673 2.81823 7.69338 3.16587 7.60918 3.65675zM7.60918 9.55674 8.05002 9.32498 8.49086 9.55674 8.40667 9.06586 8.76332 8.71822 8.27044 8.6466 8.05002 8.19998 7.8296 8.6466 7.33673 8.71822 7.69338 9.06586 7.60918 9.55674zM10.4092 6.75674 10.4934 6.26586 10.1367 5.91822 10.6296 5.8466 10.85 5.39998 11.0704 5.8466 11.5633 5.91822 11.2067 6.26586 11.2909 6.75674 10.85 6.52498 10.4092 6.75674zM4.70922 6.75674 5.15006 6.52498 5.5909 6.75674 5.50671 6.26586 5.86335 5.91822 5.37048 5.8466 5.15006 5.39998 4.92964 5.8466 4.43677 5.91822 4.79341 6.26586 4.70922 6.75674zM6.23398 4.35098 6.09446 4.82909 5.79984 4.42753 5.30202 4.44259 5.59288 4.03829 5.42472 3.56949 5.89911 3.72118 6.29301 3.41639 6.29533 3.91443 6.70693 4.19486 6.23398 4.35098zM10.3386 8.73 10.4781 8.25189 10.951 8.09578 10.5394 7.81535 10.5371 7.3173 10.1432 7.6221 9.66882 7.4704 9.83698 7.93921 9.54612 8.3435 10.0439 8.32845 10.3386 8.73zM10.409 4.29271 10.2694 4.77082 9.97482 4.36926 9.477 4.38431 9.76786 3.98002 9.5997 3.51122 10.0741 3.66291 10.468 3.35811 10.4703 3.85616 10.8819 4.13659 10.409 4.29271zM6.21079 8.87102 6.35031 8.39291 6.82325 8.23679 6.41166 7.95636 6.40933 7.45832 6.01544 7.76311 5.54105 7.61142 5.7092 8.08022 5.41834 8.48452 5.91616 8.46946 6.21079 8.87102z"/></g></g><defs><clipPath id="DMA_svg__a"><path fill="#fff" d="M0 0H16V12H0z"/></clipPath></defs></svg>