<svg xmlns="http://www.w3.org/2000/svg" fill="none" viewBox="0 0 16 12"><g clip-path="url(#ETH_svg__a)"><path fill="#fff" d="M0 0H16V12H0z"/><path fill="#FECA00" fill-rule="evenodd" d="M0 0V12H16V0H0Z" clip-rule="evenodd"/><mask id="ETH_svg__b" width="16" height="12" x="0" y="0" maskUnits="userSpaceOnUse" style="mask-type:luminance"><path fill="#fff" fill-rule="evenodd" d="M0 0V12H16V0H0Z" clip-rule="evenodd"/></mask><g mask="url(#ETH_svg__b)"><path fill="#5EAA22" fill-rule="evenodd" d="M0 0V4H16V0H0Z" clip-rule="evenodd"/><path fill="#E31D1C" fill-rule="evenodd" d="M0 8V12H16V8H0Z" clip-rule="evenodd"/><path fill="#2B77B8" fill-rule="evenodd" d="M8 9C9.65685 9 11 7.65685 11 6C11 4.34315 9.65685 3 8 3C6.34315 3 5 4.34315 5 6C5 7.65685 6.34315 9 8 9Z" clip-rule="evenodd"/><path stroke="#FECA00" stroke-width=".75" d="M7.99997 7L6.61895 7.46326L7.04891 6.30902L6.11218 5.19098H7.41218L7.99997 4L8.58775 5.19098H9.91641L8.95102 6.30902L9.29369 7.46326L7.99997 7Z" clip-rule="evenodd"/><path stroke="#2B77B8" stroke-width=".5" d="M7.84799 6.01724 6.80566 8.19731M7.68408 5.73972H5.68408M8.06079 6.41879 10.0153 7.32086M8.4834 5.93684 9.89819 4.38824"/></g></g><defs><clipPath id="ETH_svg__a"><path fill="#fff" d="M0 0H16V12H0z"/></clipPath></defs></svg>