<svg xmlns="http://www.w3.org/2000/svg" fill="none" viewBox="0 0 16 12"><g clip-path="url(#GB-NIR_svg__a)"><path fill="#fff" d="M0 0H16V12H0z"/><path fill="#2E42A5" fill-rule="evenodd" d="M0 0V12H16V0H0Z" clip-rule="evenodd"/><mask id="GB-NIR_svg__b" width="16" height="12" x="0" y="0" maskUnits="userSpaceOnUse" style="mask-type:luminance"><path fill="#fff" fill-rule="evenodd" d="M0 0V12H16V0H0Z" clip-rule="evenodd"/></mask><g mask="url(#GB-NIR_svg__b)"><path fill="#fff" d="M-1.78162 11.1427L1.73923 12.6317L16.0798 1.61893L17.937 -0.593806L14.172 -1.09148L8.32278 3.65425L3.61478 6.85177L-1.78162 11.1427Z"/><path fill="#F50100" d="M-1.29962 12.186L0.494086 13.0501L17.2701 -0.799391H14.7515L-1.29962 12.186Z"/><path fill="#fff" d="M17.7816 11.1427L14.2607 12.6317L-0.0799084 1.61893L-1.93707 -0.593806L1.82796 -1.09148L7.67716 3.65425L12.3852 6.85177L17.7816 11.1427Z"/><path fill="#F50100" d="M17.6614 11.8914L15.8677 12.7556L8.72433 6.82588L6.60646 6.16337L-2.11576 -0.586231H0.402819L9.12014 6.00316L11.4356 6.79758L17.6614 11.8914Z"/><mask id="GB-NIR_svg__c" fill="#fff"><path fill-rule="evenodd" d="M9.88885 -1H6.11108V4H-0.986267V8H6.11108V13H9.88885V8H17.0137V4H9.88885V-1Z" clip-rule="evenodd"/></mask><path fill="#F50100" fill-rule="evenodd" d="M9.88885 -1H6.11108V4H-0.986267V8H6.11108V13H9.88885V8H17.0137V4H9.88885V-1Z" clip-rule="evenodd"/><path fill="#fff" d="M6.11108 -1V-2H5.11108V-1H6.11108ZM9.88885 -1H10.8889V-2H9.88885V-1ZM6.11108 4V5H7.11108V4H6.11108ZM-0.986267 4V3H-1.98627V4H-0.986267ZM-0.986267 8H-1.98627V9H-0.986267V8ZM6.11108 8H7.11108V7H6.11108V8ZM6.11108 13H5.11108V14H6.11108V13ZM9.88885 13V14H10.8889V13H9.88885ZM9.88885 8V7H8.88885V8H9.88885ZM17.0137 8V9H18.0137V8H17.0137ZM17.0137 4H18.0137V3H17.0137V4ZM9.88885 4H8.88885V5H9.88885V4ZM6.11108 0H9.88885V-2H6.11108V0ZM7.11108 4V-1H5.11108V4H7.11108ZM-0.986267 5H6.11108V3H-0.986267V5ZM0.0137329 8V4H-1.98627V8H0.0137329ZM6.11108 7H-0.986267V9H6.11108V7ZM7.11108 13V8H5.11108V13H7.11108ZM9.88885 12H6.11108V14H9.88885V12ZM8.88885 8V13H10.8889V8H8.88885ZM17.0137 7H9.88885V9H17.0137V7ZM16.0137 4V8H18.0137V4H16.0137ZM9.88885 5H17.0137V3H9.88885V5ZM8.88885 -1V4H10.8889V-1H8.88885Z" mask="url(#GB-NIR_svg__c)"/></g></g><defs><clipPath id="GB-NIR_svg__a"><path fill="#fff" d="M0 0H16V12H0z"/></clipPath></defs></svg>