<svg xmlns="http://www.w3.org/2000/svg" fill="none" viewBox="0 0 16 12"><g clip-path="url(#GEO_svg__a)"><path fill="#fff" d="M0 0H16V12H0z"/><path fill="#F7FCFF" fill-rule="evenodd" d="M0 0V12H16V0H0Z" clip-rule="evenodd"/><mask id="GEO_svg__b" width="16" height="12" x="0" y="0" maskUnits="userSpaceOnUse" style="mask-type:luminance"><path fill="#fff" fill-rule="evenodd" d="M0 0V12H16V0H0Z" clip-rule="evenodd"/></mask><g fill="#E31D1C" fill-rule="evenodd" clip-rule="evenodd" mask="url(#GEO_svg__b)"><path d="M7 0H9V5H16V7H9V12H7V7H0V5H7V0Z"/><path d="M4.99932 8.61098 6.09998 8.5V9.5C6.09998 9.5 4.99932 9.43108 4.99932 9.45098 4.99932 9.47088 5.09998 10.5 5.09998 10.5H4.09998L4.18009 9.5H3.09998V8.5L4.18009 8.61098 4.09998 7.5H5.09998L4.99932 8.61098zM4.99932 2.61098 6.09998 2.5V3.5C6.09998 3.5 4.99932 3.43108 4.99932 3.45098 4.99932 3.47088 5.09998 4.5 5.09998 4.5H4.09998L4.18009 3.5H3.09998V2.5L4.18009 2.61098 4.09998 1.5H5.09998L4.99932 2.61098zM11.9993 2.61098 13.1 2.5V3.5C13.1 3.5 11.9993 3.43108 11.9993 3.45098 11.9993 3.47088 12.1 4.5 12.1 4.5H11.1L11.1801 3.5H10.1V2.5L11.1801 2.61098 11.1 1.5H12.1L11.9993 2.61098zM11.9993 8.61098 13.1 8.5V9.5C13.1 9.5 11.9993 9.43108 11.9993 9.45098 11.9993 9.47088 12.1 10.5 12.1 10.5H11.1L11.1801 9.5H10.1V8.5L11.1801 8.61098 11.1 7.5H12.1L11.9993 8.61098z"/></g></g><defs><clipPath id="GEO_svg__a"><path fill="#fff" d="M0 0H16V12H0z"/></clipPath></defs></svg>