<svg xmlns="http://www.w3.org/2000/svg" fill="none" viewBox="0 0 16 12"><g clip-path="url(#GG_svg__a)"><path fill="#fff" d="M0 0H16V12H0z"/><path fill="#F7FCFF" fill-rule="evenodd" d="M0 0V12H16V0H0Z" clip-rule="evenodd"/><mask id="GG_svg__b" width="16" height="12" x="0" y="0" maskUnits="userSpaceOnUse" style="mask-type:luminance"><path fill="#fff" fill-rule="evenodd" d="M0 0V12H16V0H0Z" clip-rule="evenodd"/></mask><g fill-rule="evenodd" clip-rule="evenodd" mask="url(#GG_svg__b)"><path fill="#E31D1C" d="M6 0H10V4H16V8H10V12H6V8H0V4H6V0Z"/><path fill="#FECA00" d="M6.50275 1.52298L6.99999 2.40008V5H3.43261V4.97142L2.55298 4.47275V7.45284L3.3853 7H6.99999V9.5255L6.50275 10.4026H9.48284L9.00427 9.52298H8.99999V7H12.6003L13.4326 7.45284V4.47275L12.553 4.97142V5H8.99999V2.40261H9.00427L9.48284 1.52298H6.50275Z"/></g></g><defs><clipPath id="GG_svg__a"><path fill="#fff" d="M0 0H16V12H0z"/></clipPath></defs></svg>