<svg xmlns="http://www.w3.org/2000/svg" fill="none" viewBox="0 0 16 12"><g clip-path="url(#GNQ_svg__a)"><path fill="#fff" d="M0 0H16V12H0z"/><path fill="#F7FCFF" fill-rule="evenodd" d="M0 0V12.288H16.384V0H0Z" clip-rule="evenodd"/><mask id="GNQ_svg__b" width="17" height="13" x="0" y="0" maskUnits="userSpaceOnUse" style="mask-type:luminance"><path fill="#fff" fill-rule="evenodd" d="M0 0V12.288H16.384V0H0Z" clip-rule="evenodd"/></mask><g fill-rule="evenodd" clip-rule="evenodd" mask="url(#GNQ_svg__b)"><path fill="#009D00" d="M0 0V4.096H16.384V0H0Z"/><path fill="#fff" d="M0 4.09599V8.19199H16.384V4.09599H0Z"/><path fill="#F80000" d="M0 8.192V12.288H16.384V8.192H0Z"/></g><path fill="#0075D5" fill-rule="evenodd" d="M0 0V12.288L4.096 6.2218L0 0Z" clip-rule="evenodd"/><mask width="5" height="13" x="0" y="0" maskUnits="userSpaceOnUse" style="mask-type:luminance"><path fill="#fff" fill-rule="evenodd" d="M0 0V12.288L4.096 6.2218L0 0Z" clip-rule="evenodd"/></mask><path fill="#FFD500" stroke="#000" stroke-width=".03" d="M7.46044 4.5502 7.46297 4.56138 7.44696 4.54659 7.34441 4.45185 7.3316 4.59087 7.34301 4.59192 7.32399 4.60258 7.20221 4.67083 7.33046 4.72598 7.33499 4.71545 7.33924 4.73683 7.36652 4.87374 7.4586 4.76881 7.44999 4.76125 7.47164 4.76381 7.61028 4.78017 7.53894 4.66017 7.52909 4.66603 7.53821 4.64623 7.59662 4.51943 7.46044 4.5502zM7.97241 4.5502 7.97493 4.56138 7.95892 4.54659 7.85638 4.45185 7.84356 4.59087 7.85497 4.59192 7.83595 4.60258 7.71417 4.67083 7.84242 4.72598 7.84695 4.71545 7.85121 4.73683 7.87849 4.87374 7.97057 4.76881 7.96195 4.76125 7.9836 4.76381 8.12225 4.78017 8.0509 4.66017 8.04105 4.66603 8.05017 4.64623 8.10858 4.51943 7.97241 4.5502zM8.48449 4.5502 8.48702 4.56138 8.47101 4.54659 8.36846 4.45185 8.35564 4.59087 8.36705 4.59192 8.34804 4.60258 8.22625 4.67083 8.35451 4.72598 8.35903 4.71545 8.36329 4.73683 8.39057 4.87374 8.48265 4.76881 8.47404 4.76125 8.49569 4.76381 8.63433 4.78017 8.56299 4.66017 8.55314 4.66603 8.56226 4.64623 8.62067 4.51943 8.48449 4.5502zM8.99645 4.5502 8.99898 4.56138 8.98297 4.54659 8.88042 4.45185 8.86761 4.59087 8.87902 4.59192 8.86 4.60258 8.73822 4.67083 8.86647 4.72598 8.871 4.71545 8.87526 4.73683 8.90253 4.87374 8.99462 4.76881 8.986 4.76125 9.00765 4.76381 9.14629 4.78017 9.07495 4.66017 9.0651 4.66603 9.07422 4.64623 9.13263 4.51943 8.99645 4.5502zM9.50842 4.5502 9.51094 4.56138 9.49493 4.54659 9.39239 4.45185 9.37957 4.59087 9.39098 4.59192 9.37197 4.60258 9.25018 4.67083 9.37843 4.72598 9.38296 4.71545 9.38722 4.73683 9.4145 4.87374 9.50658 4.76881 9.49797 4.76125 9.51961 4.76381 9.65826 4.78017 9.58691 4.66017 9.57706 4.66603 9.58618 4.64623 9.64459 4.51943 9.50842 4.5502zM10.0205 4.5502 10.023 4.56138 10.007 4.54659 9.90447 4.45185 9.89165 4.59087 9.90306 4.59192 9.88405 4.60258 9.76226 4.67083 9.89052 4.72598 9.89504 4.71545 9.8993 4.73683 9.92658 4.87374 10.0187 4.76881 10.0101 4.76125 10.0317 4.76381 10.1703 4.78017 10.099 4.66017 10.0891 4.66603 10.0983 4.64623 10.1567 4.51943 10.0205 4.5502z"/><path stroke="#373737" stroke-width=".06" d="M7.71005 5.15H9.69805V6.65599C9.69805 7.20497 9.25302 7.64999 8.70405 7.64999C8.15508 7.64999 7.71005 7.20497 7.71005 6.65599V5.15Z"/><path fill="#6F3E1D" fill-rule="evenodd" d="M8.56389 6.12343C8.56389 6.12343 8.46061 7.33445 8.35752 7.40784C8.25442 7.48124 8.85156 7.51789 8.90862 7.46286C8.96568 7.40784 8.64821 6.42101 8.75742 6.12343C8.86663 5.82585 9.04253 5.80173 9.04253 5.80173C9.04253 5.80173 8.82079 5.75486 8.75742 5.84416C8.69406 5.93345 8.50507 5.80173 8.50507 5.80173L8.56389 6.12343Z" clip-rule="evenodd"/><path fill="#009D29" fill-rule="evenodd" d="M8.54131 6.055H8.46185C8.46185 6.055 8.40805 6.2653 8.28466 6.16015C8.16127 6.055 7.98718 6.09207 7.98718 6.09207C7.98718 6.09207 8.00279 5.96622 8.19225 5.91619C8.3817 5.86617 8.46185 5.45993 8.46185 5.45993C8.46185 5.45993 8.72995 5.36013 8.89305 5.56464C9.05615 5.76915 9.28592 5.6819 9.28592 5.6819C9.28592 5.6819 9.45386 5.77739 9.36989 5.91619C9.28592 6.055 9.14268 6.15654 9.01786 6.055C8.89305 5.95346 8.54131 6.055 8.54131 6.055Z" clip-rule="evenodd"/></g><defs><clipPath id="GNQ_svg__a"><path fill="#fff" d="M0 0H16V12H0z"/></clipPath></defs></svg>