<svg xmlns="http://www.w3.org/2000/svg" fill="none" viewBox="0 0 16 12"><g clip-path="url(#GRC_svg__a)"><path fill="#fff" d="M0 0H16V12H0z"/><path fill="#F7FCFF" fill-rule="evenodd" d="M0 0H16V12H0V0Z" clip-rule="evenodd"/><path fill="#4564F9" d="M.014 2.75H16.014V4.25H.014z"/><path fill="#4564F9" fill-rule="evenodd" d="M0 0H16V1.5H0V0Z" clip-rule="evenodd"/><path fill="#4564F9" d="M-.029 5.5H15.971V7H-.029z"/><path fill="#4564F9" d="M.056 8.2H16.056V9.7H.056z"/><path fill="#4564F9" d="M.051 10.75H16.051V12.25H.051z"/><path fill="#4564F9" fill-rule="evenodd" d="M0 0H8V7H0V0Z" clip-rule="evenodd"/><path fill="#F7FCFF" fill-rule="evenodd" d="M3.23554 0H4.81769V2.75H8V4.64319H4.81769V7.5H3.23554V4.64319H0V2.75H3.23554V0Z" clip-rule="evenodd"/></g><defs><clipPath id="GRC_svg__a"><path fill="#fff" d="M0 0H16V12H0z"/></clipPath></defs></svg>