<svg xmlns="http://www.w3.org/2000/svg" fill="none" viewBox="0 0 16 12"><g clip-path="url(#HND_svg__a)"><path fill="#fff" d="M0 0H16V12H0z"/><path fill="#F7FCFF" fill-rule="evenodd" d="M0 0V12H16V0H0Z" clip-rule="evenodd"/><mask id="HND_svg__b" width="16" height="12" x="0" y="0" maskUnits="userSpaceOnUse" style="mask-type:luminance"><path fill="#fff" fill-rule="evenodd" d="M0 0V12H16V0H0Z" clip-rule="evenodd"/></mask><g fill="#00bce4" fill-rule="evenodd" clip-rule="evenodd" mask="url(#HND_svg__b)"><path d="M0 0V4H16V0H0zM0 8V12H16V8H0zM8.40906 6.56595 7.82128 6.87497 7.93354 6.22046 7.45801 5.70919H8.11517L8.40906 5.06595 8.70296 5.70919H9.36012L8.88459 6.22046 8.99685 6.87497 8.40906 6.56595zM5.40906 5.56595 4.82128 5.87497 4.93354 5.22046 4.45801 4.70919H5.11517L5.40906 4.06595 5.70296 4.70919H6.36012L5.88459 5.22046 5.99685 5.87497 5.40906 5.56595zM5.40906 7.56595 4.82128 7.87497 4.93354 7.22046 4.45801 6.70919H5.11517L5.40906 6.06595 5.70296 6.70919H6.36012L5.88459 7.22046 5.99685 7.87497 5.40906 7.56595zM11.4091 5.56595 10.8213 5.87497 10.9335 5.22046 10.458 4.70919H11.1152L11.4091 4.06595 11.703 4.70919H12.3601L11.8846 5.22046 11.9968 5.87497 11.4091 5.56595zM11.4091 7.56595 10.8213 7.87497 10.9335 7.22046 10.458 6.70919H11.1152L11.4091 6.06595 11.703 6.70919H12.3601L11.8846 7.22046 11.9968 7.87497 11.4091 7.56595z"/></g></g><defs><clipPath id="HND_svg__a"><path fill="#fff" d="M0 0H16V12H0z"/></clipPath></defs></svg>