<svg xmlns="http://www.w3.org/2000/svg" fill="none" viewBox="0 0 16 12"><g clip-path="url(#KM_svg__a)"><path fill="#fff" d="M0 0H16V12H0z"/><path fill="#5196ED" fill-rule="evenodd" d="M0 0V12H16V0H0Z" clip-rule="evenodd"/><mask id="KM_svg__b" width="16" height="12" x="0" y="0" maskUnits="userSpaceOnUse" style="mask-type:luminance"><path fill="#fff" fill-rule="evenodd" d="M0 0V12H16V0H0Z" clip-rule="evenodd"/></mask><g fill-rule="evenodd" clip-rule="evenodd" mask="url(#KM_svg__b)"><path fill="#AF0100" d="M0 6V9H16V6H0Z"/><path fill="#F7FCFF" d="M0 3V6H16V3H0Z"/><path fill="#FBCD17" d="M0 0V3H16V0H0Z"/><path fill="#5EAA22" d="M0 0L8 6L0 12V0Z"/><path fill="#F7FCFF" d="M3.15236 8.7279C3.15236 8.7279 1.36068 8.06074 1.42406 5.9723C1.48743 3.88386 3.31177 3.47464 3.31177 3.47464C2.67286 2.9713 0.38669 3.56113 0.313526 5.9723C0.240362 8.38347 2.47112 8.91915 3.15236 8.7279ZM3.24738 5.14271L3.31474 4.75L3.02942 4.47189L3.42372 4.41459L3.60005 4.0573L3.77639 4.41459L4.17069 4.47189L3.88537 4.75L3.95273 5.14271L3.60005 4.9573L3.24738 5.14271ZM3.31474 5.75L3.24738 6.14271L3.60005 5.9573L3.95273 6.14271L3.88537 5.75L4.17069 5.47189L3.77639 5.41459L3.60005 5.0573L3.42372 5.41459L3.02942 5.47189L3.31474 5.75ZM3.24738 7.14271L3.31474 6.75L3.02942 6.47189L3.42372 6.41459L3.60005 6.0573L3.77639 6.41459L4.17069 6.47189L3.88537 6.75L3.95273 7.14271L3.60005 6.9573L3.24738 7.14271ZM3.24738 8.14271L3.31474 7.75L3.02942 7.47189L3.42372 7.41459L3.60005 7.0573L3.77639 7.41459L4.17069 7.47189L3.88537 7.75L3.95273 8.14271L3.60005 7.9573L3.24738 8.14271Z"/></g></g><defs><clipPath id="KM_svg__a"><path fill="#fff" d="M0 0H16V12H0z"/></clipPath></defs></svg>