<svg xmlns="http://www.w3.org/2000/svg" fill="none" viewBox="0 0 16 12"><g clip-path="url(#MDV_svg__a)"><path fill="#fff" d="M0 0H16V12H0z"/><path fill="#C51918" fill-rule="evenodd" d="M0 0H16V11C16 11.5523 15.5523 12 15 12H1C0.447715 12 0 11.5523 0 11V0Z" clip-rule="evenodd"/><path fill="#C51918" fill-rule="evenodd" d="M0 0H16V12H0V0Z" clip-rule="evenodd"/><path fill="#579D20" fill-rule="evenodd" d="M3 3H13V9H3V3Z" clip-rule="evenodd"/><path stroke="#B6EB9A" stroke-opacity=".238" d="M3.5 3.5H12.5V8.5H3.5V3.5Z"/><mask id="MDV_svg__b" width="10" height="6" x="3" y="3" maskUnits="userSpaceOnUse" style="mask-type:luminance"><path fill="#fff" fill-rule="evenodd" d="M3 3H13V9H3V3Z" clip-rule="evenodd"/><path stroke="#fff" d="M3.5 3.5H12.5V8.5H3.5V3.5Z"/></mask><g mask="url(#MDV_svg__b)"><path fill="#F9FAFA" fill-rule="evenodd" d="M8.01649 6.23125C8.00799 7.7641 9.21472 8.58136 9.21472 8.58136C7.83776 8.74304 6.92163 7.49475 6.92163 6.24619C6.92163 4.99763 8.17043 3.96626 9.21472 3.50053C9.21472 3.50053 8.02498 4.6984 8.01649 6.23125Z" clip-rule="evenodd"/></g></g><defs><clipPath id="MDV_svg__a"><path fill="#fff" d="M0 0H16V12H0z"/></clipPath></defs></svg>