<svg xmlns="http://www.w3.org/2000/svg" fill="none" viewBox="0 0 16 12"><g clip-path="url(#MOZ_svg__a)"><path fill="#fff" d="M0 0H16V12H0z"/><path fill="#F7FCFF" fill-rule="evenodd" d="M0 0V12H16V0H0Z" clip-rule="evenodd"/><mask id="MOZ_svg__b" width="16" height="12" x="0" y="0" maskUnits="userSpaceOnUse" style="mask-type:luminance"><path fill="#fff" fill-rule="evenodd" d="M0 0V12H16V0H0Z" clip-rule="evenodd"/></mask><g mask="url(#MOZ_svg__b)"><path fill="#FECA00" fill-rule="evenodd" d="M0 0V4H16V0H0Z" clip-rule="evenodd"/><path fill="#093" fill-rule="evenodd" d="M0 8V12H16V8H0Z" clip-rule="evenodd"/><path fill="#272727" stroke="#fff" d="M0 3.5H-0.5V4V8V8.5H0H16H16.5V8V4V3.5H16H0Z"/></g><path fill="#F50100" fill-rule="evenodd" d="M0 0V12L9 6L0 0Z" clip-rule="evenodd"/><mask id="MOZ_svg__c" width="9" height="12" x="0" y="0" maskUnits="userSpaceOnUse" style="mask-type:luminance"><path fill="#fff" fill-rule="evenodd" d="M0 0V12L9 6L0 0Z" clip-rule="evenodd"/></mask><g mask="url(#MOZ_svg__c)"><path fill="#FECA00" fill-rule="evenodd" d="M4.03439 7.17661L2.14492 8.70184L3.01161 6.66353L1.5224 5.22942H3.2802L4.0015 3.5L4.76759 5.22942H6.5224L4.95452 6.66353L5.7392 8.70184L4.03439 7.17661Z" clip-rule="evenodd"/><path fill="#F7FCFF" fill-rule="evenodd" d="M3.07796 5.9921L2.75751 7.06232C2.75751 7.06232 3.83933 7.05162 3.96926 7.16093C4.36076 6.91681 5.16674 7.06232 5.16674 7.06232L4.73805 5.91696C4.73805 5.91696 4.19453 5.67067 3.96926 5.80571C3.41712 5.68099 3.07796 5.9921 3.07796 5.9921Z" clip-rule="evenodd"/><path fill="#000" d="M5.7819 7.60813C5.86495 7.71843 5.84287 7.87517 5.73257 7.95823C5.62227 8.04128 5.46553 8.0192 5.38247 7.9089L3.29243 5.13328C3.20937 5.02298 3.23146 4.86624 3.34176 4.78318C3.45206 4.70013 3.6088 4.72221 3.69185 4.83251L5.7819 7.60813Z"/><path stroke="#000" stroke-linecap="round" stroke-linejoin="round" stroke-width=".5" d="M3.48699 4.91987L3.28699 4.67987"/><path fill="#000" fill-rule="evenodd" d="M2.80231 4.68127 2.19806 5.64894 2.50019 6.17229 3.19128 5.14517 3.31558 4.82757 3.19128 4.68127H2.80231zM2.01947 7.55427 2.48387 8.09353 5.99806 4.0215 4.40069 5.01734 2.01947 7.55427z" clip-rule="evenodd"/></g></g><defs><clipPath id="MOZ_svg__a"><path fill="#fff" d="M0 0H16V12H0z"/></clipPath></defs></svg>