<svg xmlns="http://www.w3.org/2000/svg" fill="none" viewBox="0 0 16 12"><g clip-path="url(#MYS_svg__a)"><path fill="#fff" d="M0 0H16V12H0z"/><path fill="#F7FCFF" fill-rule="evenodd" d="M0 0H16V12H0V0Z" clip-rule="evenodd"/><path fill="#E31D1C" d="M.014 2.5H16.014V3.95H.014z"/><path fill="#E31D1C" d="M.014 5.1H16.014V6.55H.014z"/><path fill="#E31D1C" d="M.056 7.6H16.056V8.85H.056z"/><path fill="#E31D1C" d="M.056 10.1H16.056V11.45H.056z"/><path fill="#E31D1C" fill-rule="evenodd" d="M0 0H16V1.25H0V0Z" clip-rule="evenodd"/><path fill="#3D58DB" fill-rule="evenodd" d="M0 0H8V6H0V0Z" clip-rule="evenodd"/><path fill="#FECA00" fill-rule="evenodd" d="M1.79675 3.10111C1.79675 3.78922 2.12087 4.43993 2.78024 4.43993C3.76953 4.43993 3.96199 4.22902 4.42362 3.93803C4.53276 4.18317 4.16463 5.23222 2.76674 5.23222C1.64861 5.20971 0.744995 4.31144 0.744995 3.10111C0.744995 1.71185 1.76678 0.961579 2.73868 0.970073C3.59669 0.970073 4.50671 1.45695 4.47882 2.07806C4.07455 1.68314 3.63558 1.68314 2.90483 1.68314C2.17409 1.68314 1.79675 2.41291 1.79675 3.10111Z" clip-rule="evenodd"/><path fill="#FECA00" fill-rule="evenodd" d="M5.5 3.64999L5.03647 4.32658L5.05916 3.50676L4.28647 3.78167L4.78671 3.13176L4 2.89999L4.78671 2.66823L4.28647 2.01832L5.05916 2.29323L5.03647 1.47341L5.5 2.14999L5.96353 1.47341L5.94084 2.29323L6.71353 2.01832L6.21329 2.66823L7 2.89999L6.21329 3.13176L6.71353 3.78167L5.94084 3.50676L5.96353 4.32658L5.5 3.64999Z" clip-rule="evenodd"/></g><defs><clipPath id="MYS_svg__a"><path fill="#fff" d="M0 0H16V12H0z"/></clipPath></defs></svg>