<svg xmlns="http://www.w3.org/2000/svg" fill="none" viewBox="0 0 16 12"><g clip-path="url(#NZL_svg__a)"><path fill="#fff" d="M0 0H16V12H0z"/><path fill="#2E42A5" fill-rule="evenodd" d="M0 0V12H16V0H0Z" clip-rule="evenodd"/><g clip-path="url(#NZL_svg__b)"><path fill="#2E42A5" d="M0 0H9V7H0z"/><path fill="#F7FCFF" d="M-1.00214 6.4999L0.978339 7.3685L9.04494 0.944361L10.0896 -0.346405L7.97176 -0.636717L4.68159 2.13163L2.03334 3.99685L-1.00214 6.4999Z"/><path fill="#F50100" d="M-0.731018 7.10849L0.277943 7.61255L9.71445 -0.466309H8.29775L-0.731018 7.10849Z"/><path fill="#F7FCFF" d="M10.0021 6.4999L8.02166 7.3685L-0.0449371 0.944361L-1.08959 -0.346405L1.02824 -0.636717L4.31841 2.13163L6.96666 3.99685L10.0021 6.4999Z"/><path fill="#F50100" d="M9.93457 6.93667L8.92561 7.44073L4.90745 3.98176L3.71615 3.59529L-1.1901 -0.341973H0.226597L5.13009 3.50184L6.43256 3.96525L9.93457 6.93667Z"/><path fill="#F50100" fill-rule="evenodd" d="M4.99226 0H3.99226V3H0V4H3.99226V7H4.99226V4H9V3H4.99226V0Z" clip-rule="evenodd"/><path fill="#F7FCFF" fill-rule="evenodd" d="M3.24226 -0.75H5.74226V2.25H9.75V4.75H5.74226V7.75H3.24226V4.75H-0.75V2.25H3.24226V-0.75ZM3.99226 3H0V4H3.99226V7H4.99226V4H9V3H4.99226V0H3.99226V3Z" clip-rule="evenodd"/></g><path fill="#F50100" fill-rule="evenodd" stroke="#F7FCFF" stroke-width=".35" d="M12.4266 10.25 11.5449 10.7135 11.7133 9.73176 11 9.03647 11.9857 8.89324 12.4266 8 12.8674 8.89324 13.8532 9.03647 13.1399 9.73176 13.3083 10.7135 12.4266 10.25zM10.6 6.93492 9.92016 7.29234 10.05 6.53533 9.5 5.99921 10.2601 5.88876 10.6 5.20001 10.9399 5.88876 11.7 5.99921 11.15 6.53533 11.2798 7.29234 10.6 6.93492zM14.0988 6.933 13.4197 7.29001 13.5494 6.53384 13 5.99832 13.7592 5.888 14.0988 5.20001 14.4383 5.888 15.1976 5.99832 14.6482 6.53384 14.7779 7.29001 14.0988 6.933zM12.6 4.13491 11.9202 4.49232 12.05 3.73531 11.5 3.19919 12.2601 3.08874 12.6 2.39999 12.9399 3.08874 13.7 3.19919 13.15 3.73531 13.2798 4.49232 12.6 4.13491z" clip-rule="evenodd"/></g><defs><clipPath id="NZL_svg__a"><path fill="#fff" d="M0 0H16V12H0z"/></clipPath><clipPath id="NZL_svg__b"><path fill="#fff" d="M0 0H9V7H0z"/></clipPath></defs></svg>