<svg xmlns="http://www.w3.org/2000/svg" fill="none" viewBox="0 0 16 12"><g clip-path="url(#PRI_svg__a)"><path fill="#fff" d="M0 0H16V12H0z"/><path fill="#EF0000" fill-rule="evenodd" d="M0 0V12H16V0H0Z" clip-rule="evenodd"/><mask id="PRI_svg__b" width="16" height="12" x="0" y="0" maskUnits="userSpaceOnUse" style="mask-type:luminance"><path fill="#fff" fill-rule="evenodd" d="M0 0V12H16V0H0Z" clip-rule="evenodd"/></mask><g mask="url(#PRI_svg__b)"><path fill="#EF0000" stroke="#F7FCFF" stroke-width="2" d="M0 4H-1V5V7V8H0H16H17V7V5V4H16H0Z"/></g><path fill="#3D58DB" fill-rule="evenodd" d="M0 0V12L9 6L0 0Z" clip-rule="evenodd"/><mask id="PRI_svg__c" width="9" height="12" x="0" y="0" maskUnits="userSpaceOnUse" style="mask-type:luminance"><path fill="#fff" fill-rule="evenodd" d="M0 0V12L9 6L0 0Z" clip-rule="evenodd"/></mask><g mask="url(#PRI_svg__c)"><path fill="#F7FCFF" fill-rule="evenodd" d="M3.34394 7.10841L1.50798 8.07741L2.40181 6.13044L1.26282 5.09038L2.66906 5.03848L3.34394 3.27814L3.85897 5.03848H5.26282L4.32712 6.13044L5.07139 8.07741L3.34394 7.10841Z" clip-rule="evenodd"/></g></g><defs><clipPath id="PRI_svg__a"><path fill="#fff" d="M0 0H16V12H0z"/></clipPath></defs></svg>