<svg xmlns="http://www.w3.org/2000/svg" fill="none" viewBox="0 0 16 12"><g clip-path="url(#SS_svg__a)"><path fill="#fff" d="M0 0H16V12H0z"/><path fill="#F7FCFF" fill-rule="evenodd" d="M0 0H16V12H0V0Z" clip-rule="evenodd"/><path fill="#272727" fill-rule="evenodd" d="M0 0V4H16V0H0Z" clip-rule="evenodd"/><path fill="#4E8B1D" fill-rule="evenodd" d="M0 8V12H16V8H0Z" clip-rule="evenodd"/><path fill="#E31D1C" stroke="#F7FCFF" d="M0 3.5H-0.5V4V8V8.5H0H16H16.5V8V4V3.5H16H0Z"/><path fill="#3D58DB" fill-rule="evenodd" d="M0 0L10 6L0 12V0Z" clip-rule="evenodd"/><path fill="#FECA00" fill-rule="evenodd" d="M3.32396 7.20434L2.3142 8.25435L2.20872 6.76161L0.920984 5.96834L2.26392 5.54695L2.48354 4.06787L3.41328 5.23898L4.7693 4.87564L4.06842 6.26331L4.74999 7.60168L3.32396 7.20434Z" clip-rule="evenodd"/></g><defs><clipPath id="SS_svg__a"><path fill="#fff" d="M0 0H16V12H0z"/></clipPath></defs></svg>