<svg xmlns="http://www.w3.org/2000/svg" fill="none" viewBox="0 0 16 12"><g clip-path="url(#SYR_svg__a)"><path fill="#fff" d="M0 0H16V12H0z"/><path fill="#F7FCFF" fill-rule="evenodd" d="M0 0H16V12H0V0Z" clip-rule="evenodd"/><path fill="#409100" fill-rule="evenodd" d="M4.5009 6.93534 3.56556 7.5 3.77891 6.39812 3 5.57347 4.05468 5.52888 4.5009 4.5 4.94711 5.52888H6L5.22289 6.39812 5.45685 7.5 4.5009 6.93534zM11.5009 6.93534 10.5656 7.5 10.7789 6.39812 10 5.57347 11.0547 5.52888 11.5009 4.5 11.9471 5.52888H13L12.2229 6.39812 12.4568 7.5 11.5009 6.93534z" clip-rule="evenodd"/><path fill="#E31D1C" fill-rule="evenodd" d="M0 0V4H16V0H0Z" clip-rule="evenodd"/><path fill="#272727" fill-rule="evenodd" d="M0 8V12H16V8H0Z" clip-rule="evenodd"/></g><defs><clipPath id="SYR_svg__a"><path fill="#fff" d="M0 0H16V12H0z"/></clipPath></defs></svg>