<svg xmlns="http://www.w3.org/2000/svg" fill="none" viewBox="0 0 16 12"><g clip-path="url(#TC_svg__a)"><path fill="#fff" d="M0 0H16V12H0z"/><path fill="#2E42A5" fill-rule="evenodd" d="M0 0V12H16V0H0Z" clip-rule="evenodd"/><g clip-path="url(#TC_svg__b)"><path fill="#2E42A5" d="M0 0H9V7H0z"/><path fill="#F7FCFF" d="M-1.00208 6.49993L0.9784 7.36853L9.045 0.944391L10.0897 -0.346375L7.97182 -0.636686L4.68165 2.13166L2.0334 3.99688L-1.00208 6.49993Z"/><path fill="#F50100" d="M-0.730957 7.10849L0.278004 7.61255L9.71451 -0.466309H8.29782L-0.730957 7.10849Z"/><path fill="#F7FCFF" d="M10.0022 6.49993L8.02172 7.36853L-0.0448761 0.944391L-1.08953 -0.346375L1.0283 -0.636686L4.31847 2.13166L6.96673 3.99688L10.0022 6.49993Z"/><path fill="#F50100" d="M9.93457 6.93667L8.92561 7.44073L4.90745 3.98176L3.71615 3.59529L-1.1901 -0.341973H0.226597L5.13009 3.50184L6.43256 3.96525L9.93457 6.93667Z"/><path fill="#F50100" fill-rule="evenodd" d="M4.99226 0H3.99226V3H0V4H3.99226V7H4.99226V4H9V3H4.99226V0Z" clip-rule="evenodd"/><path fill="#F7FCFF" fill-rule="evenodd" d="M3.24226 -0.75H5.74226V2.25H9.75V4.75H5.74226V7.75H3.24226V4.75H-0.75V2.25H3.24226V-0.75ZM3.99226 3H0V4H3.99226V7H4.99226V4H9V3H4.99226V0H3.99226V3Z" clip-rule="evenodd"/></g></g><defs><clipPath id="TC_svg__a"><path fill="#fff" d="M0 0H16V12H0z"/></clipPath><clipPath id="TC_svg__b"><path fill="#fff" d="M0 0H9V7H0z"/></clipPath></defs></svg>