<svg xmlns="http://www.w3.org/2000/svg" fill="none" viewBox="0 0 16 12"><g clip-path="url(#TG_svg__a)"><path fill="#fff" d="M0 0H16V12H0z"/><path fill="#5EAA22" stroke="#F7FCFF" d="M0 -0.5H-0.5V0V12V12.5H0H16H16.5V12V0V-0.5H16H0Z"/><path fill="#FECA00" fill-rule="evenodd" d="M0 3V5H16V3H0zM0 7V9H16V7H0z" clip-rule="evenodd"/><path fill="#F50101" d="M0 0H8V7H0z"/><path fill="#F7FCFF" fill-rule="evenodd" d="M4.125 5.07206L2.26534 6.22278L2.98731 4.291L1.5 2.98956H3.32389L4.125 1.06488L4.73635 2.98956H6.5383L5.27272 4.291L5.89554 6.12802L4.125 5.07206Z" clip-rule="evenodd"/></g><defs><clipPath id="TG_svg__a"><path fill="#fff" d="M0 0H16V12H0z"/></clipPath></defs></svg>