<svg xmlns="http://www.w3.org/2000/svg" fill="none" viewBox="0 0 16 12"><g clip-path="url(#TK_svg__a)"><path fill="#fff" d="M0 0H16V12H0z"/><path fill="#2E42A5" fill-rule="evenodd" d="M0 0V12H16V0H0Z" clip-rule="evenodd"/><mask id="TK_svg__b" width="16" height="12" x="0" y="0" maskUnits="userSpaceOnUse" style="mask-type:luminance"><path fill="#fff" fill-rule="evenodd" d="M0 0V12H16V0H0Z" clip-rule="evenodd"/></mask><g fill-rule="evenodd" clip-rule="evenodd" mask="url(#TK_svg__b)"><path fill="#F7FCFF" d="M1.64724 5.03169 1.20446 5.30568 1.37636 4.84573 1 4.49752H1.4565L1.64724 4 1.7928 4.49752H2.25L1.9205 4.84573 2.08183 5.30568 1.64724 5.03169zM3.64724 3.03169 3.20446 3.30568 3.37636 2.84573 3 2.49752H3.4565L3.64724 2 3.7928 2.49752H4.25L3.9205 2.84573 4.08183 3.30568 3.64724 3.03169zM5.64724 5.03169 5.20446 5.30568 5.37636 4.84573 5 4.49752H5.4565L5.64724 4 5.7928 4.49752H6.25L5.9205 4.84573 6.08183 5.30568 5.64724 5.03169zM3.64724 7.03169 3.20446 7.30568 3.37636 6.84573 3 6.49752H3.4565L3.64724 6 3.7928 6.49752H4.25L3.9205 6.84573 4.08183 7.30568 3.64724 7.03169z"/><path fill="#FECA00" d="M12.421 2.73157C10.3793 3.74015 3.67061 8.27262 3.67061 8.27262H14.8462C14.7346 8.24767 14.6304 8.22694 14.5323 8.20739C13.7119 8.04404 13.3069 7.9634 12.421 6.19855C11.429 4.2225 12.421 2.73157 12.421 2.73157ZM3.30785 8.98258L3.15503 9.36255L3.30785 9.78005L14.6847 10L15 9.42016L14.6847 9.00266L3.30785 8.98258Z"/></g></g><defs><clipPath id="TK_svg__a"><path fill="#fff" d="M0 0H16V12H0z"/></clipPath></defs></svg>