<svg xmlns="http://www.w3.org/2000/svg" fill="none" viewBox="0 0 16 12"><g clip-path="url(#WSM_svg__a)"><path fill="#fff" d="M0 0H16V12H0z"/><path fill="#C51918" fill-rule="evenodd" d="M0 0V12H16V0H0Z" clip-rule="evenodd"/><mask id="WSM_svg__b" width="16" height="12" x="0" y="0" maskUnits="userSpaceOnUse" style="mask-type:luminance"><path fill="#fff" fill-rule="evenodd" d="M0 0V12H16V0H0Z" clip-rule="evenodd"/></mask><g fill-rule="evenodd" clip-rule="evenodd" mask="url(#WSM_svg__b)"><path fill="#2E42A5" d="M0 0V7H8V0H0Z"/><path fill="#FEFFFF" d="M1.78288 3.88601 1.25286 4.20598 1.37375 3.58158.932373 3.11428 1.53003 3.08902 1.78288 2.50598 2.03574 3.08902H2.63237L2.19201 3.58158 2.32459 4.20598 1.78288 3.88601zM5.78288 3.88601 5.25286 4.20598 5.37375 3.58158 4.93237 3.11428 5.53003 3.08902 5.78288 2.50598 6.03574 3.08902H6.63237L6.19201 3.58158 6.32459 4.20598 5.78288 3.88601zM3.73285 2.06899 3.23401 2.37014 3.34779 1.78247 2.93237 1.34266 3.49487 1.31888 3.73285.770142 3.97083 1.31888H4.53237L4.11791 1.78247 4.24269 2.37014 3.73285 2.06899zM4.27313 4.2126 3.96135 4.40082 4.03246 4.03352 3.77283 3.75864 4.12439 3.74378 4.27313 3.40082 4.42186 3.74378H4.77283L4.51379 4.03352 4.59178 4.40082 4.27313 4.2126zM3.70438 6.41415 2.95611 6.86588 3.12679 5.98438 2.50366 5.32466 3.34741 5.28899 3.70438 4.46588 4.06135 5.28899H4.90366L4.28197 5.98438 4.46914 6.86588 3.70438 6.41415z"/></g></g><defs><clipPath id="WSM_svg__a"><path fill="#fff" d="M0 0H16V12H0z"/></clipPath></defs></svg>