<svg xmlns="http://www.w3.org/2000/svg" fill="none" viewBox="0 0 32 24"><g clip-path="url(#226_svg__a)"><path fill="#fff" d="M0 0H32V24H0z"/><path fill="#F7FCFF" fill-rule="evenodd" d="M0 0V24H32V0H0Z" clip-rule="evenodd"/><mask id="226_svg__b" width="32" height="24" x="0" y="0" maskUnits="userSpaceOnUse" style="mask-type:luminance"><path fill="#fff" fill-rule="evenodd" d="M0 0V24H32V0H0Z" clip-rule="evenodd"/></mask><g fill-rule="evenodd" clip-rule="evenodd" mask="url(#226_svg__b)"><path fill="#009D00" d="M0 0V8H32V0H0Z"/><path fill="#fff" d="M0 8V16H32V8H0Z"/><path fill="#F80000" d="M0 16V24H32V16H0Z"/></g><path fill="#0075D5" fill-rule="evenodd" d="M0 0V24L8 12.152L0 0Z" clip-rule="evenodd"/><mask width="8" height="24" x="0" y="0" maskUnits="userSpaceOnUse" style="mask-type:luminance"><path fill="#fff" fill-rule="evenodd" d="M0 0V24L8 12.152L0 0Z" clip-rule="evenodd"/></mask><path fill="#FFD500" stroke="#000" stroke-width=".05" d="M14.5702 8.8829 14.5573 8.8858 14.5477 8.87688 14.341 8.68595 14.3152 8.96613 14.314 8.97922 14.3025 8.98565 14.057 9.12321 14.3155 9.23436 14.3276 9.23955 14.3302 9.25244 14.3852 9.5284 14.5707 9.3169 14.5794 9.30703 14.5925 9.30857 14.8719 9.34155 14.7281 9.09969 14.7214 9.08839 14.7269 9.07646 14.8446 8.82089 14.5702 8.8829zM15.5702 8.8829 15.5573 8.8858 15.5477 8.87688 15.341 8.68595 15.3152 8.96613 15.314 8.97922 15.3025 8.98565 15.057 9.12321 15.3155 9.23436 15.3276 9.23955 15.3302 9.25244 15.3852 9.5284 15.5707 9.3169 15.5794 9.30703 15.5925 9.30857 15.8719 9.34155 15.7281 9.09969 15.7214 9.08839 15.7269 9.07646 15.8446 8.82089 15.5702 8.8829zM16.5702 8.8829 16.5573 8.8858 16.5477 8.87688 16.341 8.68595 16.3152 8.96613 16.314 8.97922 16.3025 8.98565 16.057 9.12321 16.3155 9.23436 16.3276 9.23955 16.3302 9.25244 16.3852 9.5284 16.5707 9.3169 16.5794 9.30703 16.5925 9.30857 16.8719 9.34155 16.7281 9.09969 16.7214 9.08839 16.7269 9.07646 16.8446 8.82089 16.5702 8.8829zM17.5702 8.8829 17.5573 8.8858 17.5477 8.87688 17.341 8.68595 17.3152 8.96613 17.314 8.97922 17.3025 8.98565 17.057 9.12321 17.3155 9.23436 17.3276 9.23955 17.3302 9.25244 17.3852 9.5284 17.5707 9.3169 17.5794 9.30703 17.5925 9.30857 17.8719 9.34155 17.7281 9.09969 17.7214 9.08839 17.7269 9.07646 17.8446 8.82089 17.5702 8.8829zM18.5702 8.8829 18.5573 8.8858 18.5477 8.87688 18.341 8.68595 18.3152 8.96613 18.314 8.97922 18.3025 8.98565 18.057 9.12321 18.3155 9.23436 18.3276 9.23955 18.3302 9.25244 18.3852 9.5284 18.5707 9.3169 18.5794 9.30703 18.5925 9.30857 18.8719 9.34155 18.7281 9.09969 18.7214 9.08839 18.7269 9.07646 18.8446 8.82089 18.5702 8.8829zM19.5702 8.8829 19.5573 8.8858 19.5477 8.87688 19.341 8.68595 19.3152 8.96613 19.314 8.97922 19.3025 8.98565 19.057 9.12321 19.3155 9.23436 19.3276 9.23955 19.3302 9.25244 19.3852 9.5284 19.5707 9.3169 19.5794 9.30703 19.5925 9.30857 19.8719 9.34155 19.7281 9.09969 19.7214 9.08839 19.7269 9.07646 19.8446 8.82089 19.5702 8.8829z"/><path stroke="#373737" stroke-width=".1" d="M15.05 10.05H18.95V13C18.95 14.077 18.077 14.95 17 14.95C15.923 14.95 15.05 14.077 15.05 13V10.05Z"/><path fill="#6F3E1D" fill-rule="evenodd" d="M16.7264 11.9598C16.7264 11.9598 16.5247 14.3251 16.3234 14.4685C16.122 14.6118 17.2883 14.6834 17.3997 14.5759C17.5112 14.4685 16.8911 12.541 17.1044 11.9598C17.3177 11.3786 17.6613 11.3315 17.6613 11.3315C17.6613 11.3315 17.2282 11.24 17.1044 11.4144C16.9807 11.5888 16.6116 11.3315 16.6116 11.3315L16.7264 11.9598Z" clip-rule="evenodd"/><path fill="#009D29" fill-rule="evenodd" d="M16.6823 11.8262H16.5271C16.5271 11.8262 16.422 12.2369 16.181 12.0315C15.94 11.8262 15.6 11.8986 15.6 11.8986C15.6 11.8986 15.6305 11.6528 16.0005 11.5551C16.3705 11.4574 16.5271 10.6639 16.5271 10.6639C16.5271 10.6639 17.0507 10.469 17.3692 10.8684C17.6878 11.2679 18.1366 11.0975 18.1366 11.0975C18.1366 11.0975 18.4646 11.284 18.3006 11.5551C18.1366 11.8262 17.8568 12.0245 17.613 11.8262C17.3692 11.6279 16.6823 11.8262 16.6823 11.8262Z" clip-rule="evenodd"/></g><defs><clipPath id="226_svg__a"><path fill="#fff" d="M0 0H32V24H0z"/></clipPath></defs></svg>