<svg xmlns="http://www.w3.org/2000/svg" fill="none" viewBox="0 0 32 24"><g clip-path="url(#238_svg__a)"><path fill="#fff" d="M0 0H32V24H0z"/><path fill="#2E42A5" fill-rule="evenodd" d="M0 0V24H32V0H0Z" clip-rule="evenodd"/><mask width="32" height="24" x="0" y="0" maskUnits="userSpaceOnUse" style="mask-type:luminance"><path fill="#fff" fill-rule="evenodd" d="M0 0V24H32V0H0Z" clip-rule="evenodd"/></mask><g clip-path="url(#238_svg__b)"><path fill="#2E42A5" d="M0 0H18V14H0z"/><path fill="#F7FCFF" d="M-2.00427 12.9998L1.95668 14.737L18.0899 1.88875L20.1792 -0.69278L15.9435 -1.2734L9.36317 4.26329L4.06667 7.99372L-2.00427 12.9998Z"/><path fill="#F50100" d="M-1.46204 14.2169L0.555885 15.2251L19.4289 -0.932648H16.5955L-1.46204 14.2169Z"/><path fill="#F7FCFF" d="M20.0043 12.9998L16.0433 14.737L-0.0898743 1.88875L-2.17919 -0.69278L2.05648 -1.2734L8.63683 4.26329L13.9333 7.99372L20.0043 12.9998Z"/><path fill="#F50100" d="M19.8691 13.8733L17.8512 14.8815L9.81489 7.96351L7.43229 7.19059L-2.3802 -0.683947H0.453194L10.2602 7.00368L12.8651 7.9305L19.8691 13.8733Z"/><path fill="#F50100" fill-rule="evenodd" d="M9.98451 0H7.98451V6H0V8H7.98451V14H9.98451V8H18V6H9.98451V0Z" clip-rule="evenodd"/><path fill="#F7FCFF" fill-rule="evenodd" d="M6.48451 0H11.4845V4.5H18V9.5H11.4845L11.5 14H6.5L6.48451 9.5H0V4.5H6.48451V0ZM7.98451 6H0V8H7.98451V14H9.98451V8H18V6H9.98451V0H7.98451V6Z" clip-rule="evenodd"/></g><path stroke="#B85F3C" d="M22.9632 18.3937C22.9632 18.3937 23.9472 19.3362 23.353 19.9747 22.7589 20.6133 22.2141 20.2424 22.2141 20.2424M29.0498 18.3937C29.0498 18.3937 28.0659 19.3362 28.66 19.9747 29.2542 20.6133 29.799 20.2424 29.799 20.2424"/><path stroke="#CB8B73" d="M22.3207 19.1531C22.3207 19.1531 24.0159 20.7731 26.0998 20.7731C28.1838 20.7731 29.8607 19.5355 29.8607 19.5355"/></g><defs><clipPath id="238_svg__a"><path fill="#fff" d="M0 0H32V24H0z"/></clipPath><clipPath id="238_svg__b"><path fill="#fff" d="M0 0H18V14H0z"/></clipPath></defs></svg>