<svg xmlns="http://www.w3.org/2000/svg" fill="none" viewBox="0 0 32 24"><g clip-path="url(#262_svg__a)"><path fill="#fff" d="M0 0H32V24H0z"/><path fill="#73BE4A" fill-rule="evenodd" d="M0 0V24H32V0H0Z" clip-rule="evenodd"/><mask id="262_svg__b" width="32" height="24" x="0" y="0" maskUnits="userSpaceOnUse" style="mask-type:luminance"><path fill="#fff" fill-rule="evenodd" d="M0 0V24H32V0H0Z" clip-rule="evenodd"/></mask><g mask="url(#262_svg__b)"><path fill="#69F" fill-rule="evenodd" d="M0 -2V12H32V-2H0Z" clip-rule="evenodd"/></g><path fill="#fff" fill-rule="evenodd" d="M0 0V24L18 12L0 0Z" clip-rule="evenodd"/><mask id="262_svg__c" width="18" height="24" x="0" y="0" maskUnits="userSpaceOnUse" style="mask-type:luminance"><path fill="#fff" fill-rule="evenodd" d="M0 0V24L18 12L0 0Z" clip-rule="evenodd"/></mask><g mask="url(#262_svg__c)"><path fill="#E31D1C" fill-rule="evenodd" d="M7.00179 14.0707L5.13112 15.2L5.55781 12.9963L4 11.347L6.10936 11.2578L7.00179 9.20001L7.89423 11.2578H10L8.44578 12.9963L8.91369 15.2L7.00179 14.0707Z" clip-rule="evenodd"/></g></g><defs><clipPath id="262_svg__a"><path fill="#fff" d="M0 0H32V24H0z"/></clipPath></defs></svg>