<svg xmlns="http://www.w3.org/2000/svg" fill="none" viewBox="0 0 32 24"><g clip-path="url(#332_svg__a)"><path fill="#fff" d="M0 0H32V24H0z"/><path fill="#2E42A5" fill-rule="evenodd" d="M0 0V24H32V0H0Z" clip-rule="evenodd"/><mask id="332_svg__b" width="32" height="24" x="0" y="0" maskUnits="userSpaceOnUse" style="mask-type:luminance"><path fill="#fff" fill-rule="evenodd" d="M0 0V24H32V0H0Z" clip-rule="evenodd"/></mask><g mask="url(#332_svg__b)"><path fill="#E31D1C" fill-rule="evenodd" d="M0 12V24H32V12H0Z" clip-rule="evenodd"/><path fill="#fff" d="M10 8H22V16H10z"/><mask id="332_svg__c" width="12" height="8" x="10" y="8" maskUnits="userSpaceOnUse" style="mask-type:luminance"><path fill="#fff" d="M10 8H22V16H10z"/></mask><g mask="url(#332_svg__c)"><path fill="#279E19" fill-rule="evenodd" d="M10 14.5778C10 14.5778 12.8803 13.8205 16 13.8667C19.1197 13.9129 22 14.7556 22 14.7556V16H10V14.5778Z" clip-rule="evenodd"/><path stroke="#026A16" stroke-width=".5" d="M16.0736 8.90116C16.0736 8.90116 15.1425 8.48178 14.4926 8.48178C13.8426 8.48178 13.4816 9.12189 13.4816 9.12189"/><path stroke="#026A16" stroke-width=".5" d="M16.2805 9.32154C16.2805 9.32154 15.4237 9.01512 14.8257 9.01512C14.2276 9.01512 13.8954 9.48282 13.8954 9.48282"/><path stroke="#026A16" stroke-width=".5" d="M16.2804 9.67709C16.2804 9.67709 15.6466 9.37067 15.2042 9.37067C14.7618 9.37067 14.516 9.83836 14.516 9.83836"/><path stroke="#026A16" stroke-width=".5" d="M16.0199 10.0326C16.0199 10.0326 15.6283 9.72623 15.355 9.72623C15.0817 9.72623 14.9298 10.1939 14.9298 10.1939"/><path stroke="#026A16" stroke-width=".5" d="M15.9864 10.2752C15.9864 10.2752 15.8298 10.0818 15.7205 10.0818 15.6113 10.0818 15.5505 10.3771 15.5505 10.3771M15.9263 8.90116C15.9263 8.90116 16.8574 8.48178 17.5073 8.48178 18.1573 8.48178 18.5183 9.12189 18.5183 9.12189"/><path stroke="#026A16" stroke-width=".5" d="M15.7194 9.32154C15.7194 9.32154 16.5761 9.01512 17.1742 9.01512C17.7723 9.01512 18.1045 9.48282 18.1045 9.48282"/><path stroke="#026A16" stroke-width=".5" d="M15.7195 9.67709C15.7195 9.67709 16.3533 9.37067 16.7957 9.37067C17.2381 9.37067 17.4839 9.83836 17.4839 9.83836"/><path stroke="#026A16" stroke-width=".5" d="M15.98 10.0326C15.98 10.0326 16.3716 9.72623 16.6449 9.72623C16.9182 9.72623 17.0701 10.1939 17.0701 10.1939"/><path stroke="#026A16" stroke-width=".5" d="M16.0135 10.2752C16.0135 10.2752 16.17 10.0818 16.2793 10.0818C16.3886 10.0818 16.4493 10.3771 16.4493 10.3771"/><path fill="#FECA00" fill-rule="evenodd" d="M15.8876 10.3982C15.8876 10.3982 15.7733 11.7356 15.7733 12.2799C15.7733 12.8242 15.8876 13.9986 15.8876 13.9986H16.1814C16.1814 13.9986 16.1814 12.7343 16.1814 12.2799C16.1814 11.8255 16.009 10.3982 16.009 10.3982H15.8876Z" clip-rule="evenodd"/><path fill="#C51918" fill-rule="evenodd" d="M14.7321 11.9185C14.7321 11.9185 14.0079 12.3061 14.0079 13.4536L14.7321 14.8392H16.039V12.5574L14.7321 11.9185Z" clip-rule="evenodd"/><path fill="#0A328C" fill-rule="evenodd" d="M13.659 10.826C13.659 10.826 11.9681 11.3269 11.9681 13.1747L14.1588 13.3616C14.1588 13.3616 14.0391 12.288 14.7132 11.7914L13.659 10.826Z" clip-rule="evenodd"/><path stroke="#FFD018" stroke-width=".5" d="M12.9609 10.1209 15.8614 12.779M11.9536 10.7228 15.9991 13.3498M11.2572 11.7396 15.8168 13.8248"/><path fill="#FECA00" fill-rule="evenodd" d="M11.9799 13.1602L15.0055 13.4985L14.8352 13.9207H14.3555L14.6822 14.1593L15.4189 14.3317V13.9207H16.0641V14.7939H14.6822L14.1522 14.1593C14.1522 14.1593 13.707 14.5981 13.2726 14.5981C12.8381 14.5981 12.4098 14.4556 12.4098 13.9771C12.4098 13.4985 12.4098 13.6441 12.4098 13.6441L11.9799 13.4985V13.1602Z" clip-rule="evenodd"/><path fill="#C51918" fill-rule="evenodd" d="M16.8542 11.9185C16.8542 11.9185 17.5784 12.3061 17.5784 13.4536L16.8542 14.8392H15.5473V12.5574L16.8542 11.9185Z" clip-rule="evenodd"/><path fill="#0A328C" fill-rule="evenodd" d="M17.9274 10.826C17.9274 10.826 19.6182 11.3269 19.6182 13.1747L17.4276 13.3616C17.4276 13.3616 17.5472 12.288 16.8731 11.7914L17.9274 10.826Z" clip-rule="evenodd"/><path stroke="#FFD018" stroke-width=".5" d="M18.6254 10.1209 15.7249 12.779M19.6327 10.7228 15.5872 13.3498M20.3291 11.7396 15.7695 13.8248"/><path fill="#FECA00" fill-rule="evenodd" d="M19.6064 13.1602L16.5808 13.4985L16.7511 13.9207H17.2308L16.9041 14.1593L16.1674 14.3317V13.9207H15.5222V14.7939H16.9041L17.4341 14.1593C17.4341 14.1593 17.8793 14.5981 18.3137 14.5981C18.7482 14.5981 19.1765 14.4556 19.1765 13.9771C19.1765 13.4985 19.1765 13.6441 19.1765 13.6441L19.6064 13.4985V13.1602Z" clip-rule="evenodd"/></g></g></g><defs><clipPath id="332_svg__a"><path fill="#fff" d="M0 0H32V24H0z"/></clipPath></defs></svg>