<svg xmlns="http://www.w3.org/2000/svg" fill="none" viewBox="0 0 32 24"><g clip-path="url(#531_svg__a)"><path fill="#fff" d="M0 0H32V24H0z"/><path fill="#2E42A5" fill-rule="evenodd" d="M0 0V24H32V0H0Z" clip-rule="evenodd"/><mask id="531_svg__b" width="32" height="24" x="0" y="0" maskUnits="userSpaceOnUse" style="mask-type:luminance"><path fill="#fff" fill-rule="evenodd" d="M0 0V24H32V0H0Z" clip-rule="evenodd"/></mask><g fill-rule="evenodd" clip-rule="evenodd" mask="url(#531_svg__b)"><path fill="#F7FCFF" d="M4.25442 6.14923 2.26558 7.19891 3.22584 5.33053 2 3.96315 3.52334 3.90693 4.25442 2 4.81233 3.90693 6.59497 3.96315 5.31147 5.33053 6.12572 7.19891 4.25442 6.14923zM11.3523 11.0765 8.89764 12.1048 9.86061 9.52815 7.72644 7.79927H10.2837L11.3523 5.01218 12.1677 7.79927H14.7289L12.9089 9.52815 13.8126 12.1048 11.3523 11.0765z"/><path fill="#F9E813" d="M0 14V18H32V14H0Z"/></g></g><defs><clipPath id="531_svg__a"><path fill="#fff" d="M0 0H32V24H0z"/></clipPath></defs></svg>