<svg xmlns="http://www.w3.org/2000/svg" fill="none" viewBox="0 0 32 24"><g clip-path="url(#591_svg__a)"><path fill="#fff" d="M0 0H32V24H0z"/><path fill="#F7FCFF" fill-rule="evenodd" d="M0 0V24H32V0H0Z" clip-rule="evenodd"/><mask id="591_svg__b" width="32" height="24" x="0" y="0" maskUnits="userSpaceOnUse" style="mask-type:luminance"><path fill="#fff" fill-rule="evenodd" d="M0 0V24H32V0H0Z" clip-rule="evenodd"/></mask><g fill-rule="evenodd" clip-rule="evenodd" mask="url(#591_svg__b)"><path fill="#E31D1C" d="M16 0V12H32V0H16zM23.0209 19.1497 20.7184 20.5744 21.6123 18.1827 19.6552 16.372H22.029L23.0209 13.7849 23.7778 16.372H26.1552L24.4418 18.1827 25.2807 20.5744 23.0209 19.1497z"/><path fill="#2E42A5" d="M9.02085 8.36481 6.71841 9.78952 7.61229 7.39778 5.65521 5.5871H8.029L9.02085 3 9.77776 5.5871H12.1552L10.4418 7.39778 11.2807 9.78952 9.02085 8.36481zM0 12V24H16V12H0z"/></g></g><defs><clipPath id="591_svg__a"><path fill="#fff" d="M0 0H32V24H0z"/></clipPath></defs></svg>