<svg xmlns="http://www.w3.org/2000/svg" fill="none" viewBox="0 0 32 24"><g clip-path="url(#728_svg__a)"><path fill="#fff" d="M0 0H32V24H0z"/><path fill="#F7FCFF" fill-rule="evenodd" d="M0 0H32V24H0V0Z" clip-rule="evenodd"/><path fill="#272727" fill-rule="evenodd" d="M0 0V8H32V0H0Z" clip-rule="evenodd"/><path fill="#4E8B1D" fill-rule="evenodd" d="M0 16V24H32V16H0Z" clip-rule="evenodd"/><path fill="#E31D1C" stroke="#F7FCFF" stroke-width="2" d="M0 7H-1V8V16V17H0H32H33V16V8V7H32H0Z"/><path fill="#3D58DB" fill-rule="evenodd" d="M0 0L20 12L0 24V0Z" clip-rule="evenodd"/><path fill="#FECA00" fill-rule="evenodd" d="M6.64792 14.4086L4.6284 16.5086L4.41743 13.5232L1.84197 11.9366L4.52784 11.0938L4.96709 8.13567L6.82657 10.4779L9.5386 9.75122L8.13685 12.5266L9.49997 15.2033L6.64792 14.4086Z" clip-rule="evenodd"/></g><defs><clipPath id="728_svg__a"><path fill="#fff" d="M0 0H32V24H0z"/></clipPath></defs></svg>