<svg xmlns="http://www.w3.org/2000/svg" fill="none" viewBox="0 0 32 24"><g clip-path="url(#862_svg__a)"><path fill="#fff" d="M0 0H32V24H0z"/><path fill="#2E42A5" fill-rule="evenodd" d="M0 0V24H32V0H0Z" clip-rule="evenodd"/><mask id="862_svg__b" width="32" height="24" x="0" y="0" maskUnits="userSpaceOnUse" style="mask-type:luminance"><path fill="#fff" fill-rule="evenodd" d="M0 0V24H32V0H0Z" clip-rule="evenodd"/></mask><g fill-rule="evenodd" clip-rule="evenodd" mask="url(#862_svg__b)"><path fill="#FECA00" d="M0 0V8H32V0H0Z"/><path fill="#E31D1C" d="M0 16V24H32V16H0Z"/><path fill="#F7FCFF" d="M12.7368 11.8594 13.7195 11.3019 14.8221 11.8594 14.4262 10.7264 15.2497 9.89379H14.2016L13.718 8.82159 13.3057 9.89379H12.0762L13.0007 10.7115H11.9638L11.4803 9.6393 11.0679 10.7115H9.8384L10.7797 11.5441 10.5998 12.2704H9.81525L9.33171 11.1982 8.91934 12.2704H7.68983L8.63117 13.103 8.45707 13.8059H8.11358L7.63004 12.7337 7.21767 13.8059H5.98816L6.9295 14.6385 6.64884 15.7715 7.63152 15.214 8.73414 15.7715 8.33817 14.6385 9.1617 13.8059H9.10879L9.33319 13.6786 10.4358 14.236 10.0398 13.103 10.5118 12.6259 10.4991 12.6771 11.4818 12.1196 12.5844 12.6771 12.1884 11.5441 13.0067 10.7168 13.0175 10.7264 12.7368 11.8594zM19.223 11.8156 18.2403 11.2581 17.1377 11.8156 17.5337 10.6826 16.7101 9.84996H17.7583L18.2418 8.77777 18.6542 9.84996H19.8837L18.9592 10.6677H20.0009L20.4844 9.59547 20.8968 10.6677H22.1263L21.185 11.5003 21.3649 12.2266H22.1495L22.633 11.1544 23.0454 12.2266H24.2749L23.3336 13.0592 23.5077 13.762H23.8511L24.3347 12.6898 24.747 13.762H25.9766L25.0352 14.5946 25.3159 15.7277 24.3332 15.1702 23.2306 15.7277 23.6266 14.5946 22.803 13.762H22.8559L22.6315 13.6347 21.5289 14.1922 21.9249 13.0592 21.453 12.5821 21.4656 12.6333 20.483 12.0758 19.3803 12.6333 19.7763 11.5003 18.9558 10.6707 18.9423 10.6826 19.223 11.8156z"/><path fill="#F7FCFF" d="M15.8329 10.5347L14.8503 11.0922L15.1309 9.95917L14.1896 9.12657H15.4191L15.8315 8.05438L16.315 9.12657H17.3631L16.5396 9.95917L16.9356 11.0922L15.8329 10.5347Z"/></g></g><defs><clipPath id="862_svg__a"><path fill="#fff" d="M0 0H32V24H0z"/></clipPath></defs></svg>