<svg xmlns="http://www.w3.org/2000/svg" fill="none" viewBox="0 0 32 24"><g clip-path="url(#BI_svg__a)"><path fill="#fff" d="M0 0H32V24H0z"/><rect width="32" height="24" fill="#5EAA22" rx="2"/><mask id="BI_svg__b" width="48" height="30" x="-8" y="-3" fill="#000" maskUnits="userSpaceOnUse"><path fill="#fff" d="M-8-3H40V27H-8z"/><path fill-rule="evenodd" d="M16 12L32 0H0L16 12ZM16 12L0 24H32L16 12Z" clip-rule="evenodd"/></mask><path fill="#DD2C2B" fill-rule="evenodd" d="M16 12L32 0H0L16 12ZM16 12L0 24H32L16 12Z" clip-rule="evenodd"/><path fill="#fff" d="M32 0L33.5 2L39.5 -2.5H32V0ZM0 0V-2.5H-7.5L-1.5 2L0 0ZM0 24L-1.5 22L-7.5 26.5H0V24ZM32 24V26.5H39.5L33.5 22L32 24ZM30.5 -2L14.5 10L17.5 14L33.5 2L30.5 -2ZM0 2.5H32V-2.5H0V2.5ZM17.5 10L1.5 -2L-1.5 2L14.5 14L17.5 10ZM14.5 10L-1.5 22L1.5 26L17.5 14L14.5 10ZM0 26.5H32V21.5H0V26.5ZM33.5 22L17.5 10L14.5 14L30.5 26L33.5 22Z" mask="url(#BI_svg__b)"/><path fill="#fff" fill-rule="evenodd" d="M16 18C19.3137 18 22 15.3137 22 12C22 8.68629 19.3137 6 16 6C12.6863 6 10 8.68629 10 12C10 15.3137 12.6863 18 16 18Z" clip-rule="evenodd"/><path fill="#DD2C2B" fill-rule="evenodd" stroke="#5EAA22" stroke-width=".25" d="M15.43 10.3873 14.2679 10.4 14.86 9.40002 14.2679 8.40002 15.43 8.41275 16 7.40002 16.57 8.41275 17.732 8.40002 17.14 9.40002 17.732 10.4 16.57 10.3873 16 11.4 15.43 10.3873zM12.93 14.4873 11.7679 14.5 12.36 13.5 11.7679 12.5 12.93 12.5127 13.5 11.5 14.07 12.5127 15.232 12.5 14.64 13.5 15.232 14.5 14.07 14.4873 13.5 15.5 12.93 14.4873zM17.93 14.4873 16.7679 14.5 17.36 13.5 16.7679 12.5 17.93 12.5127 18.5 11.5 19.07 12.5127 20.232 12.5 19.64 13.5 20.232 14.5 19.07 14.4873 18.5 15.5 17.93 14.4873z" clip-rule="evenodd"/></g><defs><clipPath id="BI_svg__a"><path fill="#fff" d="M0 0H32V24H0z"/></clipPath></defs></svg>