<svg xmlns="http://www.w3.org/2000/svg" fill="none" viewBox="0 0 32 24"><g clip-path="url(#BQ-SA_svg__a)"><path fill="#fff" d="M0 0H32V24H0z"/><path fill="#fff" fill-rule="evenodd" d="M0 0H32V24H0V0Z" clip-rule="evenodd"/><path fill="#F00000" fill-rule="evenodd" d="M0 11.664V0H16L0 11.664zM32 11.664V0H16L32 11.664z" clip-rule="evenodd"/><path fill="#00268D" fill-rule="evenodd" d="M0 11.664V24H16L0 11.664zM32 11.664V24.336L16 24 32 11.664z" clip-rule="evenodd"/><path fill="#FEDA00" fill-rule="evenodd" d="M15.714 14.2563L12.1965 16.7633L13.4873 12.622L10 10.087H14.3446L15.714 6L17.1655 10.087H21.3918L17.9349 12.622L19.2489 16.7633L15.714 14.2563Z" clip-rule="evenodd"/></g><defs><clipPath id="BQ-SA_svg__a"><path fill="#fff" d="M0 0H32V24H0z"/></clipPath></defs></svg>