<svg xmlns="http://www.w3.org/2000/svg" fill="none" viewBox="0 0 32 24"><g clip-path="url(#CCK_svg__a)"><path fill="#fff" d="M0 0H32V24H0z"/><path fill="#5EAA22" fill-rule="evenodd" d="M0 0H32V24H0V0Z" clip-rule="evenodd"/><path fill="#FECA00" fill-rule="evenodd" d="M24 7 23 7.73205 23.134 6.5 22 6 23.134 5.5 23 4.26795 24 5 25 4.26795 24.866 5.5 26 6 24.866 6.5 25 7.73205 24 7zM22.9628 13.6786 21.9628 14.4107 22.0967 13.1786 20.9628 12.6786 22.0967 12.1786 21.9628 10.9466 22.9628 11.6786 23.9628 10.9466 23.8288 12.1786 24.9628 12.6786 23.8288 13.1786 23.9628 14.4107 22.9628 13.6786zM26 19 25 19.7321 25.134 18.5 24 18 25.134 17.5 25 16.2679 26 17 27 16.2679 26.866 17.5 28 18 26.866 18.5 27 19.7321 26 19zM27 9.5 26.5 9.86603 26.567 9.25 26 9 26.567 8.75 26.5 8.13397 27 8.5 27.5 8.13397 27.433 8.75 28 9 27.433 9.25 27.5 9.86603 27 9.5zM7 14C9.76142 14 12 11.7614 12 9 12 6.23858 9.76142 4 7 4 4.23858 4 2 6.23858 2 9 2 11.7614 4.23858 14 7 14zM19.8977 14.945C19.2396 16.0745 18.1936 16.5872 16.7936 16.5872 14.6984 16.5872 13 14.8887 13 12.7936 13 10.6984 14.6984 9 16.7936 9 18.3921 9 19.6676 9.55928 20.2527 11.0826 19.7895 10.6232 19.0725 10.3081 18 10.3481 16.3431 10.3481 15.2653 11.6389 15.2653 12.7434 15.2653 13.848 16.3431 15.3495 18 15.3495 18.8333 15.337 19.4489 15.1846 19.8977 14.945z" clip-rule="evenodd"/><path fill="#915E2B" d="M7.58247 8.6937C7.58247 8.6937 6.60483 12.2746 6.20116 12.6135C6.02247 12.6923 7.81981 12.6135 7.81981 12.6135C7.81981 12.6135 7.14604 12.3187 7.38338 11.9263C7.62072 11.534 7.93076 9.00954 7.81981 8.14967C7.70886 7.2898 7.58247 8.6937 7.58247 8.6937Z"/><path fill="#5EAA22" fill-rule="evenodd" d="M7.79047 8.82665C7.79047 8.82665 8.8388 9.14147 8.8388 9.67717C8.8388 10.2129 9.71091 10.9658 9.71091 10.2528C9.71091 9.53971 9.54776 8.82665 9.19328 8.82665C8.8388 8.82665 9.36666 8.34726 9.66981 8.74537C9.97295 9.14348 11.0359 8.70793 10.82 8.42854C10.6041 8.14915 9.83772 7.80099 9.71091 7.80099C9.58409 7.80099 10.583 7.12043 9.71091 7.12043C8.8388 7.12043 9.33895 7.70175 8.74793 7.08458C8.15692 6.46741 8.99955 7.38584 8.99955 6.34943C8.99955 5.31301 8.76046 4.88954 7.97103 5.4713C7.18159 6.05306 7.33295 5.68408 7.05198 5.46473C6.771 5.24538 6.52442 6.26781 6.83363 6.47653C7.14284 6.68524 7.48562 7.20253 7.17641 7.20253C6.8672 7.20253 6.64889 6.90402 6.64889 6.69028C6.64889 6.47653 5.80751 6.099 5.00894 6.099C4.21037 6.099 4.72705 6.69028 5.00894 6.69028C5.29083 6.69028 6.55317 7.12043 5.922 7.12043C5.29083 7.12043 5.97075 6.80217 5.17517 6.80217C4.3796 6.80217 3.45479 6.43988 3.45479 7.12043C3.45479 7.80099 4.24974 8.10248 4.49808 7.80099C4.74642 7.4995 5.03353 6.99124 5.03353 7.49867C5.03353 8.0061 4.40076 7.79893 3.45479 8.11373C2.50882 8.42854 2.78028 9.25849 3.90876 9.0558C5.03725 8.85311 4.91515 8.86415 5.36821 8.54934C5.82127 8.23454 6.38199 8.3223 5.922 8.82665C5.462 9.331 5.00201 10.2528 5.462 10.2528C5.922 10.2528 6.21853 10.3782 6.21853 9.89092C6.21853 9.40365 6.48555 8.45499 6.48555 9.0558C6.48555 9.6566 6.83363 10.1095 7.14284 9.89092C7.45205 9.67238 7.07083 8.98857 7.42382 8.98857C7.7768 8.98857 7.79047 8.82665 7.79047 8.82665Z" clip-rule="evenodd"/></g><defs><clipPath id="CCK_svg__a"><path fill="#fff" d="M0 0H32V24H0z"/></clipPath></defs></svg>