<svg xmlns="http://www.w3.org/2000/svg" fill="none" viewBox="0 0 32 24"><g clip-path="url(#CF_svg__a)"><path fill="#fff" d="M0 0H32V24H0z"/><path fill="#3D58DB" fill-rule="evenodd" d="M0 0H32V6H0V0Z" clip-rule="evenodd"/><path fill="#F7FCFF" fill-rule="evenodd" d="M0 6H32V12H0V6Z" clip-rule="evenodd"/><path fill="#73BE4A" fill-rule="evenodd" d="M0 12H32V18H0V12Z" clip-rule="evenodd"/><path fill="#FFD018" fill-rule="evenodd" d="M0 18H32V24H0V18Z" clip-rule="evenodd"/><path fill="#FECA00" fill-rule="evenodd" d="M4.5294 5.41612L2.10486 7.09783L2.87959 4.21747L1.09973 2.37749L3.50977 2.278L4.5294 -0.570251L5.54904 2.278H7.95498L6.17921 4.21747L7.06854 6.92782L4.5294 5.41612Z" clip-rule="evenodd"/><path fill="#E11C1B" fill-rule="evenodd" d="M12 0H20V24H12V0Z" clip-rule="evenodd"/></g><defs><clipPath id="CF_svg__a"><path fill="#fff" d="M0 0H32V24H0z"/></clipPath></defs></svg>