<svg xmlns="http://www.w3.org/2000/svg" fill="none" viewBox="0 0 32 24"><g clip-path="url(#ETH_svg__a)"><path fill="#fff" d="M0 0H32V24H0z"/><path fill="#FECA00" fill-rule="evenodd" d="M0 0V24H32V0H0Z" clip-rule="evenodd"/><mask id="ETH_svg__b" width="32" height="24" x="0" y="0" maskUnits="userSpaceOnUse" style="mask-type:luminance"><path fill="#fff" fill-rule="evenodd" d="M0 0V24H32V0H0Z" clip-rule="evenodd"/></mask><g mask="url(#ETH_svg__b)"><path fill="#5EAA22" fill-rule="evenodd" d="M0 0V8H32V0H0Z" clip-rule="evenodd"/><path fill="#E31D1C" fill-rule="evenodd" d="M0 16V24H32V16H0Z" clip-rule="evenodd"/><path fill="#2B77B8" fill-rule="evenodd" d="M16 18C19.3137 18 22 15.3137 22 12C22 8.68629 19.3137 6 16 6C12.6863 6 10 8.68629 10 12C10 15.3137 12.6863 18 16 18Z" clip-rule="evenodd"/><path stroke="#FECA00" stroke-width="1.5" d="M16 14L13.238 14.9265L14.0979 12.618L12.2244 10.382H14.8244L16 8L17.1756 10.382H19.8329L17.9021 12.618L18.5874 14.9265L16 14Z" clip-rule="evenodd"/><path stroke="#2B77B8" d="M15.6961 12.0345 13.6115 16.3946M15.3681 11.4795H11.3681M16.1215 12.8376 20.0305 14.6417M16.9667 11.8737 19.7963 8.77649"/></g></g><defs><clipPath id="ETH_svg__a"><path fill="#fff" d="M0 0H32V24H0z"/></clipPath></defs></svg>