<svg xmlns="http://www.w3.org/2000/svg" fill="none" viewBox="0 0 32 24"><g clip-path="url(#GGY_svg__a)"><path fill="#fff" d="M0 0H32V24H0z"/><path fill="#F7FCFF" fill-rule="evenodd" d="M0 0V24H32V0H0Z" clip-rule="evenodd"/><mask id="GGY_svg__b" width="32" height="24" x="0" y="0" maskUnits="userSpaceOnUse" style="mask-type:luminance"><path fill="#fff" fill-rule="evenodd" d="M0 0V24H32V0H0Z" clip-rule="evenodd"/></mask><g fill-rule="evenodd" clip-rule="evenodd" mask="url(#GGY_svg__b)"><path fill="#E31D1C" d="M12 0H20V8H32V16H20V24H12V16H0V8H12V0Z"/><path fill="#FECA00" d="M13.0055 3.04596L14 4.80017V10H6.86521V9.94285L5.10596 8.94549V14.9057L6.77061 14H14V19.051L13.0055 20.8052H18.9657L18.0085 19.046H18V14H25.2006L26.8652 14.9057V8.94549L25.106 9.94285V10H18V4.80522H18.0085L18.9657 3.04596H13.0055Z"/></g></g><defs><clipPath id="GGY_svg__a"><path fill="#fff" d="M0 0H32V24H0z"/></clipPath></defs></svg>