<svg xmlns="http://www.w3.org/2000/svg" fill="none" viewBox="0 0 32 24"><g clip-path="url(#GIB_svg__a)"><path fill="#fff" d="M0 0H32V24H0z"/><path fill="#F7FCFF" d="M0 0H32V24H0z"/><path fill="#C51918" fill-rule="evenodd" d="M0 16H32V24H0V16Z" clip-rule="evenodd"/><path fill="#DB000B" fill-rule="evenodd" d="M17.3889 5H13.6111V9.61538H12.6667V6.84615H8.88889V9.61538H7V10.5385H7.94444V15.1538H7V16.0769H24V15.1538H23.0556V10.5385H24V9.61538H22.1111V6.84615H18.3333V9.61538H17.3889V5Z" clip-rule="evenodd"/><path fill="#272727" d="M9.83337 8.5894C9.83337 8.13643 10.2006 7.76923 10.6535 7.76923 11.1065 7.76923 11.4737 8.13643 11.4737 8.5894V9.8H9.83337V8.5894zM19.2778 8.5894C19.2778 8.13643 19.645 7.76923 20.098 7.76923 20.551 7.76923 20.9182 8.13643 20.9182 8.5894V9.8H19.2778V8.5894z"/><path fill="#272727" fill-rule="evenodd" d="M9.56738 13.4707C9.56738 12.8709 10.0537 12.3846 10.6535 12.3846C11.2533 12.3846 11.7396 12.8709 11.7396 13.4707V15.3385H9.56738V13.4707Z" clip-rule="evenodd"/><path fill="#272727" d="M19.0118 13.4707C19.0118 12.8709 19.4981 12.3846 20.098 12.3846C20.6978 12.3846 21.1841 12.8709 21.1841 13.4707V15.3385H19.0118V13.4707Z"/><path fill="#272727" fill-rule="evenodd" d="M13.8945 13.6396C13.8945 12.8709 14.5177 12.2477 15.2863 12.2477C16.055 12.2477 16.6782 12.8709 16.6782 13.6396V16.3093H13.8945V13.6396Z" clip-rule="evenodd"/><path fill="#272727" d="M14.5555 7.66634C14.5555 7.21336 14.9227 6.84616 15.3757 6.84616C15.8287 6.84616 16.1959 7.21337 16.1959 7.66634V9.80001H14.5555V7.66634Z"/><path fill="#DE1A23" d="M7 8.692H7.944V9.615H7z"/><path fill="#DE1A23" fill-rule="evenodd" d="M8.5 6H9.5V7H8.5V6zM12.3181 6H13.3181V7H12.3181V6zM11.75 6H10.25V7H11.75V6zM18.0907 6H19.0907V7H18.0907V6zM21.8182 6H22.8182V7H21.8182V6zM21.2042 6H19.7042V7H21.2042V6zM13.7998 4.02277H12.7998V5.02277H13.7998V4.02277zM15.2998 4.02277H14.2998V5.02277H15.2998V4.02277zM15.7998 4.02277H16.7998V5.02277H15.7998V4.02277zM18.2998 4.02277H17.2998V5.02277H18.2998V4.02277z" clip-rule="evenodd"/><path fill="#DE1A23" d="M22.999 8.775H23.999V9.614H22.999z"/><path fill="#E8AA00" fill-rule="evenodd" d="M15.4395 18.4533 18.1523 16.6794 15.258 15.3259 12.3636 16.9895 15.4395 18.4533zM14.3803 16.8417 15.2678 16.247 16.2054 16.7577 15.3622 17.309 14.3803 16.8417zM13.4756 21.0067H14.9493V22.1138 21.7401H14.0335V22.1138H13.4756V21.0067z" clip-rule="evenodd"/><path fill="#E8AA00" fill-rule="evenodd" d="M14.8157 18.1137H16.0665V22.1137H14.8157V18.1137Z" clip-rule="evenodd"/></g><defs><clipPath id="GIB_svg__a"><path fill="#fff" d="M0 0H32V24H0z"/></clipPath></defs></svg>