<svg xmlns="http://www.w3.org/2000/svg" fill="none" viewBox="0 0 32 24"><g clip-path="url(#IM_svg__a)"><path fill="#fff" d="M0 0H32V24H0z"/><path fill="#E31D1C" fill-rule="evenodd" d="M0 0V24H32V0H0Z" clip-rule="evenodd"/><mask id="IM_svg__b" width="32" height="24" x="0" y="0" maskUnits="userSpaceOnUse" style="mask-type:luminance"><path fill="#fff" fill-rule="evenodd" d="M0 0V24H32V0H0Z" clip-rule="evenodd"/></mask><g mask="url(#IM_svg__b)"><path fill="#F7FCFF" fill-rule="evenodd" d="M6.09352 4.14098C6.08583 4.04846 6.19654 4.0036 6.25916 4.07214C6.70829 4.5638 7.89534 5.78777 8.58182 5.78777C9.44083 5.78777 12.8144 2.94513 13.8116 3.4082C14.8087 3.87127 16.8276 8.71291 16.8276 8.71291L15.512 10.3632L13.8116 9.43555L13.4902 5.78777C13.4902 5.78777 10.2171 7.47125 8.58182 6.86019L7.66254 7.63265C7.66254 7.63265 6.77725 5.87965 6.42864 5.34347C6.19797 4.98871 6.11992 4.45889 6.09352 4.14098Z" clip-rule="evenodd"/><path fill="#FECA00" fill-rule="evenodd" d="M8.26189 8.1244 7.70209 8.46356 7.80901 7.7452 7.35612 7.23645 7.98199 7.13165 8.26189 6.47806 8.54179 7.13165 9.16766 7.23645 8.71477 7.7452 8.82169 8.46356 8.26189 8.1244zM13.0126 3.79199C13.0126 3.59167 13.175 3.42928 13.3753 3.42928 13.5757 3.42928 13.7381 3.59167 13.7381 3.79199V5.50559C13.7381 5.70591 13.5757 5.8683 13.3753 5.8683 13.175 5.8683 13.0126 5.70591 13.0126 5.50559L13.0126 3.79199z" clip-rule="evenodd"/><path fill="#F7FCFF" fill-rule="evenodd" d="M25.2202 5.10342C25.3027 5.14594 25.2821 5.2636 25.1908 5.28038C24.5358 5.40072 22.8688 5.75879 22.505 6.34096C22.0498 7.06944 22.6728 11.4368 21.7517 12.037C20.8306 12.6373 15.6548 11.7837 15.6548 11.7837L14.9524 9.79349L16.6402 8.84302L19.904 10.5035C19.904 10.5035 20.2108 6.83568 21.5956 5.77267L21.4276 4.58373C21.4276 4.58373 23.3834 4.76191 24.0228 4.7504C24.4459 4.74278 24.9366 4.95735 25.2202 5.10342Z" clip-rule="evenodd"/><path fill="#FECA00" fill-rule="evenodd" d="M20.693 4.83142 20.702 4.17696 21.2546 4.6483 21.926 4.53383 21.6832 5.12014 22.0892 5.70385 21.3866 5.59487 20.966 6.0701 20.7746 5.41644 20.1087 5.12643 20.693 4.83142zM21.9142 11.2048C22.0938 11.3162 22.1527 11.55 22.0474 11.7332 21.9343 11.9297 21.6785 11.9896 21.49 11.8637L19.9414 10.8294C19.8025 10.7366 19.7455 10.5605 19.8038 10.4039 19.8832 10.1905 20.1382 10.1033 20.3317 10.2233L21.9142 11.2048z" clip-rule="evenodd"/><path fill="#F7FCFF" fill-rule="evenodd" d="M14.8625 20.9836C14.7844 21.0339 14.6928 20.9572 14.724 20.8697C14.9472 20.2423 15.4706 18.6196 15.1484 18.0135C14.7451 17.255 10.6514 15.6109 10.5921 14.513C10.5328 13.4152 13.8599 9.3596 13.8599 9.3596L15.9347 9.74648L15.9139 11.6834L12.844 13.6796C12.844 13.6796 15.867 15.7792 16.0952 17.51L17.2089 17.959C17.2089 17.959 16.0767 19.5637 15.7669 20.1232C15.562 20.4934 15.1308 20.8111 14.8625 20.9836Z" clip-rule="evenodd"/><path fill="#FECA00" fill-rule="evenodd" d="M17.3617 17.199 17.924 17.534 17.2395 17.7769 17.0029 18.4156 16.6165 17.9122 15.908 17.9719 16.3537 17.4179 16.1524 16.8161 16.8143 16.9771 17.3983 16.5455 17.3617 17.199zM11.1034 14.9572C10.8803 15.0423 10.6322 14.9178 10.5673 14.688 10.5103 14.4866 10.6157 14.2748 10.8107 14.1988L12.479 13.5477C12.6643 13.4754 12.8749 13.5455 12.98 13.7145 13.1171 13.935 13.0191 14.226 12.7765 14.3186L11.1034 14.9572z" clip-rule="evenodd"/><path fill="#FECA00" d="M13.6626 9.76494C13.5381 9.72145 13.4716 9.58284 13.5141 9.45535C13.5565 9.32786 13.7559 9.1149 13.8804 9.15839L15.6162 9.76494C15.7057 9.79623 15.7687 9.87888 15.7766 9.97548L15.9318 11.8793C15.9427 12.0136 15.7472 12.1222 15.6162 12.1334C15.4851 12.1446 15.37 12.0448 15.3591 11.9106L15.2154 10.2734L13.6626 9.76494Z"/><path fill="#FECA00" d="M16.6806 8.76755C16.7843 8.68479 16.9696 8.78071 17.0504 8.88699C17.1312 8.99328 17.1125 9.14652 17.0088 9.22928L15.8064 10.4617C15.7026 10.5445 15.4693 10.383 15.3885 10.2767C15.3077 10.1705 15.2847 9.88094 15.3885 9.79818L16.6806 8.76755Z"/></g></g><defs><clipPath id="IM_svg__a"><path fill="#fff" d="M0 0H32V24H0z"/></clipPath></defs></svg>