<svg xmlns="http://www.w3.org/2000/svg" fill="none" viewBox="0 0 32 24"><g clip-path="url(#KN_svg__a)"><path fill="#fff" d="M0 0H32V24H0z"/><path fill="#C51918" fill-rule="evenodd" d="M0 0V24H32V0H0Z" clip-rule="evenodd"/><path fill="#5EAA22" fill-rule="evenodd" d="M0 0V24L32 0H0Z" clip-rule="evenodd"/><path fill="#272727" stroke="#FFD018" stroke-width="2.5" d="M0.635865 27.9521L1.35923 28.759L2.2606 28.1574L38.5215 3.95392L39.7207 3.15348L38.7584 2.07989L33.4376 -3.85576L32.7142 -4.66272L31.8128 -4.06107L-4.44811 20.1424L-5.64731 20.9428L-4.68493 22.0164L0.635865 27.9521Z"/><path fill="#F7FCFF" fill-rule="evenodd" d="M12.0886 16.9183 11 18.813 10.3048 16.6786 8.14267 15.9914 9.94432 14.8907 9.72724 12.6583 11.5054 14.0254 13.3471 13.0045 12.8306 15.2785 14.3083 16.9791 12.0886 16.9183zM22.0886 10.3651 21 12.2598 20.3048 10.1255 18.1427 9.43821 19.9443 8.33757 19.7272 6.10515 21.5054 7.47225 23.3471 6.45135 22.8306 8.72536 24.3083 10.426 22.0886 10.3651z" clip-rule="evenodd"/></g><defs><clipPath id="KN_svg__a"><path fill="#fff" d="M0 0H32V24H0z"/></clipPath></defs></svg>