<svg xmlns="http://www.w3.org/2000/svg" fill="none" viewBox="0 0 32 24"><g clip-path="url(#MKD_svg__a)"><path fill="#fff" d="M0 0H32V24H0z"/><path fill="#F50100" fill-rule="evenodd" d="M0 0V24H32V0H0Z" clip-rule="evenodd"/><mask id="MKD_svg__b" width="32" height="24" x="0" y="0" maskUnits="userSpaceOnUse" style="mask-type:luminance"><path fill="#fff" fill-rule="evenodd" d="M0 0V24H32V0H0Z" clip-rule="evenodd"/></mask><g fill="#FFD018" mask="url(#MKD_svg__b)"><path fill-rule="evenodd" d="M0 -0.0419617V4.04196L14 9.99321L3.25523 -0.0419617H0ZM16 12L19 -1.50874e-06H13L16 12ZM16 12L13 24H19L16 12ZM0 19.9512V24.0352H3.25523L14 14L0 19.9512ZM32 4.06634V-0.0175849L28.7448 -0.017585L18 10.0176L32 4.06634ZM32 24.0595V19.9756L18 14.0244L28.7448 24.0595H32ZM32 9L20 12L32 15V9ZM12 12L0 9V15L12 12Z" clip-rule="evenodd"/><path stroke="#F50100" stroke-width="2" d="M16 17C18.7614 17 21 14.7614 21 12C21 9.23858 18.7614 7 16 7C13.2386 7 11 9.23858 11 12C11 14.7614 13.2386 17 16 17Z"/></g></g><defs><clipPath id="MKD_svg__a"><path fill="#fff" d="M0 0H32V24H0z"/></clipPath></defs></svg>