<svg xmlns="http://www.w3.org/2000/svg" fill="none" viewBox="0 0 32 24"><g clip-path="url(#MRT_svg__a)"><path fill="#fff" d="M0 0H32V24H0z"/><path fill="#1C7B4D" fill-rule="evenodd" d="M0 0V24H32V0H0Z" clip-rule="evenodd"/><mask id="MRT_svg__b" width="32" height="24" x="0" y="0" maskUnits="userSpaceOnUse" style="mask-type:luminance"><path fill="#fff" fill-rule="evenodd" d="M0 0V24H32V0H0Z" clip-rule="evenodd"/></mask><g fill-rule="evenodd" clip-rule="evenodd" mask="url(#MRT_svg__b)"><path fill="#E31D1C" d="M0 0V6H32V0H0zM0 18V24H32V18H0z"/><path fill="#FECA00" d="M16.242 14.3785C21.4272 14.4073 22.8876 10.0651 22.8876 10.0651C22.5939 13.7799 20.5393 16.2991 16.242 16.2991C11.9447 16.2991 10.3667 13.0359 9.59631 9.78075C9.59631 9.78075 11.0567 14.3498 16.242 14.3785Z"/><path fill="#FECA00" d="M17.6371 9.81367L17.9739 11.7772L16.2105 10.8501L14.4472 11.7772L14.784 9.81367L13.3574 8.27986L15.3289 8.27986L16.2105 6.35014L17.0922 8.27986L19.0637 8.27986L17.6371 9.81367Z"/></g></g><defs><clipPath id="MRT_svg__a"><path fill="#fff" d="M0 0H32V24H0z"/></clipPath></defs></svg>