<svg xmlns="http://www.w3.org/2000/svg" fill="none" viewBox="0 0 32 24"><g clip-path="url(#PRI_svg__a)"><path fill="#fff" d="M0 0H32V24H0z"/><path fill="#EF0000" fill-rule="evenodd" d="M0 0V24H32V0H0Z" clip-rule="evenodd"/><mask id="PRI_svg__b" width="32" height="24" x="0" y="0" maskUnits="userSpaceOnUse" style="mask-type:luminance"><path fill="#fff" fill-rule="evenodd" d="M0 0V24H32V0H0Z" clip-rule="evenodd"/></mask><g mask="url(#PRI_svg__b)"><path fill="#EF0000" stroke="#F7FCFF" stroke-width="4" d="M0 8H-2V10V14V16H0H32H34V14V10V8H32H0Z"/></g><path fill="#3D58DB" fill-rule="evenodd" d="M0 0V24L18 12L0 0Z" clip-rule="evenodd"/><mask id="PRI_svg__c" width="18" height="24" x="0" y="0" maskUnits="userSpaceOnUse" style="mask-type:luminance"><path fill="#fff" fill-rule="evenodd" d="M0 0V24L18 12L0 0Z" clip-rule="evenodd"/></mask><g mask="url(#PRI_svg__c)"><path fill="#F7FCFF" fill-rule="evenodd" d="M6.68777 14.2169L3.01584 16.1549L4.8035 12.2609L2.52551 10.1808L5.338 10.077L6.68777 6.5563L7.71781 10.077H10.5255L8.65412 12.2609L10.1427 16.1549L6.68777 14.2169Z" clip-rule="evenodd"/></g></g><defs><clipPath id="PRI_svg__a"><path fill="#fff" d="M0 0H32V24H0z"/></clipPath></defs></svg>