<svg xmlns="http://www.w3.org/2000/svg" fill="none" viewBox="0 0 32 24"><g clip-path="url(#SLV_svg__a)"><path fill="#fff" d="M0 0H32V24H0z"/><path fill="#F7FCFF" fill-rule="evenodd" d="M0 0V24H32V0H0Z" clip-rule="evenodd"/><mask id="SLV_svg__b" width="32" height="24" x="0" y="0" maskUnits="userSpaceOnUse" style="mask-type:luminance"><path fill="#fff" fill-rule="evenodd" d="M0 0V24H32V0H0Z" clip-rule="evenodd"/></mask><g mask="url(#SLV_svg__b)"><path fill="#3D58DB" fill-rule="evenodd" d="M0 0V8H32V0H0zM0 16V24H32V16H0z" clip-rule="evenodd"/><path stroke="#E8AA00" d="M19.4254 11.8582C19.4254 13.8695 17.7949 15.5 15.7836 15.5C13.7723 15.5 12.1418 13.8695 12.1418 11.8582C12.1418 9.84685 13.7723 8.21637 15.7836 8.21637C17.7949 8.21637 19.4254 9.84685 19.4254 11.8582Z"/><path fill="#1E601B" fill-rule="evenodd" d="M13.8107 9.66223C13.8107 9.66223 12.8582 11.2299 12.8582 12.3061C12.8582 13.3823 13.9983 14.735 15.7922 14.735C17.542 14.735 18.7997 13.6898 18.8377 12.3061C18.8758 10.9224 17.8964 9.93741 17.8964 9.93741C17.8964 9.93741 18.4507 11.9295 18.1736 12.7367C17.8964 13.544 16.9994 14.5206 15.7922 14.3963C14.585 14.272 13.4394 12.7861 13.4394 12.3061C13.4394 11.8261 13.8107 9.66223 13.8107 9.66223Z" clip-rule="evenodd"/><path stroke="#188396" d="M14.1605 12.3283H17.3678"/><path stroke="#E8AA00" d="M14.459 11.8059H17.2185M17.0496 12.4112H14.5934L15.8327 10.3548 17.0496 12.4112z"/></g></g><defs><clipPath id="SLV_svg__a"><path fill="#fff" d="M0 0H32V24H0z"/></clipPath></defs></svg>