<svg xmlns="http://www.w3.org/2000/svg" fill="none" viewBox="0 0 32 24"><g clip-path="url(#TKL_svg__a)"><path fill="#fff" d="M0 0H32V24H0z"/><path fill="#2E42A5" fill-rule="evenodd" d="M0 0V24H32V0H0Z" clip-rule="evenodd"/><mask id="TKL_svg__b" width="32" height="24" x="0" y="0" maskUnits="userSpaceOnUse" style="mask-type:luminance"><path fill="#fff" fill-rule="evenodd" d="M0 0V24H32V0H0Z" clip-rule="evenodd"/></mask><g fill-rule="evenodd" clip-rule="evenodd" mask="url(#TKL_svg__b)"><path fill="#F7FCFF" d="M3.29448 10.0634 2.40892 10.6114 2.75272 9.69146 2 8.99504H2.913L3.29448 8 3.58559 8.99504H4.5L3.84101 9.69146 4.16365 10.6114 3.29448 10.0634zM7.29448 6.06339 6.40892 6.61135 6.75272 5.69146 6 4.99504H6.913L7.29448 4 7.58559 4.99504H8.5L7.84101 5.69146 8.16365 6.61135 7.29448 6.06339zM11.2945 10.0634 10.4089 10.6114 10.7527 9.69146 10 8.99504H10.913L11.2945 8 11.5856 8.99504H12.5L11.841 9.69146 12.1637 10.6114 11.2945 10.0634zM7.29448 14.0634 6.40892 14.6114 6.75272 13.6915 6 12.995H6.913L7.29448 12 7.58559 12.995H8.5L7.84101 13.6915 8.16365 14.6114 7.29448 14.0634z"/><path fill="#FECA00" d="M24.842 5.46307C20.7585 7.48024 7.34123 16.5452 7.34123 16.5452H29.6924C29.4691 16.4953 29.2609 16.4538 29.0645 16.4147C27.4238 16.088 26.6138 15.9267 24.842 12.397C22.8581 8.44495 24.842 5.46307 24.842 5.46307ZM6.61569 17.9651L6.31006 18.725L6.61569 19.56L29.3694 20L30 18.8403L29.3694 18.0053L6.61569 17.9651Z"/></g></g><defs><clipPath id="TKL_svg__a"><path fill="#fff" d="M0 0H32V24H0z"/></clipPath></defs></svg>