<svg xmlns="http://www.w3.org/2000/svg" fill="none" viewBox="0 0 32 24"><g clip-path="url(#TL_svg__a)"><path fill="#fff" d="M0 0H32V24H0z"/><path fill="#E31D1C" stroke="#F7FCFF" stroke-width="2" d="M0 -1H-1V0V24V25H0H32H33V24V0V-1H32H0Z"/><path fill="#FECA00" fill-rule="evenodd" d="M0 0L24 12L0 24V0Z" clip-rule="evenodd"/><path fill="#272727" fill-rule="evenodd" d="M0 0L16 12L0 24V0Z" clip-rule="evenodd"/><path fill="#F7FCFF" fill-rule="evenodd" d="M6.64792 14.4086L4.6284 16.5086L4.41743 13.5232L1.84197 11.9366L4.52784 11.0938L4.96709 8.13567L6.82657 10.4779L9.5386 9.75122L8.13685 12.5266L9.49997 15.2033L6.64792 14.4086Z" clip-rule="evenodd"/></g><defs><clipPath id="TL_svg__a"><path fill="#fff" d="M0 0H32V24H0z"/></clipPath></defs></svg>